<svg xmlns="http://www.w3.org/2000/svg" xmlns:xlink="http://www.w3.org/1999/xlink" width="60.017" height="80.702"><style>.J{fill:#fff}.K{fill:none}.L{stroke:#fff}.M{stroke-linejoin:round}.N{stroke-width:.694}.O{fill:#231f20}.P{fill:#ed1a3b}.Q{fill:#fff200}</style><path fill="#00ac5b" d="M31.078 72.17c15.227 0 27.572-12.345 27.572-27.573S46.305 17.024 31.078 17.024 3.505 29.369 3.505 44.598 15.849 72.17 31.078 72.17"/><path fill="#21409a" d="m12.821 72.091-5.865-5.506c-.123-.137-.331-.395-.324-.628.096-.479.827-.921 1.894-1.292s2.207-.449 3.112-.527c.465-.021 1.812-.208 1.758.655s-1.784 1.215-2.661 1.325-1.687-.252-1.916-.327c.37 1.22 1.761 1.325 2.101 1.374.096.123-.059.225-.059.225l-.275.212c.314.397 1.668.33 1.668.33-.097.261-.137.232-.261.3.232.246.944.233 1.481.105 1.205-.218 2.87-1.199 3.344-2.805s-.452-3.04-2.352-3.626-6.252.397-6.252.397-4.295.897-5.993 1.843c-.371.206-1.939 1.37-2.103 2.703s.88 2.159 1.354 2.597l6.108 5.399c.457.639-.038 1.159-.038 1.159l-1.278 1.18c-.28.201-.779.712-1.728.712s-1.606-1.048-1.368-1.432 1.24-.801 1.55-.874.732-.031 1.07-.021l-1.782-1.617c-1.109.335-2.855 1.268-3.622 2.107s-.148 1.647-.148 1.647l2.693 2.427c.659.533 1.192.802 2.437.308 1.316-.525 4.982-2.898 5.896-3.556s1.859-1.591 2.134-2.76-.574-2.034-.574-2.034m30.298 1.043c-.292.877-1.204 2.199-1.683 2.52s-.641.479-.969.315-.511-.626-.309-1.228.794-1.515 1.25-1.99.924-.896 1.437-.666c0 0 .565.171.272 1.049m-16.617-.542-1.275 2.829c-.383.841-1.32 1.507-1.886 1.233s-.287-1.285.414-2.276c.74-1.048 2.328-1.825 2.328-1.825.494-.271.419.039.419.039m26.521-1.757-.291.088.445-1.131h-.284s.407-.766.589-1.424-.069-1.376-.184-1.526c-.804 1.809-3.545 5.874-3.545 5.874l.408-2.198c.038-.179.031-.551-.096-.606s-.389.19-.389.19l-2.153 2.45.895-2.083c.145-.327.118-.424.115-.534l-1.192-1.766-2.21 4.748.055-.825c-.018-1.097-.591-1.53-.956-1.657s-.913.002-.913.002c-.273-.364-.853-.643-1.714-.518-1.954.403-3.188 2.95-3.532 3.57s-1.26 1.151-1.26 1.151l3.893-8.699h-1.087a.325.325 0 0 1-.324-.325.3.3 0 0 1 .005-.056l.05-.287-1.485.074-3.764 8.136c-.449.823-1.529 1.521-1.529 1.521l4.066-9.125-.235.096c-.671.239-1.832.17-2.216.053a1.7 1.7 0 0 1-.528-.239l-3.58 7.843c-.444.917-.52.883-1.024 1.394s-.967.624-.967.624l2.258-5.072c.219-.575-.399-.619-.399-.619l-2.262.116-.162.362c-.534-.245-1.356-.341-2.465.025-1.371.493-2.262 1.634-2.747 2.037L24 69.191l.6-1.52c.086-.313-.04-.614-.114-.845s-.237-.226-.334-.083l-1.686 2.265-3.123 3.983s.402-2.356.219-2.512c-.267-.227-.564.13-.564.13l-2.094 2.418 1.001-2.993-2.434-1.41-1.133 3.741-1.738 6.064c-.125.55.149 1.1.471 1.2 1.442.257 2.875-2.402 2.875-2.402s-.371 2.12.559 2.266 2.503-2.052 2.503-2.052l1.541-2.131c-.438 1.444-.153 3.401.943 3.803s2.313-.456 3.159-.997c.093.62.391.921.822 1.032 1.151.219 2.17-.888 2.776-1.397 0 0-.178 1.286 1.08 1.246 1.296-.041 2.649-1.406 3.364-2.043-.548 1.498.238 1.772.645 1.808 1.699.146 3.778-1.864 4.231-2.264.227 1.104.585 1.717 1.644 2.046 2.247.456 4.31-2.394 5.022-3.453 0 0-1.204 2.94-.187 3.309.963.348 1.939-1.087 2.801-2.305 0 0-.494 1.827.23 1.973.983.197 2.695-2.041 3.668-3.342.969-1.388 2.275-3.891 2.275-3.891m6.022-1.598c-.394-.716-2.025-.94-3.815.027s-2.096 2.258-2.096 2.258c-.195 1.308.845 1.865 1.562 2.357s.274.919-.038 1.085c-2.191 1.388-5.26 2.359-5.482 2.421s-.131.165-.131.165c3.051.237 6.108-.67 6.108-.67s1.847-.62 2.613-1.607-.001-1.991-.001-1.991l-1.997-1.587c-.492-.422-.268-.773-.051-1.032.42-.438 1.24-.728 1.569-.728s.523.21.342.558-.762.309-.909.382-.228.11.21.513.653.524 1.274.424c.986-.411 1.314-1.708.841-2.575"/><g class="P"><use xlink:href="#B"/><use xlink:href="#C"/><use xlink:href="#D"/><use xlink:href="#E"/><use xlink:href="#F"/><use xlink:href="#G"/><use xlink:href="#H"/><use xlink:href="#I"/><use xlink:href="#J"/><use xlink:href="#K"/><use xlink:href="#L"/></g><use xlink:href="#B" class="J"/><use xlink:href="#B" class="K L M N"/><use xlink:href="#C" class="J"/><path d="M44.358 65.003c-.168.095-.249.218-.488.218s-.368-.079-.352-.193c0 0 .076-.318.459-.365s.507.033.507.033.042.212-.126.307zm1.62-1.293c-.09-.513-1.012-.608-2.128-.518s-1.29.626-1.29.626v.114h1.173c.09-.181.42-.293.748-.252s.173.426.037.514-.777-.021-1.141.033-.672.21-1.007.381-.483.969.331 1.09 1.215-.048 1.794-.327v.3h1.184s.39-1.449.299-1.961z" class="K L M N"/><use xlink:href="#D" class="J"/><use xlink:href="#D" class="K L M N"/><use xlink:href="#E" class="J"/><use xlink:href="#E" class="K L M N"/><use xlink:href="#F" class="J"/><use xlink:href="#F" class="K L M N"/><use xlink:href="#G" class="J"/><use xlink:href="#G" class="K L M N"/><use xlink:href="#H" class="J"/><path d="m57.818 62.593 1.472-.409-.193.862s-.066.202.145.224.43 0 .43 0l-.136.63h-.654l-.176.856s.027.306.327.316h.299l-.123.557s-.234.131-.87.114-1.152-.1-1.073-.537l.2-1.279h-.368l.122-.639.276-.025s.182-.059.215-.179l.108-.491z" class="K L M N"/><use xlink:href="#I" class="J"/><path d="M23.772 64.513c-.182.665-.451.704-.681.685s-.342-.353-.232-.755.29-.594.603-.61c0 0 .49.017.31.68zm1.126-.982c-.271-.241-.982-.272-1.375-.284a4.3 4.3 0 0 0-1.046.138c-.311.091-.965.391-1.076 1.236s.393.997.725 1.097 1.419.164 2.013-.048.928-.574 1.07-1.168a.87.87 0 0 0-.31-.971z" class="K L M N"/><use xlink:href="#J" class="J"/><path d="M35.926 64.513c-.181.665-.449.704-.681.685s-.343-.353-.231-.755.29-.594.603-.61c0 0 .489.017.309.68zm1.126-.982c-.272-.241-.982-.272-1.374-.284a4.3 4.3 0 0 0-1.045.138c-.313.091-.966.391-1.076 1.236s.391.997.723 1.097 1.42.164 2.013-.048.929-.574 1.07-1.168c.138-.569-.155-.847-.31-.971z" class="K L M N"/><use xlink:href="#K" class="J"/><use xlink:href="#K" class="K L M N"/><use xlink:href="#L" class="J"/><use xlink:href="#L" class="K L M N"/><g class="P"><use xlink:href="#B"/><use xlink:href="#C"/><use xlink:href="#D"/><use xlink:href="#E"/><use xlink:href="#F"/><use xlink:href="#G"/><use xlink:href="#H"/><use xlink:href="#I"/><use xlink:href="#J"/><use xlink:href="#K"/><use xlink:href="#L"/></g><path d="M57.128 47.311c-2.981.117-4.487.417-7.514 1.777-2.819 1.267-5.558 3.493-5.658 3.666 3.268-4.968 6.954-7.771 7.466-8.094.217-.171.139-.21-.049-.191-3.129.757-5.593 2.497-7.017 3.569s-3.508 3.238-3.807 3.659-.508.681-.595 1.156.316 1.493.42 1.88.257 1.671.222 1.983c0 0-.896-3.035-1.107-3.071s-.345.301-.42.438c-.843 1.523-1.567 2.026-1.567 2.026 2.239-3.319 3.326-7.841 3.457-8.37s.837-.874.837-.874 1.16-.661 2.32-1.821 1.793-2.537 2.214-3.873 1.686-3.733 1.962-5.448c.656-4.078-1.723-7.219-2.402-7.993s-2.756-3.113-6.342-3.793-6.661 1.795-6.907 1.957-.616.092-1.042-.059c-.914-.305-2.574-.95-4.542-.668s-2.748 1.788-2.606 3.148 1.604 2.468 1.803 2.655.025.327.025.327l-.766.64s-.42.016-.489.181.003.322.182.445.204.114.204.114c-.609.047-.925.33-1.276.729-1.289 1.618-1.903 3.083-2.05 3.263s-.255.022-.255.022-.415-.438-.544-.643-.269-.04-.269-.04l-.639.227c2.25-1.571 2.234-3.378 2.248-4.382s-1.039-1.773-1.255-1.88-.243-.323-.267-.577c-.105-1.617-1.53-2.997-1.53-2.997 3.218-9.316 5.843-12.627 6.791-14.174s3.327-4.459 3.187-7.377-1.45-3.558-2.478-4.196c-3.421-1.675-6.192.228-7.69 1.755-3.429 3.496-4.272 6.66-4.992 9.336-1.426 4.636-1.187 13.529-1.187 13.529-1.743.958-2.352 2.373-2.469 2.724s-.209.922-.201 1.022.004.353-.021.477c-.304.539-.815 1.774-.931 2.617a7.5 7.5 0 0 0 .295 2.908c.259.732.738 1.685.809 2.083s.226.623.718 1.28 1.337.896 1.497.967.156.727.12.967-.234.186-.352.197c-.608.024-1.859.32-2.632 1.374s-.518 2.083-.589 2.411-.438.915-.531 1.29-.037.955.022 1.195.601.931.646 1.125c.022.352-.282.21-.236 1.405s.963 1.915 1.22 2.009.496.296.536.452-.016.468.124 1.03.922 1.105.922 1.105.708.225.357.506-.989.72-1.177.931-1.05 1.439-.159 2.54 3.602 1.051 5.595.441 2.19-1.632 2.073-2.195-.681-.995-.951-1.266-.285-.468-.325-.674c-.072-.164-.132-.56.11-.56.797-.234 2.278-1.165 2.569-1.359s.517-.211.547.064c.344 2.303 1.397 4.487 2.076 5.775a13 13 0 0 0 .315.561h21.676l.271-.34c6.391-8.159 12.171-10.791 12.681-10.905.315-.123-.52-.08-.68-.118" class="O"/><path fill="#1d174f" d="M46.575 29.367c-1.431-2.671-4.428-4.22-5.388-4.595-.682-.266-1.475-.373-1.881-.413l-.051-.019-.95-.122a2.9 2.9 0 0 0-1.113.062l-.009.014c-.029.007-.052.011-.087.024 0 0-2.157.409-3.354 1.417a4 4 0 0 0-.638.636l2.395 1.562s.034.047 1.207.958c.88.683 1.475 1.525 1.718 1.903v.006l.017.021.106.173.038-.007c.452.578 1.025 1.747 1.401 2.645.423 1.007.645 2.33.552 2.799-.141-1.149-1.115-3.548-2.358-5.165s-3.633-3.575-5.882-4.653-4.149-1.198-5.298-1.058-2.42 1.493-2.152 2.901 1.47 2.119 1.47 2.119c.384.427.565.233.565.233s.372-.35 1.31-.725 1.148-.205 1.538.015.393 1.558.393 1.558-.016.556.117.559c.327-.047.52-1.562.52-1.562 1.782 0 3.044.995 3.598 1.318s.568.562.568.562-1.146.587-1.497.891.049.304.049.304 1.617-.429 2.272-.429 1.182.121 1.345.825-.161 2.124-.161 2.124-.24.722.042.722.784-1.313.784-1.313c.563.633.632 1.164.702 2.525s-.151 2.479-.151 2.479c.257-.07.465-.108.301.384s-.605 1.878-.726 2.785c-.235 2.157 1.151 2.772 2.388 2.774 2.577-.094 4.488-2.805 4.877-3.478s.663-2.007.709-2.27.096-.447.282-.901l1.139-2.61c1.008-3 .722-5.306-.707-7.978"/><path d="M11.899 27.151s.699-1.142 1.754-1.459 2.471-.339 3.284-.122 2.649.898 3.317 2.586.304 2.532-.4 3.306l-.578-.753s.929-.704.752-1.793-1.721-2.583-3.092-2.689c0 0-1.223-.125-1.369-.027s-.389.255-.74.325-.934-.308-2.928.626m6.221 3.385s1.186.538 1.468 1.71.04 1.724-.382 2.264l-.306-.571s.148-.179.216-.371.163-.873-.101-1.527-.581-1.118-.895-1.505m2.46 1.099.4-.923c.105-.187.242-.17.337-.136s.644.331.772 1.128-.103 2.112-.617 2.756c-.071.106-.163.021-.099-.12s.383-.831.371-1.674-.193-1.252-.533-1.264-.449.125-.632.233m-3.28 1.764s-.108-.099.056-.076 1.173.536 1.35 1.556-.179 2.157-1.35 2.534c-.091.001-.108-.035-.114-.097s.005-.338.005-.338.04-.079.123-.099.769-.208.922-1.109-.066-1.687-.991-2.371m-1.524 2.72s.446-.059.717.399.37 1.574-.977 2.031c0 0 .753-.516.812-1.243s-.154-.806-.553-1.187" class="J"/><path d="M18.312 4.307S20.821.852 23.774.502c1.249-.119 3.924.132 4.954 2.687.272.724.646 1.656.013 3.601s-4.154 7.233-4.786 8.208c-1.218 1.872-3.706 7.294-5.112 10.881 0 0-2.023-1.332-4.858-.817 0 0-.445-5.977.603-11.511.437-2.02 1.085-5.47 3.725-9.245m-4.455 35.241s-.016-.131.144-.116 1.317-.166 1.722-.36.929-.519 1.123-.783c0 0 .168.06-.029.261s-.52.627-.642.91-.282.621-.457 1.287l-1.881-.26z" class="Q"/><path d="M27.827 30.622s.638-.426.935-.322.977.286.181 2.114l-1.389 3.336-.34-2.376c-.118-.263-.434-.975-.831-1.139 0 0 .44-.486.981-.767s.994-.203 1.057-.135.292.244.315.737c0 0 .175-.021.184-.238s.058-.995-.763-1.042c0 0-.644.117-.331-.168m-1.897 2.084s.54-.056.914 1.234.343 2.566.272 3.104l-2.241.358s-.507-.41-.492-.885.111-1.39.322-1.788.704-1.445 1.225-2.023m3.068 5.004s1.011-.413 1.369-.75 2.193-2.031 3.317-2.5 2.133-.445 2.368-.093.144.616-.124.502-.551-.4-1.371-.282-1.31.442-1.192.606c.308.042.816-.132 1.262-.108s1.023.26 1.166.963.136 2.213-.943 3.338c0 0 .701-1.823.397-2.573s-1.197-.685-1.601-.339-.914.893-.89 1.151c.032.085.783 1.127.783 1.127l-1.177-.253s-.16-.079-.395.408-.608 1.542-.516 1.993.163.617.626.844c0 0-.384.18-.708.167s-1.007-.098-1.054-.659 0-.658-.233-1.478-.44-1.23-1.085-2.064" class="J"/><path d="M23.398 35.132s.25-.3.413-.23.176.372.176.372l.022.352s-.041.686.002.984a2.9 2.9 0 0 0 .357.955l-2.204.739s.142-1.018.382-1.518.423-1.076.853-1.654m6.87 6.888s.677.311 1.075.271.78-.132 1.082-.263 1.697-1.053 1.873-1.159.945-.667 1.883-.387 1.238 1.168 1.33 1.706.094 1.761-.445 2.464-1.152 1.237-2.559 1.261c-.837.055-1.992-.504-1.992-.504l-4.282-1.761c.656-.117.943-.25 1.366-.555s.537-.621.669-1.073" class="P"/><path d="M27.713 37.58c.599.169 1.187.676 1.478 1.194s.999 2.302.602 3.263-.863 1.312-2.387 1.195c-1.023-.216-1.259-.333-1.657-.661l1.359-.282s.331.065.454.158.622.323.739.066-.287-.429-.287-.429-.286-.231-.343-.354-.071-.589-.071-.589-.276.237-.254.394.137.424-.336.46-3.191.352-4.877-.352-1.189-1.756-.299-2.53 2.95-1.311 3.325-1.404 1.562-.409 2.553-.129" class="Q"/><path d="M9.962 43.814s-.02-.45.121-.919.765-1.456 1.771-1.738 2.685-.08 2.685-.08l1.584.307s.418-1.541.628-1.869.883-1.287 1.819-1.287 1.464.942 1.486 1.246c0 0-.688-.718-1.392-.694a2.07 2.07 0 0 0-1.63 1.004c-.234.468-.516.827-.797 1.976-.901-.121-2.609-.431-3.875.015s-1.588.973-1.756 1.715zm.805.254s-1.178.377-1.365 1.642.589 1.605.589 1.605l.664-.608s-.527.038-.648-.274-.241-.882.04-1.351.743-.943.743-.943zm.538 2.92s-1.194.593-1.404 1.577.185 2.257 1.638 2.515c.377.027.664-.01.968-.034 0 0-.11-.1-.468-.205s-1.432-.729-1.55-1.595.227-1.671.814-2.116c0 0 .162-.085.003-.142m.448 4.666.666.029s-.221.449-.142.749.267.681.644.873.562.329 1.548.4c0 0 .171.149-.07.152s-1.12.08-1.945-.374c-.791-.436-.791-1.468-.7-1.829m8.769-11.047.283.927c.052.203.08.336.309.392s1.577.279 1.719.325 2.749.743 3.125 1.071c0 0-3.296-.788-4.256-.788-.525-.035-.999-.128-.999-.128s-.305.093-.31-.452l-.048-1.409.178.062zm14.663 5.839 1.734.166s.33.125.285.359-.343.314-.637.185l-1.358-.6zm-9.59-18.705s-.056-.401.154-.788.76-.812 1.709-.917 2.496.082 4.112.751 3.868 2.113 5.345 3.765 1.389 1.996 1.389 1.996-.088.397-.686-.166c-.79-1.078-1.729-2.295-3.753-3.435s-4.156-2.209-6.267-2.244c-.281.008-1.582.019-2.004 1.038m16.625 13.781s-.524.261-.829.589-.584.948-.584.948-.034.218.032.294.356.233.509-.001.433-1.026.961-1.426c0 0 .267-.213.22-.353s-.309-.051-.309-.051" class="J"/><path d="M43.376 43.297c-.281.586-.546.794-.94 1.177-.136.145-.73.491-1.105.304s-.3-.712-.252-.965.179-.216.278-.053c0 0 .184.315.442.386s.681-.248 1.056-.765.493-1.192.487-1.374-.494-.464-.494-.464c.037-.093.124-.188.275-.138s.323.118.446.293.206.58.083.931-.276.668-.276.668" class="O"/><path d="m39.924 42.102-.422 1.441s-.225 1.07-.175 1.371.228.736.736.929c0 0 .192.176-.175.194s-.759-.102-1.136-.788c0 0-.131-.95-.007-1.442s.473-1.776.649-2.109.298-.616.228-1.02l-.112-.542c.284.25.631.419.665.859s-.253 1.107-.253 1.107" class="J"/><path d="M38.753 45.249c-.143-.175-.197-.424-.268-.792s.116-1.243.186-1.632.549-1.559.649-1.844.191-.845.191-.845c.166.647.307.77.025 1.491-.335.843-.634 1.81-.722 2.46s-.062 1.162-.062 1.162" class="O"/><path d="M17.387 10.093s-.101-.554.432-1.794 1.488-3.302 2.858-4.744 2.961-2.025 3.488-1.638.368.933-.158 1.321-2.959 2.506-3.364 3.077l-2.689 4.089c-.141.083-.558.251-.566-.311M46.577 32.17s-.081 1.47-.435 2.665-.888 2.269-.888 2.269-.136.199-.126.41.258 1.511.258 1.511.166.297.361.026 1.294-1.783 1.435-3.858-.08-2.637-.36-3.376c0 0-.239-.315-.246.353" class="J"/><path d="M13.417 54.352s1.854.096 3.285-.326c0 0 .21.807.547 1.06s.845.767.867 1.165-.024.969-.89 1.327-2.007.815-4.021.675-1.886-1.672-1.768-2.024.672-.909.907-1.096.857-.46 1.073-.781" class="Q"/><path d="M12.771 57.164a1.5 1.5 0 0 1-.038-.472c.062-.29.472-.493 1.21-.643s1.862-.064 1.862-.064l.112-.087c-.82-.328-1.965-.366-2.763-.156s-1.013.636-1 .847a.63.63 0 0 0 .239.457.45.45 0 0 0 .377.118" class="O"/><path d="m40.662 25.769-.135-.153-.045-.007.447-.391-.931-.175-.957-.175-.24-.029-.225.196.067-.074-.284-.986H37.34l-1.574 1.488-.117.125-.635-.237-.779-.285.09.744.217 1.746 1.115.787.161.145.445.119.191.448.94.838 1.546.218.453.022.429-2.72.091.221.133.251 2.38.288z"/><path d="m41.374 27.517-1.068-1.456-.012-.015-.021-.005-.835-.131.42-.365.058-.05-.084-.015-.854-.156-.025-.006-.019.017-1.511 1.309-.694-.528 1.388-1.259.018-.016-.006-.02-.195-.675-.021-.077-.063.06-1.75 1.656-.011.011.001.015.023.478.002.019.019.012.963.606-.902.781-.567-.108.171-1.436.004-.028-.033-.013-.908-.339-.078-.028.009.067.242 1.953.005.027.03.008 1.533.412.487 1.142.009.023.031.004 1.829.258.05.006.005-.04.517-3.271.358.004.443 1.085.01.024.031.003.959.116.098.012-.052-.071zm-3.898 1.604-.49-1.076 1.653-1.44-.347 2.551zM23.707 58.674h10.334a20 20 0 0 0-.562-1.954c-.562-1.641-1.794-3.396-1.794-3.396l-.692-.977c.21-.093.33-.039.548.087a7.9 7.9 0 0 1 2.536 1.338s.813.704 1.053.6c.443-.422-.506-.992-.868-1.212-1.056-.599-3.228-1.389-6.708-1.81s-5.906.29-5.906.29c.023 3.047.797 4.5 1.298 5.682.142.333.429.825.762 1.352" class="J"/><path d="M23.216 58.776h21.57l.069-.102-10.761-.085H23.131z" class="O"/><g fill="#1d174f"><path d="M22.817 53.182c.267-.148.937-.288.937-.288s.68-.154.976-.061.442.314.368.565-.334.405-.522.439c-.083.02-.195.022-.231-.017.018-.01.025-.005.041-.046 0 0-.211.011-.261-.052l.043-.033s.023-.016.009-.035c-.054-.008-.272-.024-.328-.215.036.012.162.068.3.051s.406-.072.415-.207-.202-.106-.274-.103c-.142.013-.318.026-.486.083s-.281.127-.296.202c-.001.037.032.077.051.098s.917.86.917.86a.37.37 0 0 0 .089.318c-.043.184-.19.33-.333.432s-.716.474-.922.556c-.194.077-.278.035-.38-.049-.101-.078-.422-.379-.422-.379s-.096-.126.023-.257.394-.277.566-.33l.279.253c-.055-.002-.12-.008-.167.003s-.207.077-.244.137.065.224.214.224.225-.08.271-.111.199-.185.199-.185.076-.08.006-.181-.954-.844-.954-.844c-.074-.068-.238-.197-.212-.405s.271-.391.328-.423"/><path d="M30.799 53.604c-.127.282-.555.917-.555.917l.062-.343c.007-.028.006-.086-.014-.095s-.061.03-.061.03l-.336.383.14-.326c.023-.051.018-.067.018-.083l-.186-.276-.346.742.008-.13c-.003-.171-.092-.238-.147-.258s-.145 0-.145 0c-.043-.057-.132-.1-.267-.081-.305.063-.499.462-.552.558s-.197.18-.197.18l.661-1.476-.496.024-.589 1.271c-.071.129-.239.238-.239.238l.669-1.503-.479.019-.579 1.269c-.069.144-.082.138-.16.218s-.151.098-.151.098l.354-.793c.034-.09-.062-.096-.062-.096l-.354.018-.025.056c-.083-.039-.213-.053-.386.004-.214.078-.355.255-.429.318l.264-.516.095-.238c.013-.049-.007-.096-.018-.132s-.038-.036-.052-.013l-.266.354-.488.622s.064-.368.035-.393c-.042-.035-.089.021-.089.021l-.327.378.157-.468-.38-.22-.177.585-.272.947c-.018.087.023.172.074.187.225.041.448-.374.448-.374s-.058.331.089.353.39-.321.39-.321l.241-.331c-.069.225-.023.531.147.594s.361-.071.493-.156c.015.097.062.144.129.161.18.035.34-.138.434-.218 0 0-.027.201.169.195.203-.007.414-.22.525-.319-.085.234.038.276.101.281.265.024.59-.291.661-.353.036.173.092.269.258.32.35.071.673-.374.784-.54 0 0-.189.46-.03.517.151.055.305-.169.438-.36 0 0-.077.286.036.308.152.032.421-.319.572-.521a7 7 0 0 0 .355-.608l-.044.014.067-.178h-.043s.064-.119.093-.222-.012-.216-.028-.238m-4.189.898-.198.442c-.06.131-.206.236-.296.193s-.044-.201.065-.356c.116-.164.363-.285.363-.285.078-.043.065.006.065.006m2.599.085a1 1 0 0 1-.265.393c-.073.05-.099.075-.15.05s-.079-.098-.048-.192a1 1 0 0 1 .194-.311c.072-.074.145-.14.226-.104 0 0 .088.027.043.164m1.566-.253s.048-.201.327-.353.535-.115.597-.004c.074.136.023.338-.131.402-.097.016-.131-.003-.198-.066s-.057-.069-.034-.08.113-.005.142-.059-.003-.088-.054-.088-.179.046-.245.114c-.034.04-.068.095.008.161l.311.248s.121.157.001.312-.408.251-.408.251-.478.141-.955.105c0 0-.014-.017.02-.026a4.2 4.2 0 0 0 .858-.379c.048-.026.118-.093.006-.169s-.274-.165-.245-.369"/></g><defs><path id="B" d="M38.626 62.185h1.715l.534 1.309 1.053-1.313 1.492.003-2.153 2.404-.27 1.028H39.62l.176-1.013z"/><path id="C" d="M44.358 65.003c-.168.095-.249.218-.488.218s-.368-.079-.352-.193c0 0 .076-.318.459-.365s.507.033.507.033.042.212-.126.307m1.62-1.293c-.09-.513-1.012-.608-2.128-.518s-1.29.626-1.29.626v.114h1.173c.09-.181.42-.293.748-.252s.173.426.037.514-.777-.021-1.141.033-.672.21-1.007.381-.483.969.331 1.09 1.215-.048 1.794-.327v.3h1.184s.39-1.449.299-1.961"/><path id="D" d="m46.917 62.204 1.37-.002-.383 2.079 1.042-.984h1.547l-1.076.998.872 1.334H48.53l-.666-1.157-.313 1.184-1.362-.014z"/><path id="E" d="M26.12 62.178h1.369l-.382 2.104 1.041-.983h1.547l-1.076.998.872 1.34h-1.758l-.667-1.162-.311 1.162h-1.362l.728-3.458z"/><path id="F" d="M50.994 63.259h1.308l-.25 1.376s-.123.335.269.396.571-.388.571-.388l.336-1.37h1.362l-.456 2.417h-1.383v-.374s-.337.43-1.271.43-.868-.99-.868-.99z"/><path id="G" d="M55.594 62.211h1.321l-.728 3.436h-1.405z"/><path id="H" d="m57.818 62.593 1.472-.409-.193.862s-.066.202.145.224.43 0 .43 0l-.136.63h-.654l-.176.856s.027.306.327.316h.299l-.123.557s-.234.131-.87.114-1.152-.1-1.073-.537l.2-1.279h-.368l.122-.639.276-.025s.182-.059.215-.179l.108-.491"/><path id="I" d="M23.772 64.513c-.182.665-.451.704-.681.685s-.342-.353-.232-.755.29-.594.603-.61c0 0 .49.017.31.68m1.126-.982c-.271-.241-.982-.272-1.375-.284a4.3 4.3 0 0 0-1.046.138c-.311.091-.965.391-1.076 1.236s.393.997.725 1.097 1.419.164 2.013-.048.928-.574 1.07-1.168a.87.87 0 0 0-.31-.971"/><path id="J" d="M35.926 64.513c-.181.665-.449.704-.681.685s-.343-.353-.231-.755.29-.594.603-.61c0 0 .489.017.309.68m1.126-.982c-.272-.241-.982-.272-1.374-.284a4.3 4.3 0 0 0-1.045.138c-.313.091-.966.391-1.076 1.236s.391.997.723 1.097 1.42.164 2.013-.048.929-.574 1.07-1.168c.138-.569-.155-.847-.31-.971"/><path id="K" d="M20.312 65.635H18.87l.594-2.532h-1.612l.277-.926h4.668l-.277.926h-1.612l-.595 2.532z"/><path id="L" d="m33.793 63.291-1.873 2.566s-.262.331-.592.52a1.56 1.56 0 0 1-.744.212c-.233 0-.589-.043-.777-.156l.124-.602.421.042a.45.45 0 0 0 .442-.21c.059-.099.049-.326.001-.481L30 63.291h1.5l.381 1.083.747-1.083z"/></defs></svg>