<svg xmlns="http://www.w3.org/2000/svg" width="149.357" height="155.778"><g fill="#fff"><path d="M126.616 28.506c4.275-5.598 6.113-10.025 6.448-12.489 2.12-2.548 3.121-4.923 2.975-7.066a5.4 5.4 0 0 0-.456-1.857c1.002-3.71.751-5.856-.776-6.73-1.604-.919-3.2.047-5.222 1.268l-.178.109-16.538 10.466-4.991 3.163C97.713 10.376 86.787 7.843 75.39 7.843c-40.786 0-73.967 33.182-73.967 73.968a73.57 73.57 0 0 0 11.437 39.466L1.73 139.113q-.057.084-.153.214c-.865 1.199-2.315 3.205-1.13 4.767.692.913 1.984 1.265 3.865 1.041 1.18-.154 2.4-.448 3.515-.841a4.6 4.6 0 0 0 1.854.443l.119.001c2.319 0 4.581-1.645 5.842-2.755.093.003.188.001.277.003 2.8 0 6.158-1.646 10.238-5.023 13.587 12.145 31.008 18.815 49.233 18.815 40.786 0 73.967-33.181 73.967-73.966 0-20.051-8.268-39.385-22.741-53.305"/><path d="m76.933 41-.093-1.083-.007-.182-.181-.006-1.262-.023c-11.265 0-21.843 4.374-29.787 12.318-7.957 7.956-12.338 18.535-12.338 29.788a42.7 42.7 0 0 0 .758 8.007l.093.486.261-.421c1.77-2.859 2.395-3.301 5.573-3.94a75 75 0 0 1 3.749-.633c3.739-.562 8.265-1.79 16.005-6.912l.15-.1-1.71-2.977-.243-.196c-1.027-.73-4.152-2.955-6.259-7.255l-.048-.062c-.57-.486-4.227-2.782-7.923-5.092-1.388-.867-2.111-2.184-1.719-3.132.436-1.053 1.668-1.45 3.293-1.067.756.18 2.671.77 2.689.775l.599.19c1.534.49 2.548.814 6.003 1.305.648.092.946.134 2.825-.292 3.324-.752 5.609-.216 7.885 1.853a12 12 0 0 1 .38.37c.909.908 2.601 2.598 5.37 2.751l.109.006.062-.092c1.23-1.842 7.289-11.676 5.766-24.384m28.243 11.024-2.915-2.652-.23-.191-.08.289c-1.303 4.771-3.873 12.642-8.709 23.046l-.016.051c-.112.716-1.173 7.153-3.821 12.56-.144.293-.028.497.046.59.011.012 1.138 1.134 1.574 1.637s1.53 1.975 1.542 1.99l.063.086 13.342-1.065 1.305-.106c2.121-.189 3.401-.302 3.873 1.113.233.695-.033 2.615-.963 3.923l-.08.113.08.113c.347.482.624 1.731.241 2.818a2.7 2.7 0 0 1-.987 1.31l-.109.077.034.129c.176.669.302 1.688-.099 2.725-.354.921-1.046 1.67-2.055 2.228l-.136.074.043.149c.234.802.393 1.997-.172 3.13-.537 1.075-1.456 1.49-3.074 1.922l-.145.038.002.151c.009.773-.293 2.295-1.143 3.09-.839.784-2.123 1.026-3.816.718l-.17-.031-.049.166c-.232.787-.723 1.825-1.744 2.3-1.048.488-2.362.253-3.906-.701l-.105-.065-.103.069c-.677.451-2.578 1.211-3.822.536-.504-.274-.832-1.124-.975-2.528-.187-1.832-.431-4.783-.602-6.937l-.014-.163-.162-.014c-.512-.045-1.013-.398-1.491-1.048-1.32-1.802-2.12-2.777-4.541-3.542-.075-.018-.324-.107-.418-.508l-.022-.092-.087-.04a30 30 0 0 1-3.724-1.973l-.102-.065-.103.064c-.723.45-3.678 2.011-11.337 3.203l-.076.029c-.168.109-.453.321-.848.616-2.527 1.883-9.234 6.88-18.317 9.766q-.078.002-.163.104l-.003-.001-.012.019q-.046.06-.104.143l-.156.221.023.023-.021.035.042-.014.072.072c8.189 8.121 18.924 12.178 29.658 12.177 10.793-.001 21.588-4.103 29.787-12.303 7.957-7.956 12.339-18.535 12.339-29.786a41.85 41.85 0 0 0-12.339-29.788"/></g><path fill="#efefef" d="m103.296 127.714 3.671 3.69-2.062 1.286zm27.328-32.484c-3.316-.964-7.395-1.684-7.99.361s3.235 3.622 6.552 4.586 7.395 1.685 7.989-.36-3.235-3.622-6.551-4.587m-36.349 42.25c-.345-.314-.886-.648-1.514-.453l-1.136.354 1.773 5.691 1.135-.354c1.081-.337 1.43-1.585.909-3.256-.257-.826-.671-1.53-1.167-1.982m50.966-55.669c0 38.516-31.335 69.852-69.851 69.852-17.622 0-34.465-6.613-47.427-18.621l-.15-.14.148-.141c6.606-6.306 13.167-14.941 16.49-19.527l.131-.181.16.156c8.231 8.036 19.115 12.462 30.648 12.462 11.734 0 22.754-4.556 31.029-12.831 17.108-17.11 17.108-44.949 0-62.058a45 45 0 0 0-3.812-3.389l-.097-.077.068-.272.065-.041c7.908-4.963 14.717-10.603 19.693-16.314l.266-.308.146.135c14.295 13.207 22.493 31.904 22.493 51.295m-3.715-3.933-2.232 1.63-14.176.147-.015-1.504 2.916-2.13-5.256.055.106 10.369 5.256-.055-2.96-2.067-.016-1.505 14.177-.146 2.265 1.583zm-22.771-20.541 11.885-7.85 2.762.101-5.429-8.22-4.385 2.896 3.609.132 1.643 2.489-5.404 3.57-1.084-1.641 1.066-2.777-5.973 3.945 2.973.11 1.084 1.64-4.434 2.928-1.643-2.488 1.294-3.371-4.385 2.897 5.429 8.219zm3.41 15.046 5.007-1.598-3.437-1.105-.456-1.434 13.504-4.309 2.632.847-1.937-6.074-1.655 2.214-13.506 4.308-.457-1.432 2.162-2.893-5.007 1.598zm-68.359 58.6 2.556-4.601-.059-.104c-.677-1.205-1.294-1.968-2.782-2.795-2.988-1.659-7.546.817-10.159 5.52-1.25 2.252-1.883 4.677-1.782 6.828.104 2.215.98 3.889 2.465 4.714 1.175.653 2.037.899 3.278.899q.27 0 .566-.015l.119-.006 2.618-4.714-3.82 1.815c-.631.3-1.09.298-1.637-.005-1.493-.829-1.035-3.439 1.362-7.755 1.578-2.842 3.909-6.49 5.928-5.369.546.304.79.693.869 1.387zm18.347-1.398-6.24-1.315 1.109 2.532-1.082 5.14-3.686-.776 1.082-5.14 2.037-1.869-6.242-1.314 1.11 2.531-2.935 13.939-2.035 1.87 6.241 1.314-1.11-2.532 1.375-6.531 3.685.776-1.375 6.532-2.035 1.87 6.241 1.314-1.109-2.532 2.934-13.94zm10.052 18.124-1.727-2.157-.777-14.224 1.481-2.333-6.366.348 1.727 2.158.776 14.222-1.481 2.334zm16.346-9.215c-.599-1.923-2.32-3.41-4.003-3.55.905-1.093 1.296-2.967.855-4.384-.52-1.668-1.393-2.788-2.598-3.328-1.015-.456-2.259-.477-3.597-.061l-5.249 1.636 2.203 1.669 4.235 13.601-.865 2.626 5.69-1.773c1.462-.455 4.712-1.994 3.329-6.436m17.535-4.1-2.609-1.082-12.058-11.671-.12-.116-1.71 1.066 5.149 16.171-.176 2.818 4.469-2.787-2.496-1.035-.902-2.79 3.02-1.884 2.05 2.073-.169 2.699zm18.075-21.797-4.466-2.771 1.391 3.332-1.475 2.377-12.046-7.474-1.064-2.55-3.363 5.418 2.759-.18 12.105 7.51 1.063 2.551zm3.552-17.334c-1.455-1.534-3.67-2.814-6.077-3.514s-4.965-.807-7.015-.292c-2.224.559-3.72 1.797-4.211 3.487s.108 3.536 1.686 5.2c1.455 1.534 3.67 2.815 6.077 3.515 1.401.407 2.852.613 4.224.613a11.6 11.6 0 0 0 2.791-.322c2.225-.558 3.721-1.796 4.212-3.486s-.108-3.536-1.687-5.201m-45.372 36.414c-.535-1.717-1.471-2.599-2.443-2.292l-.696.216 1.734 5.567.695-.216c.973-.303 1.245-1.558.71-3.275M33.039 70.369a44.3 44.3 0 0 0-.232 21.97l.019.078-.042.069-16.211 26.443-.163.265-.165-.263a69.55 69.55 0 0 1-10.707-37.12c0-38.517 31.336-69.852 69.852-69.852 10.536 0 20.674 2.302 30.132 6.843l.313.15-.294.186-25.197 16.106c-1.584 1.1-2.508 1.919-2.994 2.659l-.06.091-.11-.004c-12.23-.5-24.195 4.167-32.819 12.792a43.77 43.77 0 0 0-11.322 19.587m44.512-40.215c-.012.861-.215 1.564-.587 2.03-.296.372-.687.577-1.102.577h-.018a1.66 1.66 0 0 1-1.117-.478l-1.823-2.958-1.702 4.388 3.206.773c.499.114.972.173 1.447.18h.075c1.483 0 2.697-.62 3.512-1.797.691-.998 1.083-2.388 1.105-3.914.025-1.807-.526-3.253-1.684-4.42l-2.734-2.755c-.777-.779-1.133-1.557-1.121-2.449.008-.549.153-1.049.409-1.409.184-.257.524-.573 1.049-.555.307.004.643.148.883.377l1.709 2.645 1.706-4.079-3.093-.772a5.7 5.7 0 0 0-1.27-.179l-.065-.001c-1.335 0-2.441.578-3.201 1.673-.646.93-1.012 2.192-1.031 3.552-.026 1.911.619 3.457 2.029 4.865l2.731 2.752c.328.341.702.871.687 1.955M53.878 19.013l2.116 1.777 3.554 13.794-.995 2.579 9.54-2.456-1.311-5.09-1.3 3.369-2.887.743-1.616-6.272 1.903-.49 2.279 1.913-1.786-6.933-1.071 2.775-1.904.491-1.325-5.146 2.888-.743 2.766 2.321-1.312-5.089zm-18.285 9.52 2.542 1.087 7.401 12.174-.205 2.756 4.423-2.688-2.541-1.088-5.387-8.86 14.361 8.86-9.823-16.155.205-2.756-4.423 2.688 2.542 1.087 4.006 6.591-9.425-5.929zm-10.552 10.19 2.738.373 10.369 9.765.536 2.711 4.372-4.642-2.739-.373-10.369-9.764-.535-2.711zm4.333 57.085-.679-5.131-2.019 1.887-10.956 1.451 8.653-4.862-9.642-2.439L25.71 85.26l2.44 1.297-.835-6.322-2.02 1.888-14.121 1.87-2.44-1.297.587 4.44 8.158 2.09-7.333 4.143.648 4.898 2.019-1.888 14.12-1.87 2.441 1.298zm.883-30.154-2.582 1.143-16.931.691-.408 1.974 15.26 7.422 1.919 2.07 1.064-5.158-2.47 1.094-2.644-1.271.719-3.486 2.914-.056 1.838 1.984zm3.654-6.9-2.744.332-5.291-2.89.4-.733 8.664 1.406 2.117-3.871-2.786.336-7.247-.933c-.008-1.31-.716-3.128-2.728-4.228-1.077-.588-4.775-2.175-7.124 2.123l-2.769 5.068 2.745-.331 12.501 6.829 1.204 2.487zm-11.265-7.561c-1.555-.849-2.905-.765-3.44.214l-.482.882 5.118 2.795.481-.882c.234-.427.193-.971-.115-1.53-.317-.577-.872-1.102-1.562-1.479m-1.331 21.383.49-2.381-5.202.115z"/><g fill="#b81649"><path d="m75.838 54.824.553-2.293-.934.698-4.528-.153.504 1.596zm-3.745 1.887.632 1.55 2.035-.098.56-1.606zm-2.026-7.341.372 1.632 4.459.517.037.005 1.844-1.158.243-2.018-2.455 1.543zm-.56-3.757.237 1.657 4.405.88.036.007 2.957-1.541.03-1.797-3.223 1.68zm38.658 32.537-.01-.075-1.638-.353.575 4.498-2.365 3.864 1.638.348 2.362-3.86zm-6.123 2.673.167-4.53-1.56-.615-.163 4.532-2.957 3.433 1.56.607zm.639 4.666 2.643-3.626.022-.03-.203-4.529-1.604-.485.206 4.53-2.668 3.66 1.604.479zm-58.52-.251-.475-3.714 2.366-3.864-1.638-.348-2.343 3.827-.019.033.547 4.307 1.1-.168zm51.561-7.23.899-4.443-1.438-.86-.897 4.446-2.662 2.229-.309.976.937.555 3.441-2.879zM47.034 82.394l2.669-3.66-1.604-.48-2.669 3.66.14 3.061 1.565-.38zm4.658-2.901-2.953 3.427-.044 1.197 1.608-.594 2.949-3.423zm47.121.045.537-4.5-1.504-.74-.533 4.503-3.227 3.179 1.505.734zm-17.54 38.593-.238-1.657-4.404-.881-.037-.007-4.021 2.096.236 1.659 4.021-2.096zm-4.163.9-.036-.011-4.108 1.736-.07.029.101 1.673 4.177-1.765 4.357 1.243-.103-1.671zm3.602-4.658-.372-1.631-4.458-.518-.037-.005-3.841 2.41.369 1.635 3.839-2.413zm31.939-35.587 1.295 4.345-1.712 4.194 1.672.081 1.697-4.157.015-.034-1.293-4.346zm-3.096-.408.938 4.436-2.046 4.042 1.659.215 2.031-4.006.018-.033-.939-4.436zM79.85 110.667l-.504-1.596-4.489-.153-.037-.001-3.629 2.712.499 1.6 3.632-2.715zm-1.163-3.635-.632-1.549-4.525.216-3.395 2.997.627 1.554 3.4-3.001zm-5.016-62.32.036.011 3.421-1.446-.132-1.659-3.39 1.432-4.356-1.243.103 1.671zm-8.005 55.94.921 1.269 1.118-1.624zM41.225 85.365l-.938-4.437 2.046-4.042-1.66-.215-2.045 4.039.935 4.436zm-3.096-.409-1.296-4.346 1.713-4.193-1.671-.081-1.702 4.157-.014.034 1.296 4.346zm39.111 18.565-.756-1.494-4.486.584-3.147 3.264.751 1.497 3.146-3.266zm-1.737-3.399-.876-1.427-1.962.42-2.589.683-2.742 3.352.871 1.431 2.868-3.512z"/></g><path fill="#fff" d="M124.443 25.011a.62.62 0 0 0-.264-.453c-.466-.35-1.709.18-4.753 2.022l-.121.077c-.293.192-.492.297-.586.319.044-.065.133-.154.177-.198l.618-.637c2.732-2.817 4.383-4.585 4.272-5.387a.46.46 0 0 0-.246-.354c-.617-.287-3.847.775-6.658 2.63a1.7 1.7 0 0 1-.459.218c0-.036.051-.122.291-.325.3-.253 7.328-6.206 7.181-7.233a.29.29 0 0 0-.174-.228c-.687-.289-3.695 1.18-4.291 1.478a83 83 0 0 0-4.716 2.577c-.214.126-.454.201-.498.189-.005-.039.08-.177.267-.316 6.093-4.506 9.132-7.341 9.034-8.426a.46.46 0 0 0-.254-.386c-.71-.44-10.961 5.652-13.012 6.882L80.972 36.153c-2.94 2.039-3.094 2.45-2.941 4.741 1.753 14.462-5.873 25.025-6.212 25.486a10 10 0 0 1-.18.245l-.03.039c-.79 1.033-1.517 1.642-1.842 1.547.003-.096.065-.431.588-1.437l.126-.241-.269-.039c-2.994-.431-4.828-2.394-5.71-3.336l-.179-.191c-.95-1-2.267-1.611-3.81-1.765l-.251-.018.042.25q.012.055.014.113c0 .468-.445.85-.991.85-.391 0-.865-.234-1.014-.501-.068-.121-.036-.199-.006-.248l.25-.416-.588.104-1.732.324-.303.049.175.252c.519.743.862 1.697 1.021 2.2l.038.12.124.014c.194.025.39-.01.55-.038-.234.342-.697.483-.713.487a8.9 8.9 0 0 0-4.139 3.173l-.065.095.052.103c1.88 3.73 5.41 6.207 5.832 6.494l2.543 4.258c.387.516.785.907 1.076 1.192.21.206.528.517.485.581a.15.15 0 0 1-.126.075c-.352.023-1.152-.556-2.041-1.494l-.112-.118-.135.09c-8.007 5.342-12.727 6.623-16.636 7.211-1.16.174-2.359.355-3.696.624-2.766.555-3.395.892-5.116 3.863-.696 1.203-12.239 20.077-20.836 33.997-3.598 6.17-3.411 6.547-3.33 6.708a.45.45 0 0 0 .369.299c1.06.16 3.999-3.02 8.707-9.427a.9.9 0 0 1 .274-.267c-.007.102-.086.321-.206.522-2.197 3.691-4.762 8.272-4.497 9.133a.28.28 0 0 0 .222.196c.831.16 5.165-4.197 7.572-7.097q.185-.222.276-.284c-.016.093-.089.27-.224.474-1.515 2.287-3.68 5.946-3.431 6.664a.32.32 0 0 0 .254.189c.771.123 3.956-2.123 6.053-4.507.124-.142.216-.222.277-.264-.036.085-.12.206-.157.261l-.071.105c-.716 1.132-2.37 3.875-2.263 4.917a.37.37 0 0 0 .252.31.5.5 0 0 0 .17.026c1.01-.001 3.819-2.02 5.106-3.247 6.655-6.92 12.886-15.578 14.934-18.423l.564-.779.025.016v-.001l.002-.003.013-.02.093-.154.199-.062c10.29-3.212 17.881-9.226 19.298-10.399l.15-.109.121-.018c6.065-.927 9.363-2.257 10.789-2.967l.225-.112-.165-.188c-.477-.546-.845-1.023-1.065-1.382a1.17 1.17 0 0 1-.188-.549c.729.308 2.495 1.721 2.729 1.913l.031.031c.742.579 1.912 1.235 3.385 1.897l.164.074.085-.158q.187-.348.442-.66l.137-.169-.183-.116a10 10 0 0 0-.445-.262c-.431-.244-.967-.547-1.091-.835-.132-.308-.072-.567.188-.815 1.281-1.221 4.029.128 5.085.932.833.632 1.205 1.226 1.135 1.817a1.1 1.1 0 0 1-.07.279l-.072.187.189.066a7.75 7.75 0 0 0 3.606.324c.096-.017.169-.035.234-.052l.295-.078-.198-.233a5 5 0 0 1-.201-.256c-1.319-1.801-2.12-2.777-4.543-3.542-.102-.024-.436-.151-.455-.797-.014-.5.28-1.182.769-1.78l.137-.169-.183-.117c-.13-.083-.285-.17-.447-.262-.43-.243-.966-.547-1.089-.834-.132-.308-.072-.567.188-.815 1.283-1.22 4.029.128 5.085.932.833.632 1.204 1.227 1.135 1.817a1.2 1.2 0 0 1-.069.28l-.073.186.189.066a7.8 7.8 0 0 0 3.606.324c.132-.023.225-.049.303-.07l.092-.024c.048.036.17.165.334.472.208.388.375.752.315 1.264-.067.571-.366.881-.606 1.04l-.142.095.076.152c.242.488.462 1.181.141 1.707-.379.615-1.261.643-1.932.556l-.1-.012-.068.074c-.194.216-.521.48-.97.512a1.4 1.4 0 0 1-.758-.178l-.542-.292.278.55c.183.36.295.69.243 1.126-.066.57-.366.88-.606 1.04l-.141.094.075.153c.242.489.463 1.182.14 1.707-.291.473-.902.662-1.814.569l-.23-.025.018.233.631 7.351c.092.897.159 1.376.586 1.611 1.083.599 2.801-.64 3.284-1.018.479.392 2.208 1.7 3.466 1.212 1.043-.403 1.179-2.255 1.191-2.993.828.336 3.267 1.188 4.323.017.909-1.007.647-2.653.501-3.284.769-.001 2.976-.132 3.613-1.591.671-1.538-.123-2.815-.559-3.356 1.257-.274 2.53-1.314 2.833-2.117a2.85 2.85 0 0 0-.546-3.024c.909-.216 1.542-.749 1.7-1.199.352-1 .076-2.18-.599-2.719.428-.525 1.642-2.145 1.268-3.26-.272-.811-1.259-.733-2.751-.618l-1.158.08-13.003 1.037.063.227c.206.737.098.867.1.867-.138.064-.783-.495-1.373-1.281l-.362-.492c-.463-.632-1.039-1.417-1.285-1.7-.566-.652-1.663-1.673-1.693-1.699l-.052-.063c-.479-.572-.608-.726-.128-1.711 2.675-5.484 3.727-12.273 3.737-12.342l.012-.079.034-.073c7.032-15.109 9.138-24.535 9.357-25.57l.051-.225.195-.122c6.906-4.312 13.062-9.218 17.804-14.185l.002-.002c1.18-1.28 5.018-5.567 4.836-7.031"/><g fill="#f5d465"><path d="m90.145 99.851-.158.026c-2.697.446-5.273-1.204-5.997-1.721l-.041-.029c-.077-.051-.459-.318-.347-.525.09-.165.405-.056.576.033a38 38 0 0 0 .863.439l.172.085.086-.172c.044-.087.114-.424-.8-1.126-1.068-.823-2.975-2.076-3.739-1.216-.068.083-.092.185-.068.285.069.285.511.501 1.178.797l.27.123a.47.47 0 0 1 .27.359.48.48 0 0 1-.148.425c-.933.856-.971 1.329-.944 1.492a.42.42 0 0 0 .263.336c2.503.875 3.532 2.089 4.816 3.842.204.277.584.726.9.726a.3.3 0 0 0 .049-.004c.295-.02.516-.404.518-.407a.49.49 0 0 1 .509-.245c1.029.168 1.291.078 1.405-.019l.087-.087v-.064c.037-.174-.053-.496-.517-1.423-.15-.3-.138-.435-.121-.462.026-.041.136-.1.505-.143.213-.024.476-.153.524-.649A1.2 1.2 0 0 0 90.2 100l-.055-.15zm4.436-5.181-.055-.149-.158.026c-2.701.448-5.272-1.204-5.997-1.72l-.041-.03c-.225-.148-.435-.365-.348-.525s.407-.055.593.042l.846.429.173.085.086-.172c.043-.086.113-.423-.8-1.125-1.069-.822-2.976-2.076-3.739-1.215a.32.32 0 0 0-.068.284c.068.286.511.502 1.178.798l.27.122a.473.473 0 0 1 .121.782c-.932.856-.971 1.33-.944 1.494a.43.43 0 0 0 .263.335c2.503.874 3.533 2.089 4.817 3.842.203.277.583.726.901.726l.048-.003c.296-.022.516-.405.518-.409a.485.485 0 0 1 .508-.244c1.029.167 1.291.077 1.405-.018l.087-.086v-.065c.037-.174-.053-.496-.517-1.423-.149-.301-.138-.435-.121-.462.027-.042.136-.101.505-.143.213-.024.476-.153.524-.648a1.24 1.24 0 0 0-.055-.528M56.198 63.567c-.151-.604-.323-1.289-.74-1.748l-.059-.064-.087.001c-.359.008-.671-.05-1.101-.136-3.5-.695-5.411-1.315-6.676-1.725l-.366-.119a33 33 0 0 0-2.463-.652c-.717-.162-1.651-.027-1.922.892-.187.634.052 1.11.286 1.398l.257.317.081-.401c.147-.713.69-1.001 1.57-.841.701.131 2.212.619 5.222 1.591l5.788 1.858.331.105z"/><path d="m51.016 62.823-3.253-1.048-.792-.252.6.575c.296.283.332.578.113.9-.158.232-.403.347-.603.405l-.048-.028-.097.168-.096.167.106.061.064.047.012-.003 5.444 3.289.241.221.124-.191c.44-.68 1.245-1.647 2.604-2.414l.415-.336-.34-.109z"/></g><path fill="#b81649" d="M47.843 63.108c.225-.331.281-.746-.139-1.148l-.341-.31-2.466-.703c-.87-.166-1.109.286-1.161.429-.083.227-.03.487.125.623l.067.049.048.027 2.755 1.574c.163-.01.314-.042.314-.042.248-.053.584-.184.798-.499"/><g fill="#221815"><path d="M124.267 28.684c5.949-7.389 7.083-12.039 7.115-13.373 2.061-2.354 3.045-4.453 2.923-6.242-.057-.833-.346-1.411-.589-1.759.71-2.396 1.116-4.929.228-5.437-.738-.422-1.839.269-3.609 1.338L113.8 13.676l-5.821 3.688A71.8 71.8 0 0 0 75.39 9.582c-39.827 0-72.229 32.402-72.229 72.229a71.8 71.8 0 0 0 11.754 39.445l-11.751 18.84c-.351.511-1.797 2.334-1.332 2.947.365.482 1.566.45 2.255.368a15.6 15.6 0 0 0 3.919-1.049 2.8 2.8 0 0 0 1.717.637c2.124.052 4.473-2.006 5.288-2.799a9 9 0 0 0 .908.048c2.872-.001 6.519-2.301 10.277-5.605C39.102 146.669 56.4 154.04 75.39 154.04c39.827 0 72.229-32.401 72.229-72.229 0-20.992-9.005-39.918-23.352-53.127M5.731 81.811c0-38.409 31.249-69.658 69.659-69.658a69.25 69.25 0 0 1 30.048 6.823l-25.204 16.11c-1.615 1.121-2.54 1.943-3.046 2.711-11.878-.48-23.914 3.8-32.963 12.849-11.297 11.297-15.162 27.251-11.605 41.74l-16.211 26.443A69.24 69.24 0 0 1 5.731 81.811M45.014 60.3c-1.487-.277-1.737.71-1.794.992a1.28 1.28 0 0 1-.25-1.221c.236-.803 1.054-.904 1.693-.759.234.054 1.466.335 2.447.649 1.218.389 3.187 1.079 7.063 1.849.47.093.774.144 1.142.139.416.458.576 1.195.731 1.805zm10.437 4.159-.137.112a7.6 7.6 0 0 0-2.645 2.459l-.072-.067c-.104-.094-2.988-1.934-8.582-5.088-.237-.134-.227-.943.846-.738 1.037.198 3.688 1.102 10.59 3.322m-.888-3.863c-3.873-.55-4.686-.896-6.571-1.487-.106-.033-1.959-.602-2.703-.778-1.647-.391-3.022-.013-3.515 1.181-.41.992.274 2.419 1.795 3.369l7.9 5.075c2.276 4.647 5.713 6.882 6.508 7.463l1.62 2.819c-7.093 4.695-11.558 6.225-15.926 6.882-1.176.177-2.392.36-3.759.635-3.179.639-3.858 1.054-5.7 4.028a42.4 42.4 0 0 1-.754-7.971c0-11.201 4.362-21.731 12.282-29.651 8.174-8.175 18.912-12.262 29.65-12.262.419 0 .838.011 1.256.024a13 13 0 0 0 .096 1.101c1.511 12.607-4.499 22.401-5.736 24.254-3.122-.173-4.811-2.328-5.63-3.072-2.533-2.302-4.985-2.594-8.057-1.898-1.828.414-2.122.379-2.756.288m-30.331 71.886c-.076-.735.916-2.703 2.235-4.787.118-.185.38-.491.229-.664-.134-.152-.444.168-.587.331-2.327 2.647-5.762 4.898-5.982 4.37-.171-.492 1.385-3.42 3.413-6.482.124-.187.382-.645.191-.771-.169-.111-.41.179-.552.351-2.923 3.52-7.252 7.613-7.463 6.965-.212-.691 1.885-4.617 4.48-8.975.119-.199.339-.665.173-.793s-.426.14-.562.325c-7.876 10.717-8.649 9.422-8.739 9.176-.18-.361 1.511-3.451 3.314-6.543l20.837-33.998c1.694-2.926 2.254-3.222 4.986-3.77 1.332-.269 2.529-.448 3.687-.622 4.408-.664 9.19-2.221 16.714-7.242.702.741 2.065 2.004 2.469 1.393.227-.342-.68-.812-1.568-1.996l-2.554-4.278c-.035-.024-3.829-2.527-5.803-6.445.347-.504 1.678-2.242 4.046-3.1 0 0 .41-.12.698-.427a1 1 0 0 0 .227-.372q.014-.044 0-.064c-.024-.017-.034-.024-.05-.026l-.031-.001-.067.004-.031.004c-.085.013-.191.035-.307.05l-.037.004q-.06.007-.121.01-.024 0-.046-.001-.06.001-.116-.004c-.164-.52-.516-1.493-1.046-2.253a61 61 0 0 0 1.738-.325q.084-.015.166-.029l-.03.051c-.299.486.53 1.043 1.185 1.043s1.184-.467 1.184-1.043c0-.053-.009-.103-.018-.154 1.447.145 2.739.705 3.69 1.707.847.892 2.728 3.113 6.001 3.585-.378.727-.757 1.566-.553 1.678.583.32 1.668-.976 2.131-1.582h.001l.031-.041.183-.25.011-.015c.327-.445 7.997-11.061 6.234-25.605-.146-2.195-.012-2.567 2.86-4.559 1.819-1.261 16.088-10.332 29.271-18.688 3.759-2.254 12.305-7.2 12.805-6.882.233.114 1.461.911-8.791 8.495-.178.131-.435.39-.314.574s.566-.014.757-.126a84 84 0 0 1 4.705-2.571c2.003-.999 3.741-1.637 4.13-1.473.615.272-3.686 4.288-7.056 7.136-.164.138-.442.373-.338.561.118.213.556-.028.736-.146 2.928-1.931 6.002-2.834 6.47-2.616.818.476-2.114 3.394-4.647 6.015-.146.151-.415.386-.269.528.194.189.774-.245.985-.372 2.047-1.24 4.074-2.379 4.536-2.032 1.136.74-3.037 5.506-4.598 7.197-4.543 4.76-10.579 9.667-17.766 14.155l-.265.165-.068.303c-.022.098-1.997 9.746-9.344 25.531l-.045.098-.016.107c-.01.068-1.039 6.792-3.72 12.286-.553 1.135-.327 1.342.206 1.982 0 0 1.129 1.05 1.695 1.703.31.356 1.17 1.547 1.638 2.179 0 0 1.174 1.566 1.616 1.338.21-.108.134-.602-.003-1.091l12.77-1.019c2.148-.117 3.432-.424 3.71.407.412 1.227-1.37 3.237-1.37 3.237.756.424 1.04 1.659.703 2.617-.137.389-.805.999-1.923 1.139 0 0 1.503 1.133.77 3.079-.286.758-1.679 1.924-3.034 2.05 0 0 1.609 1.48.764 3.414-.715 1.635-3.687 1.469-3.687 1.469s.665 2.181-.394 3.354c-1.173 1.302-4.374-.182-4.374-.182s.102 2.656-1.066 3.108c-1.348.521-3.393-1.283-3.393-1.283s-2.053 1.731-3.194 1.1c-.325-.18-.395-.556-.488-1.463-.194-1.91-.445-4.99-.63-7.346.641.067 1.568.04 1.999-.66.363-.592.142-1.339-.132-1.893.341-.227.623-.604.691-1.179.059-.503-.083-.882-.263-1.236a1.6 1.6 0 0 0 .758.204 1 1 0 0 0 .107-.004c.505-.036.871-.322 1.099-.574.638.081 1.662.096 2.119-.648.364-.592.143-1.339-.131-1.894.34-.227.623-.604.69-1.178s-.124-.982-.335-1.378c-.196-.366-.394-.598-.507-.577s-.216.065-.426.101c-.049.008-1.734.306-3.51-.316a1.3 1.3 0 0 0 .081-.327c.079-.664-.317-1.316-1.21-1.994-.911-.693-3.88-2.303-5.334-.917-.25.238-.427.576-.233 1.031.199.462 1.096.853 1.61 1.183-.513.629-.828 1.351-.812 1.908.026.882.592.975.609.981 2.394.757 3.18 1.766 4.426 3.467a5 5 0 0 0 .21.266c-.06.016-.128.033-.217.048-.049.008-1.734.306-3.51-.315a1.3 1.3 0 0 0 .081-.328c.079-.664-.317-1.316-1.21-1.994-.911-.693-3.88-2.302-5.334-.917-.25.238-.427.576-.233 1.031.199.462 1.095.854 1.61 1.183a4.3 4.3 0 0 0-.463.691c-1.335-.601-2.55-1.253-3.344-1.873-.003-.004-2.184-1.789-2.929-2.017-.183-.055-.224.392.073.874.276.451.717.988 1.084 1.408-1.328.662-4.62 2.015-10.732 2.949l-.164.025-.137.092c-.088.059-7.986 6.886-19.297 10.416l-.268.084-.146.24c.997-1.636-6.933 10.247-15.497 19.152-1.686 1.608-5.085 3.829-5.198 3.019M82.601 97.18a.67.67 0 0 0-.378-.505c-.549-.256-1.54-.629-1.312-.908.595-.671 2.243.302 3.471 1.247.79.607.748.88.745.886l-.857-.435c-.341-.178-.698-.214-.838.045-.143.266.076.556.411.778.132.088 3.044 2.299 6.176 1.779a1 1 0 0 0 .045.439c-.011.096-.018.441-.354.479-.274.031-.55.081-.646.231-.089.14-.018.393.112.652.246.492.556 1.15.496 1.31 0 0-.001.21-1.268.005a.68.68 0 0 0-.71.345c-.033.063-.206.295-.361.306-.134.02-.42-.154-.779-.644-1.305-1.781-2.354-3.018-4.909-3.91-.059-.02-.12-.086-.136-.185-.013-.073-.027-.483.883-1.319a.67.67 0 0 0 .209-.596m4.38-5.33a.66.66 0 0 0-.379-.505c-.548-.256-1.539-.629-1.312-.908.596-.671 2.244.302 3.472 1.247.79.607.748.88.745.886l-.857-.435c-.341-.178-.698-.214-.838.045-.143.265.076.556.411.778.132.088 3.044 2.299 6.176 1.779 0 0 .074.198.045.44-.011.096-.018.44-.354.479-.274.031-.551.081-.646.231-.089.14-.018.393.112.652.246.492.556 1.149.496 1.31 0 0-.001.21-1.268.005a.675.675 0 0 0-.71.345c-.033.063-.206.294-.361.306-.135.02-.42-.154-.78-.644-1.304-1.781-2.354-3.018-4.908-3.911-.059-.02-.12-.085-.136-.184-.013-.074-.027-.484.883-1.32a.67.67 0 0 0 .209-.595m-1.508 11.928c.515.702 1.062 1.077 1.629 1.127l.603 6.94c.143 1.399.472 2.351 1.075 2.679 1.319.716 3.261-.038 4.022-.545 1.601.989 2.975 1.229 4.088.711 1.107-.514 1.619-1.643 1.848-2.42 1.757.319 3.095.061 3.982-.767.922-.863 1.213-2.458 1.204-3.234 1.644-.438 2.626-.879 3.196-2.022.607-1.217.409-2.502.186-3.27 1.051-.58 1.77-1.361 2.142-2.327.426-1.105.279-2.184.106-2.844a2.87 2.87 0 0 0 1.057-1.402c.399-1.135.119-2.46-.266-2.997.987-1.39 1.237-3.354.989-4.097-.618-1.85-2.451-1.331-5.374-1.138L92.722 89.23s-1.104-1.487-1.55-2.001-1.584-1.648-1.584-1.648c-.044-.055-.102-.179-.009-.368 2.636-5.381 3.692-11.68 3.839-12.615 5.154-11.088 7.649-19.156 8.721-23.076a42 42 0 0 1 2.901 2.64c7.92 7.92 12.282 18.45 12.282 29.651s-4.362 21.73-12.282 29.65c-16.306 16.306-42.813 16.348-59.172.125l.185-.262c10.603-3.355 18.089-9.658 19.271-10.423 6.705-1.043 10.139-2.439 11.41-3.229 1.184.747 2.477 1.413 3.747 1.986.136.574.551.647.566.652 2.394.758 3.18 1.766 4.426 3.467M75.39 151.47c-18.242 0-34.864-7.053-47.295-18.57 6.816-6.505 13.622-15.563 16.513-19.552 8.543 8.342 19.661 12.517 30.782 12.517 11.287 0 22.573-4.296 31.165-12.888 17.185-17.185 17.185-45.146 0-62.331a44 44 0 0 0-3.828-3.403l.019-.076c8.241-5.172 14.991-10.905 19.735-16.35l.136-.159c13.784 12.735 22.432 30.952 22.432 51.153 0 38.41-31.249 69.659-69.659 69.659M26.676 92.565l-10.956 1.45 8.653-4.863-9.642-2.439L25.71 85.26l2.44 1.297-.835-6.323-2.019 1.889-14.121 1.87-2.441-1.298.588 4.441 8.157 2.091-7.333 4.143.648 4.898 2.019-1.888 14.12-1.87 2.441 1.298-.679-5.132-2.019 1.888z"/><path d="m10.745 67.488-.408 1.974 15.259 7.422 1.92 2.071 1.064-5.159-2.471 1.094-2.643-1.27.719-3.486 2.914-.055 1.837 1.983 1.322-6.407-2.582 1.143zm5.858 2.822 5.203-.115-.491 2.381zm10.422-17.909c-.008-1.31-.716-3.128-2.728-4.228-1.077-.588-4.775-2.175-7.124 2.123l-2.769 5.068 2.744-.331 12.502 6.829 1.204 2.487 3.057-5.595-2.744.332-5.291-2.89.401-.733 8.664 1.406 2.117-3.871-2.787.336zm-2.701 1.801-.481.882-5.118-2.795.482-.882c.535-.98 1.885-1.064 3.44-.214.69.377 1.245.902 1.562 1.479.308.559.349 1.103.115 1.53m15.993-7.644-10.369-9.765-.535-2.711-4.372 4.642 2.738.372 10.37 9.765.535 2.712 4.372-4.642zm5.219-4.764-.205 2.756 4.423-2.688-2.541-1.088-5.387-8.86 14.361 8.86-9.822-16.155.204-2.756-4.423 2.688 2.542 1.087 4.007 6.592-9.426-5.93-3.675 2.233 2.541 1.088zm14.012-7.21-.995 2.579 9.54-2.456-1.311-5.09-1.299 3.368-2.888.744-1.616-6.273 1.903-.491 2.279 1.913-1.786-6.933-1.071 2.776-1.903.49-1.326-5.146 2.888-.743 2.766 2.322-1.312-5.089-9.539 2.456 2.116 1.778 3.554 13.794zm16.382.081c1.483 0 2.697-.62 3.512-1.798.692-.997 1.084-2.388 1.105-3.913.025-1.807-.526-3.253-1.684-4.42l-2.734-2.755c-.777-.779-1.133-1.557-1.12-2.449.007-.549.152-1.05.408-1.409.184-.257.524-.573 1.049-.556a1.37 1.37 0 0 1 .883.377l1.709 2.645 1.706-4.078-3.092-.772a5.7 5.7 0 0 0-1.27-.18h-.066c-1.335 0-2.441.578-3.201 1.672-.645.931-1.012 2.193-1.031 3.553-.026 1.911.619 3.457 2.029 4.865l2.732 2.752c.327.341.701.871.686 1.954-.012.862-.215 1.564-.586 2.031-.297.372-.688.577-1.103.577a1.67 1.67 0 0 1-1.135-.479l-1.823-2.958-1.702 4.388 3.206.772a7 7 0 0 0 1.447.181zm-19.627 91.613c-.678-1.205-1.294-1.968-2.782-2.794-2.989-1.66-7.547.816-10.159 5.52-1.25 2.251-1.883 4.676-1.782 6.827.104 2.215.979 3.889 2.465 4.714 1.175.653 2.036.9 3.278.9a12 12 0 0 0 .566-.016l.119-.005 2.618-4.715-3.82 1.816c-.631.299-1.09.297-1.637-.006-1.493-.829-1.035-3.439 1.362-7.755 1.578-2.841 3.909-6.49 5.928-5.368.546.303.79.692.869 1.386l.478 4.202 2.556-4.602zm10.719 4.524-1.082 5.14-3.685-.776 1.082-5.14 2.036-1.87-6.241-1.313 1.109 2.531-2.934 13.939-2.035 1.87 6.24 1.314-1.109-2.532 1.374-6.531 3.686.776-1.375 6.531-2.035 1.871 6.24 1.314-1.109-2.532 2.934-13.94 2.035-1.869-6.24-1.315zm12.679.526 1.481-2.332-6.366.347 1.726 2.158.777 14.223-1.481 2.334 6.366-.348-1.726-2.158-.777-14.223zm14.847 3.616c.905-1.092 1.297-2.966.855-4.383-.519-1.668-1.393-2.788-2.597-3.329-1.016-.455-2.26-.476-3.597-.059l-5.249 1.635 2.202 1.67 4.236 13.601-.865 2.625 5.689-1.772c1.462-.455 4.713-1.994 3.33-6.437-.6-1.923-2.321-3.409-4.004-3.55m-5.345-5.343.695-.216c.973-.306 1.909.576 2.443 2.292s.263 2.972-.71 3.275l-.695.217zm4.195 13.471-1.772-5.69 1.135-.355c.628-.195 1.17.138 1.515.453.495.451.91 1.155 1.167 1.983.52 1.671.172 2.919-.91 3.255zm8.022-21.432-.12-.116-1.71 1.065 5.149 16.17-.177 2.819 4.47-2.787-2.497-1.035-.901-2.791 3.02-1.883 2.05 2.072-.17 2.7 5.553-3.462-2.609-1.082-12.058-11.671zm5.548 9.763-2.063 1.286-1.608-4.976zm24.118-18.247-1.475 2.378-12.046-7.474-1.064-2.551-3.363 5.418 2.759-.179 12.105 7.51 1.063 2.55 5.096-8.213-4.466-2.771zm.549-21.408c-2.407-.7-4.964-.806-7.014-.291-2.225.558-3.72 1.797-4.212 3.486s.108 3.536 1.687 5.2c1.455 1.534 3.67 2.816 6.077 3.515 1.401.407 2.852.614 4.224.614.987 0 1.933-.107 2.791-.323 2.225-.558 3.72-1.796 4.212-3.485s-.108-3.537-1.687-5.201c-1.455-1.534-3.67-2.815-6.078-3.515m-9.001 3.842c.595-2.044 4.673-1.324 7.989-.36s7.146 2.542 6.552 4.587-4.673 1.324-7.989.359-7.146-2.542-6.552-4.586M125.118 79.655l-.015-1.504 2.916-2.129-5.255.054.105 10.37 5.256-.055-2.96-2.068-.015-1.504 14.176-.146 2.266 1.583-.065-6.376-2.233 1.63zM121.861 63.8l2.161-2.893-5.007 1.598 3.15 9.878 5.008-1.597-3.437-1.106-.457-1.434 13.505-4.308 2.631.846-1.937-6.074-1.655 2.214-13.505 4.309zm-3.106-6.463 11.885-7.851 2.762.101-5.429-8.22-4.385 2.897 3.609.132 1.643 2.489-5.404 3.57-1.084-1.641 1.066-2.777-5.973 3.945 2.973.109 1.084 1.641-4.434 2.928-1.643-2.489 1.294-3.37-4.385 2.897 5.429 8.219z"/></g></svg>