<svg xmlns="http://www.w3.org/2000/svg" xmlns:xlink="http://www.w3.org/1999/xlink" width="130.033" height="136.388"><style>.B{fill:#fff}.C{fill:#003459}.D{fill:#d7000f}.E{fill:#f2c096}.F{fill:#00a63c}</style><defs><clipPath id="A"><path fill="none" d="M69.34 89.47a24.3 24.3 0 0 1 5.34 14.62 35.3 35.3 0 0 1-.52 5.87v-.16a68 68 0 0 0 9-1.83A75.6 75.6 0 0 0 97 101.2c.32-.2.75-1.21 1.43-.46-7.6 6.08-17 10.54-26.79 11.27-3.58-2.59-5.26-6.32-5.86-6.43a36.7 36.7 0 0 0-6.67.22h-3.42c-2.28 0-3-.11-3.12.08s1.29 2.4 1.82 5.29.69 6.05.84 6.28.88 0 1.33-.15 4.51-2.48 4.51-2.48.35 0 .55-.18.44-.34.53-.13c3 6.42 4.65 13 6.86 19.73a61 61 0 0 0 1.83 6.19 61.6 61.6 0 0 0 9.17.68 60.64 60.64 0 0 0 39.43-14.49c-2.42-7.38-8.05-17.22-10.81-24.26-1.61-4.09-3.52-8.45-7.57-10.5-5-2.52-10.47-2.52-16-2.52-2.06 0-4.12 0-6.16-.14z"/></clipPath><path id="B" d="M70.843 17.938a11.15 11.15 0 0 0-8 .22 13.2 13.2 0 0 0-3.22 1.94 10 10 0 0 0-1.52 1.59 7.1 7.1 0 0 0-2 4.41 3 3 0 0 0 1.12 2.51 5.6 5.6 0 0 0 3.07 1.1 10.2 10.2 0 0 0 3-.07 11.5 11.5 0 0 0 3.58-1.2 10.4 10.4 0 0 0 2.21-1.55 11.5 11.5 0 0 0 3.42-5.6l3.53-1.82a10.3 10.3 0 0 1-1 4.48 12 12 0 0 1-1.22 2.33 14.8 14.8 0 0 1-3.65 3.91 18.6 18.6 0 0 1-3.29 1.8 14.6 14.6 0 0 1-2.5.72 13.9 13.9 0 0 1-6.65-.26c-2.08-.59-3.85-1.73-5.91-2.24l.77-2.95c.23-1.02.29-2 .59-2.94a14 14 0 0 1 1.86-3.73 14.43 14.43 0 0 1 6.61-5.31 13.92 13.92 0 0 1 12.61.84z"/></defs><g class="B"><path d="M114.873 31.638a21.5 21.5 0 0 0 5.08-4.61c1.28-2.64 1.76-6.58-.08-9s-4.65-3.58-7.78-4.14c-5.6-1-10.54 1.47-15.84 1.92a63.81 63.81 0 0 0-61.46-.54c.72-3.21 1.73-6 .76-8.87a7.41 7.41 0 0 0-5.37-4.95c-4-.78-9.1 1.3-9.77 4.62-1.28 6.47-2 15-2.57 22.46-22.776 25.076-21.953 63.588 1.872 87.67s62.326 25.316 87.645 2.81 28.606-60.886 7.484-87.37"/><path d="M65.033 136.388c-25.653.013-48.913-15.063-59.378-38.484S-.521 47.098 16.603 27.998c.6-7.43 1.29-15.78 2.57-22.21.86-4.22 6.74-6.48 11.25-5.6a8.65 8.65 0 0 1 6.33 5.79 12.14 12.14 0 0 1-.08 6.89 65.08 65.08 0 0 1 59.85 1.63 43 43 0 0 0 5.18-1c3.35-.77 6.81-1.57 10.61-.89 2.53.45 6.16 1.42 8.58 4.63 2.18 2.9 1.63 7.4.2 10.34a1.4 1.4 0 0 1-.09.17 19.4 19.4 0 0 1-4.32 4.15 64.3 64.3 0 0 1 13.35 39.47c-.05 35.878-29.122 64.95-65 65M28.413 2.528c-3.14 0-6.33 1.66-6.75 3.75-1.26 6.37-2 14.79-2.55 22.22v.1a1.36 1.36 0 0 1-.32.78c-22.307 24.581-21.492 62.316 1.857 85.91s61.073 24.804 85.886 2.754 28.044-59.655 7.358-85.614a1.26 1.26 0 0 1 .26-1.83 19.9 19.9 0 0 0 4.71-4.22c1.1-2.34 1.46-5.68 0-7.62s-3.6-3-7-3.65-6.36.12-9.6.87a43 43 0 0 1-5.91 1.07 1.3 1.3 0 0 1-.74-.16 62.51 62.51 0 0 0-60.23-.53 1.29 1.29 0 0 1-1.35-.11 1.26 1.26 0 0 1-.47-1.29l.37-1.55c.6-2.45 1.12-4.56.42-6.64a6.16 6.16 0 0 0-4.4-4.1 8 8 0 0 0-1.53-.14"/></g><path d="M65.033 135.118c25.786.008 49.038-15.519 58.912-39.34s4.424-51.244-13.806-69.481S64.486 2.603 40.662 12.469 1.303 45.582 1.303 71.368a63.74 63.74 0 0 0 63.73 63.75" class="D"/><path d="M65.033 132.258c24.634.008 46.848-14.826 56.279-37.583s4.225-48.956-13.193-66.376S64.504 5.667 41.745 15.095 4.149 46.734 4.153 71.368a60.88 60.88 0 0 0 60.88 60.89" class="F"/><path d="M119.873 17.998c-1.88-2.5-4.65-3.58-7.78-4.14-5.6-1-10.55 1.47-15.85 1.92-3.5.61-5.63 1.37-8.83 1.37-2.27-1.78-10-6.24-13.7-7s-7.62-1.83-17.82-.61-21.61 7.92-21.61 7.92l.41-1.79c.73-3.39 1.87-6.28.86-9.3a7.41 7.41 0 0 0-5.37-4.95c-4-.78-9.1 1.3-9.77 4.62-1.28 6.47-2 15-2.57 22.46l-1.38 16.52c-.12 1.55-1.56 15.5-1.56 15.5s-4.05 2.23-5.25 4.53c-1.41 2.7-2 5.4-1 11.61.44 2.94-.84 1.84-.54 4.57.23 2.09-.48 1-.91 4a9.35 9.35 0 0 0 0 4.15 2.7 2.7 0 0 0 .26 2.59c.91 1.06 1.07.76 1.83 1.52a2.15 2.15 0 0 1 .56 1.8c.33 1.1 1.86 1.22 2.41 2.43 1.7 3.76 3.48 8.21 7.06 10 4.8 2.42 10.88-.42 15.75-.64.21 0 1.85 3.11 3.64 3.67 2.13.66 4.64-2.72 7-3.7.93-.37.8 1.1 1 1.71.59 1.8 1.17 3.54 1.6 5.45 1.28 5.77 3.47 10.71 4.46 16.46v.41a61.5 61.5 0 0 0 12.26 1.18 60.64 60.64 0 0 0 41.83-16.66c-5.38-9.18-8.85-19.44-14.57-28.86a17.55 17.55 0 0 0-6.4-5.78c7.52-2.65 15.79-5 20.26-12.69 3.46-5.9 3.34-12.61 1.36-18.68 5.09-3.06 2.72-9.95-.92-13.1 1.6-1.42 3.69-1.95 5.48-3 0 0 5.75-3.32 7.88-6.42 1.28-2.64 1.76-6.58-.08-9" class="C"/><path d="M86.083 83.008c-6.85-3.47-14.67-2.17-22.12-2.66l-9.59.31a24.3 24.3 0 0 1 5.34 14.62 35.3 35.3 0 0 1-.52 5.87v-.16a68 68 0 0 0 9-1.83 75.6 75.6 0 0 0 13.84-6.77c.32-.2.75-1.21 1.43-.46-7.6 6.08-17 10.54-26.79 11.27-3.58-2.59-5.26-6.32-5.86-6.43a36.7 36.7 0 0 0-6.67.22h-3.42c-2.28 0-3-.11-3.12.08s1.29 2.4 1.82 5.29.69 6.05.84 6.28.88 0 1.33-.15 4.51-2.48 4.51-2.48c.29.27.9-.7 1.08-.31 3 6.42 4.65 13 6.86 19.73a61 61 0 0 0 1.83 6.19 61.6 61.6 0 0 0 9.17.68 60.64 60.64 0 0 0 39.43-14.49c-2.42-7.38-8.05-17.22-10.81-24.26-1.61-4.09-3.52-8.45-7.57-10.5" class="B"/><path d="M69.323 41.388c-1.4 1.73-5 5.67-7.2 8.26-5.23 5.42-10.79 6.54-16.91 8.2-2.11.59-2.41 3.81-3.78 5.75-1.62-3.25-4.24-6.34-7.92-6.52a5.74 5.74 0 0 0-4.48 1.69c-.86.86-.35 3 .49 2.54 1.67-1 3.06-1.83 4.9-1 3.23 1.51 5.56 5.18 4.21 8.71-.44 1.14-1.84 1.14-2.93.88-3.74-.91-3.86-6.67-1.29-8.21.2-.12.19-.67-.25-.86a2.68 2.68 0 0 0-3.58 1 8.3 8.3 0 0 0-.91 6c.73 3.62 5 6.12 8.7 5.06a4.16 4.16 0 0 0 2.8-4.37 4.09 4.09 0 0 1 .5 4.51c-.61 1.15-2.07 1.33-3.14 2a5.89 5.89 0 0 0-2.85 5c5.11.08 8.91-.32 13.41-.07.82 0 .8-1.5 1.27-1.57 16-2.17 32.39 4.4 47-5.25a19.49 19.49 0 0 0 8.6-14.41 20.5 20.5 0 0 0-2.82-12.13c-4.68-8.37-10.17-15.74-15.4-23.53-3 1.22-5.45 3.59-7.77 5.93a87 87 0 0 0-10.65 12.39" class="E"/><path fill="#231815" d="m51.493 130.848.59.1"/><path d="M55.463 86.128c-1.08-1.89-2.46-4.75-3.76-4.83-5.49-.33-11.11 0-16.65.06-.54 0-.4.76-.25 1.1a32.2 32.2 0 0 1 3 12.81c0 .6 1 .43 1.16.42 6.29-.32 12.27.79 18.58-1a17.7 17.7 0 0 0-2.11-8.54m-22.83 20.04a13 13 0 0 0 5.08-1.81c.75-.52-1.27-6.46-2.49-7s-9.32.2-12.51-.54c-1.65-.38-1.19-1.12-2.21-.83a37.4 37.4 0 0 1-5.84 1.36c.42 4 3.32 6.89 6.09 9.06 2.45 1.9 9.75 0 12-.28z" class="D"/><path d="M17.663 47.768c-.44 4.1-.74 7.53-1 12.18 2.17-.88 5.58-.5 5.61-.62 4.14-17.81 8-31.95 11.47-48.74a5.94 5.94 0 0 0-2.71-6.57c-2.93-1.65-8.57-.23-9.28 4-2.34 13.85-2.6 26.09-4.07 39.8" class="B"/><path d="M31.653 75.498a56 56 0 0 0-3-5.5c-2.09 1.39-3.43 5.25-3.07 6.25a6.3 6.3 0 0 0 2.51 3.11c1.48.75 2.91.65 4.61.69.18 0 .77-.11.75-.3-.16-1.56-1.16-2.83-1.79-4.25" class="F"/><path d="M14.033 95.848c1.88.27 5.32 0 4.7-2.36a3.57 3.57 0 0 0-6.72-.59c-.14.32-.53.74-.38 1.15a2.7 2.7 0 0 0 2.4 1.8" class="B"/><path d="M37.173 68.188c1.18-.82.69-2.35.2-3.31s-.81-3.22-2.28-2.64-1.51 2.82-1.13 4.38c.29 1.23 1.72 2.6 3.21 1.57" class="E"/><path d="M99.453 25.188a10.3 10.3 0 0 0 .85-3.46c0-.21-.16-.61-.38-.42-1.8 1.5-3.45 4-6.12 3.31a5.7 5.7 0 0 0 1.1-3.77 17.5 17.5 0 0 1-5.82 2.25 37.9 37.9 0 0 0 6.21 8.79c.89.84 3.68-1.57 4.91-3.31-.76 0-2.89.23-2.83 0 .21-.85 1.58-2 2.08-3.36" class="F"/><path d="m53.083 96.418 2.2-.07c.6-.07 2.25-.39 2.25-.39a19.6 19.6 0 0 1-.19 3.13 14.3 14.3 0 0 1-.68 2.43 19.5 19.5 0 0 1-2.63-2.59 9.5 9.5 0 0 1-1-2.51m14-36.02a6.25 6.25 0 1 0-6.27-6.21 6.24 6.24 0 0 0 6.27 6.21" class="B"/><g class="C"><path d="M67.033 60.708a6.55 6.55 0 0 1-4.648-11.185 6.55 6.55 0 0 1 11.178 4.665 6.56 6.56 0 0 1-6.53 6.52m0-12.52a5.94 5.94 0 0 0-.066 11.88 5.94 5.94 0 0 0 4.275-10.112 5.94 5.94 0 0 0-4.209-1.768"/><path d="M69.033 58.248a4.09 4.09 0 0 0 2.922-6.982 4.09 4.09 0 0 0-6.982 2.922 4.1 4.1 0 0 0 4.06 4.06"/></g><path d="M90.093 52.938a5.63 5.63 0 0 0 4.008-9.604 5.63 5.63 0 0 0-9.618 3.974 5.62 5.62 0 0 0 5.61 5.63" class="B"/><g class="C"><path d="M90.093 53.238a5.93 5.93 0 0 1 .013-11.86 5.93 5.93 0 0 1 4.19 10.123 5.93 5.93 0 0 1-4.193 1.737m0-11.24a5.32 5.32 0 0 0-3.758 9.085 5.32 5.32 0 0 0 9.078-3.775 5.31 5.31 0 0 0-5.32-5.31"/><path d="M92.103 51.128a3.5 3.5 0 1 0 0-7 3.5 3.5 0 1 0 0 7m-17.56-6.03a9 9 0 0 0 .49-3.35 7.2 7.2 0 0 0-1.29-3.12 4.75 4.75 0 0 1 .76 2.43c.07 1.53-.15 1.22-.15 1.22s-2.29-3-3.58-3.58-2.06 2.9-2.06 2.9a6.8 6.8 0 0 1 2.67 1.14 25 25 0 0 1 2.51 2.21.88.88 0 0 0 .68.15m9.95-9.22a18.4 18.4 0 0 1 0 4.27 13.6 13.6 0 0 1-1.07 3.27s.08.31.61 0 2.13-2.36 3.88-3.58l3.66-2.81a5 5 0 0 0-.92-1.68c-.76-1-1.22-1.14-1.22-1.14a26 26 0 0 0-2.36 2.43 17 17 0 0 0-1.36 2.14c-.46 1-.39 1.06-.46.3a9.8 9.8 0 0 0-.76-3.2"/></g><path d="M71.033 55.188a.68.68 0 0 0 .494-1.157.68.68 0 0 0-1.164.477.67.67 0 0 0 .67.68" class="B"/><path d="M85.483 55.948a.3.3 0 0 1-.13 0c-.21-.13-.17-.33.27-1.24.7-1.41.65-1.64.58-1.95a1 1 0 0 1 0-.16.22.22 0 0 1 0-.16.4.4 0 0 1 0-.08 2.54 2.54 0 0 1-1.94 0 2.67 2.67 0 0 1-1.29-1.43.23.23 0 0 1 .14-.29.23.23 0 0 1 .29.13 2.3 2.3 0 0 0 1.06 1.18 2.15 2.15 0 0 0 1.69 0 .3.3 0 0 1 .14 0c.21.06.35.24.41.56a4.78 4.78 0 0 1-.76 3.2c-.14.18-.29.35-.44.35m-1.12 3.96h-.28a.23.23 0 0 1-.22-.24.24.24 0 0 1 .24-.22c.63 0 .75 0 .76-.06.14-.18 0-.83-.12-1.21a.225.225 0 0 1 .42-.16c.08.2.41 1.21 0 1.67-.13.16-.39.23-.85.23" class="C"/><path d="M84.113 59.778a19 19 0 0 1-2.87-.44l-4.18-.84-4.65 12.79z" class="B"/><path d="M72.413 71.518a.2.2 0 0 1-.12 0 .22.22 0 0 1-.09-.27l4.64-12.79a.24.24 0 0 1 .26-.14s3.21.61 4.19.83a18 18 0 0 0 2.83.44.24.24 0 0 1 .2.15.25.25 0 0 1-.05.25l-11.7 11.47a.23.23 0 0 1-.16.06m4.79-12.76-4.23 11.66 10.62-10.45a23 23 0 0 1-2.4-.41l-4-.8" class="C"/><g class="D"><path d="M75.593 62.328a8.3 8.3 0 0 0 1.92.89l2.74.46-8.07 7.94z"/><path d="M72.183 71.768a.13.13 0 0 1-.08 0 .16.16 0 0 1-.06-.18l3.4-9.29a.17.17 0 0 1 .23-.08 8.3 8.3 0 0 0 1.88.88c.82.22 2.7.44 2.72.45a.14.14 0 0 1 .13.1.17.17 0 0 1 0 .16l-8.07 7.94a.15.15 0 0 1-.11 0m3.49-9.21-3.11 8.48 7.36-7.25-2.45-.42a8.2 8.2 0 0 1-1.8-.81m-45.23-30.75-6.45 27.61c-.12.59 1.91 1 2.4.78 1.3-.72 1.31-2.64 2.79-3.25 1.27-.52 2.82-.4 3.85-1.12 8.96-6.22 17.19-11.85 25.79-16.88-6.83 5.48-15.15 11.2-22.6 16.45 6.69 3.5 19.58-.19 24.77-5.69 10.24-10.84 14.69-21.5 28.89-30.28.2-.12-.09-.52-.25-.48-1.24.38-2.82 1.67-3.61 1.15-6.09-3.95-11.72-7.59-18.76-8.45-6.25-.77-12.18.19-18.2 1.9a64.3 64.3 0 0 0-13.75 5.85c-1.08.6-1.68.13-2.35 2.53-.9 3.22-1.73 6.54-2.52 9.88"/></g><path d="M26.893 61.928c.92 2.4.5 4.15.19 6.13 1.45-1.91 2.86-6.4-.19-6.13" class="E"/><path d="M94.033 48.718a.62.62 0 0 0 .62-.61.61.61 0 0 0-.62-.61.6.6 0 0 0-.6.61.61.61 0 0 0 .6.61" class="B"/><path d="M10.103 91.258a1.27 1.27 0 0 0 1.14 0c1.88-1.24 4.5-2.06 6.14-.62 3.31 2.89 4 4.36 7.35 4.69a57 57 0 0 0 9.09 0c1.13 0 3.16.35 3.13-.36-.16-4.39-1.5-10-3.33-13.08-.36-.62-2.54-.15-4.8-.51s-2.88-2.91-4.68-4c-3.33-2-4-1.82-5.33-1.84a8.5 8.5 0 0 0-6 1.64c-1.88 1.39-2.37 3.35-1.44 2.93a6.18 6.18 0 0 1 4.43-.28 9.7 9.7 0 0 0-4.1.9 5.36 5.36 0 0 0-2.78 4c-.15.64.34.7.39.65 2-1.63 4.17-3 7-2.24a8.34 8.34 0 0 0-6.78 2.91 3.67 3.67 0 0 0-.42 2c.2.84.23.69.35.73s1.25-1 2.21-1.56a8.16 8.16 0 0 1 4.56-1.56c.5.15-.57 0-2.4.84a16.5 16.5 0 0 0-3.91 2.81c-.54.46-.73.69-.58 1.26a1 1 0 0 0 .88.72m14.16-17.83c.08-.91.12-1-.3-1.41a9.1 9.1 0 0 0-3.16-1.22 15 15 0 0 0-3.43-.26 24 24 0 0 0-2.51.46 4.5 4.5 0 0 1 2.51-.69 14.6 14.6 0 0 1 4.11.27c1.64.42 2.67 1.1 3.16 1s.57-1.42.57-1.42c.15-1.59-.83-2-2.37-2.47a11.8 11.8 0 0 0-2.62-.41 22 22 0 0 0-5 .83 9.36 9.36 0 0 1 5.17-1.18c3.52.12 4.58 1.23 4.58 1.23 1 .46.9-1 .77-2.22-.15-1.47-2.89-1.7-4.74-1.76a14 14 0 0 0-2 .06 21 21 0 0 0-3.12.76c1.25-1 3.23-1.14 5.14-1.22a8.73 8.73 0 0 1 4.64.93c.67.17 1-.41.67-1.41-.41-1.44-1.76-2-3-2.29a9.54 9.54 0 0 0-4.25 0c-3.26.67-6.08 2.26-7.41 5.07a13.1 13.1 0 0 0-.75 9.7 8.94 8.94 0 0 1 4-2.09 12.7 12.7 0 0 1 5.33-.15 12.8 12.8 0 0 1 2.89 1.14c.55.16 1.18-1.26 1.18-1.26" class="E"/><g class="B"><path d="M37.173 106.188c-.51 0-.59.47-.91.64a5.7 5.7 0 0 0 1.24 1.17c.25.13.76.32.85-.15a2.16 2.16 0 0 0-.36-2c-.12-.11-.62.3-.82.3"/><use xlink:href="#B"/></g><path d="M61.583 33.928a15 15 0 0 1-4.11-.59 23 23 0 0 1-2.94-1.15 18.5 18.5 0 0 0-2.94-1.1l-.92-.23.28-.91.75-2.9c.09-.38.15-.76.21-1.14a13.5 13.5 0 0 1 .4-1.86 15 15 0 0 1 2-4 15.16 15.16 0 0 1 7-5.64 14.69 14.69 0 0 1 13.44.92l1.28.86-5.11 2.74-.38-.14a10.3 10.3 0 0 0-7.34.21 12.5 12.5 0 0 0-3 1.79 8.6 8.6 0 0 0-1.38 1.45c-1 1.34-1.77 2.4-1.78 3.87a2.16 2.16 0 0 0 .7 1.74 4.85 4.85 0 0 0 2.68 1 9 9 0 0 0 2.77-.06 10.7 10.7 0 0 0 3.32-1.11 9.7 9.7 0 0 0 2-1.43 10.45 10.45 0 0 0 3.14-5.16l.11-.38.34-.18 3.39-1.82 1.19-.64.14 1.35a11.24 11.24 0 0 1-1 4.89 12.3 12.3 0 0 1-1.31 2.5 15.7 15.7 0 0 1-3.89 4.17 19.4 19.4 0 0 1-3.49 1.91 15.4 15.4 0 0 1-2.66.77 14.3 14.3 0 0 1-3 .31m-8.54-4.35c.81.27 1.58.6 2.32.93a21 21 0 0 0 2.71 1 12.9 12.9 0 0 0 6.23.26 14.5 14.5 0 0 0 2.35-.62 18 18 0 0 0 3.09-1.69 14 14 0 0 0 3.4-3.71 11.4 11.4 0 0 0 1.13-2.16 15.3 15.3 0 0 0 .8-2.6l-1.65.88a12.2 12.2 0 0 1-3.58 5.66 11.3 11.3 0 0 1-2.4 1.68 12.5 12.5 0 0 1-3.82 1.28 11 11 0 0 1-3.3.08 6.44 6.44 0 0 1-3.47-1.24 3.89 3.89 0 0 1-1.52-3.27 8.05 8.05 0 0 1 2.15-5 10.3 10.3 0 0 1 1.66-1.69 13.8 13.8 0 0 1 3.46-2.09 12.15 12.15 0 0 1 8.24-.37l1.56-.83a13.82 13.82 0 0 0-16.56 5 13 13 0 0 0-1.7 3.49 12 12 0 0 0-.33 1.58l-.23 1.26-.54 2.14" class="C"/><use xlink:href="#B" class="B"/><g clip-path="url(#A)" transform="translate(-14.967 -8.812)"><path d="m76.94 110.16-.62-.14a30.1 30.1 0 0 0-.46-12.36 24.5 24.5 0 0 0-4-8.63l.5-.4a24.8 24.8 0 0 1 4.12 8.87 30.6 30.6 0 0 1 .47 12.66" class="D"/><path d="m76.26 110.38-.61-.15a29 29 0 0 0-.4-12.5A25.3 25.3 0 0 0 71.11 89l.5-.4a25.7 25.7 0 0 1 4.26 9 29.4 29.4 0 0 1 .39 12.8" class="C"/><path d="M57.69 117.51h-.64a26.9 26.9 0 0 0-2.41-12l.57-.29a27.9 27.9 0 0 1 2.48 12.31" class="D"/><path d="M57.09 117.51h-.64a27.3 27.3 0 0 0-2.49-12l.57-.29a28.1 28.1 0 0 1 2.56 12.33" class="C"/></g><path d="M95.393 105.828a1.89 1.89 0 0 0-1.53-.7 2.72 2.72 0 0 0 .15-1.68 2.18 2.18 0 0 0-1.27-1.61 2.7 2.7 0 0 0-2.22.2l.06-.26-4.14 1.09-1 3a11 11 0 0 1-1 1.28c-.55.61-1 1.11-1.1 1s.63-1.37 1.45-2l-2.1-2.41a21 21 0 0 1-2.42 1.5s0-.35-.6-.65a2.25 2.25 0 0 0-2.67.63 2.75 2.75 0 0 0-.86 1.54l-3.82 1.49-.09.28a3.3 3.3 0 0 0-1.66.19 6 6 0 0 0-2.85 2.47 7.2 7.2 0 0 0-1.09 2.28l-2.52 3.24c-.77.89-2.31 2.8-3.06 2.62s-1-2.31-.73-3.93a10 10 0 0 1 2.46-5.4c1.15-1.15 2.06-1.5 2.37-1.39.5.19 0 1.05-.36 1.81l-2 3.33 4.24-2.13a6.6 6.6 0 0 0 1.37-3.19c.12-1.65-1.7-3.08-3.79-2.64s-5.57 2.24-8.3 7.82c-2.4 4.89-1.34 8.58.06 10a3.78 3.78 0 0 0 4.07.78c-.68.61-1.37 1.34-2.12 2.07a24.6 24.6 0 0 1 7.23-2c3.56-.34 5.11.7 5.11.7a20.5 20.5 0 0 1 5.06-6.42 29.2 29.2 0 0 1 7.31-4.05l-.46 2.64 4.57-2.29.51-2.44 3.25-1.18a24 24 0 0 0 3.46-1.49 3.7 3.7 0 0 0 1.49-1.91 2.35 2.35 0 0 0-.42-2.19m-19.24 1.24a2 2 0 0 0 .16.77 1.1 1.1 0 0 0 .45.53 7.4 7.4 0 0 1-.76 1.74c-.57 1-.9 1.54-1.09 1.47s.63-2.68 1.24-4.51m-5.79 5.45c.3-.71.61-1.36 1-1.23s.09.66-.27 1.51-.64 1.38-.88 1.29 0-1.05.2-1.57m-7 9.74a26.8 26.8 0 0 0 3.44-4.36 1.46 1.46 0 0 0 1.09.77 2.9 2.9 0 0 0 1.1-.07l-.16.1c-1.66 1.07-3.49 2.18-5.47 3.56m6.88-4.43a8 8 0 0 0 1.21-1.58 1.5 1.5 0 0 0 1 .29c-.73.39-1.48.82-2.26 1.29m7.23-3.77-2.3 1.09a12 12 0 0 0 1.32-1.38 18 18 0 0 0 2.29-4 2.58 2.58 0 0 0 .12 2c.83 1.34 2.57.53 2.57.53l-4 1.82m12.18-7.49c0-.48-.28-.4-.28-.4.33-1 .79-1.47 1-1.41s.18.43-.16 1.08a2.2 2.2 0 0 1-.54.73m2.72 1.76a11.8 11.8 0 0 1-2.28.91 4.8 4.8 0 0 0 1.53-.92c.69-.64 1-1.16 1.35-.91s0 .55-.6.92" class="C"/><path d="m92.683 106.038.29-.67a4.5 4.5 0 0 0 .26-.81 2.2 2.2 0 0 0-.2-1.32 1.59 1.59 0 0 0-1.5-.85 2.9 2.9 0 0 0-1.49.54 6.4 6.4 0 0 0-.71.62l.21-.7-2.47.75-1 2.69a17 17 0 0 1-2.24 2.42c-.85.71-1.75.77-1.38-.3a6.7 6.7 0 0 1 1.32-2.22l-1.25-1.24a13 13 0 0 1-1.71 1 7.3 7.3 0 0 1-1.26.53c-.08 0-.12-.06-.07-.2s.16-.68-.09-.91-.77-.37-1.43 0a2.57 2.57 0 0 0-1.18 1.51 1 1 0 0 0 .38 1c.32.21.49.16.49.16a.05.05 0 0 1 0 .06 18.5 18.5 0 0 1-1.16 2.36 11 11 0 0 1-1.55 2c-.57.38-.92.22-.8-.58a18 18 0 0 1 .51-2l.62-2-2.51 1-.18.64a1.5 1.5 0 0 1-.28-.19c-.32-.23-1-.26-1.93.21a4.5 4.5 0 0 0-1.71 1.42 10 10 0 0 0-1 1.57 5.6 5.6 0 0 0-.45 1.22s-1.44 2.14-2.73 3.64-1.93 2.19-2.73 2.52c-1 .43-1.67 0-2-1.07-.55-1.76-.08-4.83.88-6.85 1.61-3.4 4.25-4.7 5.12-4.06s-.79 3.32-1.57 4.39l2.26-1.13a6.1 6.1 0 0 0 1.11-2 2 2 0 0 0-1.72-2.58c-2.3-.24-6 1.61-8.56 7-2.34 5-1.3 8.6.42 9.73 1.25.82 3.36 1.08 7.34-4.35 1.1-1.51 1.93-2.84 1.93-2.84s0 .25.12.61a1.32 1.32 0 0 0 1.54 1 4 4 0 0 0 1.62-1.22 12 12 0 0 0 1.23-1.79s.1 0 .08.07a.85.85 0 0 0 .37.78 1.49 1.49 0 0 0 1.28-.11c2.22-.94 3.6-3.55 4.25-4.66a28 28 0 0 0 1.41-2.85l.52-.19c.47-.18 1.34-.59 1.34-.59a10.6 10.6 0 0 0-1.49 2.66c-.46 1.79.74 2.45 2.14 1.9a16.4 16.4 0 0 0 4-3s-.81 2.84-.89 2.87c-.78.27-8.12 3.46-10.48 4.77-1.38.77-3.58 1.89-6.2 3.65-3.15 2.11-6.14 4.5-6.14 4.5a15.8 15.8 0 0 1 3.41-.93 17.2 17.2 0 0 1 3.44-.17 7.6 7.6 0 0 1 1.69.3 23.4 23.4 0 0 1 4.93-5.45 48.8 48.8 0 0 1 9-5.15l-.47 2.47 2.8-1.4.44-2.21 6.13-2.33c3.29-1.36 2.2-4.84-.3-3.68m-21.08 6.8c-.18.42-1 2.24-1.74 2.08-.57-.12-.42-1.59 0-2.47.19-.45.87-2.14 1.78-2 .44.1.52 1.1 0 2.34m17.43-6a.29.29 0 0 0-.1-.25.25.25 0 0 0-.15-.06h-.14v-.11l.07-.22a4.6 4.6 0 0 1 .49-1 2.9 2.9 0 0 1 .94-1c.31-.2.64-.21.76.22a2.3 2.3 0 0 1-.14 1.3 4.4 4.4 0 0 1-.69 1.25 1.7 1.7 0 0 1-.92.71.47.47 0 0 1-.52-.31c-.1-.3.14-.63.41-.46m4.34 1.39a3.1 3.1 0 0 1-1.12.73c-.25.09-2 .68-3.45 1.16l-1.68.56.32-1.2c.1-.34.32-.94.32-.94.25.5 2 .85 3.6-.88a6 6 0 0 1 .94-.93c1-.63 2 .54 1.07 1.5" class="D"/><g class="C"><path d="M66.543 98.568c0-.07 0-.1-.05-.21a1 1 0 0 1-.1-.21l.58.21a.13.13 0 0 0 .12 0 .1.1 0 0 1 .14-.13h.08a1 1 0 0 0 .53-.88.8.8 0 0 0-.42-.62.5.5 0 0 0 .23-.18.39.39 0 0 0 0-.46.8.8 0 0 0-.12-.15.37.37 0 0 0 .12-.23.51.51 0 0 0-.22-.43.35.35 0 0 0 .1-.2.42.42 0 0 0-.21-.41l-.09-.08-.1-.14.07-.08a.2.2 0 0 0 .09 0 .63.63 0 0 1 .35.12.31.31 0 0 0 .48 0 .43.43 0 0 0 0-.52.9.9 0 0 1-.1-.25.5.5 0 0 0 0-.12h-.18a.26.26 0 0 1-.21-.05.4.4 0 0 0-.43 0 .2.2 0 0 0-.06-.1.18.18 0 0 0-.19 0 .67.67 0 0 1-.38 0h.14a.45.45 0 0 0 .21-.31.3.3 0 0 0 0-.1 3.5 3.5 0 0 0 .88.47 2.3 2.3 0 0 0 1 .15 1 1 0 0 0 .29-.08.5.5 0 0 0 .23-.26c.16-.45-.45-1-1.37-1.34a13 13 0 0 0-1.7-.38 2.1 2.1 0 0 0 .79-.43c.17-.14.28-.26.27-.31s-.07-.06-.18-.11a1.3 1.3 0 0 1-.35-.25c-.29-.26-.29-.39-.35-.4s-.16.13-.17.15l-.09.1a1.2 1.2 0 0 1-.42-.23c.53-.08.68-.4.69-.66a1 1 0 0 0-.32-.74 1.6 1.6 0 0 0-.55-.37.84.84 0 0 0 .16-.43 1 1 0 0 1 0-.1h.06l.14-.09a.56.56 0 0 0 .19-.45.21.21 0 0 0-.18-.18 1 1 0 0 1-.38-.16l-.21-.1h-.05a.3.3 0 0 0 0-.07.26.26 0 0 0 .13.06 1.2 1.2 0 0 1 .47.13.5.5 0 0 0 .35.11.28.28 0 0 0 .18-.13c.13-.23-.1-.47-.19-.56a1.2 1.2 0 0 1-.19-.29v-.09a.19.19 0 0 0-.19 0 .37.37 0 0 1-.29 0 .47.47 0 0 0-.5 0 .17.17 0 0 0-.06.11.34.34 0 0 1 0-.15s0-.15-.07-.16-.08 0-.28 0a1.5 1.5 0 0 1-.57-.08l-.32-.09a2 2 0 0 1-.3-.2 2.5 2.5 0 0 1 .76.09 8.9 8.9 0 0 1 2.82 1 5 5 0 0 1 .56.43.7.7 0 0 0-.14 0 .7.7 0 0 0-.27.12s-.12.12-.11.18.12.06.38.24a1.2 1.2 0 0 1 .34.33 2 2 0 0 1 .21.45.24.24 0 0 0 .16.15.57.57 0 0 0 .56-.31c.17-.35.08-.77-.32-1.32a6.8 6.8 0 0 0-3.2-2.24l-.85-.28-.26-.3 1.09.35a7.4 7.4 0 0 1 1.77.9.23.23 0 0 0 .15 0l.5-.2a4 4 0 0 0-.35-.35 2.22 2.22 0 0 1-.81-1.48 1.74 1.74 0 0 0-.5-1 1.6 1.6 0 0 0-1-.49 1 1 0 0 0-1 .76.19.19 0 0 0 .06.18l-.61-.23-1-.32a3 3 0 0 0-.88-.52 1.5 1.5 0 0 0-.63-.09.66.66 0 0 0-.32.13.61.61 0 0 0-.14.62 1.07 1.07 0 0 0 .63.7 4 4 0 0 0 .96.26l.73.5a3.5 3.5 0 0 0-.72 0c-.33 0-.59.16-.62.43s.17.55.64.9l.37.25a.39.39 0 0 0-.16.33c0 .29.27.6.86 1l.56.3a.85.85 0 0 0-.35 0 .5.5 0 0 0-.16 0 .4.4 0 0 0-.2.25c-.08.36.32.76.87 1.17a.7.7 0 0 0-.24.53c0 .43.37.82 1 1a.7.7 0 0 0-.22.11.6.6 0 0 0-.25.52 1 1 0 0 0 .38.68h-.13c-.02 0 0 .12 0 .19l.21.81c0 .08 0 .14.13.13h.24-.05a.4.4 0 0 0-.18.25c0 .23.07.42.33.62a.5.5 0 0 0-.16.21.58.58 0 0 0 .18.56c-.06 0 0 .11 0 .18l.23 1.43c0 .08.06.14.14.13a.45.45 0 0 0-.12.21c-.06.25.14.49.4.67a.68.68 0 0 0-.24.36.55.55 0 0 0 .17.5.36.36 0 0 0-.1.18 1 1 0 0 0 .17.58c0 .05.1.21.15.32h.77m-2.53-15.79h.11a1.07 1.07 0 0 1 .79.38.23.23 0 0 0 .18.09h.06a.22.22 0 0 0 0 .14 12 12 0 0 0-1.19-.57"/><path d="M66.413 98.768h-.61a.16.16 0 0 1-.14-.09c0-.09-.09-.2-.13-.27a1.12 1.12 0 0 1-.19-.68.5.5 0 0 1 .06-.15.6.6 0 0 1-.12-.54.9.9 0 0 1 .15-.31.71.71 0 0 1-.31-.72.5.5 0 0 1 0-.11.3.3 0 0 1-.07-.17l-.24-1.42a.5.5 0 0 1 0-.23.66.66 0 0 1-.13-.62.6.6 0 0 1 .08-.14.67.67 0 0 1-.25-.66.3.3 0 0 1 0-.09.31.31 0 0 1-.17-.24l-.2-.8a.37.37 0 0 1 0-.32 1.1 1.1 0 0 1-.27-.62.77.77 0 0 1 .26-.62 1.18 1.18 0 0 1-.75-1 .9.9 0 0 1 .17-.5c-.45-.35-.9-.78-.8-1.22a.52.52 0 0 1 .3-.36h-.07c-.64-.37-1-.73-.94-1.09a.56.56 0 0 1 .09-.31l-.16-.3c-.52-.39-.75-.73-.71-1s.19-.49.76-.57h.22l-.27-.17a3.7 3.7 0 0 1-1-.3 1.24 1.24 0 0 1-.72-.81.69.69 0 0 1 .6-.93 1.6 1.6 0 0 1 .7.08 3.3 3.3 0 0 1 .9.54l1 .31.34.12a1.16 1.16 0 0 1 1.2-.85 1.7 1.7 0 0 1 1.1.54 1.9 1.9 0 0 1 .53 1.04 1.9 1.9 0 0 0 .68 1.15l.14.14a2 2 0 0 1 .22.23.14.14 0 0 1 0 .14.13.13 0 0 1-.09.1l-.51.2a5.8 5.8 0 0 1 1.33 1.29c.44.6.55 1.07.34 1.48a.69.69 0 0 1-.71.39.35.35 0 0 1-.3-.25 1.6 1.6 0 0 0-.2-.42.77.77 0 0 0-.29-.27l-.2-.18c-.08 0-.16-.09-.19-.19a.39.39 0 0 1 .15-.32.6.6 0 0 1 .17-.11l-.28-.2a5 5 0 0 0-.45-.18c.22.25.27.48.14.69a.38.38 0 0 1-.29.2v.06a.69.69 0 0 1-.26.59l-.15.09a1.2 1.2 0 0 1-.09.33 2 2 0 0 1 .44.33 1.14 1.14 0 0 1 .36.86.82.82 0 0 1-.17.47.27.27 0 0 1 .18.14 1.3 1.3 0 0 0 .26.3 1.3 1.3 0 0 0 .3.23h.07c.07 0 .18.07.2.2s-.06.25-.31.46a1.7 1.7 0 0 1-.35.24 10 10 0 0 1 1.19.3 2.45 2.45 0 0 1 1.43 1 .7.7 0 0 1 0 .54.66.66 0 0 1-.31.35 1.2 1.2 0 0 1-.34.1 2 2 0 0 1-.6 0 1 1 0 0 0 .07.18.54.54 0 0 1 0 .71.5.5 0 0 1-.29.18.52.52 0 0 1-.41-.14.49.49 0 0 1 .15.46 1 1 0 0 1-.05.15.6.6 0 0 1 .17.47.55.55 0 0 1-.1.25v.06a.56.56 0 0 1 0 .63 1 1 0 0 1-.09.1.87.87 0 0 1 .3.59 1.14 1.14 0 0 1-.6 1h-.12a.3.3 0 0 1-.09.11.29.29 0 0 1-.25 0h-.05l-.18-.07a.26.26 0 0 1 0 .21.27.27 0 0 1-.27.13m0-.27.15.07-.14-.08m-.51-.07h.48a1.3 1.3 0 0 1-.12-.25.15.15 0 0 1 .2-.2l.55.2a.14.14 0 0 1 .07-.11.15.15 0 0 1 .16 0 .85.85 0 0 0 .46-.73.67.67 0 0 0-.35-.51.16.16 0 0 1 0-.29.25.25 0 0 0 .13-.39l-.1-.14a.13.13 0 0 1-.05-.12.24.24 0 0 1 .06-.11.27.27 0 0 0 .07-.13c0-.09 0-.17-.18-.3a.16.16 0 0 1 0-.11.17.17 0 0 1 0-.12.2.2 0 0 0 .06-.1c0-.12-.05-.18-.15-.27a.6.6 0 0 1-.12-.1.7.7 0 0 1-.11-.17.14.14 0 0 1 0-.19.14.14 0 0 1 .11-.07.17.17 0 0 1 .12 0 .8.8 0 0 1 .44.16c.06 0 .1.07.15.06a.18.18 0 0 0 .1-.06s.08-.15 0-.33a.9.9 0 0 1-.13-.31.41.41 0 0 1-.34-.07.23.23 0 0 0-.24 0 .14.14 0 0 1-.15 0 .17.17 0 0 1-.1-.12.85.85 0 0 1-.46 0 .16.16 0 0 1 0-.31h.09a.32.32 0 0 0 .13-.2.15.15 0 0 1 .08-.16.15.15 0 0 1 .17 0 3.2 3.2 0 0 0 .84.45 2.3 2.3 0 0 0 .89.14.6.6 0 0 0 .24-.07.28.28 0 0 0 .15-.17.32.32 0 0 0 0-.28 2.1 2.1 0 0 0-1.23-.85 13 13 0 0 0-1.67-.38.16.16 0 0 1-.14-.14.16.16 0 0 1 .12-.16 2.1 2.1 0 0 0 .73-.4l.15-.14a2 2 0 0 1-.39-.28 1.8 1.8 0 0 1-.26-.3l-.11.12a.14.14 0 0 1-.17 0 1.2 1.2 0 0 1-.47-.27.16.16 0 0 1 0-.17.17.17 0 0 1 .13-.1c.35 0 .54-.23.55-.51a.84.84 0 0 0-.27-.62 1.45 1.45 0 0 0-.5-.33.16.16 0 0 1-.06-.25.67.67 0 0 0 .12-.34.44.44 0 0 1 .07-.2l.09-.06.13-.08a.36.36 0 0 0 .12-.31 1.3 1.3 0 0 1-.43-.17h-.06l-.15-.08a.3.3 0 0 1-.11-.11v-.14a.23.23 0 0 1 .12-.12.2.2 0 0 1 .15 0 1.3 1.3 0 0 1 .55.16.36.36 0 0 0 .23.08h.07c.07 0 0-.21-.16-.37a1.8 1.8 0 0 1-.23-.33.56.56 0 0 1-.42-.06.3.3 0 0 0-.31 0 .17.17 0 0 1-.14.14.18.18 0 0 1-.17-.08 1 1 0 0 1-.06-.19h-.18a1.7 1.7 0 0 1-.61-.09l-.32-.09-.32-.21a.16.16 0 0 1-.06-.17.16.16 0 0 1 .14-.12 3.6 3.6 0 0 1 .81.09 9 9 0 0 1 2.78.96 4 4 0 0 1 .58.44.16.16 0 0 1-.13.28.2.2 0 0 0-.08 0 .4.4 0 0 0-.21.08l.27.16a1.2 1.2 0 0 1 .38.37 2.2 2.2 0 0 1 .24.5.39.39 0 0 0 .38-.22c.1-.19.17-.51-.3-1.16a6.7 6.7 0 0 0-3.12-2.18l-.84-.27h-.08a4 4 0 0 0-.26-.31.17.17 0 0 1 0-.19.14.14 0 0 1 .18-.06l1.11.35a8 8 0 0 1 1.8.92l.29-.11-.15-.15a2.27 2.27 0 0 1-.79-1.45 1.67 1.67 0 0 0-.45-.91 1.43 1.43 0 0 0-.91-.44.84.84 0 0 0-.87.64h.1a1.14 1.14 0 0 1 .94.44.17.17 0 0 1 .18 0 .18.18 0 0 1 .07.17.2.2 0 0 1 0 .07.16.16 0 0 1-.08.14.18.18 0 0 1-.16 0 10 10 0 0 0-1.09-.45.2.2 0 0 1-.07 0h-.03l-.6-.23-1-.32a3 3 0 0 0-.83-.49 1.35 1.35 0 0 0-.56-.08.44.44 0 0 0-.23.09.45.45 0 0 0-.1.46 1 1 0 0 0 .55.6 3.6 3.6 0 0 0 .94.27h.08c.24.14.48.31.75.5a.15.15 0 0 1 0 .19.15.15 0 0 1-.16.1 2.6 2.6 0 0 0-.68 0c-.31 0-.47.14-.5.29s.07.37.59.75c.11.09.23.17.35.25a.13.13 0 0 1 .08.12.15.15 0 0 1-.07.14.23.23 0 0 0-.11.21c0 .16.13.43.78.81l.55.29a.16.16 0 0 1 .08.19.15.15 0 0 1-.18.11 2 2 0 0 0-.3 0h-.11a.19.19 0 0 0-.12.14c0 .23.22.56.82 1a.17.17 0 0 1 .06.12.18.18 0 0 1 0 .12.57.57 0 0 0-.19.42c0 .35.32.69.85.86a.16.16 0 0 1 .11.15.17.17 0 0 1-.11.15.8.8 0 0 0-.18.08.47.47 0 0 0-.18.39.86.86 0 0 0 .32.57.14.14 0 0 1 0 .15.15.15 0 0 1-.12.12l.21.82h.2a.15.15 0 0 1 .17.12.16.16 0 0 1-.09.18.23.23 0 0 0-.11.15c0 .11 0 .25.27.46a.17.17 0 0 1 0 .26.33.33 0 0 0-.12.14c0 .12.08.3.16.4a.17.17 0 0 1 0 .12.2.2 0 0 1-.07.11l.23 1.43h.05a.2.2 0 0 1 .1.12.16.16 0 0 1 0 .14.4.4 0 0 0-.07.14c0 .19.18.39.33.5a.2.2 0 0 1 .07.12.2.2 0 0 1-.06.13.46.46 0 0 0-.18.27.36.36 0 0 0 .12.36.15.15 0 0 1 0 .21.25.25 0 0 0-.07.12c0 .09.06.24.16.47l.09.19m1.13-5.14h.09"/></g><path fill="#ce0e2d" d="m65.163 85.908.27.55a1.3 1.3 0 0 1 .57.17c.14.09.22.11.27 0s0-.19-.15-.35a1.4 1.4 0 0 1-.23-.34.6.6 0 0 1-.45-.08c-.14-.09-.32 0-.28 0m2.08 7.83.11.48a.85.85 0 0 1 .44.15c.09.08.16.1.22 0s0-.16 0-.3a.9.9 0 0 1-.13-.3.4.4 0 0 1-.35-.08c-.1-.08-.25 0-.24 0"/><path d="M66.183 98.038c0-.09.16-.11.28-.07l.57.22v-.27l.3.16s.45-.26.41-.67-.24-.5-.62-.66a1.9 1.9 0 0 0-.73-.13c-.09-.07-.18-.17-.14-.25s.26-.13.41-.06.76.41.92.16 0-.32-.36-.64c.18 0 .34 0 .35-.15s-.25-.35-.5-.57c.19 0 .36.08.38-.06s-.15-.24-.26-.36a.9.9 0 0 1-.16-.27.6.6 0 0 1-.48.13l-.31-.06c-.32-.21-.38-.38-.34-.46s.47 0 .7.12.38.19.46.17.21-.14.09-.37a.6.6 0 0 1-.07-.38 1 1 0 0 1-.69-.06l-.42-.12c-.26-.14-.34-.27-.31-.33s.25-.08.51 0 .59.17.64-.09-.25-.5-.56-.78h.22a4.5 4.5 0 0 0 1.47 1c.56.19 1.14.21 1.24-.08s-.35-.81-1.27-1.11a16 16 0 0 0-2.11-.45l-.18-.18h.27a1.87 1.87 0 0 0 1.14-.59 2.2 2.2 0 0 1-.65-.56l-.19.21c-.55-.2-.71-.4-.73-.62.42 0 .76-.11.78-.51s-.35-.89-1.14-1a2.1 2.1 0 0 0-.65 0c-.35-.23-.43-.38-.42-.46s.12-.14.34-.06.68.38.84.43.29-.14.32-.41.1-.21.28-.34a.38.38 0 0 0 .13-.3 2 2 0 0 1-.66-.29.22.22 0 0 0-.32.12c-1.22-.46-1.49-.73-1.46-.86s.59 0 .93.24.54.31.63.28.2-.17-.06-.47a.8.8 0 0 1-.23-.46s-.14.12-.77-.06a3 3 0 0 0-.34-.09c-.28-.17-.51-.33-.52-.42s.27-.2 1 0a9.4 9.4 0 0 1 2.89.97c.69.46 1 .88.93.94s-.1-.07-.35-.15a.4.4 0 0 0-.4 0 1.58 1.58 0 0 1 .87 1 .38.38 0 0 0 .37-.22c.12-.24.1-.58-.3-1.14a6.73 6.73 0 0 0-3.09-2.17l-.89-.29-.7-.77a17 17 0 0 1 1.65.51 7 7 0 0 1 1.83.93l.28-.11a2.7 2.7 0 0 1-1-1.57 1.5 1.5 0 0 0-1.2-1.21.87.87 0 0 0-.88.65c.56-.15 1.07.45 1.07.45s.12-.44.41-.27.19.27.08.35-.21.09-.17.16.22.2.41.39a3 3 0 0 1 .33.43 12 12 0 0 0-2.88-1.45q-.66-.23-1-.33a3.4 3.4 0 0 0-.84-.52c-.63-.2-1 0-.89.49s.76.7 1.42.82h-.06a11 11 0 0 1 1.29.93c-1-.18-1.71-.13-1.76.22s.83.93 1.31 1.19c-.28 0-.48.06-.48.28 0 .45 1.21 1.1 2.44 1.51 0 .16 0 .28-.13.25s-1.49-.7-1.6-.21c-.08.31.52.78 1 1.12a.61.61 0 0 0-.37.53c0 .44.52.8 1.16.9a.74.74 0 0 0 .13.29c-.37-.15-.82 0-.8.43a1.07 1.07 0 0 0 .81.82 2 2 0 0 0 .13.17c-.29 0-.53-.09-.71-.13l.21.81a5.7 5.7 0 0 1 1 0c.21.15.3.25.26.32s-.18 0-.4 0-.67 0-.72.19.14.39.61.66c-.33 0-.42.1-.46.2s.23.5.67.83a3.3 3.3 0 0 1-.53-.19c0 .23.06.35.09.58l1.37.26c.07.09.06.18-.08.18-.42 0-1-.2-1.24-.16 0 .23.06.35.09.58a2.26 2.26 0 0 1 1.33.08.15.15 0 0 1 0 .14c0 .1-.13.08-.4 0s-.86-.06-.92.2.26.47.6.65a.55.55 0 0 0-.44.37c0 .18.11.35.27.49-.11 0-.19.11-.2.19s.17.45.28.72h.39a.62.62 0 0 1-.12-.39m1.51-5.53c.36.11.77.35.78.45s-.25.14-.71-.08a3.6 3.6 0 0 1-.86-.56 6 6 0 0 1 .79.19m-3.3-3.46c0-.29.45-.25.75-.17s.38.18.4.33a.49.49 0 0 0-.56.15v.09c-.27 0-.57-.17-.55-.4m1 1.82c-.27 0-.59-.09-.55-.28s.5 0 .5 0a1.4 1.4 0 0 1-.09-.36 2.1 2.1 0 0 0 .69.38 1.25 1.25 0 0 1-.55.25m1.53 6.77-.62-.13c-.11-.06-.19-.13-.17-.24s.36-.2.48-.17.51.1.54.31a.4.4 0 0 1-.22.33.3.3 0 0 0 0-.1" class="D"/></svg>