<svg xmlns="http://www.w3.org/2000/svg" height="280.306" viewBox="0 0 481.89 378.561" width="356.753" xmlns:v="https://vecta.io/nano"><style><![CDATA[.B{fill:#790020}.C{fill:#fff}.D{fill:#d0b581}.E{fill:#f287b7}]]></style><g fill="#faa61a"><path d="M382.274 313.613l-5.136.181c1.972 1.507 5.263 3.361 6.99 4.328l2.194 1.233c6.653 3.799 11.855 8.226 15.489 13.059 23.365-2.247 40.111-6.035 55.112-12.41 1.579-.683 2.921-1.767 3.88-3.084l2.787-1.141c3.317-1.405 5.597-4.549 5.682-7.817l.069-2.594-2.585.458c-20.651 4.012-47.493 6.488-84.482 7.787m34.909 20.383l-10.607-.157-3.763-.057.083.148c3.943 5.823 5.627 12.234 4.861 18.825 11.845-1.214 20.671-2.945 29.983-5.85 1.681-.532 3.256-1.598 4.436-2.885l1.636-.51c3.392-1.063 6.369-4.241 6.645-7.097l.245-2.332-2.383.036c-11.711.196-21.142.048-31.136-.121M82.255 350.949l-.317-2.637-.784-6.572-.507-4.183h-.003l-.222-1.812-.223-1.9c.007 0-1.89.024-1.89.024l-8.914.127-35.823.121-2.382-.036.237 2.332c.286 2.842 3.259 6.028 6.62 7.097l1.663.499c1.173 1.286 2.75 2.358 4.426 2.89 11.485 3.642 24.723 5.303 38.45 6.753l-.331-2.703m-2.679-22.032h.03l-.294-2.564-1.399-12.021-.202-1.77-1.785-.1c-17.034-.939-37.585-2.464-60.821-6.635l-2.56-.414.068 2.549c.092 3.292 2.379 6.434 5.692 7.826l2.709 1.09c.968 1.344 2.336 2.452 3.959 3.126 15.083 6.297 33.579 10.453 55.017 12.355l-.414-3.442z"/><path d="M478.758 255.917c-31.29 16.853-61.309 26.137-97.342 30.193-20.134 2.262-29.012 9.233-32.604 16.358-.62.667-1.179 1.338-1.653 2.02l1.32-12.639.258-2.48-2.482.139-31.653 1.576c-10.119.43-16.784 5.298-18.269 13.172-1.134 1.954-1.806 4.267-1.959 6.877l-1.695 32.392-.604-.03-23.105-.783 1.068-48.202-.01-2.045-2.038-.072c-.055-.009-6.359-.233-10.878-.233-5.941 0-9.338 3.458-9.338 9.477l-.007 2.344c-.127.719-.197 1.483-.197 2.268l-.154 20.369c-.387-2.994-1.637-5.421-3.422-7.216-2.165-2.18-5.379-3.328-9.28-3.328h-19.246l.367 20.586h11.267l.09 8.061c-1.002.287-2.544.556-3.599.568-5.153-.106-7.88-2.854-9.36-7.813-.402-2.423-.634-5.268-.764-8.436-.212-6.364-.102-14.065 2.79-17.08.988-1.023 2.257-1.488 3.993-1.488 1.989 0 3.733.546 4.669 1.48.417.419.617.869.617 1.392v2.054h20.982l.047-4.374v-2.114c0-8.321-7.339-18.163-28.061-18.36-8.814.088-15.69 2.691-20.431 7.735-5.698 6.052-8.274 15.524-7.661 28.239a58.23 58.23 0 0 0 .429 3.987l-9.833-26.252c-.177-.48-.376-.936-.599-1.384l-1.254-3.328c-1.869-5.037-6.086-8.23-10.98-8.336-3.529-.081-13.825-.549-13.926-.558l-1.735-.073-.418 1.688-4.868 19.439-.3-1.235c-.684-2.815-2.049-5.349-3.989-7.611-3.806-8.566-14.182-14.331-27.97-15.34C72.59 284.41 34.975 273.809 3.17 255.935L0 254.156l.012 3.625c.011 4.367 1.631 7.916 4.927 10.833 2.225 1.969 4.643 3.887 7.231 5.763 15.959 13.99 41.862 26.028 68.736 32.047l2.27 20.532 2.728 24.02c1.541 10.619 5.014 17.578 10.606 21.335 1.004.673 2.087 1.238 3.23 1.718.369.284.725.556 1.109.81 6.036 4.047 14.474 4.4 27.41 1.159l11.83-2.878 18.099-4.503 1.232-.326.251-1.256 7.803-41.064 3.455 12.984 5.83 21.737.485 1.8 1.119-.139.316 1.217.469 1.74c.009.015 1.792-.224 1.792-.224 5.457-.739 11.949-1.462 19.287-2.153l2.662-.257-.952-2.515-2.934-7.893c6.891 9.303 17.282 11.242 24.396 11.317 8.352-.06 16.847-2.905 22.727-7.62l1.012-.782-.044 4.089-.016 2.051 2.052.025c12.425.123 30.868.99 40.522 2.358l2.226.317v-.118l1.652.2c7.222.84 21.313 2.631 34.42 5.442 4.413.949 9.422 2.184 14.727 3.494 7.545 1.858 15.323 3.791 21.667 4.921 9.66 1.733 17.869-.447 23.925-4.612 8.085-3.661 13.571-10.417 15.442-17.59 3.271-12.489-3.701-24.66-19.081-33.434l-2.175-1.226c-6.548-3.673-10.557-6.17-10.255-9.282 1.092-.401 2.501-.745 4.32-.999 40.493-5.585 69.256-16.865 93.28-36.514a15.48 15.48 0 0 0 1.065-.958 165.68 165.68 0 0 0 6.01-4.69c3.352-2.734 4.996-6.298 5-10.876l.015-3.558-3.132 1.694zM137.03 350.722c-5.761 1.124-13.827 2.579-20.674 3.549-.471.076-.903.109-1.316.115-.122-.49-.22-1.033-.288-1.637l-.164-1.465-1.662-15.503c8.509.622 17.089 1.06 25.585 1.247l2.14.058-3.621 13.636m3.725-14.05l-.162-1.845-.9-9.767-.435-4.649-.173-1.827-1.844-.033c-.314 0-.61 0-.913-.015l-.217-2.329-.178-1.897-1.891-.024-23.131-.477-.018-.196-.221-2.323c13.523 1.03 25.888 1.667 34.245 1.722l1.981.012-6.143 23.648m176.882-22.779c6.795-.084 14.436-.353 24.149-.845l1.876-.015c-.037.232-.067.468-.096.7-.031.227-.049.444-.072.662l-2.285.015-23.633.106.061-.623m55.09 39.792c-.038.172-.104.338-.174.495a9.03 9.03 0 0 1-2.123.224c-5.222-.236-14.474-1.673-27.396-4.274-9.559-1.905-19.357-3.464-27.812-4.436l.685-9.735 21.162-.003h1.845l.199-1.818c.075-.634.121-1.265.174-1.896h2.659l.205-1.891c.254-2.341.43-4.661.598-6.889l.573-6.705.044-.42c-.363 12.785 8.502 19.634 17.377 24.684 12.141 6.916 12.999 9.272 11.984 12.664"/></g><g class="B"><path d="M138.035 279.077c0 .393.13.685 1.201.776v.517h-8.851v-.517c1.075-.091 1.199-.383 1.199-.776V259.08c0-.384-.124-.682-1.199-.773v-.511h15.72c6.353 0 9.062 2.238 9.062 7.134 0 3.953-2.579 6.065-6.149 7.05l5.071 7.097c.385.565.777.776 1.251.776v.517h-8.943v-.517c.604-.045.947-.257.947-.776 0-.387-4.562-6.276-5.117-7.179h-4.192v7.179zm0-11.74h7.197c2.543 0 3.317-1.124 3.317-2.361 0-1.248-.774-2.359-3.317-2.359h-7.197zm32.416 8.166l-1.378 3.92c0 .257.175.43.77.43v.516h-7.599v-.516c.601-.133.856-.299 1.114-.988l7.626-20.127c0-.296-.454-.377-.837-.432v-.51h11.202v.51c-.476.055-.782.136-.782.559 0 .347 5.289 13.198 7.935 19.695.432 1.036.695 1.293 1.211 1.293v.516h-8.452v-.516c.606-.046.82-.257.82-.511 0-.178-1.296-3.316-1.459-3.839h-10.171zm1.053-3.44h7.995l-4.168-10.226zm42.985 8.306v-.517c.514 0 .817 0 .817-.559 0-.516-5.288-8.042-5.932-9.114l-4.213 3.778v5.119c0 .393.129.686 1.207.776v.517h-8.837v-.517c1.079-.09 1.199-.383 1.199-.776v-19.997c0-.383-.12-.682-1.199-.773v-.51h8.837v.51c-1.078.091-1.207.39-1.207.773v7.744h.304c3.44-3.352 8.42-7.481 8.42-7.958 0-.504-.294-.504-.778-.559v-.51h10.908v.51c-1.117.091-1.329.432-2.406 1.372l-7.42 6.418 8.749 13.067c.473.689.811.689 1.379.689v.517h-9.828zm35.213-21.289c0-.384-.121-.683-1.203-.773v-.511h8.848v.511c-1.063.09-1.198.389-1.198.773v11.525c0 7.527-5.282 10.018-11.826 10.018-6.575 0-11.864-2.491-11.864-10.018V259.08c0-.384-.126-.683-1.2-.773v-.511h8.853v.511c-1.071.09-1.207.389-1.207.773v11.525c0 3.316 1.981 4.636 5.418 4.636 3.413 0 5.379-1.32 5.379-4.636zm22.549 21.289v-.517c1.066-.09 1.194-.383 1.194-.776v-16.04h-7.387c-.48 0-.656.22-.776 1.199h-.514v-7.641h.514c.12.984.296 1.202.776 1.202h21.205c.485 0 .649-.218.787-1.202h.513v7.641h-.513c-.138-.979-.302-1.199-.787-1.199h-7.386v16.04c0 .393.131.686 1.204.776v.517zm41.019-8.218h-.513c-.138-.556-.429-.981-1.29-.981h-7.972v3.989h13.791c.465 0 .631-.217.759-1.283h.522v7.442h-.522c-.128-.734-.294-.949-.759-.949h-21.444v-.516c1.071-.091 1.199-.384 1.199-.777V259.08c0-.384-.128-.683-1.199-.774v-.51h21.444c.465 0 .631-.218.759-1.202h.522v7.487h-.522c-.128-1-.294-1.217-.759-1.217h-13.791v3.576h7.972c.861 0 1.152-.435 1.29-1h.513v6.711zm14.984-13.071c0-.384-.128-.683-1.197-.773v-.511h10.345v.511c-.974.054-1.191.305-1.191.559 0 .477 7.415 8.39 10.424 11.703V259.08c0-.504-.339-.719-.904-.773v-.511h7.851v.511c-1.071.09-1.203.389-1.203.773v19.997c0 .393.132.685 1.203.776v.517h-8.138v-.517c.761 0 .981-.172.981-.471 0-.568-1.08-1.121-12.404-13.769v13.464c0 .393.126.685 1.206.776v.517h-8.17v-.517c1.069-.091 1.197-.383 1.197-.776z"/><path d="M245.109 328.548l-.142 22.66c-5.044 4.026-13.215 7.327-22.081 7.382-13.078-.139-28.535-6.491-30.356-32.162-1.247-25.697 10.909-33.61 25.957-33.761 19.212.181 25.982 8.771 25.982 16.243H227.19c0-3.084-3.404-5.041-7.581-5.041-8.445 0-9.515 9.278-9.097 21.314.494 11.996 2.257 22.005 13.09 22.22 1.531-.006 4.654-.544 5.72-1.299l-.16-15.228h-11.28l-.233-12.676h17.066c5.796 0 10.423 2.764 10.394 10.348m22.804-34.038s-6.267-.236-10.8-.236c-4.546 0-7.223 2.325-7.223 7.363l-.482 54.648c11.669.112 31.295.928 42.051 2.453l.527-13.121-25.18-.809 1.107-50.298M6.339 267.019c17.369 15.298 46.486 28.324 76.09 33.993l5.578 49.662c3.294 22.706 15.1 26.086 36.254 20.77l30.836-7.557 10.148-54.515 13.565 50.782c6.862-.921 14.127-1.673 19.956-2.229l-21.588-57.641c-1.723-4.63-5.411-6.877-9.047-6.952l-13.981-.556-15.42 59.761c-5.755 1.148-14.549 2.761-22.073 3.839-5.459.773-7.41-2.09-7.888-6.626-.147-1.369-1.112-8.813-2.127-20.007a477.81 477.81 0 0 0 28.745 1.514l-1.379-14.854-28.63-.64-1.063-11.241c13.005 1.048 27.517 1.857 37.653 1.927-2.52-10.3-14.207-15.869-27.157-16.826-40.634-2.966-78.96-12.921-112.686-31.842.016 3.781 1.361 6.713 4.214 9.238m69.48 47.548c-18.655-1.015-38.626-2.631-61.081-6.654.049 2.19 1.612 4.763 4.385 5.911 15.314 6.397 34.813 10.864 58.083 12.77zm2.511 21.404l-44.787.227c.184 1.963 2.563 4.47 5.148 5.288 12.534 3.981 27.327 5.645 41.168 7.083zm302.102-31.718c41.812-5.802 71.16-17.638 95.098-37.234 2.968-2.425 4.228-5.457 4.231-9.238-31.634 17.043-61.596 26.327-98.101 30.438-20.313 2.286-31.418 9.757-32.808 21.346-1.477 12.278 5.01 19.445 16.659 26.068 11.786 6.69 14.981 9.952 13.338 15.47-1.084 4.04-5.057 5.475-8.447 5.424-6.605-.311-17.862-2.328-27.785-4.325-9.353-1.857-19.997-3.603-29.619-4.624.241-5.271.833-12.217 1.265-17.442l25.787-.012c.492-4.596.676-8.988 1.166-13.597l-25.944.118c.312-4.446.604-4.79.835-9.245 9.106-.036 18.691-.393 28.703-.906l1.566-14.869-31.682 1.577c-10.515.441-16.121 5.925-16.535 13.54l-2.747 52.395c10.535 1.226 23.963 3.18 35.677 5.684 11.152 2.352 26.468 6.656 37.448 8.629 16.792 2.999 29.985-6.247 33.121-18.216 3.324-12.703-5.178-23.718-18.085-31.066-7.385-4.216-14.497-7.526-13.425-13.08.701-3.625 3.413-5.887 10.284-6.835m4.734 12.02l2.205 1.233c4.803 2.748 8.893 5.804 12.199 9.111l.471.417c27.843-2.234 46.191-6.182 62.728-13.21 2.764-1.175 4.333-3.721 4.392-5.911-22.689 4.401-51.048 6.587-83.075 7.75l1.08.61m21.433 19.677c1.978 3.733 3.12 7.666 3.396 11.718 12.157-1.15 22.263-2.766 33.2-6.182 2.578-.809 4.967-3.325 5.156-5.288-15.58.269-27.427-.085-41.752-.248"/></g><path d="M424.18 141.378c.249-2.19-.64-8.795-7.658-9.324-1.051-1.259-3.477-5.877-8.078-4.364 4.345-2.362 7.654-7.125 7.176-12.718-.105-1.214-.598-3.488-2.92-2.749-6.61 4.41-14.5 4.018-22.304 2.589-2.044-7.001-5.386-13.842-10.147-19.795 13.079-12.042 3.562-26.125-2.155-28.858-9.585-4.533-16.424 5.455-22.575 10.178l-5.139-9.87c-6.365-12.606-23.547-13.603-39.781-12.277-.487-.761-1.175-1.798-2.108-2.157-2.75-1.474-5.826-.628-8.979.052s-7.447 3.117-6.586 7.142c-21.606 7.053-25.948 16.799-26.097 25.482-2.302-.667-4.354-.918-6.165-.873-1.733-6.56-4.488-13.005-8.085-18.976 1.077-.356 1.132-1.866 1.004-2.733-.611-4.126-3.301-9.043-7.137-11.35-1.862-1.042-4.179-1.803-5.794-.242-9.076-8.408-19.676-14.896-31.714-18.016-8.501-2.15-16.034-.452-23.626.992-9.29-11.043-16.732-24.664-29.09-30.843-3.483-1.64-7.406-3.014-10.886-2.591-28.627 5.976-17.642 46.798-3.302 61.923-7.282 8.653-19.565 26.08-17.599 59.939-3.324-.498-6.311-.592-8.985-.377l-4.941-10.495c-.989-5.585 3.567-11.169 3.373-16.805 1.78-5.279 8.632-11.211 8.524-15.216-.114-4.008.859-16.846 2.316-25.406.109-1.758 1.009-4.029-2.768-3.63-4.471.474-6.589 4.322-8.556 7.194-3.143-3.353-7.08-5.675-11.892-6.403l-1.095-6.548c-.258-1.495-7.492.967-8.528 7.569-4.601 1.142-8.769 4.427-11.379 8.085-4.535 6.756-4.267 15.174-1.037 22.438-2.267 2.582-3.387 5.952-3.689 9.613-5.385 7.39-3.131 16.245 2.443 36.092.325 14.772 2.679 29.583 11.679 43.883l-.679 5.449c.048.715-.053 1.302.909 1.993.959.686 1.691 1.903 3.167 3.075-.633 3.926-2.344 8.668-.434 9.139 1.917.471 17.386 6.953 18.908 10.239 2.079 17.541 7.908 27.282 17.01 40.416.124.172.219.363.33.541h136.79c1.656-4.47 2.21-9.486 1.888-13.751-.968-9.599-4.454-19.003-16.204-24.642l-1.244-4.66c-.946-1.734-3.038-1.541-4.749-2.423-.257-1.712-.899-3.829-2.45-5.122-20.57-4.971-23.982-9.459-37.535-15.865 1.911-.501 3.684-1.097 5.193-1.773 7.202 4.029 15.805 6.077 28.597-2.751 3.893-2.68 1.131-2.77-1.306-3.226-1.66-.308-4.296-1.045-5.208-1.453 6.434-1.196 11.286-2.854 14.962-4.584.914 1.371 1.933 2.669 2.961 3.896 1.962 9.027 9.576 16.148 17.521 19.997-.928 2.962 1.162 11.727 10.579 12.642-.141-1.821-1.078-11.332 17.797-6.403-4.275.661-5.599 4.79-5.983 5.748-4.693 11.61-7.105 15.473-15.316 23.044-.182.166-.67.752-.564 1.755.51 4.748 3.917 7.958 6.957 11.123-1.296 2.779-2.688 5.718-4.132 8.448h30.901c.617-.933 1.076-1.993 1.343-3.029.763.734 1.544 1.311 1.948 2.328-.035.236-.107.469-.155.701h47.174c2.631-9.501 2.371-21.74-2.92-31.728 1.265-1.745 4.88-4.971 4.88-4.971 7.711 4.41 1.687 9.547 3.878 9.586 9.864.157 21-7.324 24.236-16.873 1.758-5.89.829-13.809-11.262-21.505 0 0 11.164-9.686 19.328-12.96 6.428-2.216 22.236.243 26.106-3.158 2.469-2.172 5.375-7.286 5.413-13.054.007-1.725-2.309-4.24-4.355-6.744M266.608 85.624c.492 3.927.64 8.182 1.453 12.136-2.49-1.263-5.692-3.084-5.817-6.065-.132-3.002 2.12-4.513 4.364-6.071m-.965 71.036c-2.899.375-7.241-3.6-5.514-6.581 1.429-2.123 6.02-1.404 6.02-1.404-2.859-4.347-8.451-7.155-14.026-6.14-3.62.848-6.809 3.594-7.435 7.206a12.37 12.37 0 0 0-.335 2.488c-2.736-.7-5.261-1.712-6.529-3.177 3.594-4.449 6.62-7.224 9.878-14.705 2.854-1.589 4.639-4.304 6.312-7.062 5.608.662 11.23.073 16.267-.969-.36 8.526.442 16.738 1.939 24.935-.692 2.857-3.699 5.038-6.577 5.409" fill="#231f20"/><path d="M236.037 196.54l4.398-3.694c-.364-.048-1.094-.208-2.056-.447l-3.665 3.147 1.323.994" class="C"/><path d="M236.236 191.855l-2.021-.525-2.731 1.918 1.64 1.153z" class="D"/><path d="M307.6 240.553c2.336-6.826 3.277-15.681 2.567-22.77l.245.021c2.547 5.926 1.371 12.773.294 19.481 1.183 1.444 2.444 3.564 3.466 5.5h43.015c3.238-14.147 1.321-27.677-8.193-38.112-.016-.055-.197-.112-.225-.173-1.339.284-2.742.551-4.487.761.274 2.154-1.294 4.855-5.089 5.531-12.644 2.262-27.034-12.625-25.992-8.255.592 2.471 2.889 5.21 1.57 4.111-4.518-3.772-4.99-10.679-10.674-12.567-5.704-1.894-9.271.661-11.094 4.533-2.621 5.476-4.424 16.046-5.504 17.762-1.075 1.764.09-1.93-.296-3.21l-8.822 8.13c11.383 3.31 21.714 9.665 29.219 19.257" class="C"/><path d="M284.974 225.434l-2.362 6.158c-2.652-1.806-5.989-6.681-6.001-8.043-.006-1.368 5.811.662 8.363 1.885" fill="#e4d4b8"/><path d="M358.897 205.198l-3.949 3.875c-1.345-1.739-3.051-3.376-4.783-4.732l.411-.085c2.634-.61 5.615-.136 8.321.942" class="C"/><path d="M360.537 169.581c9.777 5.809 32.966 15.283 25.097 30.949-3.468 6.907-11.66 12.802-19.621 13.793.631-1.894.654-4.379-.425-5.995-5.32-7.992-19.652-6.134-30.052-11.166-6.03-2.818-12.847-6.212-14.398-13.337-.125-1.562-.11-3.005.73-4.872.323-.698-1.022-.955-1.452-.561-2.179 2.023-1.96 5.194-.492 8.64 3.382 8.058 17.664 13.172 29.287 15.95-10.981 1.175-25.543 1.157-33.055-2.77-4.388-2.286-7.523-7.408-12.075-8.326-6.626-5.953-8.983-15.419-6.278-22.737 2.712-7.318 11.436-9.888 17.391-9.803s12.747 4.403 17.285 4.306c4.518-.09 12.033-3.881 18.254-.462l9.804 6.391z" fill="#fcaf17"/><path d="M406.186 129.173c-2.92 2.999-3.35 7.405-3.736 11.507l-1.077-.725c.201-3.171-.477-6.098-1.224-9.054 2.053-.423 3.989-1.275 6.037-1.728m8.37 2.93c-3.226 2.814-5.968 6.056-6.705 10.211-1.184.924-2.549-.628-2.998-1.178-.865-1.051-.788-7.937 3.347-11.89 2.042-1.955 5.719.586 6.356 2.857m7.867 8.704c-1.356-.586-3.549-1.045-4.965-.299-2.846 1.573-3.444 4.47-5.15 6.433-1.055-.894-2.528-1.887-2.929-3.377.549-4.158 3.195-7.731 6.868-10.008 2.045-.369 6.283 1.531 6.176 7.251M392.57 126.67c-.227-1.063 1.593-3.905 1.829-6.077.237-2.165-.747 1.722-2.252 1.894-.278-1.837-.682-3.67-1.144-5.503 7.268.812 14.839 1.999 20.969-1.954.75-.184 1.315.683 1.255 1.229.081 5.189-3.819 9.559-8.714 11.558l-4.737 1.299c-1.689-1.966-2.899-5.796-5.904-5.666 5.27 6.811 6.152 15.292 5.812 21.526-.11 2.084 1.563-2.501 1.563-2.501 6.119 1.22 11.678 5.472 13.753 12.878.62 2.223.723-1.232 1.529-1.725 1.742-1.353 4.097-2.247 5.148-4.137 0 0 .558-1.767-.604-.598s-3.799 2.673-6.279 2.498c-1.927-2.867.605-5.908 2.179-8.219.899-1.277 2.014-1.298 3.318-1.198 3.235.244 5.788 3.331 6.349 5.524.56 2.186-1.441 8.32-3.659 10.936s-8.44 2.455-11.436 2.504c-3.015.042-17.51.57-20.177 1.754-2.658 1.181 1.177.589 1.701 1.112-5.446 3.316-10.28 6.913-15.467 10.978l-.105-.042c8.237-10.245 16.905-32.292 15.073-48.07m-50.349-7.364c-2.658-5.17-6.611-9.454-12.945-9.562-3.443.166-6.783 1.323-9.933 3.165 0 0-2.195 1.915-.964-.19 2.566-4.401 7.838-8.611 13.772-7.859 6.625 1.643 9.482 8.798 10.07 14.446m40.77 8.022c-.217.181-.515.39-.823.248-1.737-3.926-4.977-7.352-9.825-7.336-3.701.181-7.13 2.89-9.797 5.119 2.407-4.319 6.118-9.172 11.975-9.23 5.738.879 7.706 6.699 8.47 11.199m-8.547 47.883l-3.094-1.627c9.198-11.617 16.779-28.593 13.976-43.972 1.803-.417 3.658-1.414 5.139-2.64 1.43 17.188-6.187 34.95-16.021 48.239m-95.393-10.758l-.188-.441c-5.347-14.301-7.815-26.814-5.387-41.284.996-4.847 25.971-.754 31.053-30.866 12.644-4.948 25.602-8.385 39.114-8.451-2.301 1.707-5.522 2.806-8.009 4.331 11.565-1.948 23.02-11.555 32.417-18.668 1.458-1.096 8.606-4.008 13.809 4.295 2.97 4.778 3.461 10.486.621 15.91-2.737 5.02-9.027 9.27-15.031 9.859 3.649-2.076 6.528-4.552 5.946-9.448-.58-4.941-3.799-6.427-2.732-4.449 3.612 6.681-3.867 12.86-7.903 14.042-2.064.459-4.313-.113-6.57-.59 2.289-1.374 4.651-2.398 4.578-6.209-.072-3.851-7.429-4.691-5.934-3.969.695.335 1.677.381 2.54 1.857.861 1.484 1.307 3.365.244 4.899-1.099 1.39-2.961 2.779-4.838 3.123 2.023 1.474 4.996 2.19 7.531 2.561 6.644.913 12.659-1.135 18.559-4.448 6.663 7.834 10.082 17.164 11.326 26.372.434 2.015-2.345 2.963-3.944 3.597l-1.254.318c-1.264-4.214-3.477-10.779-8.635-12.28-4.408-1.426-9.605.936-11.755 4.092-8.636 12.609-12.812 27.958-13.12 43.21-4.546-2.256-10.457-2.053-15.203-.293 7.264-14.183 11.46-32.195 7.291-46.814-1.231-4.333-4.641-8.849-8.488-11.12-3.501-1.646-7.139-1.039-10.324.571-3.554 1.767-5.957 4.669-8.319 7.415-3.55-.749-7.043-5.742-7.728-7.162s-.944-.087-.292 2.07c.615 2.029 3.5 5.53 5.969 7.586-7.028 13.184-8.828 30.082-6.081 44.222-1.297.541-3.336 1.172-5.395 2.353.174-.108.335-.178.508-.266-9.121-2.902-16.108-2.446-24.376 4.075" class="E"/><path d="M356.41 153.725c.243 1.646 1.001 6.146 4.955 6.553 3.937.423 7.177-6.315 8.711-12.902 1.478-6.381 1.124-9.68-1.15-12.069-1.424-1.498-4.544-2.718-7.948.366-3.917 3.506-5.486 11.679-4.568 18.052m2.374-6.554c.406-3.966 2.395-6.85 4.589-6.908-.16.499-.307 1.025-.399 1.596-.595 3.603.61 6.961 2.693 7.526.657.181 1.303.03 1.922-.333-.004.028-.004.043-.004.061-.443 4.328-2.759 7.357-5.183 6.826-2.442-.547-4.056-4.453-3.618-8.768m-47.817-2.528c.266 1.74 1.042 6.376 5.104 6.808s7.861-7.886 8.737-13.431c1.698-9.206-.44-11.598-.44-11.598-1.906-2.265-5.177-3.515-8.692-.381-4.04 3.613-5.654 12.039-4.709 18.602m2.658-7.149c.402-3.965 2.383-6.865 4.588-6.91-.165.507-.311 1.033-.399 1.61-.592 3.576.613 6.946 2.685 7.505.657.188 1.302.039 1.921-.326-.003.024.004.039 0 .066-.438 4.322-2.75 7.388-5.18 6.862-2.438-.537-4.042-4.479-3.615-8.807" fill="#00b7ce"/><g class="C"><path d="M314.553 152.828c3.194.918 5.711-1.066 7.469-2.887 3.574-3.924 5.237-14.253 5.237-14.253 1.308-8.819-2.041-10.969-3.364-11.76-1.915-1.187-4.47-2.133-7.692-.348-1.632.912-2.921 2.157-3.948 3.624a38.61 38.61 0 0 1 1.872-5.107c2.134-4.754 9.821-10.39 16.255-9.939 5.396.827 8.97 5.653 11.344 10.214 2.289 5.88.581 12.601-.575 19.1-1.681 7.288-4.143 13.881-6.957 20.335-8.187.459-15.679-5.983-23.927-3.839-.14-3.376-.486-6.414-.37-10.12.922 2.12 2.376 3.968 4.656 4.98m45.329 8.782c3.117.897 5.542-1.024 7.241-2.796 3.475-3.809 5.08-13.785 5.08-13.785.97-6.237-.127-9.39-3.253-11.438-1.847-1.192-4.339-2.086-7.469-.338-1.114.616-2.055 1.417-2.864 2.326.726-1.942 1.562-3.74 2.534-5.225 3.059-4.694 7.035-7.853 11.621-7.662 4.885.208 7.817 5.176 9.348 9.332 3.196 8.061-.376 17.711-3.612 25.751-2.392 5.276-5.225 10.286-8.938 14.708-5.369-2.609-10.648-5.434-15.647-8.998 0 0-.112-3.56.254-6.632l.33-2.663c.688 3.014 2.239 6.049 5.375 7.42m3.491-21.347c.884-2.667 2.673-4.333 4.401-3.869 2.073.583 3.28 3.948 2.694 7.524-.408 2.458-1.542 4.352-2.879 5.134-.619.362-1.265.513-1.922.333-2.083-.565-3.288-3.924-2.692-7.527.091-.571.238-1.096.398-1.595"/><path d="M318.213 130.584c.88-2.676 2.671-4.343 4.393-3.856 2.088.573 3.287 3.938 2.701 7.523-.41 2.446-1.548 4.34-2.887 5.122-.619.365-1.264.514-1.921.326-2.072-.558-3.277-3.929-2.685-7.505a10.03 10.03 0 0 1 .399-1.61"/></g><g class="D"><path d="M322.066 231.106l-.04-.302-.278.036c-1.113.191-2.963.375-4.435.266l-.411-.03.045.456c.052.58.431 1.151.843 1.374.24.121.491.236.77.326.03.039.061.058.115.079 1.037.553 2.313.77 3.914.649l-.287-1.564-.236-1.29zm-4.104 1.477c-.347-.19-.631-.667-.681-1.108 1.41.096 3.259-.064 4.517-.288l.349 2.033c-1.491.13-2.989-.003-4.185-.637m40.503-6.071c-.187.157-.4.308-.651.456-.057-.48-.247-1.115-.424-1.425a9.53 9.53 0 0 0 .955-.245l-.028-.269a7.74 7.74 0 0 1-.965.239l-.312.075c.341.544.524 1.145.54 2.145a3.54 3.54 0 0 0 .912-.707l-.027-.269"/><path d="M355.468 224.112l-.216-.139c-.682-.462-1.048-.725-1.078-1.109.101-.066.248-.127.424-.199 1.161-.408 2.12-1.033 2.951-1.846l-.102-.434c-.695.58-1.523 1.066-2.547 1.419-.672.227-.91.553-.895 1.075.045.617.589.934 1.416 1.483 1.313.873 1.855 2.102 1.696 3.64-.184 1.806-1.206 3.005-2.925 2.857l-3.141-.42c-1.115-.142-2.401-.172-3.443-.142l-.251-7.182c-.036-1.051.459-1.837 1.464-2.024l2.942-.537.004 1.969-2.669.465.013 1.26 2.417-.354.021 1.785-2.401.381.041 2.358 2.786.145 2.539.145c.284-.054.673-.377.726-.894.103-.743-.48-1.232-1.326-1.739-1.126-.653-1.77-1.604-1.767-3.147-.011-1.822.888-2.694 2.642-3.25.801-.263 1.497-.656 2.147-1.093l-.074-.26c-.68.459-1.382.842-2.138 1.081-1.151.363-2.236.918-2.637 2.296-.064.111-.121.247-.166.374l.001-1.513-.015-.335-.191.054-2.938.516c-.953.182-1.554.87-1.646 1.939a3.05 3.05 0 0 0-.13 1l.167 4.476-.062-.006-2.337.29-.368-6.732-.018-.29-.212.015-1.129.091c-.622.075-.964.61-.896 1.461l.033.251a1.57 1.57 0 0 0 .002.387l.195 3.041c-.059-.486-.212-.852-.446-1.099-.249-.293-.608-.411-1.029-.348l-1.866.251-.249.031.249 2.971.295-.045.961-.148.09 1.175c-.1.075-.269.136-.385.16-.589.081-.911-.272-1.137-1l-.162-1.202c-.095-.93-.152-2.05.133-2.543.091-.154.231-.226.43-.272.215-.024.405.036.523.145a.41.41 0 0 1 .094.193l.012.3.217-.028 1.815-.241.24-.033-.034-.59-.018-.301c-.091-1.187-.977-2.501-3.256-2.278-.98.118-1.734.593-2.214 1.384-.586.978-.784 2.446-.571 4.295l.077.597-1.433-3.778c-.024-.075-.06-.142-.09-.205l-.173-.453c-.282-.743-.806-1.166-1.404-1.109l-1.709.1-.225.009-.031.269-.392 3.074-.062-.223a3.14 3.14 0 0 0-.588-1.109c-.573-1.232-1.931-1.981-3.782-1.96-5.535-.015-8.779-1.528-12.523-4.249l-.445-.338-.05.585c-.068.698.182 1.504.656 2.096.773.961 1.682 1.806 2.637 2.534 1.559 1.384 3.382 2.347 5.243 2.846l.585 3.419.659 3.862c.338 1.701.903 2.737 1.718 3.186a1.45 1.45 0 0 0 .515.206c.023.021.056.037.083.058.874.48 1.99.316 3.644-.541l1.474-.743 2.215-1.145.145-.075.02-.194.5-6.421.573 1.921.923 3.172.071.253s.068-.036.131-.051l.044.154.071.26.216-.076a36.68 36.68 0 0 1 2.193-.746l.301-.094-.139-.356-.416-1.084c.893 1.223 2.066 1.274 2.865 1.142.891-.182 1.78-.774 2.363-1.553l.103-.133.041.589.007.299.224-.036c1.302-.218 3.183-.462 4.16-.447l.215-.012v-.006c.054-.012.161-.018.161-.018.724-.01 2.095-.013 3.351.132.448.043.917.097 1.353.17.571.084 1.157.172 1.711.223.945.079 1.743-.274 2.28-.951.618-.52 1.027-1.374 1.146-2.51.17-1.683-.428-2.984-1.813-3.926m-1.95 2.715c.907.519 1.256.936 1.192 1.392 0 .036-.003.07-.026.118-.071.039-.154.076-.218.087-.434.052-1.174-.011-1.889-.093l-.596-.048c-.806-.058-1.729-.121-2.619-.137-.025-.416-.018-.89-.03-1.358l1.977-.306.174-.024v-.253c-.014-.064-.009-.121-.009-.212l.075-.015.185-.027-.003-.257c-.013-.296-.008-.604-.019-.918 0-.284-.009-.601 0-.885l-.004-.033c.074 1.32.669 2.298 1.81 2.969m-1.818-3.443c0 .03-.009.09 0 .16l-.009.03-.202.036-2.208.299a.75.75 0 0 0 .007-.102c.627-.091 1.346-.218 2.24-.408l.172-.015zm-21.307 2.836l.271-.031-.511 3.812c-.016-.072-.057-.35-.057-.35l-.247-1.589-.08-.61-.039-.269-.239.022c-.038 0-.073.014-.112.011l-.048-.329-.041-.305-.254.036-3.029.33-.012-.046-.049-.377c1.783-.082 3.398-.188 4.447-.305m-.24 3.79c-.114.713-.215 1.465-.316 2.223-.736.314-1.76.722-2.649 1.027-.057.03-.11.045-.181.057-.015-.072-.03-.175-.056-.284l-.035-.232-.406-2.428c1.139-.061 2.25-.176 3.35-.324l.293-.039zm7.216 1.99l-2.294.755-2.174-7.411c-.174 2.911-.36 5.352-.646 8.511-1.289.695-2.468 1.259-3.813 1.936-2.743 1.392-4.396 1.193-5.114-2.419-.164-.846-.892-5.238-1.369-7.974-3.264-.622-6.044-2.651-7.788-4.826-.391-.502-.648-1.175-.592-1.819 3.967 2.879 7.267 4.302 12.693 4.28 1.728 0 3.277.674 3.713 2.247-1.301.142-3.202.254-4.952.293l.278 1.791 3.766-.423.341 2.299a45.77 45.77 0 0 1-3.778.323c.258 1.782.48 2.957.519 3.156.103.722.406 1.13 1.115.873.977-.359 2.101-.806 2.811-1.117l1.273-9.505 1.718-.081c.449-.055.912.226 1.169.908l3.124 8.203m2.701-.419c-1.441.265-3.269-.356-3.747-4.123-.42-3.787.882-5.116 2.576-5.331 2.099-.208 2.921.921 2.994 1.994l-1.867.256c-.029-.465-.423-.706-.885-.664-.941.142-.977 1.516-.798 3.259.185 1.749.493 3.183 1.69 3.008.172-.045.501-.184.625-.308l-.196-2.195-1.225.192-.158-1.824 1.859-.272c.625-.078 1.152.239 1.227 1.308l.222 3.235c-.501.671-1.337 1.304-2.317 1.465m2.834-.831l-.517-7.741c-.033-.71.218-1.075.703-1.141l1.117-.085.394 7.034c.752-.117 1.722-.223 2.533-.311l.081 1.803c-1.077.003-3.089.233-4.311.441"/><path d="M354.741 223.133c.751.507 1.619 1.072 2.146 1.906a7.42 7.42 0 0 0 1.31-.828l-.072-.432c-.398.26-.827.514-1.303.701a8.13 8.13 0 0 0-1.492-1.223c.997-.291 1.823-.592 2.555-.924-.014-.088-.036-.173-.059-.26-.736.341-1.56.637-2.547.915l-.538.145zm-32.882 6.849l-.055-.389-.303-2.105-.048-.257-.224-.027c-2.037-.115-4.333-.504-6.005-1.039l-.487-.148.065.549c.034.324.167 1.115.705 1.547a6.02 6.02 0 0 0 1.253.806c1.221.891 3.051 1.441 5.175 1.577l-.076-.514zm-6.141-2.15c-.371-.314-.519-.894-.564-1.313 1.775.57 4.146.93 6.07 1.032l.327 2.12c-2.329-.123-4.49-.725-5.833-1.839"/></g><g class="B"><path d="M340.937 225.573l-1.859.272.158 1.824 1.225-.193.197 2.196c-.124.124-.453.262-.625.308-1.198.175-1.506-1.26-1.69-3.009-.18-1.742-.144-3.116.797-3.258.462-.042.856.199.885.664l1.868-.257c-.074-1.072-.895-2.201-2.995-1.993-1.694.215-2.996 1.544-2.576 5.331.479 3.766 2.306 4.388 3.747 4.122.98-.16 1.816-.794 2.318-1.465l-.222-3.234c-.076-1.069-.603-1.387-1.228-1.308m3.664 3.244l-.394-7.034-1.118.085c-.485.066-.735.431-.702 1.141l.517 7.741c1.221-.208 3.234-.438 4.311-.441l-.081-1.803-2.533.311m-11.525-5.929l-1.719.081-1.273 9.505-2.81 1.118c-.71.256-1.012-.151-1.115-.873l-.519-3.156 3.778-.323-.341-2.299-3.767.423-.277-1.791 4.951-.293c-.436-1.574-1.984-2.247-3.713-2.247-5.425.021-8.725-1.402-12.693-4.28-.055.643.202 1.317.593 1.818 1.743 2.175 4.524 4.204 7.787 4.827l1.37 7.973c.717 3.612 2.371 3.811 5.113 2.419l3.813-1.936a255.55 255.55 0 0 0 .646-8.511l2.175 7.412c.805-.287 1.64-.55 2.294-.755l-3.125-8.203c-.256-.683-.72-.964-1.168-.909m-11.525 6.784l-.327-2.12c-1.923-.103-4.294-.462-6.07-1.033.045.42.193 1 .564 1.314 1.343 1.114 3.504 1.715 5.833 1.839m-4.27 1.803c.05.441.334.918.681 1.108 1.196.635 2.694.767 4.185.638l-.349-2.033c-1.258.224-3.106.384-4.517.287m38.14-7.113c-.827-.55-1.371-.867-1.417-1.483-.014-.522.224-.849.896-1.075 1.024-.354 1.852-.839 2.547-1.42-.005-.03-.011-.051-.019-.075l-.29-1.054-.202-.67c-.65.437-1.346.83-2.147 1.093-1.754.556-2.653 1.428-2.642 3.249-.003 1.544.641 2.495 1.767 3.147.846.508 1.429.997 1.326 1.74-.053.517-.443.84-.726.894-.597.043-1.612-.06-2.539-.145l-2.786-.145-.041-2.359 2.401-.38-.021-1.785-2.418.353-.012-1.259 2.669-.465-.004-1.97-2.943.538c-1.004.187-1.499.973-1.463 2.023l.251 7.183c1.042-.03 2.328 0 3.443.142l3.141.42c1.719.148 2.741-1.051 2.925-2.857.158-1.538-.384-2.767-1.696-3.64m1.401.118c.476-.187.905-.441 1.303-.701l-.24-1.446c-.732.332-1.558.634-2.555.924.58.374 1.096.804 1.492 1.223m1.524.818l-.956.245c.177.311.367.945.425 1.425a4.75 4.75 0 0 0 .651-.456l-.12-1.214m-30.21-7.263l.213 3.117c.01.066-.012.118-.151.127l.007.105 1.139-.114-.001-.088c-.143.006-.158-.03-.168-.102l-.08-1.115.538-.061c.084.146.721 1.009.718 1.061.017.087-.027.115-.101.127l.012.081 1.103-.093v-.094c-.053.009-.117-.006-.16-.1l-.715-1.051a1.01 1.01 0 0 0 .681-1.12c-.043-.747-.406-1.079-1.206-1.006l-2.009.145v.085c.151-.022.174.033.18.096m1.771.411c.321-.03.429.142.449.335.008.19-.076.362-.386.393l-.919.075-.059-.725.915-.078z"/><path d="M333.143 220.898l-.007-.094c-.064.015-.097-.006-.104-.039.007-.057.037-.12.134-.604l1.21-.139c.028.094.219.544.215.577.006.033-.016.058-.096.088l.012.081.989-.118.006-.069c-.062.021-.083-.015-.148-.181l-1.158-2.858c.009-.065.035-.081.094-.081l-.006-.085-1.352.097.012.069c.042.003.101.024.109.061-.008.054-.684 2.978-.705 3.135-.035.112-.064.136-.129.148l.011.1.913-.088zm.464-2.857l.601 1.483-.952.093.351-1.576zm2.728-.629l.211 2.951c-.006.057-.009.106-.137.133l-.008.093 1.007-.114-.009-.073c-.119-.009-.147-.039-.149-.099l-.05-.746.439-.607.763 1.262c.011.091-.033.091-.095.096l.018.088 1.096-.127-.01-.057c-.065 0-.106 0-.163-.088l-1.107-1.821.755-.996c.118-.137.125-.215.266-.212l-.018-.07-1.211.082v.073c.055.009.09 0 .086.087.019.07-.503.71-.86 1.239l-.036-.007-.076-1.129c-.005-.051.007-.103.114-.127v-.076l-.985.076v.091c.125-.022.136.027.159.078m3.757-.268l.113 1.64c.083 1.099.671 1.383 1.388 1.314.693-.064 1.223-.477 1.145-1.532l-.121-1.628c-.005-.051.006-.106.124-.111l-.012-.067-.925.064.003.07c.115.011.13.047.141.099l.109 1.628c.037.471-.147.683-.533.704-.361.039-.585-.134-.626-.593l-.105-1.655c-.011-.048 0-.093.12-.102l-.015-.081-.948.068.001.079c.106.012.138.051.141.103m3.539.449c0-.139.012-.169.056-.169l.763-.069.159 2.232c.014.051-.008.087-.116.12l.007.079.898-.097-.003-.073c-.118 0-.121-.044-.136-.096l-.147-2.214.733-.057c.052.006.071.03.094.163h.054l-.077-1.057h-.071c.012.142-.017.172-.051.172l-2.148.166c-.054-.006-.078-.027-.09-.181l-.065.015.075 1.066h.065zm3.144-.963l.198 2.725c.006.057-.012.099-.113.126l.015.055 2.073-.191c.034.003.056.021.079.109l.042.006-.065-.999h-.059c.003.141-.017.177-.06.19l-1.325.093-.037-.51.774-.076c.083-.009.113.028.126.115l.059.006-.072-.894-.043-.003c-.005.076-.038.127-.108.139l-.781.051-.038-.468 1.322-.108c.055-.003.08.03.103.154l.041.003-.075-1.015-.047.006c-.009.133-.014.166-.059.181l-2.075.136-.008.066c.112.016.127.049.133.103m2.992-.214l.203 2.649c-.007.051-.01.087-.1.124l-.009.066.767-.081-.005-.052c-.099-.015-.107-.066-.122-.105l-.13-1.776 1.264 1.709c.009.042-.003.067-.074.067l.011.075.714-.075-.003-.067c-.097-.009-.121-.045-.118-.099l-.175-2.61c-.026-.06-.003-.091.09-.109l-.009-.07-.697.052.009.073c.047.005.091.012.091.099l.105 1.498-1.063-1.452c-.007-.042.008-.088.104-.088l-.004-.069-.957.081-.004.055c.091.005.116.051.112.105"/></g><path d="M303.653 242.785l.542-3.772c-5.196-6.191-10.785-9.623-14.467-11.184-1.021-.432-2.936-.963-3.408.123-2.907 6.678-4.593 10.695-6.75 14.833z" class="E"/><path d="M255.016 125.655c5.306.728 10.717.371 15.407-1.227l.177-4.27c-4.036.254-7.871-.447-11.832-1.12-.883 1.935-1.913 3.817-3.109 5.614a18.4 18.4 0 0 0-.643 1.003" fill="#530115"/><path d="M262.531 104.604l6.672-2.054-.391-.884c-2.096-1.175-4.424-2.791-6.104-4.76.124 2.594.065 5.17-.177 7.698m1.635-19.082a13.24 13.24 0 0 0-3.142-.269l.584 2.734c.659-.966 1.532-1.84 2.558-2.465" class="E"/><g fill="#f8c1d9"><path d="M260.217 147.986c1.246-.725 3.215-.384 4.088-.109-7.178-6.668-14.161-3.274-16.103-.734-1.205 1.571-1.689 3.486-1.621 5.579 3.769.724 7.416.924 8.357.909 1.451-.019 2.739-.248 3.464-.224-.846-1.951-.572-4.047 1.815-5.421m61.465 56.69s20.22 10.236 20.009.801c-7.084.751-15.585-1.238-20.009-.801"/><path d="M279.06 164.453l-.004.012c.031.082.069.157.104.236.54 1.289 1.07 2.225 1.446 3.467.415 1.425-.235 1.73-1.156.35-.912-1.356-5.01-9.266-6.369-14.156-1.907 2.558-5.696 4.537-9.066 3.745-2.097-.537-4.097-2.108-5.2-3.896a4.3 4.3 0 0 1-.288.396c-1.007 1.211-3.429 4.141-8.89 7.034.725 1.196 1.557 2.374 2.488 3.513 5.349 6.569 12.95 8.435 11.438 8.45-1.513.009-7.153-1.921-9.538-4.367 2.646 6.967 8.348 12.47 14.683 15.766 0 0 2.471-6.237 12.082-4.434 3.502.661-4.553.075-8.16 2.576-3.61 2.464-3.7 12.002 5.041 14.44-1.195-2.861.477-10.568 17.131-7.669-1.651-1.969-3.854-3.654-4.585-6.212l.206-.118c3.221 2.679 6.195 5.826 9.81 8.052l1.063-.19c-3.473-3.492-5.648-8.143-6.433-12.607-1.68-7.091 2.252-14.555 8.061-18.197.176-.108.339-.178.511-.266-9.12-2.902-16.108-2.446-24.375 4.075"/></g><path d="M308.011 54.045s.448.782-.219.93-11.736 2.963-11.736 2.963c-.449-1.002-.794-1.954 1.026-3.165s8.759-3.492 10.929-.728m45.065 23.962c-1.743 1.338-3.369 2.129-5.293 3.371-26.696-.713-51.105 11.422-76.161 20.293-1.457-8.69-5.227-21.951 2.117-29.734 7.333-7.742 33.029-15.914 44.269-16.358 8.615-.339 25.639.559 30.355 11.842 1.617 3.516 3.984 6.944 4.713 10.586M301.84 92.118l-3.15 1.118c-.995 3.316-2.209 7.626-4.03 10.96-5.546 9.629-17.915 12.631-28.46 11.375-1.899-.116-3.798-.532-5.672-1.052a40.41 40.41 0 0 1-.971 2.667c7.806 1.776 15.689 2.519 22.835-.142 8.533-2.66 14.459-9.287 17.458-16.771.741-2.688 2.273-5.823 1.99-8.155m-18.912 19.928c7.583-3.268 12.303-9.84 13.3-17.807-11.323 3.968-22.542 8.722-33.958 12.591a49.66 49.66 0 0 1-1.252 6.062c7.556 1.588 15.182 2.18 21.91-.846" class="B"/><path d="M285.856 87.343l-4.056 1.833c-1.018.423-1.558-.081-1.903-1l-1.545-4.037 5.655-1.051-1.114-3.002-5.593 1.208-.843-2.256 7.419-1.387c-1.083-2.023-3.672-2.606-6.223-2.202a58.01 58.01 0 0 1-6.688.695c-.442 1.027-.787 2.094-1.032 3.202l2.1-.012 3.905 10.021c1.915 4.542 4.394 4.69 8.193 2.591l5.537-3.014-3.812-1.589zm-16.403.39l.181 2.023 4.605-.45-1.005-2.558-3.781.985m2.072-5.289l-2.091.365-.076 2.431 3.111-.371-.944-2.425z" class="C"/><path d="M274.63 89.134l-.533-1.326-.328-.827-.151-.372-.157-.392-.361.102-1.723.451-1.955.507.031.456 3.781-.985 1.005 2.558-4.605.451.109.918c1.708-.049 3.483-.23 5.306-.457l-.205-.528-.214-.556zm-1.577-3.896h.014l-.203-.528-.954-2.413-.145-.369-.349.094-1.948.323-.035.465 2.092-.365.944 2.425-3.111.371.02 1.066 3.954-.368-.279-.701zm17.194 3.926l.498-.314-4.934-2.02c-.12.081-.384.22-.384.22l-3.82 1.713c-.077.021-.159.06-.239.066-.055-.097-.108-.19-.146-.314l-.116-.299-1.218-3.129 5.036-.936.451-.094-.175-.459-.723-1.984-.346-.949-.147-.368-.344.084-.184.036-.175-.467-.145-.387-.366.087-4.501.982-.023-.036-.183-.465 6.739-1.254.49-.124-.234-.492c-.302-.55-.704-1.021-1.214-1.404-1.229-1.595-3.558-2.28-6.29-1.858a59.99 59.99 0 0 1-6.383.692l-.207.453a58.21 58.21 0 0 0 6.688-.695c2.551-.405 5.141.178 6.223 2.202l-7.419 1.387.843 2.255 5.594-1.208 1.114 3.002-5.656 1.052 1.545 4.037c.345.919.886 1.423 1.903 1l4.056-1.833 3.812 1.589-5.536 3.014c-3.8 2.099-6.279 1.951-8.194-2.592-.45-1.05-2.54-6.596-3.905-10.021-.693.027-1.399.021-2.099.013-.085.359-.16.734-.221 1.102a33.43 33.43 0 0 0 2.326.081l1.606 4.129 1.909 4.857c.876 2.111 1.936 3.394 3.241 3.917a3.03 3.03 0 0 0 .725.184c.089.054.168.106.26.121 1.398.559 3.064.236 5.379-1.045l2.129-1.151 3.249-1.788.481-.272-.77-.317z" class="D"/><path d="M101.403 62.194c-5.79 1.797-7.896 14.79-6.389 23.262-1.87-.607-6.368-3.86-7.158-4.561-.788-.695-2.81-1.196-2.81-1.196-1.521-.492-3.495.239-4.282 1.087-3.526-6.656-2.309-16.264 1.838-20.782 2.436-2.655 3.75-4.041 6.103-5.328 5.32-2.884 14.971-2.706 20.454.994 1.723 1.172 3.642 2.776 4.493 4.198 4.707 7.856 5.092 16.817.344 24.259 0 0-1.288 1.788-2.581 2.838-3.741-5.741-6.564-17.897-6.83-22.778-.071-1.332.015-2.981-3.182-1.993" class="C"/><path d="M108.337 58.687c1.352-1.075.536 1.501 1.634 1.522 1.081.018.244-2.31.962-3.21l-1.678-1.254c-.793.281-2.308-.755-2.963-.151-.655.595-.51.858-.246.927l2.77.574c-1.503 2.272-5.468.517-5.701 1.574s1.906.528 3.008.872c-.577 1.469-2.712 1.363-3.618 1.197-.642-.112-.817-.245-1.21-.009-.687.41-.186 1.048.724 1.159l.522.043c.554-.073.958-.034 1.246.102 0 0 .545.173.687.997.64.64.793 4.047 1.804 2.504 1.013-1.504-1.011-3.174.033-4.739s.143 2.274 1.422 2.072c1.821-1.19-.748-3.098.604-4.18M85.038 79.699c-.032-2.431-3.71-3.609-3.324-4.787.385-1.169 1.421.447 2.115.631.306-1.857-1.803-4.159-2.201-4.594s-.189-.957.377-.963c.629.043.94.52 1.424.818.516-1.793-.99-3.808-1.677-4.379-.668-.556.015-1.278.561-.957a11.49 11.49 0 0 0 1.352.631c.381-.979.333-1.764.215-2.443-.39-.819-1.282-2.227-.724-2.489.553-.257 1.424.809 1.424.809.657-1.492.077-2.479-.165-3.298-.155-.495.138-.643.442-.676.312-.033.676.081.924.58 0 0 1.033-2 1.164-2.746.005-.021.02-.045.023-.06a14.98 14.98 0 0 1 1.737-1.099s1.008-.599 1.901-.689c.885-.091-3.418 1.818-3.445 3.896.238-.399.963-1.03 1.519-.577.255.876-1.217 1.731-2.248 2.471-.553.649-.931 1.347-.86 2.071 0 0 .653-.818.947-1.02.301-.206 1.771-.055 1.107.697s-1.533 1.299-2.395 1.954c-.513.677-.331 1.505-.498 2.7 0 0 .462-.171.906-.588.438-.414.918-.961 1.192-.194-.063 1.296-.803 1.502-1.688 2.558-.88 1.052-.809 2.579-.504 2.68.579-.387.68-2.139 1.831-1.2.454 2.027-2.584 3.02-1.787 5.231.726-.453.762-2.358 2.051-1.658s-2.776 4.059-.444 6.246c.75-.924 1.396-2.896 2.25-2.534.703.308-.203 1.9-1.09 3.881a9.93 9.93 0 0 0-2.412-.903" class="B"/><path d="M155.969 10.466c6.732 4.5 12.396 11.422 16.344 19.474-5.388-5.013-12.769-10.794-20.341-9.45-4.999 1.821-7.75 5.95-8.389 11.459-.854 7.976 2.569 15.463 7.066 22.98l-5.403 3.658c-8.99-13.857-15.444-30.625-7.516-44.953 2.419-3.15 5.968-6.684 10.491-6.152 2.854.637 5.346 1.398 7.748 2.984" fill="#530115"/><path d="M130.657 124.293c9.166 1.317 18.151 1.93 26.857 2.193 7.712.235 7.285 11.015 17.113 11.48 11.263.531 22.931 2.231 28.742 12.319 2.557 4.12 3.845 8.608 1.492 12.993-3.988 7.469-21.766 11.812-33.446 13.83-9.168 1.546-20.191 1.727-28.871-4.19-6.202-4.415-11.499-9.733-16.49-15.656 14.683 1.969 25.121 11.47 41.978 10.41 7.967-.498 14.307-6.574 16.649-13.261.628-.514 2.142.776 3.401 1.685 1.26.9-.328-2.491-2.314-4.183-1.487-1.247-3.71-2.416-5.759-1.927-.751.055-2.274 1.395-1.394 1.61s3.105-.35 3.12 1.278c-.606 6.529-6.586 11.48-13.269 12.92-14.048 1.226-27.677-7.031-41.826-10.652-4.234-.864-11.169-2.018-15.458 6.36-7.499-7.807-13.719-18.535-10.178-28.408 3.4-9.432 12.159-11.395 29.653-8.801" fill="#fcaf17"/><path d="M237.669 50.155c17.012 15.582 27.435 38.762 21.575 59.221-2.615 6.907-5.034 13.978-10.281 18.795-4.495-25.805-26.023-47.729-42.058-68.849L187.838 36.19c15.506-8.067 36.2 2.108 49.831 13.965M160.67 7.621c24.165 18.895 22.098 51.235 42.25 73.491 7.362 7.372 18.555 11.529 28.422 12.262l3.152 4.869c-12.63-.432-26.964-5.926-35.434-16.66-18.912-21.543-16.968-49.181-38.142-69.378-4.745-4.131-11.966-7.529-17.676-5.964-9.557 4.216-11.643 17.206-10.049 27.668 1.335 8.819 5.585 17.56 11.222 25.678l-1.18 1.006c-10.087-12.311-14.107-26.503-12.794-40.686 1.179-7.91 5.083-14.304 12.266-17.043 5.691-1.568 12.614 1.299 17.963 4.757m69.466 84.135c-16.253-1.601-30.556-12.069-37.354-28.415L177.91 27.256c17.258 21.247 35.815 41.812 52.226 64.5m18.299-37.647c1.244 1.501 4.006 5.418 2.65 7.366-.14.188-.629.375-.629.375-2.307-3.721-5.099-6.47-7.707-9.719.185-.501.814-.879 1.372-.834 1.83.284 3.069 1.299 4.314 2.812" class="B"/><g class="D"><path d="M195.078 36.854l-.002-.003.506-.166.484-.148 1.225-.396.771-.254.34-.099.355-.124-.402-.326-1.859-1.483-.306-.248a33.94 33.94 0 0 0-3.614.707l2.502 2.54m13.842 15.681l.858.58-.3-.849.919.595-1.886-5.246c-.217-.121-.672-.429-.672-.429l-5.648-4.035c-.119-.078-.223-.175-.314-.257a1.56 1.56 0 0 1 .298-.12l.282-.088 3.045-.945 5.84 5.18.565.486.479-.136 2.014-.607.962-.296.369-.109-.459-.374-.225-.203.474-.139.391-.099-.482-.405-5.555-4.572.034-.007.45-.135 8.173 6.925.661.546.458-.22a1.3 1.3 0 0 0 .71-1.169c.954-1.16-.445-3.497-3.719-6.227l-6.119-5.395c-2.353-.631-4.713-1.084-7.047-1.304l1.155 1.259-3.799 1.181-4.5 1.413c-1.929.692-2.714 1.595-2.362 2.761a3.51 3.51 0 0 0 .301.676c.01.082.036.148.06.236.386 1.311 2.116 2.972 5.711 5.421l3.38 2.347 5.498 3.76"/><path d="M199.015 35.573l.649-.203.003.007.466-.152 2.211-.712.32-.1-.359-.277-.92-.789a30.62 30.62 0 0 0-4.554.169l2.184 2.057"/></g><path d="M199.642 34.873l2.197-.683-.988-.855c-.943-.017-1.889.007-2.824.076l1.615 1.462m8.197 12.748l-6.045-4.334c-1.382-1.015-1.177-1.51-.305-1.782l3.897-1.205 6.515 5.72 3.034-.888-6.786-5.636 2.212-.634 8.903 7.496c1.708-.969-.071-3.57-3.124-6.125l-6.371-5.654a45.46 45.46 0 0 0-4.757-.917l1.115 1.126-9.303 2.911c-4.157 1.489-2.44 3.812 3.339 7.735l9.099 6.204zm-12.253-11.447l2.325-.752-2.181-1.758-2.26.444 2.116 2.066" class="C"/><path d="M163.778 25.851c4.157 2.407 7.708 5.771 11.113 9.399 6.146 14.419 9.787 29.511 19.165 43.153-12.395 2.664-20.918 19.405-25.32 33.802-1.574 6.074-2.077 12.704-2.867 18.249-2.446-2.999-5.051-6.026-9.729-5.893-1.112.033-2.089-.024-3.179.045 6.682-14.5 12.245-33.684 9.004-51.428-.733-2.909-2.416-5.934-4.977-7.725l-.12.066 2.749 5.228c-1.081-1.417-2.559-2.754-4.13-3.202-9.065-2.549-17.957 12.872-21.218 21.405-3.256 8.496-3.798 22.923-2.758 33.717l-4.948-.688c-1.678-23.965 5.398-53.117 25.367-65.059 5.031 7.297 11.564 12.383 18.974 16.065-.297-3.752-.209-8.698 3.303-10.523l1.853-.634c-.455-.706-1.714-.631-2.506-.649-2.404.462-4.617 2.44-4.405 7.167-2.272-4.474-2.816-9.481-1.026-13.328.661-1.426 2.354-2.024 3.708-2.061-.536-1.654-1.878-1.863-3.531-.905-2.521 1.461-3.624 5.337-3.396 8.647.499 3.343 1.631 6.562 3.52 9.764-9.854-6.074-19.214-18.303-21.943-29.855-.548-5.585-.56-12.734 4.12-15.763 3.665-2.99 8.875-.93 13.177 1.006m71.293 74.5c-9.591-.308-20.817-4.651-29.376-9.792 5.139 18.355-3.593 36.4-12.515 48.868 3.167 1.178 6.254 3.141 7.988 5.031.015.013.029.031.045.046 10.211-1.471 19.917 5.514 23.577 11.193a12.94 12.94 0 0 1 .826 1.444c-.085.096-.166.178-.235.253 2.241-2.265 8.014-7.72 10.477-10.722 2.466-2.993 10.01-12.582 10.124-19.259.166-9.391-5.221-19.167-10.911-27.062" fill="#8a3f1e"/><path d="M154.998 94.48c-5.303-1.839-11.27 10.266-11.116 17.257.058 2.879.704 7.787 4.115 8.777 4.893 1.405 8.103-8.988 8.868-12.111.755-3.117 1.298-7.104 1.386-8.306.111-1.839-.708-4.765-3.253-5.617m-.823 15.213c-.951 3.494-3.233 5.672-5.084 4.856-1.861-.806-2.585-4.307-1.627-7.795.751-2.733 2.308-4.633 3.839-4.953-.539 2.893.148 5.597 1.693 6.27.477.214.987.184 1.493-.015a12.68 12.68 0 0 1-.314 1.637m44.522-2.419c-5.689-2.474-13.262 10.078-13.681 17.604-.178 3.096.136 8.448 3.791 9.807 5.261 1.964 9.69-8.949 10.787-12.21 1.094-3.286 2.011-7.536 2.2-8.817.287-1.969-.376-5.191-3.097-6.384m-2.181 16.354c-1.347 3.64-4.04 5.778-6.02 4.727-1.972-1.033-2.473-4.83-1.125-8.499 1.052-2.873 2.92-4.784 4.634-4.993-.839 3.063-.308 6.032 1.333 6.911.52.269 1.083.284 1.663.114-.12.58-.272 1.163-.485 1.74" fill="#00b7ce"/><path d="M156.516 69.572c-2.253-1.894-6.084-.145-8.718 1.734-12.511 11.108-16.519 34.222-14.499 51.8 3.41.779 7.752.966 10.011 1.123 2.267.167 6.908.855 9.058-2.875-1.211.794-2.748 1.069-3.543.967-2.486-.335-3.615-1.444-4.726-3.413-3.889-7.056-.265-16.956 2.625-21.043 3.119-4.376 6.506-5.871 9.463-4.69 1.626.631 3.056 2.966 3.236 5.144l.01.217.203-.74c3.297-14.53 1.327-24.512-3.12-28.224m37.853 65.883c-1.462 1.224-3.765 1.477-4.811 1.248-2.696-.571-3.839-1.864-4.882-4.09-3.735-7.931 1.122-18.257 4.613-22.404 3.806-4.467 7.653-5.772 10.841-4.25 1.722.831 3.093 3.517 3.115 5.881.006.852-.078 1.984-.247 3.256 1.211-4.358 3.923-14.648 1.19-24.708-3.087-2.873-4.968-4.766-8.587-9.572-4-1.869-25.656 12.238-27.904 50.791.117 2.423 2.74 3.694 4.902 4.507 2.185.809 12.588.996 19.109 2.615 0 0 1.442-1.38 2.661-3.274m5.448-25.926c-1.812-.963-4.284 1.003-5.523 4.379s-.77 6.896 1.044 7.865c1.815.946 4.29-1.015 5.527-4.391 1.216-3.374.752-6.907-1.048-7.853m-48.316-8.631c-.88 3.216-.211 6.424 1.495 7.173 1.699.743 3.781-1.25 4.653-4.461.888-3.219.222-6.421-1.491-7.164-1.684-.758-3.781 1.241-4.657 4.452" class="C"/><path d="M207.974 158.923c.122-4.703-2.613-9.912-6.773-14.422 10.213-1.476 19.924 5.516 23.588 11.196a12.38 12.38 0 0 1 .824 1.444c-.084.094-.169.178-.235.248-2.078 2.087-6.415 5.388-7.581 6.185-1.171.807-1.16 1.525 1.081.308 2.244-1.223 12.543-8.734 16.346-12.132 6.214 2.64 14.449 4.497 21.49 3.247-6.545 5.88-17.247 9.571-25.954 11.036l-4.313-1.399c-1.522-.51.277 2.024 3.106 3.241 4.277 1.667 6.469 2.226 8.809 2.616-5.85 4.524-15.479 9.426-27.724 2.684-3.82 2.021-16.374 3.954-23.4 2.387 18.744-5.455 20.73-11.71 20.736-16.639" fill="#ca6c18"/><path d="M245.907 199.155l-3.241 3.685c-1.859-1.407-3.665-3.344-5.293-5.255 2.782-1.414 5.57 1.238 8.534 1.57M90.661 177.73l3.304 3.159c2.2-8.677 6.135-16.267 11.333-22.627a65.63 65.63 0 0 1-2.869-4.157c-6.344 6.017-11.132 14.16-11.768 23.625" class="B"/><path d="M107.257 160.693l-1.058-1.29c-5.16 5.165-12.007 19.019-12.329 30.891a43.23 43.23 0 0 1 1.402.495c1.362-11.008 4.468-20.637 11.985-30.096" class="C"/><path d="M108.232 161.958c-4.996 6.324-9.858 15.288-11.657 29.326l1.566.632c1.201-10.586 6.588-23.075 11.323-28.608a45.45 45.45 0 0 1-.74-.809c-.231-.27-.275-.279-.492-.541" class="D"/><path d="M156.992 179.868l-.729-.069c-3.251-.345-6.187-1.088-8.91-2.181.147 1.601.412 3.775.997 6.862.11-.088.237-.163.351-.248 2.286-1.673 5.169-3.177 8.291-4.364m-61.72 10.921l1.303.496c1.799-14.038 6.661-23.002 11.657-29.327-.26-.302-.725-.963-.975-1.265-7.517 9.459-10.623 19.088-11.985 30.096" class="B"/><g fill="#ca6c18"><path d="M225.264 204.818c-.545-2.271-2.493-2.286-2.493-2.286-3.629.462-6.512 2.328-9.111 4.494l3.554 2.555c1.961-2.458 6.367-3.972 8.05-4.763m3.274 3.501c-.403-2.027-.932-2.45-2.125-2.461s-6.106 2.573-8.041 4.606c0 0 1.88.724 3.203 1.452 1.576-1.178 3.816-2.688 6.963-3.597m-.166 4.886c1.008-.48 1.987-2.311 1.158-3.226-1.74-.099-4.15 1.749-5.67 2.839 1.144 1.643 3.08 1.063 4.512.387m6.582 29.58h2.499l.392-.927c3.627-8.81 8.391-15.038 7.761-17.083-.637-2.047-3.979-4.871-6.762-6.088-3.07-1.344-6.281.885-5.659 1.54 1.558 1.631 2.46-.447 3.784.287 2.544 1.28 6.478 3.89 5.322 6.406l-7.337 15.865m20.612-16.415c-1.712-7.677-8.381-14.917-12.452-19.743-4.088-4.826-14.348-15.313-24.938-18.206 15.489 9.329 28.121 22.407 37.39 37.949m-32.253 16.415l3.448-9.33c.202-.594-2.036-1.564-2.478-.987-.342.438-2.586 5.862-4.097 10.317h3.127zm-10.429-47.022s-4.573 1.857-7.404 4.721l2.661 1.96c2.011-2.057 5.579-4.102 7.671-5.011-.584-.86-1.86-1.661-2.928-1.67m-30.947 36.11c.406 2.591 3.245 5.418 3.245 5.418a64.86 64.86 0 0 0 6.581 5.494h3.525c-5.198-3.241-9.786-6.997-13.351-10.912m74.902 2.48l-3.179 8.432h3.029c1.311-3.105 2.247-6.403 2.927-9.68.196-3.564.135-8.354-3.673-10.546 1.515 3.898 1.785 7.819.896 11.794"/><path d="M220.701 200.892c-.727-2.262-3.293-2.35-3.293-2.35-3.108 1.058-6.026 3.027-8.072 5.026l2.851 2.283c2.627-1.83 5.967-3.845 8.514-4.959m-22.874 41.893h12.172c-11.178-3.443-20.884-10.148-27.966-18.508-1.67.997-1.465 3.12-1.06 4.452 4.587 5.352 10.48 10.2 16.854 14.056m21.957-3.065l1.962-5.213c-13.695-6.466-26.639-14.41-36.805-25.083-2.072.839-2.771 2.978-3.28 4.851 9.478 12.062 22.204 21.117 38.123 25.445m2.315-6.171c2.237-3.458.255-6.551-2.506-8.426s-20.497-14.917-30.228-23.247c-1.308 1-2.167 2.392-2.717 4.029-.547 1.504.361 3.322 1.353 4.382 10.03 9.152 21.191 17.185 34.098 23.262m-5.831 9.236h2.583l.549-1.948c-15.701-4.252-29.47-13.141-38.129-25.43-.912 3.144.755 6.375 2.726 9.23 8.082 8.828 19.571 15.995 32.271 18.148m-6.525-28.634c-1.175-.979-1.24-4.089 4.284-4.561-1.413-1.528-3.798-3.128-4.784-4.002-.975-.863-7.366-5.831-11.938-7.426-2.437.012-5.475.954-7.041 2.736 8.813 7.083 17.747 13.951 26.817 20.719-2.223-2.734-6.162-6.487-7.338-7.466m3.848-19.511c1.137-.057 3.313 1.287 3.59 2.386 1.872.357 4.701 2.208 5.303 3.887 1.995.411 3.415 2.093 4.201 3.513 1.661.021 3.886 3.026 3.412 4.053.986.954 1.678 2.268.91 3.974-.785 1.698-1.871 2.48-3.367 2.791 0 0 3.508 3.464 4.645 3.081 1.302-.447 4.53-3.241 8.737-.453 2.865 1.921 7.565 5.225 6.157 8.435-1.382 3.211-5.909 12.295-5.909 12.295-.483.919-1.19 2.429-1.996 4.184h12.935c2.176-4.322 4.049-9.309 3.473-14.304-8.13-14.071-18.882-25.259-31.182-34.763l-8.608-5.503c-2.431.495-5.779 1.003-6.507 3.721 1.273.051 3.7.613 4.206 2.703m-2.285-.604c-1.084-.939-2.031-1.259-3.111-.767 1.14.561 2.214 2.111 3.108 1.999s.401-.894.003-1.232m-7.662 4.306c-.576-.504-2.759-2.549-4.102-1.308l4.44 2.58s.236-.764-.338-1.272"/><path d="M207.759 196.57c.702.585 1.541-.483 1.253-.843-2.863-2.887-4.74-1.827-4.152-1.383l2.899 2.226m-5.352-.366c.854.441 1.696 1.093 2.413 1.773s2.211-.209 1.86-.562c-.345-.359-2.457-2.434-3.71-2.202-1.259.242-1.308.604-.563.991"/></g><path d="M224.678 242.785h5.16c-1.312-.556-2.996-1.782-4.056-2.924l-1.104 2.924zm35.807-17.417c1.952 4.796 3.798 11.637 2.886 11.498-.904-.127-1.64-1.565-2.288-2.178-.548 2.695-1.29 5.461-2.285 8.097h5.121c2.667-7.245 2.009-15.919-.252-23.261-2.528-7.947-9.723-12.196-16.903-15.796-1.053-.423-2.651-1.039-2.812.698 3.577 4.769 7.637 10.254 10.521 15.391 2.768.589 4.835 3.072 6.012 5.551m-48.741-11.764c7.868 5.977 12.937 18.797 23.623 23.113 1.503-2.974 2.899-6.339 4.437-9.093-2.535-1.499-5.728-5.032-8.797-7.255-17.431-12.525-20.703-7.855-19.263-6.765m14.711 24.542c1.06 1.595 4.151 3.836 4.672 4.639h1.876l1.468-3.99-6.536-4.295zM99.679 50.529l-.296-4.5c-.097-1.474-4.329-.368-5.284 4.851 1.81-.481 3.635-.375 5.58-.351m17.328 34.688c2.685-3.455 4.14-7.542 4.436-18.411.217-7.708 3.51-15.494 1.079-15.292-4.375.372-5.898 4.337-7.206 7.517 4.861 8.113 5.226 17.291.311 25.98-1.986 3.516-3.706 2.519-2.523 5.962l3.903-5.756zM79.48 119.146c.603-1.797 1.039-1.036.742 1.078-1.766 12.048.847 32.74 10.637 48.478 2.224-6.488 6.182-11.489 10.711-16.058-6.439-11.393-4.278-19.457.361-25.093 2.344-2.836 6.201-4.977 11.528-5.771l-3.721-7.796c-.463.907-.884 1.961-1.401 3.631-.449 1.434-.973 1.112-.889-.363.496-8.583 3.109-14.66 4.133-21.993.486-3.419-1.245-6.506-3.712-11.084-3.354-6.237-4.947-18.457-5.246-19.828-.303-1.365-2.232.03-3.767 2.519-1.909 3.105-4.524 15.989-.389 22.102-.155 1.571-1.61 2.389-2.734 3.22-3.054 2.265 1.722 4.635-2.149 6.146-1.812.7-4.93 4.79-3.896 13.506-1.979-3.504-2.011-7.469-.761-11.254-3.256.864-7.641.681-10.229-2.391-.947-1.118.033-.71.461-.447 3.36 2.123 8.421 2.12 12.836-.523.901-.537 1.765-2.069.765-2.331s-8.245-4.041-12.313-4.594c-1.948-.269-2.871 1.637-3.8 3.05-4.879 9.348.003 20.266 1.891 29.046 0 0 .346-1.453.942-3.25m1.107-30.199c6.427 1.628 11.827 4.011 15.72.571 1.015-.891-5.996-4.385-8.76-6.759-5.127-5.153-8.619 3.095-9.499 6.786.435-.378 1.947-.761 2.539-.598" fill="#8a3f1e"/><path d="M163.444 206.256l-4.314-.154.015-.163h4.388l.36.003-.025.257c-.007.021-.007.045-.008.072-.088 0-.416-.015-.416-.015m-21.144 8.692c-1.083-.227-2.36-.833-3.304-2.365l.519 1.568.16.504-.432.024-3.098.208-.287.019-.077-.342-.055-.205-.173.018-.082-.347-1.008-4.256-.617-2.576-1.055 7.841-.041.205-.187.039-2.798.656-1.808.416c-1.939.466-3.2.3-4.109-.525-.041-.03-.075-.07-.109-.106a2.97 2.97 0 0 1-.542-.377c-.847-.725-1.389-2.06-1.656-4.054l-.507-4.493-.433-3.969c-1.892-.873-3.639-2.244-5.057-3.942-.822-.845-1.548-1.785-2.18-2.799-.076 19.982 9.668 33.833 17.39 46.695h19.271c-3.13-8.976-5.665-16.13-7.725-27.837m-28.898-20.809l-.033 1.22.033-1.22m17.191 10.444l-.322-.021c-1.294-.067-3.186-.26-5.22-.547l.041.453.011.06 3.505.236.297.021.028.357.041.416h.133l.278.025.038.353.074.761.19 1.988.044.416.862-4.518m-5.105 4.065l.304 2.939.03.274a2.12 2.12 0 0 0 .057.345l.199-.009 3.131-.481.515-2.59-.347-.031-3.889-.447m54.84 3.763c-.005.009-.007.015-.012.027-.003.006-.006.021-.01.036l.022-.063m22.712-35.494c-6.11 1.238-13.243 1.456-18.7-.127 0 0-2.661.652-6.56 1.377h-.012c-2.753.511-8.561 1.662-16.601 1.849-5.178 1.612-9.776 3.854-12.535 6.013-.482.381-2.225 1.713-3.429 4.234h-.005c-1.592 2.99-2.314 6.657-2.525 10.466 2.89.38 4.008 2.183 4.041 3.727l.008.428.015.837-.387-.018-2.807-.121-.346-.015-.009-.408c0-.093-.043-.193-.11-.275-.156-.196-.449-.314-.775-.329-.293-.012-.495.075-.656.269-.468.568-.456 2.09-.391 3.337a17.13 17.13 0 0 0 .15 1.647c.261 1.026.725 1.609 1.593 1.678.175.015.428-.027.596-.069l-.045-1.628-1.425-.079-.447-.021-.139-4.028.365.021 2.836.118c.657.024 1.196.277 1.574.73.296.354.509.825.598 1.389l-.055-4.025a2.64 2.64 0 0 1 .038-.526l-.003-.362c-.03-1.205.539-1.876 1.549-1.843.772.022 1.864.103 1.87.103l.35.025.011.413c.018.961.003 7.889 0 9.713a138.01 138.01 0 0 1 4.038.393l.089.009.181-6.621c.018-.555.139-1.045.346-1.455.27-1.544 1.406-2.462 3.185-2.495l5.78-.157.458-.024-.041.525-.184 2.392c.124-.196.257-.38.4-.546.999-2.093 3.356-2.73 5.854-3.057 4.631-.616 8.958-2.654 13.216-6.255l.576-.483.126.785c.207 1.314-.337 2.365-.827 3.014-.96 1.263-1.995 2.353-3.102 3.287-2.862 2.842-6.335 4.427-10.68 4.959a4.64 4.64 0 0 0-.93.193c0 .634.754 1.169 2.158 2.136l.475.314c3 2.041 4.209 4.476 3.562 7.175-.434 1.813-1.486 3.048-2.965 3.6-1.273.846-3.012 1.009-5.045.415-1.127-.333-2.325-.741-3.476-1.136l-2.676-.891c-2.379-.749-4.908-1.296-6.169-1.553 0 0-.191-.036-.285-.06l-.007.027-.395-.094c-1.691-.389-4.875-.746-7-.909l-.348-.024-.003-.41-.009-.816-.174.151c-.814.722-1.928 1.148-3.084 1.233 1.547 9.136 4.482 18.329 7.675 27.746h37.75c-5.892-4.757-8.685-8.523-9.454-12.243-1.069-5.144-.339-6.947 1.018-7.914-1.015-3.195-1.383-6.581-.604-9.483-.39.256-.903.51-1.552.758a8.86 8.86 0 0 1-2.426.864c.125-1.692-.246-2.791-.949-3.824l.737.009c1.849.009 3.21-.076 4.845-.29l.388-.051a.08.08 0 0 1-.018.03c.807-1.384 1.97-2.603 3.589-3.525.113-5.264 6.937-11.299 12.275-10.51 2.218-1.495 2.501-1.574 3.466-1.725.986-.77 1.824-1.395 2.812-1.455 1.098-.795 2.037-1.046 3.006-.798.891-.44 1.388-3.485 4.741-4.883s6.898-1.233 8.476-.949c-5.086-2.791-12.169-7.653-16.451-9.879m-57.096.091c-7.92-3.908-14.574-10.991-20.348-17.578-1.351-1.555-5.09-4.953-9.642-.559-3.64 3.546-3.865 6.261-5.312 5.5-3.659 4.352-8.789 13.809-11.142 28.124 4.356 1.87 9.922 4.646 12.175 7.104-.193-5.639.349-11.091 1.727-14.352.87-1.999 1.293-2.307.816.601a66.41 66.41 0 0 0-.791 7.75c3.269 3.171 6.38 5.195 12.173 5.992 2.12.296 3.692 1.398 4.323 3.02a3.99 3.99 0 0 1 .642 1.483l.066.275.678-3.706.061-.326.268.027a106.72 106.72 0 0 0 2.196.169c.78.049 1.462.686 1.776 1.667l.206.625c.036.088.066.182.096.269l1.69 5.21-.08-.782c-.146-2.479.227-4.316 1.124-5.46.651-.828 1.579-1.275 2.733-1.375.456-5.989 2.428-11.549 5.776-15.279-.347-1.573-1.039-5.083-1.211-8.399" class="C"/><path d="M109.458 163.308c-4.734 5.533-10.121 18.022-11.321 28.608l1.363.579c2.353-14.315 7.483-23.771 11.142-28.124-.306-.172-.686-.51-1.184-1.063" class="B"/><path d="M158.819 212.505l5.082 1.208 1.194.323 3.953.912c.146.015.319 0 .49-.045.029-.054.049-.118.065-.187.183-.716-.505-1.489-2.369-2.697-2.27-1.465-3.375-3.211-3.388-5.304l-.003.049-.086 1.383-.082 1.443-.031.384-.355-.015-.153-.009-.025.353-.022.375-.344-.015-3.84-.197-.086 2.039" class="C"/><path d="M152.251 224.011c-.429-.984-1.58-1.507-2.582-1.153-.996.341-1.471 1.413-1.038 2.401.429.975 1.586 1.492 2.578 1.16a1.75 1.75 0 0 0 1.042-2.408m-2.725-36.094c-1.018.345-1.639 1.453-1.371 2.483.263 1.02 1.292 1.574 2.311 1.232 1.008-.347 1.621-1.456 1.369-2.473-.267-1.031-1.291-1.586-2.309-1.242m7.497 51.021c-.427-.985-1.561-1.504-2.56-1.157-1.013.336-1.476 1.423-1.048 2.404a2.12 2.12 0 0 0 2.562 1.151c1.004-.347 1.48-1.419 1.046-2.398" fill="#e4d4b8"/><g class="B"><path d="M144.752 206.216l-2.836-.121.085 2.498 1.872.097.085 3.017c-.174.145-.692.211-.943.199-1.789-.148-2.114-2.129-2.243-4.491-.117-2.365.017-4.186 1.413-4.138.691.027 1.262.444 1.273 1.051l2.895.118c-.025-1.504-1.197-3.25-4.401-3.382-2.45-.049-4.388 1.431-4.08 6.45.396 5.02 2.905 6.425 5.065 6.588 1.478.09 2.831-.477 3.665-1.226l-.06-4.515c-.026-1.508-.816-2.1-1.79-2.145m9.949 6.019l-4.393-.414V201.69l-1.853-.106c-.776-.021-1.228.429-1.207 1.438l.129 10.911c1.987.152 5.389.538 7.277.967zm-20.869-11.301l-2.197-.166-2.144 11.311-3.356.516c-.803.091-1.109-.462-1.193-1.323l-.412-3.772 4.363.496-.278-2.827-4.331-.299-.204-2.126 5.725.579c-.438-1.981-2.26-3.056-4.225-3.334-5.597-.773-8.769-2.664-12.169-5.926l-.042 1.411c.025.051.051.111.083.163 1.522 2.531 4.082 5.11 7.369 6.33l1.027 9.29c.578 4.226 2.354 4.99 5.501 4.226 1.622-.354 3.086-.644 4.722-1.078l1.373-10.375 2.356 9.909c1.094-.102 2.261-.174 3.197-.22l-3.695-11.384c-.298-.905-.891-1.355-1.47-1.401m-19.72 1.13c.03.465.146 1.082.48 1.495 1.198 1.438 3.25 2.513 5.565 3.138l-.222-2.425c-1.927-.475-4.195-1.308-5.823-2.208m2.38 7.016c1.128.975 2.596 1.479 4.15 1.712l-.28-2.346c-1.297-.052-3.118-.278-4.465-.707.027.489.278 1.06.595 1.341m54.343-8.249c-3.807.501-5.763 1.679-5.986 4.57-.19 2.398 1.038 4.117 3.277 5.563 1.762 1.136 2.934 2.166 2.646 3.31-.185.846-1.077 1.136-1.724 1.081-1.247-.111-3.352-.731-5.208-1.216l-5.411-1.281.168-3.579 4.691.239.169-2.822-4.728-.178.111-1.899 5.237.011.248-3.101-5.788.151c-1.884.03-2.851 1.123-2.889 2.685l-.292 10.667c1.854.33 4.272.891 6.412 1.555l6.35 2.078c3.688 1.073 6.147-.377 6.832-3.303.588-2.468-.526-4.73-3.355-6.651-1.713-1.175-2.856-1.839-2.833-2.879.012-.83.563-1.298 2.051-1.482 6.3-.783 10.021-3.652 12.717-7.209.479-.638.916-1.562.738-2.641-3.515 2.961-7.856 5.582-13.433 6.331m.728 6.041c1.238.815 2.363 1.691 3.185 2.558 3.453-.462 6.529-1.818 7.687-3.089.445-.49.676-1.082.653-1.798-3.351 1.308-6.673 2.012-11.525 2.329m5.159 7.082c1.86-.405 3.115-1.084 3.599-1.516a8.95 8.95 0 0 1 .513-1.241.68.68 0 0 1 .006-.079c-1.607.206-2.957.299-4.908.284.353.586.729 1.749.79 2.552m-47.455-15.717c-.163-.027-.187-.084-.187-.154l-.033-1.377.652.015c.088.172.822 1.317.822 1.401.003.094-.053.13-.141.145v.1l1.391.024-.003-.09c-.074 0-.132-.055-.196-.158l-.822-1.389c.554-.178.946-.573.928-1.335-.019-.939-.451-1.374-1.437-1.389l-2.423-.033v.103c.169.015.19.075.19.147l.082 3.809c.003.082-.018.13-.179.148l-.003.097 1.365.036zm-.255-3.304l1.121.021c.388.003.513.218.513.457.012.244-.107.449-.493.443l-1.121-.015-.02-.906z"/><path d="M134.056 198.352c-.1-.009-.13-.045-.126-.094-.004-.048.037-.151.202-.755l1.62.037.247.749c.004.054-.025.099-.129.108l.004.094 1.358.033-.003-.103c-.083 0-.13-.054-.203-.253l-1.349-3.86c-.004-.084.046-.1.117-.112l.003-.099-1.781-.018-.004.096c.064.006.137.024.137.088.005.045-1.066 3.684-1.126 3.869-.033.136-.074.169-.164.19v.099l1.197.022v-.091zm.793-3.479l.708 1.987-1.267-.021.559-1.966zm5.078 3.614c-.173-.024-.193-.084-.193-.16l-.018-1.006.669-.73.994 1.821c0 .111-.046.105-.133.105l.001.106 1.627.033-.005-.096c-.095 0-.152 0-.233-.142l-1.498-2.616 1.204-1.256c.172-.182.207-.251.391-.263v-.103l-1.802-.024.003.106c.079.006.129.012.136.112 0 .099-.788.894-1.341 1.54h-.042l-.031-1.519c0-.073.013-.13.193-.145v-.106l-1.445-.015v.1c.179.021.2.081.197.16l.083 3.917c.003.076-.021.133-.189.145v.106l1.437.033-.005-.103zm6.296.306c1.116.03 1.998-.45 1.975-1.972l-.045-2.311c0-.081.02-.145.209-.16l-.007-.099-1.502-.021v.105c.181.024.202.076.208.16l.039 2.308c.017.658-.317.924-.898.909s-.911-.29-.924-.948l-.046-2.29c0-.078.018-.141.197-.16l-.003-.103-1.486-.018.003.106c.181.024.205.081.208.16l.047 2.286c.029 1.507.918 2.021 2.025 2.048m3.646-3.455l1.28.009.058 3.253c.003.081-.015.136-.202.151l.001.106 1.54.042-.003-.112c-.187-.018-.211-.081-.208-.157l-.064-3.268 1.293.021c.086 0 .112.045.142.242l.094.009-.036-1.559h-.091c-.015.2-.044.239-.129.239l-3.689-.045c-.08 0-.114-.045-.137-.245h-.089l.03 1.546h.091c.018-.199.044-.241.119-.232m9.234 3.908l.09.003-.025-1.546h-.097c-.023.223-.051.272-.136.265l-2.469-.051-.018-.824 1.432.027c.157.006.21.097.232.208l.091.006-.024-1.386h-.091c-.021.111-.069.199-.229.199l-1.426-.024-.015-.731 2.477.034c.083.006.114.053.14.25l.092.006-.024-1.549h-.094c-.021.202-.05.247-.135.247l-3.818-.051.005.112c.191.018.217.075.22.157l.068 4.102c.003.081-.018.138-.212.153l.004.106 3.813.091c.084 0 .114.045.149.196m3.121-.227c-.197-.021-.233-.087-.229-.166l-.048-2.809 2.341 2.93c.003.06-.041.09-.181.09v.115l1.522.027-.006-.105c-.195-.021-.226-.082-.224-.169l-.071-4.202c0-.075.023-.153.22-.163l.003-.103-1.468-.029v.111c.112.009.172.06.175.169l.039 2.404-1.968-2.474c-.001-.054.037-.105.216-.114v-.103l-1.895-.027v.109c.195.015.224.081.219.166l.08 4.153c-.001.075-.025.145-.225.154v.112l1.498.027.002-.103z"/></g><g fill-rule="evenodd"><path d="M166.063 237.343h1.376l.988 3.788h-6.751l-1.034-3.788h1.373l-2.504-9.23h-1.399l-.768-2.796 2.177-2.909h2.601z" class="D"/><path d="M161.646 223.082h-1.685l-1.888 2.525.505 1.845h1.399l2.848 10.535h-1.375l.688 2.512h5.494l-.661-2.512h-1.373z" class="B"/><path d="M175.525 237.044l-2.54-10.329-.372-.314h-2.376l-.213.314 2.579 10.329.36.299h2.352l.21-.299zm-7.861-14.636h5.537l3.122 2.688 3.233 13.5-1.791 2.535h-5.37l-3.028-2.535-3.487-13.5 1.784-2.688z" class="D"/><path d="M176.226 237.298l-.48.689h-2.895l-.816-.689-2.724-10.846.477-.719h2.942l.838.719 2.658 10.846zm-8.111-14.216l-1.516 2.28 3.337 12.978 2.574 2.159h4.832l1.518-2.159-3.122-12.978-2.652-2.28z" class="B"/></g><path d="M233.124 194.401l1.59 1.145 3.665-3.147-2.143-.544-3.112 2.546zm1.092-3.071l-2.133-.61-2.2 1.416 1.602 1.112 2.731-1.918" class="B"/><path d="M222.217 187.518c1.32.631 4.25 2.338 7.667 4.618l2.199-1.416c-3.477-1.021-7.394-2.272-9.866-3.202" class="C"/><g class="D"><path d="M120.63 208.056h-.278c-1.154-.046-2.996-.254-4.41-.692l-.373-.121.024.502c.03.612.346 1.304.737 1.646a6.41 6.41 0 0 0 .715.543l.111.106c.985.849 2.265 1.407 3.905 1.7l-.214-1.812-.176-1.516zm.012 2.736c-1.554-.233-3.022-.737-4.15-1.712-.317-.281-.568-.852-.595-1.342 1.347.429 3.168.656 4.465.707zm55.271.16l-.737-.009c.704 1.032 1.073 2.132.951 3.823.919-.189 1.718-.483 2.424-.863.651-.248 1.163-.502 1.549-.746l.22-.719c-.484.431-1.739 1.111-3.599 1.516-.06-.803-.436-1.966-.79-2.552 1.951.015 3.301-.078 4.908-.284l-.006.079.315-.586-.388.051a33.37 33.37 0 0 1-4.847.29m8.788-16.523l-.128-.786-.576.483c-4.259 3.601-8.584 5.64-13.215 6.256-2.499.326-4.856.963-5.853 3.056-.146.166-.278.35-.402.547l.184-2.392.043-.526-.46.024-5.78.157c-1.779.034-2.915.952-3.184 2.495-.208.411-.327.9-.347 1.456l-.18 6.62-.09-.009-4.038-.393v-9.713l-.011-.413-.349-.025c-.007 0-1.098-.081-1.871-.103-1.009-.032-1.579.638-1.549 1.843l.003.363c-.026.168-.044.338-.036.525l.053 4.026c-.09-.565-.301-1.036-.598-1.389-.377-.453-.916-.707-1.574-.731l-2.836-.118-.364-.021.14 4.029.444.021 1.426.078.045 1.628c-.166.043-.421.085-.596.07-.867-.07-1.332-.652-1.592-1.679-.071-.48-.122-1.03-.149-1.646-.067-1.248-.079-2.77.391-3.338.16-.193.36-.281.654-.268.328.015.619.132.776.329a.43.43 0 0 1 .109.275l.008.407.348.015 2.806.121.386.019-.015-.837-.007-.429c-.034-1.661-1.312-3.664-4.765-3.809-1.437-.027-2.549.451-3.301 1.414-.897 1.144-1.271 2.981-1.126 5.46l.08.783-1.687-5.21c-.034-.088-.064-.182-.1-.269l-.205-.625c-.311-.982-.997-1.619-1.774-1.667-.562-.031-2.18-.166-2.195-.17l-.272-.027-.06.326-.677 3.707-.066-.275c-.116-.55-.334-1.046-.643-1.484-.628-1.621-2.202-2.723-4.324-3.02-5.791-.797-8.902-2.821-12.176-5.992l-.015.465c3.401 3.262 6.572 5.153 12.169 5.926 1.966.278 3.787 1.353 4.225 3.334-1.566-.066-3.781-.311-5.725-.579l.204 2.126 4.331.299.278 2.826c-1.447-.108-2.903-.274-4.363-.495l.413 3.772c.084.861.389 1.414 1.192 1.323 1.134-.126 2.473-.353 3.356-.516l2.144-11.311 2.197.166c.579.046 1.172.496 1.47 1.401l3.695 11.384a75.89 75.89 0 0 0-3.197.22l-2.356-9.909-1.372 10.375c-1.637.434-3.101.724-4.723 1.078-3.147.764-4.923 0-5.501-4.226-.131-.984-.669-6.103-1.026-9.29-3.288-1.22-5.848-3.799-7.37-6.33-.032-.052-.058-.112-.083-.163-.005.202 0 .404 0 .613.631 1.006 1.356 1.957 2.178 2.803 1.419 1.697 3.165 3.068 5.057 3.941l.433 3.969.506 4.493c.267 1.994.81 3.329 1.66 4.054a2.73 2.73 0 0 0 .539.377c.035.037.071.076.11.106.909.825 2.169.991 4.108.525l1.809-.416 2.798-.655.186-.04.041-.205 1.055-7.841.616 2.576 1.01 4.256.082.347s.094-.008.172-.018l.054.205.078.342.288-.018a58.12 58.12 0 0 1 3.099-.208l.433-.025-.163-.504-.518-1.568c1.164 1.894 2.857 2.38 4.033 2.48 1.39.081 2.796-.39 3.771-1.256l.176-.151.006.815.002.411.351.024c2.123.163 5.306.52 6.999.909l.394.094.006-.028a5.56 5.56 0 0 0 .287.061c1.26.257 3.789.803 6.169 1.552.868.266 1.784.583 2.674.891 1.153.396 2.353.804 3.48 1.136 2.03.595 3.769.432 5.042-.414 1.478-.552 2.533-1.788 2.966-3.6.648-2.7-.563-5.135-3.564-7.176l-.474-.314c-1.404-.967-2.156-1.501-2.156-2.136.228-.078.533-.144.928-.193 4.345-.531 7.82-2.117 10.68-4.959a20.42 20.42 0 0 0 3.102-3.286c.491-.649 1.035-1.7.829-3.014m-55.489 17.287a49.91 49.91 0 0 1-3.131.481c-.071.009-.134.009-.199.009-.026-.103-.045-.215-.058-.345l-.028-.274c-.058-.477-.18-1.526-.306-2.939a53.41 53.41 0 0 0 3.892.447l.344.03-.514 2.591m.522-2.615c-.012-.085-.044-.417-.044-.417l-.19-1.987-.074-.761-.035-.354-.28-.024h-.134l-.039-.417-.03-.356-.298-.021-3.503-.236-.012-.06-.041-.453c2.034.287 3.929.48 5.221.546l.321.022-.862 4.518m13.203 5.001c-2.159-.163-4.669-1.567-5.065-6.587-.308-5.02 1.631-6.499 4.08-6.451 3.204.133 4.376 1.879 4.401 3.383l-2.895-.118c-.011-.607-.582-1.024-1.273-1.051-1.396-.049-1.53 1.773-1.413 4.137.13 2.363.454 4.344 2.243 4.492.251.012.769-.055.943-.2l-.085-3.017-1.872-.096-.085-2.498 2.836.121c.974.045 1.764.637 1.79 2.144l.06 4.515c-.834.749-2.187 1.317-3.665 1.226m11.717.798c-1.888-.429-5.29-.816-7.277-.967l-.129-10.912c-.021-1.008.431-1.459 1.207-1.437.778.03 1.853.105 1.853.105.03 1.099 0 10.133 0 10.133 1.274.082 2.955.257 4.393.414l-.047 2.664zm9.024-5.31c.038-.495.06-.972.082-1.443l.086-1.383.005-.049c.01 2.093 1.116 3.839 3.385 5.303 1.865 1.208 2.552 1.982 2.37 2.698-.017.069-.035.133-.064.187a1.41 1.41 0 0 1-.489.045c-.945-.102-2.484-.519-3.955-.912l-1.193-.323c-1.612-.42-3.398-.846-5.083-1.208l.086-2.039 3.84.196.344.016.021-.375c.016-.115.02-.233.028-.353l.152.009.355.015.03-.384zm-.229-3.334l-4.315-.154a1.63 1.63 0 0 1 .015-.163c1.227.03 2.616.03 4.387 0l.36.003c-.012.081-.021.175-.021.257-.01.021-.01.045-.011.072-.089 0-.415-.015-.415-.015m20.081-9.115c-2.697 3.558-6.417 6.427-12.718 7.209-1.487.185-2.038.652-2.051 1.483-.023 1.039 1.121 1.704 2.833 2.878 2.83 1.921 3.943 4.183 3.356 6.651-.686 2.926-3.144 4.376-6.832 3.304-2.064-.595-4.296-1.441-6.35-2.078-2.14-.664-4.559-1.226-6.412-1.555l.292-10.668c.037-1.561 1.005-2.655 2.888-2.685l5.789-.151-.248 3.102c-1.836.036-3.587.045-5.237-.012-.021.918-.074.984-.112 1.9l4.728.178-.169 2.821-4.69-.239-.168 3.579c1.785.378 3.689.83 5.411 1.281 1.856.486 3.961 1.105 5.208 1.217.647.054 1.539-.236 1.724-1.081.288-1.145-.884-2.175-2.646-3.31-2.24-1.447-3.468-3.166-3.277-5.564.223-2.89 2.179-4.068 5.986-4.57 5.577-.749 9.918-3.37 13.432-6.33.179 1.078-.258 2.003-.737 2.64"/><path d="M171.52 206.422l-1.182.082c1.579 1.069 3.448 2.28 4.536 3.854 2.277-.429 4.218-1.175 5.602-2.16.988-.465 1.786-.993 2.266-1.525.531-.586.797-1.302.779-2.121l-.021-.664-.576.224c-3.396 1.329-6.707 2.002-11.404 2.31m10.914-.081c-1.157 1.271-4.233 2.627-7.687 3.089-.821-.866-1.946-1.742-3.185-2.558 4.852-.317 8.175-1.02 11.526-2.328.022.715-.209 1.308-.654 1.797m-61.87 1.371l-.054-.589-.04-.45-.23-2.428-.03-.306-.24-.06c-2.026-.495-4.23-1.32-5.755-2.163l-.436-.238.037.601c.018.344.112 1.196.576 1.749.323.381.702.746 1.134 1.084 1.125 1.202 2.881 2.184 5.038 2.8m-6.452-5.648c1.628.9 3.896 1.733 5.823 2.208l.222 2.425c-2.315-.625-4.367-1.7-5.565-3.138-.334-.413-.45-1.03-.48-1.495"/></g></svg>