<svg xmlns="http://www.w3.org/2000/svg" height="326.675" viewBox="0 0 134.002 142.53" width="306.115" xmlns:v="https://vecta.io/nano"><path d="M88.532 118.51v.3a1.55 1.55 0 0 0 .92 1.31 1.5 1.5 0 0 0 1.57-.22l1.13-1 1.44-1.36a20.5 20.5 0 0 0 5.93-13.58v-1.46a52.61 52.61 0 0 0 18.8-28.45v-.33a1.47 1.47 0 0 0-.25-.78 8.72 8.72 0 0 0 1.93-.7l3.39-2a6.64 6.64 0 0 0 1.71 1.32 1.45 1.45 0 0 0 1.45 0l6.7-3.87a1.51 1.51 0 0 0 .75-1.3v-.3a1.49 1.49 0 0 0-1.3-1.18 1.55 1.55 0 0 1-1.4-1.66v-5.62a9.92 9.92 0 0 0-.43-2.95 7.37 7.37 0 0 0-1-2.07l-2-2.55a1.6 1.6 0 0 0-.42-.35l2.75-3.24 1.15-1.35a1.51 1.51 0 0 0 .36-1l-.07-.45a6.87 6.87 0 0 0-1.29-2.4l-.14-.15a6.77 6.77 0 0 0-3.51-2.07 7.7 7.7 0 0 0-3.14-.07 9.27 9.27 0 0 0-2.77 1l-.9.52a.33.33 0 0 1 .22 0 24.2 24.2 0 0 0-3.6 2 8 8 0 0 0-1.11-.63 1.56 1.56 0 0 0 .35-1l-.13-.6a52 52 0 0 0-4.79-8.57l.48-.74a33.61 33.61 0 0 0 3.34-8 13 13 0 0 0 .53-3.54 9.8 9.8 0 0 0-1.18-4.73 14.1 14.1 0 0 0-2.35-3.07 20.7 20.7 0 0 0-4-2.89C103.282 6.24 91.002.24 71.002 0h-1.46c-16.91 0-27.39 4.2-32.14 6.71a25.67 25.67 0 0 0-6.55 4.53 1.41 1.41 0 0 0-.39 1s0 .23.08.41a22.55 22.55 0 0 0-4.71 4.27l-2.11 2.81a1.48 1.48 0 0 0-.3.9 1.49 1.49 0 0 0 1.83 1.46l1.75-.4c-.18.69-.36 1.37-.49 2.13a34.9 34.9 0 0 0-.51 5.87 52.21 52.21 0 0 0-5.6 9.27l-.14.64a1.51 1.51 0 0 0 .48 1.1l.13.07a13.86 13.86 0 0 0-2.19 2 1.2 1.2 0 0 0-.18-.31 1.5 1.5 0 0 0-1.9-.34l-3.12 1.81-11.2 6.42a1.49 1.49 0 0 0 .13 2.66l1.89.85a1.52 1.52 0 0 0 1.27 0l.49-.16a1.09 1.09 0 0 1 .92.19 1 1 0 0 1 .33.81v25.29a13.21 13.21 0 0 1-.22 2.6c-.2.62-.94 1.78-3.58 2.36a.27.27 0 0 1 .2 0q-.09 0-2.11.25h-.22a1.5 1.5 0 0 0-1.377 1.614 1.5 1.5 0 0 0 .277.756l2.94 4a1.49 1.49 0 0 0 1 .59 1.31 1.31 0 0 0 .69-.1h-.08a37.81 37.81 0 0 0 7.17-2.23l.7-.32a36.32 36.32 0 0 1 4.17-1.56c1.12-.3 2.31-.57 3.54-.8l.8-.14 1.5-.21a1 1 0 0 0-.08.29 1.5 1.5 0 0 0 .22.77 52.53 52.53 0 0 0 10.5 12.58 35.6 35.6 0 0 0 3.79 5.69l1.32 1.51.79.8.13.13.67.63.24.21.53.47.27.22.51.42.31.24.49.37.3.22-.65.31a1.51 1.51 0 0 0-1 1.29v.11a1.48 1.48 0 0 0 .76 1.3l.86.48.67.36 1.59.81 2.74 1.23h.07l.83.33.25.1 1.35.5.41.15.63.21.72.24.43.13 1.11.33.26.07 1 .28.35.09 1.26.3.89.19h.17l-.17.17a1.54 1.54 0 0 0-.55 1.17v.3a1.5 1.5 0 0 0 1 1.15l.87.25 1.23.32.29.07.86.18.79.15.8.14h.16a4.32 4.32 0 0 0 .62.08h.17l.6.07h2.7-.06a4.35 4.35 0 0 0 .63 0h1.15c1.08 0 2.18-.12 3.28-.26h.32l.6-.09.51-.08.61-.11.5-.1.55-.12h-.08a4.27 4.27 0 0 0 .69-.14l.45-.1 1-.29 1.15-.36 2.59-1 .16-.06 1.18-.26.22-.1 1-.5.24-.12 1-.53.22-.13.85-.49.12-.07.16-.12.9-.56.34-.22.84-.57.37-.26.13-.1v.97m44.99-52.2l-66.81 58z" fill="#fff"/><g fill="#00214b"><path d="M74.532 86.29a31.61 31.61 0 0 1 2.54 2.19 28.41 28.41 0 0 0-.79 3.14 1.67 1.67 0 0 0 .35 1.09c.11.13.22.17.3.15s.13-.13.15-.3a39.03 39.03 0 0 1 .61-4 .67.67 0 0 0 0-.24.6.6 0 0 0-.11-.21 41.09 41.09 0 0 0-2.83-3.12.37.37 0 0 0-.35-.13.38.38 0 0 0-.22.32 1.21 1.21 0 0 0 0 .59 1.31 1.31 0 0 0 .3.5m-7.45 4a31.51 31.51 0 0 1 2.68 2 29.52 29.52 0 0 0-.59 3.19 1.36 1.36 0 0 0 .12.57 1.4 1.4 0 0 0 .3.49c.11.12.22.16.3.13s.13-.14.13-.31a40 40 0 0 1 .35-4 .55.55 0 0 0 0-.25.75.75 0 0 0-.11-.2l-3-2.93a.36.36 0 0 0-.37-.11.4.4 0 0 0-.2.34 1.37 1.37 0 0 0 .43 1.06m11.23-5.34a28.9 28.9 0 0 1 2.49 2.33 30.41 30.41 0 0 0-.89 3.11 1.69 1.69 0 0 0 .06.58 1.49 1.49 0 0 0 .26.52c.11.13.21.18.29.16s.14-.12.16-.29c.17-1.34.43-2.66.74-4a.5.5 0 0 0 0-.24.34.34 0 0 0-.09-.21l-2.72-3.22a.39.39 0 0 0-.36-.14c-.11 0-.19.14-.23.32a1.16 1.16 0 0 0 0 .58 1.06 1.06 0 0 0 .28.51m3.77-1a29.65 29.65 0 0 1 2.2 2.52 31.76 31.76 0 0 0-1.23 3 1.88 1.88 0 0 0 0 .58 1.49 1.49 0 0 0 .2.54c.09.15.19.21.27.2s.15-.11.19-.28c.32-1.31.72-2.59 1.18-3.9a.6.6 0 0 0 0-.24.71.71 0 0 0-.07-.22l-2.36-3.49a.36.36 0 0 0-.34-.18.37.37 0 0 0-.26.29 1.28 1.28 0 0 0 0 .59 1.34 1.34 0 0 0 .23.53m15.6 8.66c.08 0 .18 0 .29-.16a40.66 40.66 0 0 1 2.73-3 .72.72 0 0 0 .12-.21.51.51 0 0 0 0-.24 41.12 41.12 0 0 0-.64-4.16.35.35 0 0 0-.22-.3.37.37 0 0 0-.36.15 1.13 1.13 0 0 0-.27.51 1.29 1.29 0 0 0 0 .58 31.26 31.26 0 0 1 .91 3.22 32.19 32.19 0 0 0-2.4 2.18 1.48 1.48 0 0 0-.25.52 1.69 1.69 0 0 0 0 .58c0 .16.08.26.16.28m-27-4.23a32.57 32.57 0 0 1 2.57 2.14 27.77 27.77 0 0 0-.74 3.16 1.69 1.69 0 0 0 .09.57 1.65 1.65 0 0 0 .28.51c.11.13.22.17.3.15s.13-.14.15-.31a37.77 37.77 0 0 1 .54-4 .67.67 0 0 0 0-.24.51.51 0 0 0-.1-.21l-2.88-3.08a.41.41 0 0 0-.36-.12.38.38 0 0 0-.22.33 1.19 1.19 0 0 0 .07.58 1.31 1.31 0 0 0 .3.5M56.552 96a31.61 31.61 0 0 1 2.44 2.3 31.06 31.06 0 0 0-.93 3.1 1.63 1.63 0 0 0 .06.57 1.48 1.48 0 0 0 .25.52c.1.14.21.19.29.17s.14-.12.16-.29c.19-1.34.46-2.65.79-4a.66.66 0 0 0 0-.24.49.49 0 0 0-.09-.22l-2.68-3.24a.37.37 0 0 0-.36-.14.38.38 0 0 0-.24.31 1.2 1.2 0 0 0 0 .59 1.25 1.25 0 0 0 .27.51m-3.62 1.43l2.33 2.4a28 28 0 0 0-1.07 3.06 1.41 1.41 0 0 0 0 .57 1.66 1.66 0 0 0 .23.54c.09.14.19.19.28.17s.14-.11.17-.28c.25-1.33.58-2.63 1-4a.62.62 0 0 0 0-.24.72.72 0 0 0-.08-.22l-2.54-3.36a.38.38 0 0 0-.35-.16.39.39 0 0 0-.25.3 1.4 1.4 0 0 0 .26 1.12m10.57-5a31.37 31.37 0 0 1 2.74 1.92 29.37 29.37 0 0 0-.48 3.21 1.32 1.32 0 0 0 .14.56 1.44 1.44 0 0 0 .32.48c.12.12.23.16.3.12s.12-.14.12-.31a43.18 43.18 0 0 1 .21-4.07.4.4 0 0 0 0-.23.52.52 0 0 0-.11-.21c-1-1-2-1.93-3.13-2.82a.35.35 0 0 0-.37-.09.37.37 0 0 0-.19.34 1.24 1.24 0 0 0 .12.58 1.27 1.27 0 0 0 .34.47m-3.57 2.02a33.25 33.25 0 0 1 2.62 2.09 31.34 31.34 0 0 0-.68 3.17 1.65 1.65 0 0 0 .39 1.07.33.33 0 0 0 .3.14c.08 0 .13-.14.14-.31a40.49 40.49 0 0 1 .46-4 .63.63 0 0 0 0-.23.52.52 0 0 0-.11-.21 41.73 41.73 0 0 0-2.94-3 .38.38 0 0 0-.37-.11.4.4 0 0 0-.21.33 1.34 1.34 0 0 0 .4 1.07m57-20.55a9.06 9.06 0 0 1-1 .07 7.9 7.9 0 0 1-1.88-.23c-.18 0-.36-.1-.54-.15a47.4 47.4 0 0 1-7.25 15.3l-1.91 2.43-.06-3.92a.35.35 0 0 0-.18-.33.36.36 0 0 0-.38.09 1.23 1.23 0 0 0-.34.48 1.18 1.18 0 0 0-.11.57 32.75 32.75 0 0 1 .45 3.32 32 32 0 0 0-2.68 1.91 1.44 1.44 0 0 0-.32.49 1.71 1.71 0 0 0-.14.55c0 .18 0 .28.12.31s.19 0 .32-.12l1.94-1.68-1.24 1.37a45.83 45.83 0 0 1-4.18 3.82 24.69 24.69 0 0 0-1.81-5.32 22.4 22.4 0 0 0-.26-2.73l1.57-2.2a.63.63 0 0 0 .09-.22.66.66 0 0 0 0-.24l-1.18-4c-.06-.16-.16-.26-.27-.27-.11 0-.23 0-.34.19a1.21 1.21 0 0 0-.2.55 1.39 1.39 0 0 0 0 .58 29.65 29.65 0 0 1 1.33 3.08 19.09 19.09 0 0 0-1.27 1.44 18.48 18.48 0 0 0-1.16-3.46c-.08-.18-.48-.87-.48-.87a11.69 11.69 0 0 0-5.67-4.88l-.14-.06a20 20 0 0 1 .05 4.69l-1.08-2.21a.37.37 0 0 0-.3-.23c-.12 0-.23.09-.31.25a1.26 1.26 0 0 0-.12.57 1.2 1.2 0 0 0 .14.57c.093.175.92 1.36 1.48 2.32a12.8 12.8 0 0 1-.7 2.58c.3-.68-.36.84-.42 1a9.61 9.61 0 0 1-1.53 2.37 11.91 11.91 0 0 0-3.69 1.69 14.44 14.44 0 0 0-5.74 8.64.28.28 0 0 1 0 .06l-.09.35a3.08 3.08 0 0 1-.15.47s0 .19-.1.42a7.79 7.79 0 0 1-6.37 5.37h-1.07a46.69 46.69 0 0 1-17.18-3.24.36.36 0 0 0 .13-.22l1.37-3.83a.47.47 0 0 0 0-.24.52.52 0 0 0 0-.23l-2.18-3.6a.37.37 0 0 0-.33-.2.41.41 0 0 0-.28.28 1.22 1.22 0 0 0 0 .58 1.2 1.2 0 0 0 .19.55 28.12 28.12 0 0 1 2.07 2.63 29.92 29.92 0 0 0-1.38 2.93 1.39 1.39 0 0 0 0 .58 1.48 1.48 0 0 0 .16.55h-.08l-2.86-1.21 1-2.26a.56.56 0 0 0 0-.23.6.6 0 0 0 0-.24 38.21 38.21 0 0 0-2-3.71.36.36 0 0 0-.34-.13c-.11 0-.22.09-.29.26a1.21 1.21 0 0 0-.08.58 1.22 1.22 0 0 0 .16.55 32.06 32.06 0 0 1 1.92 2.74c-.31.48-.83 1.45-1.18 2.12l-1.81-1-.66-.4.46-.77a.52.52 0 0 0 .07-.23.62.62 0 0 0 0-.24 41.47 41.47 0 0 0-1.59-3.9.34.34 0 0 0-.29-.24c-.11 0-.22.07-.31.23a1.26 1.26 0 0 0-.15.56 1.14 1.14 0 0 0 .11.57 29.79 29.79 0 0 1 1.64 3.01c-.15.17-.32.41-.52.68l-2.54-1.52a.47.47 0 0 0 0-.24 41.47 41.47 0 0 0-1.54-3.93c-.07-.15-.17-.24-.28-.24-.12 0-.23.07-.33.22a1.26 1.26 0 0 0-.15.57 1.19 1.19 0 0 0 .1.57c.08.179.88 1.49 1.37 2.48a45.09 45.09 0 0 1-12.11-12.79c-1.34 0-2.62.09-3.83.21a51.28 51.28 0 0 0 10.41 12.4 35.07 35.07 0 0 0 3.76 5.69l1.26 1.44.75.76.15.14.62.58.22.2.5.44.25.21.49.4.3.23.47.35.33.25.46.32.44.3.27.18.68.43h.06l.12.07-.09.06a19.65 19.65 0 0 1-3 1.47l1 .55.5.27h.05l1.49.76 2.59 1.17h.06l.82.33.23.09 1.32.5.4.14.61.21.6.19.51.16 1.08.32.35.1.91.24.34.09 1.21.28.87.19.71.13h.17l.81.14.83.13h.42l-.2.22a22.18 22.18 0 0 1-2.13 2.08v.05l.83.24 1.18.3.28.07h.17l.65.15.72.14h.08l.66.11h.16l.59.08h.21l.53.06h4.23c1 0 2.09-.11 3.13-.24h.31l.64-.1.42-.07.58-.1.48-.1.53-.11.57-.14.43-.1 1-.28 1.08-.34 2.5-.93.12-.05 1-.47.2-.09 1-.49.22-.12 1-.5.21-.12.82-.48.27-.16.86-.54.33-.21.81-.56.35-.24.78-.57.44-.34a3.15 3.15 0 0 0 .29-.22l.5-.39.12.49v.16c0 .12 0 .23.07.34s0 .15 0 .22l.06.32v.24l.06.39.06.45v1.23a.13.13 0 0 0 0 .06l1.13-1a23.06 23.06 0 0 0 1.33-1.26 19 19 0 0 0 5.51-12.6v-2.1a50.86 50.86 0 0 0 18.85-28.11m-30.12 22.57l.17-.8a8.82 8.82 0 0 0 .11-1.58l.1-.12a19 19 0 0 0 2.74-4.83l.36-1.08a12.94 12.94 0 0 0 .54-2.9l.15.2a14 14 0 0 1 2.43 8.29v.22l-.25.39a10.26 10.26 0 0 1-1.38 1.54 5 5 0 0 0-.77-1.91l-.64-.94a7.33 7.33 0 0 1-3.57 3.49m9 7.82a1.21 1.21 0 0 0 0 .19 16.52 16.52 0 0 1-1.51 6.26 14.89 14.89 0 0 1-.81 1.52 18.1 18.1 0 0 1-1.2 1.74l-.11-.32v-.08l-.14-.39a.49.49 0 0 0 0-.11 1.34 1.34 0 0 0-.07-.18.14.14 0 0 0 0-.06.69.69 0 0 0 0-.13 1.19 1.19 0 0 0-.08-.2.5.5 0 0 0-.05-.13l-.09-.23v-.07l-.13-.28v-.06c0-.07-.07-.15-.11-.22s0 0 0-.06-.07-.15-.11-.22l-.12-.24a.34.34 0 0 1-.06.06l-2 1.85-.61.5-.25.19-.43.35-.24.18-.91.68-.19.13-1 .66-.13.09-1 .64-1 .62-.1.05-1 .56-.13.07-1 .51-.14.06-1.07.47-.11.05-1.13.43a29.41 29.41 0 0 1-2.41.78l-1.21.3-1.21.25a28.45 28.45 0 0 1-5.24.48h-2.16l-.86-.08h-.19c-.31 0-.61-.07-.91-.12h-.13l.39-.49a27.52 27.52 0 0 0 1.87-2.73l-1.1-.06-1.16-.09h-.83a46.54 46.54 0 0 1-8.27-1.62l-1-.31h-.08l-1-.34-.86-.24-.85-.3-.24-.09-1-.37-1.15-.48-.24-.11 1.61-1.25.43-.35a34.74 34.74 0 0 1-2.66-1.34l-.85-.49-.44-.27-.21-.14-.56-.35-.26-.18-.46-.32-.7-.52-.19-.14-.33-.3a22.45 22.45 0 0 1-1.28-1.1l-1.25-1.23a21.59 21.59 0 0 1-.83-.93l-.29-.35c.3.26.63.53 1 .78l.59.41.34.22c.05.11.12.17.2.17h.06l.27.17a43 43 0 0 0 5.55 2.7l.31.12 4.86 1.76a48.76 48.76 0 0 0 6.57 1.43 45.9 45.9 0 0 0 2.87.36 27.2 27.2 0 0 0 4.15.09 16 16 0 0 0 2.77-.38 11 11 0 0 0 3.42-1.54 9.29 9.29 0 0 1-.74 1.7 12.41 12.41 0 0 1-.48.81l-.27.4a12.33 12.33 0 0 1-1.21 1.51 18 18 0 0 0 2.76-2.33l.48-.52a18 18 0 0 0 2.58-3.79 15.63 15.63 0 0 0 1.56-4.57 4.37 4.37 0 0 0 .13-.46c1-4.17 3-6.3 4.75-7.48a8.71 8.71 0 0 1 1.63-.89l.19-.14a.28.28 0 0 1 0 .06 10.88 10.88 0 0 1-1.54 4.23l1.06-.14a11.86 11.86 0 0 0 2.75-.75 8 8 0 0 0 2.69-1.71 5 5 0 0 1 .17 3l1.18-.88a20.78 20.78 0 0 0 2-1.71l1-1a23.26 23.26 0 0 1 1.23 4.56 21.07 21.07 0 0 1 .26 3.89m-1.84-19.15v.07zm9.7-46.32a30.87 30.87 0 0 1-2.94-1.29 30.54 30.54 0 0 0-.17-3.11 1.68 1.68 0 0 0-.24-.51 1.8 1.8 0 0 0-.39-.39c-.14-.09-.25-.1-.32-.06s-.08.15 0 .31a29.11 29.11 0 0 1 .58 3.87.65.65 0 0 0 .08.22.51.51 0 0 0 .15.17 32.21 32.21 0 0 0 3.46 2.06.37.37 0 0 0 .38 0 .35.35 0 0 0 .12-.35 1.12 1.12 0 0 0-.22-.52 1.23 1.23 0 0 0-.49-.4z"/><path d="M91.852 42.24a23.12 23.12 0 0 1-2-2.54 21.43 21.43 0 0 0 1.35-2.8 1.47 1.47 0 0 0 0-.56 1.65 1.65 0 0 0-.15-.53c-.08-.14-.16-.21-.23-.2-.08 0-.14.09-.19.25a24.5 24.5 0 0 1-1.37 3.65.79.79 0 0 0 0 .23.51.51 0 0 0 0 .22 25.7 25.7 0 0 0 2 3.49.38.38 0 0 0 .33.2.39.39 0 0 0 .28-.27 1.1 1.1 0 0 0 .07-.55 1.24 1.24 0 0 0-.19-.53l.1-.06zm-3.8-6.59c-.07 0-.16.06-.23.21a25.67 25.67 0 0 1-2 3.37.56.56 0 0 0-.07.44 26 26 0 0 0 1.38 3.78.37.37 0 0 0 .29.25.35.35 0 0 0 .32-.2 1 1 0 0 0 .16-.53 1.27 1.27 0 0 0-.09-.56 24.51 24.51 0 0 1-1.48-2.85 23.26 23.26 0 0 0 1.83-2.52 1.48 1.48 0 0 0 .12-.54 1.61 1.61 0 0 0 0-.55c-.08-.21-.15-.29-.23-.3zm-2.87-.41c-.08 0-.17.06-.27.18a33.08 33.08 0 0 1-2.51 3 .43.43 0 0 0-.11.2.49.49 0 0 0 0 .23 33.31 33.31 0 0 0 .71 3.9c0 .17.13.27.24.29a.38.38 0 0 0 .35-.15 1.21 1.21 0 0 0 .24-.51 1.18 1.18 0 0 0 0-.56 28.8 28.8 0 0 1-1-3 25.18 25.18 0 0 0 2.22-2.2 1.54 1.54 0 0 0 .22-.52 1.74 1.74 0 0 0 0-.55c.04-.25-.02-.31-.09-.31zm-9.18-3.25a1.55 1.55 0 0 0 .36-.43 1.37 1.37 0 0 0 .17-.53c0-.17 0-.28-.11-.32-.07-.05-.2 0-.33.07l-3.25 2.32a.42.42 0 0 0-.15.17.63.63 0 0 0-.07.22l-.26 3.95c0 .16 0 .28.12.32s.2 0 .33-.07a1.31 1.31 0 0 0 .37-.43 1.37 1.37 0 0 0 .17-.53l-.14-3.14 2.79-1.6z"/><path d="M109.082 31.66l1-1.5a32.29 32.29 0 0 0 3.18-7.63 11.49 11.49 0 0 0 .47-3.13 8.31 8.31 0 0 0-1-4 12.26 12.26 0 0 0-2.11-2.73 19.13 19.13 0 0 0-3.72-2.65c-5.71-3.33-17.67-8.27-35.93-8.52h-1.42c-16.6 0-26.85 4.1-31.45 6.53a24.64 24.64 0 0 0-6.17 4.21 17.28 17.28 0 0 1 1.84.12 22 22 0 0 0-6.77 5.49l-2.08 2.77 3.42-.79c.26-.06.56-.11.88-.16a19.58 19.58 0 0 0-1.27 4.41 34.12 34.12 0 0 0-.49 5.88v.21a51 51 0 0 0-5.73 9.43 15.84 15.84 0 0 1 4.67-1.76 46.65 46.65 0 0 1 4.25-6.3l.06.21a.53.53 0 0 0 .12.2.54.54 0 0 0 .19.13 32.65 32.65 0 0 1 3.53 1.69c.14.08.25.09.31 0s.08-.15 0-.31a1.59 1.59 0 0 0-.27-.49 1.45 1.45 0 0 0-.41-.38 29.06 29.06 0 0 0-2.94-1.07c0-.17-.07-.39-.11-.63a53.46 53.46 0 0 1 2.12-2.4h.1c0 .35.09.69.14 1a.67.67 0 0 0 .1.21.49.49 0 0 0 .16.16 29.49 29.49 0 0 1 3.25 2.19c.13.1.24.13.31.09s.09-.14.07-.3a1.43 1.43 0 0 0-.19-.52 1.53 1.53 0 0 0-.35-.43 24 24 0 0 0-2.73-1.48 10.77 10.77 0 0 1 0-1.18 14 14 0 0 1 2.57-.62.64.64 0 0 1 0 .07.66.66 0 0 0 .14.18 30.39 30.39 0 0 1 2.86 2.65c.11.12.21.17.28.14s.12-.11.12-.28a1.59 1.59 0 0 0-.1-.54 1.41 1.41 0 0 0-.28-.48 21.16 21.16 0 0 0-2.32-1.8 24.8 24.8 0 0 1 2.75-.15h.89c.54.667 1.04 1.333 1.5 2 .09.13.18.19.26.18s.14-.1.17-.26a1.48 1.48 0 0 0 0-.55 1.28 1.28 0 0 0-.19-.52c-.101-.157-.3-.36-.69-.79a58.19 58.19 0 0 1 5.94.68 10.87 10.87 0 0 0 1.69.13 15.47 15.47 0 0 0 7.21-2.05l1-.59a12.33 12.33 0 0 1-1.38 6l1.67-.68a12.35 12.35 0 0 0 3.72-2.51v.88c0 1.66-.29 5.32-2.28 8l1.33-.13a14.42 14.42 0 0 0 7.77-3.4l.69-.61-.15 2.24a.33.33 0 0 0 .12.32.32.32 0 0 0 .33-.08 1.18 1.18 0 0 0 .36-.43 1.22 1.22 0 0 0 .17-.53c.015-.187 0-1.2-.1-2.2a19.98 19.98 0 0 0 .91-1h.39a11.6 11.6 0 0 0 5.69-1.77 17.12 17.12 0 0 0 .82-.52 17.29 17.29 0 0 1 .53 4l-2.51 1.87a.55.55 0 0 0-.15.18.45.45 0 0 0-.06.21c-.08 1.32-.15 2.64-.17 4a.32.32 0 0 0 .14.33.35.35 0 0 0 .35-.07 1.42 1.42 0 0 0 .35-.44 1.22 1.22 0 0 0 .15-.54c.007-.189-.2-2.26-.23-3.16a70.46 70.46 0 0 0 2.11-1.25 11.33 11.33 0 0 1-.7 3.38 9.92 9.92 0 0 0 1.46-.28c0 1.25.08 2.5.21 3.79a.35.35 0 0 0 .18.33.41.41 0 0 0 .37-.11 1.29 1.29 0 0 0 .39-1c-.021-.374-.47-2.27-.56-3.14a12.87 12.87 0 0 0 3.72-2c.71-.58 1.37-1.21 2-1.8a34.42 34.42 0 0 0 2.43-2.82 10.19 10.19 0 0 0 3.94-1.89s1.46 1.78.73 8.67l.85-.44a23 23 0 0 1-.54 2.72.57.57 0 0 0 0 .23.58.58 0 0 0 .09.21 26.88 26.88 0 0 0 2.62 3.08.36.36 0 0 0 .36.12.37.37 0 0 0 .24-.3 1.09 1.09 0 0 0 0-.56 1.24 1.24 0 0 0-.28-.49 25.53 25.53 0 0 1-2.37-2.15 23.56 23.56 0 0 0 .82-3 2.35 2.35 0 0 0 0-.26 14.22 14.22 0 0 0 2.27-1.57 26.8 26.8 0 0 1 0 3.8.45.45 0 0 0 0 .22.76.76 0 0 0 .12.2 29.9 29.9 0 0 0 3.11 2.57.38.38 0 0 0 .38.07.37.37 0 0 0 .17-.34 1.22 1.22 0 0 0-.13-.54 1.18 1.18 0 0 0-.36-.43 28.37 28.37 0 0 1-2.7-1.72 25.34 25.34 0 0 0 .3-3.1 1.45 1.45 0 0 0-.16-.53 1.59 1.59 0 0 0-.33-.45 16.61 16.61 0 0 0 3.3-4.23 17.61 17.61 0 0 0 .78-1.58 13.24 13.24 0 0 1 1.26 8.69l1.38-.71a12.25 12.25 0 0 0 1.06-.62c.81.36 1.64.69 2.48 1a.36.36 0 0 0 .37 0 .37.37 0 0 0 .07-.37 1.17 1.17 0 0 0-.29-.48 1.28 1.28 0 0 0-.46-.32l-1.34-.34a18.6 18.6 0 0 0 1.35-1.15 47.44 47.44 0 0 1 3.74 6.5l.3-.07a8.19 8.19 0 0 1 1.47-.13 7.83 7.83 0 0 1 1.89.23 50.8 50.8 0 0 0-5.39-9.57zm-39.76-1.77a13.43 13.43 0 0 1-5.66 3.93l-.21.08a17.71 17.71 0 0 0 .64-4l.33-.18a9.29 9.29 0 0 0 2-1.44 6.25 6.25 0 0 0 .78-.87l.17-.05a9.92 9.92 0 0 0 1.14-.53 8.94 8.94 0 0 0 1.76-1.34 9.13 9.13 0 0 0 1.69-2.19 8.88 8.88 0 0 1 .17 1.5v1.06a18.7 18.7 0 0 1-2.81 4.03zm17.17-1.91a16.12 16.12 0 0 1-5.63 5.88v-.35a16.21 16.21 0 0 0-.24-3.63 8 8 0 0 0 2.51-2.12 6 6 0 0 0 1-.46 7.76 7.76 0 0 0 1.63-1.21 8.93 8.93 0 0 0 1.72-2.29 10.35 10.35 0 0 1 .14 1.12v.73a23.94 23.94 0 0 1-1.13 2.33zm8.56 4.7a10.92 10.92 0 0 0-.36-3.69 6.87 6.87 0 0 0 .85-1l.5-.22a7.33 7.33 0 0 0 2.69-2.53v-.09a7.4 7.4 0 0 0 .51-.94 10.85 10.85 0 0 1 .15 1.66v.08c-1.78 4.78-4.34 6.73-4.34 6.73zm8.19-5.15a8.46 8.46 0 0 0-1.12-1.73c-.11-.12-.21-.24-.33-.35.13-.41.28-1 .45-1.58a46.6 46.6 0 0 0 1.29-6.14 2.34 2.34 0 0 0 0-.48c0-1-.41-3.3-3.07-5.56a18 18 0 0 0-4.12-2.59 28.54 28.54 0 0 0-12.25-2.24s8.28 1.12 14.17 5.69a10.49 10.49 0 0 1 .85.66 9 9 0 0 1 .76.73 5 5 0 0 1 1.59 3.3v.16.05a41.11 41.11 0 0 1-1 4.87v.08l-.06.28c0-.18-.08-.36-.12-.52a4.83 4.83 0 0 0-.8-1.95 5.37 5.37 0 0 1-.17.48l-.21.51a11.17 11.17 0 0 1-1.74 2.91 6.11 6.11 0 0 1-.59.62 8.6 8.6 0 0 0 0-2.43 4.19 4.19 0 0 0-.08-.42 7.49 7.49 0 0 1-.39 1.36 10 10 0 0 1-2.44 3.72c-.06-.1-.12-.21-.19-.31a7.64 7.64 0 0 0-.69-.86l-1-1-.94 1a8.78 8.78 0 0 1-1.79 1.35 42.87 42.87 0 0 0 2.42-7c.21-.86.4-1.74.55-2.64a5.3 5.3 0 0 0 .08-.88 7 7 0 0 0-.43-2.7 7.07 7.07 0 0 0-.46-.91c-1.15-1.89-3.52-3.91-8.1-5.5l-.84-.28-.59-.17-.41-.11c-9.59-2.46-19.86-.71-19.86-.71a94.08 94.08 0 0 1 17.51 2.27 31.49 31.49 0 0 1 5.68 1.86c.51.24 1 .47 1.4.72a9.67 9.67 0 0 1 3.2 2.66l.09.12a3.23 3.23 0 0 1 .18.28 2.39 2.39 0 0 1 .12.22 4.54 4.54 0 0 1 .42 1.22 4.27 4.27 0 0 1 0 1.52v-.09.22c-.11.67-.25 1.32-.4 2-.21.94-.46 1.84-.73 2.7l-.08.3a.66.66 0 0 1-.06.2c-.08-.36-.16-.69-.24-1a4.59 4.59 0 0 0-.89-1.83c-.087.227-.177.447-.27.66a12.29 12.29 0 0 1-2 3.13 7.48 7.48 0 0 1-1 1 7.85 7.85 0 0 0-.2-3.09 10 10 0 0 1-4.14 6.52c-.15-.62-.31-1.19-.45-1.67l-.46-1.49-1.51 1.35a14 14 0 0 1-2.23 1.55 10.57 10.57 0 0 1-2.3 1l-.31.08-.19.05a27.07 27.07 0 0 0 4.2-11.4.44.44 0 0 1 0-.1 6.39 6.39 0 0 0-.19-2.65 7.15 7.15 0 0 0-1.84-3.11 9.14 9.14 0 0 0-.85-.72c-.26-.19-.53-.39-.83-.57a16.39 16.39 0 0 0-3-1.4l-.24-.11h-.15c-10.18-3-22.71.43-22.71.43 2.92-.2 5.54-.29 7.88-.29a47.45 47.45 0 0 1 13.6 1.57 15.11 15.11 0 0 1 3.51 1.53 7.67 7.67 0 0 1 1.94 1.68 3.69 3.69 0 0 1 .38.62 5.18 5.18 0 0 1 .45 2.72v.1a25.85 25.85 0 0 1-1.32 5.49.13.13 0 0 1 0-.06 6.45 6.45 0 0 0-1.33-3.42 13 13 0 0 1-2.46 3.94 9.47 9.47 0 0 1-1.2 1.1 8.31 8.31 0 0 0 0-1.87 6.84 6.84 0 0 0-.31-1.46 9.89 9.89 0 0 1-4.19 6.82 20 20 0 0 0-.54-3.35l-.47-1.55-1.54 2.2a11.17 11.17 0 0 1-1.2 1.4v-.15a10.7 10.7 0 0 0-.7-5.15l-1.45 1.3a17.55 17.55 0 0 1-2.89 1.88 12.45 12.45 0 0 1-5.64 1.57 9.29 9.29 0 0 1-1.28-.09 55 55 0 0 0-7.43-.77h-.85c-.82 0-1.64 0-2.45.1l-.68.07h-.26a18.43 18.43 0 0 0-2.7.54 8.81 8.81 0 0 0-.87.28l-.45.17a9.66 9.66 0 0 0-2.52 1.43h-.06a.13.13 0 0 1 0-.06v-.49c.07-.78.17-1.6.31-2.42a13.65 13.65 0 0 1 2.09-5.58l1.13-1.53a21 21 0 0 0-2.76.22c2.65-3.46 7.81-4.73 9.46-5.05a15.29 15.29 0 0 0-3.3-1.19 42.82 42.82 0 0 1 9.96-4.26l.16-.05.95-.24a45.07 45.07 0 0 1 7-1.57 84.15 84.15 0 0 1 14.43-1.18h1.36a80.91 80.91 0 0 1 27.25 4.73 47.64 47.64 0 0 1 7.4 3.45 17.05 17.05 0 0 1 3.17 2.21 10.2 10.2 0 0 1 1.7 2.18 5.75 5.75 0 0 1 .69 2.81 8.85 8.85 0 0 1-.37 2.46c-.16.59-.36 1.21-.58 1.85a.22.22 0 0 1 0-.08 6 6 0 0 0-.94-2.79 13.08 13.08 0 0 1-.89 2 9.31 9.31 0 0 1-1.62 2.22 7.86 7.86 0 0 0 0-2.59 10 10 0 0 1-3.46 5l-.01.06zm3.1 3.52a14.48 14.48 0 0 1-1 1.17c-.15.15-.31.31-.47.45l-.39.35a16 16 0 0 0-.16-2.09c0-.33-.11-.67-.19-1 0-.11 0-.21-.08-.32a6.21 6.21 0 0 0 1.35-1.3 4.67 4.67 0 0 0 .78-.37 4.26 4.26 0 0 0 .5-.32 7.8 7.8 0 0 0 2.03-2.38 5.44 5.44 0 0 0 .29-.59 5.06 5.06 0 0 1 .1.75c0 .36 0 .74.05 1.1a19.58 19.58 0 0 1-1.68 3c-.39.6-.77 1.11-1.13 1.55z"/></g><g fill="#fff"><path d="M123.092 69.93h.12a.24.24 0 0 0 .17.06c.09 0 .18 0 .23-.09a.41.41 0 0 0 0-.12.37.37 0 0 0 0-.09.2.2 0 0 0 0-.15v-.05a.25.25 0 0 0-.36-.12.29.29 0 0 0-.17.28.23.23 0 0 0 0 .12l.01.16zm-89.32 58.78a.94.94 0 0 0 0-.89.91.91 0 0 1 0-1l1.43-1.88a.94.94 0 0 0 1.33-1l-.13-.67c0-.1 0-.16-.06-.32a.36.36 0 0 0 0-.1l-.17-.83a1.29 1.29 0 0 0 0-.19 3.72 3.72 0 0 0-.51-1.24c-.09-.13-.2-.25-.3-.37a7.27 7.27 0 0 0 .92-.17 3.2 3.2 0 0 0 2.57-3.13 2.36 2.36 0 0 0 0-.3.68.68 0 0 1 0-.14v-.09a2.77 2.77 0 0 0-1.12-1.66 2.82 2.82 0 0 0-2.1-.51 2.32 2.32 0 0 0-1.52 1 2.35 2.35 0 0 0-.34 1.91v.14a.76.76 0 0 1 .06.22s-.07.11-.06.16a.76.76 0 0 0-.33-.08.91.91 0 0 0-.41 0 1.23 1.23 0 0 0-.76.6 1 1 0 0 0-.09.49l-.74-.2a1 1 0 0 0-1 .31.47.47 0 0 0-.06.09l-.17-1.4v-.23a3.74 3.74 0 0 0-.47-1.54 3.82 3.82 0 0 0-.91-1.1l-.06-.05a2.9 2.9 0 0 0-.58-.42l-.12-.08-.36-.19a7 7 0 0 0-1-.39 5.11 5.11 0 0 0-2.24-.25l-2 .14a1.62 1.62 0 0 0 .35-.19l.23-.18a3.4 3.4 0 0 0 .84-1.28.82.82 0 0 0 .08-.25 3.78 3.78 0 0 0 0-1.92 4.32 4.32 0 0 0-.58-1.29 4.25 4.25 0 0 0-1-1l-.39-.28-.06-.06-.44-.31-.09-.07a4.1 4.1 0 0 0 0-.87 1 1 0 0 0-.4-.73l-1.13-.77-.86-.58-.28-.19-.19-.13a.94.94 0 0 0-1.45 1.1.53.53 0 0 1-.07.61.1.1 0 0 1-.05 0l-.82.61-.37.28a4.09 4.09 0 0 1-1.13.65 1 1 0 0 0-.67 1 1.21 1.21 0 0 1 0 .28 2.54 2.54 0 0 1-.05.49 3.54 3.54 0 0 1-.27.84v.06l-1.44-.32a1.27 1.27 0 0 0-.88.26l-.09.08a.12.12 0 0 0-.05 0h-.06a.52.52 0 0 0-.1.11 3.36 3.36 0 0 0-.75 1.36.29.29 0 0 0 0 .09 3.62 3.62 0 0 0 0 1.79 3.44 3.44 0 0 0 .57 1.22 3.56 3.56 0 0 0 .86.87l.47.33.45.32a3.79 3.79 0 0 0-.08.77.93.93 0 0 0 .4.77l1.8 1.32a.91.91 0 0 0 .55.18.93.93 0 0 0 .46-.12 1 1 0 0 0 .49-.91v-.05l.45-.22a1.37 1.37 0 0 0 .2-.13h.07l1.14-.73a4 4 0 0 1 1.18-.59.94.94 0 0 0 .7-.88 1.05 1.05 0 0 0 0 .19 1 1 0 0 1 0 1.05.35.35 0 0 0-.05.08l-1.96 2.36a3.39 3.39 0 0 0-.68 2 3.61 3.61 0 0 0 .47 1.82 3.8 3.8 0 0 0 .87 1h.05a5.34 5.34 0 0 0 .53.37l.29.15.14.07a5.82 5.82 0 0 0 1 .35 2.59 2.59 0 0 0 .86 1.4l.33.29.49.42 1 .88.09.07a.9.9 0 0 0 .63.24h.09a.94.94 0 0 0 .75-.52l.06-.13a.83.83 0 0 0 0-.15l.2-.94a.87.87 0 0 0-.35-.93 1 1 0 0 1 .15-.25l1.7-1.95a1 1 0 0 0 .08-.11l.31-.36.64-.72.45-.52a.93.93 0 0 1 1-.23 1 1 0 0 0 .88-.17.88.88 0 0 0 .29-.51l.31.63.07.12a.94.94 0 0 0 .51.47.6.6 0 0 1 .18.09.59.59 0 0 1 .27.41.29.29 0 0 1-.05.26l-2.11 2.92a5.86 5.86 0 0 1-.64.77c-.11.14-1.1 1.35-2.22.51a.92.92 0 0 0-.93-.12.91.91 0 0 0-.57.75l-.11.82v.14a1 1 0 0 0 0 .46 1 1 0 0 0 .11.24.84.84 0 0 0 .33.29l.11.08a5.92 5.92 0 0 0 3.05.86 6 6 0 0 0 1.41-.17l2.84-.32a1 1 0 0 0 .89-.44zm-9.58-10.68l.27-.35v-.05l.21-.25a.2.2 0 0 1 .06-.07l.1-.1a.87.87 0 0 1 .22-.17 1.38 1.38 0 0 1 .25-.14h.2l-2.34 2.79a3.16 3.16 0 0 1-.28.32l-.22.27-.17.18a2.48 2.48 0 0 1-.26.19 1.28 1.28 0 0 1-.29.13l2.25-2.75zm-2.35 2.9v-.11l.25.87zm-3.06-10.86l.15-.39a.88.88 0 0 0 .05-.15 1.13 1.13 0 0 1 .27-.46l.42-.29a.7.7 0 0 1 .09.48.34.34 0 0 1-.14.25h-.07l-.75.51-.02.05zm-4.41 2.43a.35.35 0 0 0 .09-.07l.69-.49-.06.16v.13a.87.87 0 0 1-.29.48l-.33.22-.16.12a.5.5 0 0 1 .06-.55zm5.63 1.39a.22.22 0 0 0 0-.08 7 7 0 0 1 .28-.77l1.3.32-.9.08a.94.94 0 0 0-.68.45zm21.42 16.94l.27-.42 2-3.34.42-.68 2.51.59a1 1 0 0 0 1-.34.93.93 0 0 0 .08-1l-.55-1a1 1 0 0 0-.64-.48 1 1 0 0 1-.62-.35s0-.2.14-.44l.05-.1v-.05a3.18 3.18 0 0 0 .33-2 3.76 3.76 0 0 0-.84-1.81 4.48 4.48 0 0 0-1.12-.95 4.35 4.35 0 0 0-1.25-.49l-2.07-.39-.28-.05a.94.94 0 0 0-1 1.45l.62 1a.94.94 0 0 0 .63.43.57.57 0 0 1 .16.07c.33.19.5.54.36.77l-.21.37-1.11-.2a4.86 4.86 0 0 0-.55-.1h-.08l-.77-.13h-.14a.87.87 0 0 0-.85.48 1.08 1.08 0 0 0 0 1.06l.11.16.14.23.17.27.1.16a.93.93 0 0 0 .66.48 1.06 1.06 0 0 1 .63.31.83.83 0 0 1-.16.49l-1.56 2.65-1.12 1.92a6.14 6.14 0 0 1-.61.88c-.29.26-1.07.21-2.29-.6a.74.74 0 0 0-.16-.11.91.91 0 0 0-1-.08 1 1 0 0 0-.49 1 .34.34 0 0 0 0 .1l.21 2.3a.91.91 0 0 0 0 .17.93.93 0 0 0 .51.69 6.13 6.13 0 0 0 4.24.48l3.49-.72a.93.93 0 0 0 .69-.57.94.94 0 0 0-.09-.89 1 1 0 0 1-.06-1l.1-.22zm43.17 8.41l-.61-.77a.74.74 0 0 0-.93-.32.81.81 0 0 1-.09-.28l-.4-2.55v-.15c0-.23-.06-.37-.09-.57v-.23s0-.22-.1-.62c0-.19-.07-.4-.11-.68a.91.91 0 0 1 .47-.91 1 1 0 0 0 0-1.59l-1.94-1.27-.16-.1a3.88 3.88 0 0 0-3-.63 4.06 4.06 0 0 0-.84.22l-.37.15a8.11 8.11 0 0 0-1 .53 5.3 5.3 0 0 0-1.59 1.54l-1.3 1.8a3.5 3.5 0 0 0-.41-1.23 3.66 3.66 0 0 0-1.44-1.34 4 4 0 0 0-1.38-.47 4.13 4.13 0 0 0-1.31 0l-.51.1-.8.17-.34.07h-.18a3.78 3.78 0 0 0-1-.71 3.86 3.86 0 0 0-1.37-.4 4 4 0 0 0-1.33.07l-.33.09-.63.17h-.1l-.43.11h-.24a4.25 4.25 0 0 0-1-.64 4.12 4.12 0 0 0-1.38-.32 3.69 3.69 0 0 0-1.3.13l-2.21.67a1 1 0 0 0-.6.57l-.67-1c0-.07-.08-.12-.12-.18a3.63 3.63 0 0 0-1.11-1.2 3.76 3.76 0 0 0-1.32-.59 3.23 3.23 0 0 0-.83-.14h-.49a8 8 0 0 0-1.09.11 5.11 5.11 0 0 0-2.12.76l-3.19 1.89a.93.93 0 0 0-.45.77 1 1 0 0 0 .4.8 1 1 0 0 1 .44.95l-.11.54-.52 2.5a3.56 3.56 0 0 0 1.52 3.56 3.38 3.38 0 0 0 1.09.49l.22.05a5.48 5.48 0 0 0 .54.09h.1a1.74 1.74 0 0 0 .32 0h.15a6.51 6.51 0 0 0 1.06-.13 2.73 2.73 0 0 0 1.5.92l1 .28 1.15.33h.11a.75.75 0 0 0 .26 0 .93.93 0 0 0 .84-.52 1 1 0 0 0 .09-.58v-.27l-.22-.85a.93.93 0 0 0-.72-.68.69.69 0 0 1 0-.3l.66-2.5v-.15l.16-.59.4-1.45a.93.93 0 0 1 .8-.65.93.93 0 0 0 .81-1l.64.4a1 1 0 0 0 .7.12h.24a.73.73 0 0 1 .51.24.27.27 0 0 1 .08.2v.16c0 .28-.08 1.26-.23 3.7a1.64 1.64 0 0 1 0 .23.71.71 0 0 0 0 .25v.4a1.72 1.72 0 0 1-1.58 1.75h-.38a.93.93 0 0 0-.75.33 1 1 0 0 0-.09 1.11l.17.27.36.59a.93.93 0 0 0 1 .54 6.34 6.34 0 0 0 3.43-.87l.23.41.22.41a1 1 0 0 0 .45.48.82.82 0 0 0 .48.1 6.21 6.21 0 0 0 3.63-1l.49 1a.93.93 0 0 0 .52.53.73.73 0 0 0 .29.07h.48a6.41 6.41 0 0 0 3.67-1.15l3-2a1 1 0 0 0 .44-.79 1 1 0 0 0-.42-.79 1 1 0 0 1-.46-.95.28.28 0 0 0 0-.09l.09-.53c0-.19.08-.44.12-.71a1 1 0 0 1 .79.68.29.29 0 0 1 0 .09l.65 3a3.48 3.48 0 0 0 1.11 1.81 3.54 3.54 0 0 0 1.72.82 3.9 3.9 0 0 0 .58.05 4.52 4.52 0 0 0 .8-.08 4.07 4.07 0 0 0 .53-.14l.15-.05-.23-.92.44.84.2-.09a5 5 0 0 0 .87-.51 2.36 2.36 0 0 0 1.57.24 4.11 4.11 0 0 0 .47-.07l.84-.13 1.13-.17h.15a.94.94 0 0 0 .84-.94 1 1 0 0 0-.1-.42 1.32 1.32 0 0 0-.15-.29zm-36.43-4.72a1.77 1.77 0 0 1-.08.31v.31l-.11.2a1.54 1.54 0 0 1-.23.29l.88-3.82v-.14c0-.08 0-.16.06-.27a.25.25 0 0 1 0-.07 1.34 1.34 0 0 0 .05-.14c0-.06.06-.13.12-.23a1.28 1.28 0 0 1 .22-.27l.11-.1-.87 3.54c-.06.04-.09.11-.15.34v.05zm29.16-.55v-.07l-.1-.58v-.28c0-.07.06-.27.06-.28l.1-.21.63 3.54v.05a2.54 2.54 0 0 1 .06.38l.07.39a.78.78 0 0 1 0 .14v.39a1.33 1.33 0 0 1-.09.34l-.73-3.86v.05zm-15.71 1.47v-.08c0-.11 0-.31.06-.58l.2-2.45v-.13a.78.78 0 0 1 .48.6l-.18 1.66-.18 1.78a1 1 0 0 1-.38-.8zm5.12.58a.81.81 0 0 0 0-.22c0-.11 0-.29.07-.56l.3-2.34v-.12h.09a.77.77 0 0 1 .6.45v.12c0 .18-.16 1.08-.53 3.6a.93.93 0 0 1-.53-.93z"/><path d="M131.002 98.24a.92.92 0 0 0-1 .09l-.9.7a1 1 0 0 0-.37.63.62.62 0 0 1-.06.18.68.68 0 0 1-.66.45c-.294-.009-.72-.36-3.37-1.6a3.18 3.18 0 0 1-.32-.16l-.39-.19a1.92 1.92 0 0 1-.7-2.58.93.93 0 0 0-.07-1 .94.94 0 0 0-1-.37l-1.24.25a.92.92 0 0 0-.72.36 1.2 1.2 0 0 0-.15.24 6.59 6.59 0 0 0-.31 3.77l-1 .15a1 1 0 0 0-.3 0 .93.93 0 0 0-.54.51 6.54 6.54 0 0 0-.37 4.32l.55 2.28a.93.93 0 0 0-.75-.21l-.43.09-.79.14-1.17.2a3.67 3.67 0 0 0-2.45 1.37 3.94 3.94 0 0 0-.65 1l-1.51-1.25a3.5 3.5 0 0 0-4.84.45 3.45 3.45 0 0 0-.63 1l-.15.42-.52 1.38a2.87 2.87 0 0 0-.61-.15 1.36 1.36 0 0 0-.29 0h-.29a2.93 2.93 0 0 0-1.84.83 2.86 2.86 0 0 0-.85 2 2.35 2.35 0 0 0 .69 1.7 2.4 2.4 0 0 0 1.83.67h.56v.06a.84.84 0 0 0-.14.32.91.91 0 0 0 0 .41 1.31 1.31 0 0 0 .46.84 1.1 1.1 0 0 0 .47.16l-.26.53a3.2 3.2 0 0 0-.57-.21 3.94 3.94 0 0 0-1.78.08 3.59 3.59 0 0 0-1.23.63 4 4 0 0 0-.85.92l-.26.42v.06l-.3.47a3 3 0 0 0-.79 0 .91.91 0 0 0-.73.41l-1.41 1.83a2.44 2.44 0 0 0-.23.32l-.08.11a1.1 1.1 0 0 1-.14-.09h-.09a3.74 3.74 0 0 0-1.88-.27 4.06 4.06 0 0 0-2.44 1.17l-.48.49-.4.41-.06.07a4.21 4.21 0 0 0-.82-.17 1.05 1.05 0 0 0-.84.34l-.72.77-.82.9-.17.19c0 .06-.1.11-.09.11a1.54 1.54 0 0 0-.2.22.94.94 0 0 0-.13 1.13 1 1 0 0 0 1 .44.5.5 0 0 1 .61.19c0 .09.17.32.7 1.27a3.81 3.81 0 0 1 .49 1.23.94.94 0 0 0 .93.79h.21l.52.13a4.13 4.13 0 0 1 .8.38l-.51 1.4a1.16 1.16 0 0 0 .17.95v.06l.06.08v.05a.86.86 0 0 0 .07.1 3.34 3.34 0 0 0 1.27 1h.08a3.79 3.79 0 0 0 1.37.26 2.82 2.82 0 0 0 .41 0 3.53 3.53 0 0 0 1.28-.39 3.29 3.29 0 0 0 1-.74l.14-.14.28-.31.37-.4a3.49 3.49 0 0 0 .74.19.94.94 0 0 0 .84-.29l.36-.38 1.4-1.17a.94.94 0 0 0 .2-1 .93.93 0 0 0-.84-.59h-.13a3.73 3.73 0 0 0-.25-.68l-.13-.27-.48-1a3.71 3.71 0 0 1-.41-1.26 1 1 0 0 0-.85-.83l-.27-.05a3.52 3.52 0 0 1-.49-.16 5 5 0 0 1-.72-.37l.57-1.41a1.11 1.11 0 0 0-.06-.8h.06l.1.13a.75.75 0 0 0 .07.12l3.92 5.63a4.65 4.65 0 0 0 .27.32l.07.07a2.89 2.89 0 0 0 1.33.77 1 1 0 0 0 .26.06 3.13 3.13 0 0 0 .75.08 3.75 3.75 0 0 0 1-.15 3.9 3.9 0 0 0 1.31-.64 3.6 3.6 0 0 0 .91-.92l.4-.57.4-.59a3.87 3.87 0 0 0 .9 0 1 1 0 0 0 .68-.42l.13-.21.47-.72.48-.76.22-.35.17-.27.09-.15.09-.15.54.16a.84.84 0 0 0 .38.08 1 1 0 0 0 .64-.24.43.43 0 0 0 .13-.14.38.38 0 0 0 .09-.09 5.69 5.69 0 0 0 1.45-4.21c0-1.16.09-1.75.18-2.91a.94.94 0 0 0-.36-.81 1 1 0 0 0-.88-.16.91.91 0 0 1-.94-.19v-.05l-1.45-1.56-.1-.11a.22.22 0 0 0-.07-.07 1 1 0 0 0 .11-1 .93.93 0 0 0-.88-.56h-2.1a3.85 3.85 0 0 0-1.31.3 3.3 3.3 0 0 0-.41.23v-.93a4 4 0 0 0-.54-1.68l.64-.2a.93.93 0 0 0 .54-.43 2.26 2.26 0 0 1 .13-.2.52.52 0 0 1 .69-.08l.11.08 4.22 3.66.76.66a2.9 2.9 0 0 0 .34.31l.61.54.47.41.93.81.92.8a3.2 3.2 0 0 0 2.09.76h.29a4 4 0 0 0 2.7-1.45l.06-.08a6.4 6.4 0 0 0 .36-.5l.06-.1c0-.08.1-.17.16-.29l.07-.12a6.69 6.69 0 0 0 .41-1.07 1.24 1.24 0 0 0 0-.16 5.61 5.61 0 0 0-1.84-6.1l-1.11-.84-.26-.2a3.67 3.67 0 0 1-.32-.25.77.77 0 0 1-.29-.54.9.9 0 0 0 1.4.41 1 1 0 0 1 1-.13l.17.08 2.54 1.41a3.13 3.13 0 0 0 1.52.39 3.61 3.61 0 0 0 1-.14 4.05 4.05 0 0 0 2.36-2 4.83 4.83 0 0 0 .42-1.3l.15-1 .09-.71a4 4 0 0 0 1.78-1.87 4.18 4.18 0 0 0 .39-1.29l.23-2.33a.92.92 0 0 0-.49-.86zm-5.44 6.85l-3.11-1.65a.93.93 0 0 1 .83-.16h.1l.59.3 1.87.94.3.15h.1a.75.75 0 0 1-.4.33.38.38 0 0 1-.24 0zm-7.88 8.25l.24.21a1.58 1.58 0 0 0 .15.12l.2.15a1.54 1.54 0 0 1 .53.91c-.16-.15-.63-.54-1.65-1.38l-1.08-.88-.64-.55a1.6 1.6 0 0 1-.51-.79l2.76 2.21zm-15.38 9.7c0 .25-.09.47-.13.68l-.65-.91-.08-.12-.28-.39a.1.1 0 0 1 0-.05.55.55 0 0 1 .7.18l.44.61zm2.1 3.69h.25a1 1 0 0 0 .24 0 .89.89 0 0 1 .46.3l.32.42a.67.67 0 0 1-.58.09l-.69-.81zm5.66-2a.49.49 0 0 1-.59 0l-.07-.07-.45-.56-.46-.56a4.28 4.28 0 0 1-.68-1.13.94.94 0 0 0-1-.63 1 1 0 0 1-.29 0 3.54 3.54 0 0 1-.48 0 3.66 3.66 0 0 1-.82-.24h-.06a.28.28 0 0 0 0-.09l.23-1.41a1 1 0 0 0 0-.35l.6-.17a1 1 0 0 0 .54-.42.91.91 0 0 1 .14-.18.64.64 0 0 1 .44-.2.32.32 0 0 1 .25.09v.06l2.47 2.54a7.17 7.17 0 0 1 .64.75c.2.22 1.11 1.36.11 2.29a1 1 0 0 0-.17.27 1.05 1.05 0 0 0-.35 0v.01zm-16.94 3.14l-.14-.08a.93.93 0 0 1-.43-.35l-.26-.5a.69.69 0 0 1 .49 0 .34.34 0 0 1 .21.15v.06l.43.86v.07l-.3-.21zm1.23 4.16h.09l-.32.16.23-.16zm.26-.05l.06-.15.12.06zm.38 0l.11.05h.05a.91.91 0 0 1 .44.33c0 .07.09.2.19.4l.08.16a.51.51 0 0 1-.59-.21.75.75 0 0 0-.07-.12l-.37-.73.16.12z"/></g><path d="M82.742 51.03l.26.21a3.19 3.19 0 0 1 2.63.09 1.69 1.69 0 0 1 .65.75 4.65 4.65 0 0 1 .46 1.95v13.26c0 .23 0 .34-.07.51a7 7 0 0 1-.23 1 8.27 8.27 0 0 1-.68 1.63l-.31.54a9.29 9.29 0 0 1-1.06 1.37l-.19.2a8.37 8.37 0 0 1-1.61 1.29 8.11 8.11 0 0 1-3 1.18l-.43.06 2.07 2.8a16 16 0 0 0 8.6-5.39l.74-.88 5.86-6.88a4.09 4.09 0 0 1-2.9-4v-8.27a6.28 6.28 0 0 0-.38-2.16l1.29-.74c.05 0 2.21-1.32 3.77-.4a1.69 1.69 0 0 1 .65.75 4.81 4.81 0 0 1 .46 2v11.58 1.68c0 .23 0 .34-.07.51a8.08 8.08 0 0 1-.23 1 8.72 8.72 0 0 1-.68 1.64l-.31.53a10.11 10.11 0 0 1-1.03 1.4l-.19.19a9.55 9.55 0 0 1-1.61 1.3 8.25 8.25 0 0 1-3 1.17 2.9 2.9 0 0 1-.41.06l2.06 2.81a15.9 15.9 0 0 0 8.59-5.39l6.6-7.77a4.07 4.07 0 0 1-2.89-4v-8.37a5.68 5.68 0 0 0-1.29-3.71 5.24 5.24 0 0 0-2.84-1.73 6.17 6.17 0 0 0-2.54 0 7.42 7.42 0 0 0-2.3.81l-5.09 2.94a5.21 5.21 0 0 0-2.64-1.5 6.34 6.34 0 0 0-2.54-.05 7.57 7.57 0 0 0-2.31.81l-3.42 2 1.08.88.48.34zm-36.94-6.55l.1.08a5.71 5.71 0 0 1 1 .81 2.37 2.37 0 0 1 .65 1 2.93 2.93 0 0 1 .19 1.05 3.82 3.82 0 0 1-1.33 2.82 2.75 2.75 0 0 1-.26.22 3.71 3.71 0 0 1-.68.43l-.17.13a.5.5 0 0 0-.2.23.56.56 0 0 0-.11.4c.13.82 3.42 1.2 7.5-5.17 0 0 3.45-5.38.44-9.09l-.24-.28-.19-.18-.1-.09a4 4 0 0 0-3.32-.81 5.78 5.78 0 0 0-4.64 5.46 3.85 3.85 0 0 0 1.36 3v-.01zm-1.58 13.91h.06c.46-.26 2.29-1.16 3.65-.35a1.48 1.48 0 0 1 .51.52l.06.09a4.94 4.94 0 0 1 .52 2.38.37.37 0 0 1 0 .11v11.7a10.33 10.33 0 0 1-.02 1.16 4.35 4.35 0 0 1-.06.52 8.75 8.75 0 0 1-.22 1.09 7.23 7.23 0 0 1-.47 1.31c-.08.19-.17.36-.26.53a8 8 0 0 1-1.2 1.64l-.24.25a8.85 8.85 0 0 1-1.76 1.3 10 10 0 0 1-3.32 1.16l2.06 2.81a16 16 0 0 0 8.6-5.4l6.6-7.78a4.08 4.08 0 0 1-2.9-4V59.1a5.73 5.73 0 0 0-1.28-3.71 5.21 5.21 0 0 0-2.85-1.72 6.16 6.16 0 0 0-2.54-.06 7.51 7.51 0 0 0-2.3.81l-4.66 2.69 1.94 1.31zm28.83 19.9l.47-.31h.06a4.84 4.84 0 0 0 .46-.33h.07l.45-.35v-.05l.46-.38.45-.42.45-.45 7.46-8.72a4.05 4.05 0 0 1-2.86-4v.12-9.15a.38.38 0 0 1 0-.1 3.78 3.78 0 0 0-.06-.47.15.15 0 0 0 0-.06v-.38a.43.43 0 0 0 0-.05c0-.15-.09-.29-.13-.44v-.06a4.8 4.8 0 0 0-.38-.83 2.26 2.26 0 0 0-.25-.38 3.37 3.37 0 0 0-.28-.38 4.12 4.12 0 0 0-.28-.31l-.28-.27a5.13 5.13 0 0 0-.65-.47 4.89 4.89 0 0 0-.72-.37l-.49-.27-.41-.11a6.14 6.14 0 0 0-2.11-.11l-.48.05h-.18a4.57 4.57 0 0 0-.62.12l-.73.22-.22.08-.46.18-.35.16a4.54 4.54 0 0 0-.44.24h-.07l-.4.22-.12.06-.28.16-.12.07-.14.08-.55.34-.51.34-.48.35-.27.21-.21.17-.43.37a.39.39 0 0 0-.1.08l-.32.3-.4-.34-.24-.16a5.43 5.43 0 0 0-3.36-.73 6.23 6.23 0 0 0-.74 0l-.39.06a7 7 0 0 0-1.11.29l-4.56 2.18 1.71 1.4c1.44-.5 3.77-.68 3.77 3.28v15.8a3.93 3.93 0 0 0 0 .49v.1l.06.46a.13.13 0 0 1 0 .06l.09.42.13.44c.05.14 0 0 0 .06a8 8 0 0 0 .38.84 4.54 4.54 0 0 0 .54.76 2.7 2.7 0 0 0 .28.31 3.83 3.83 0 0 0 .29.28 4.36 4.36 0 0 0 .65.48 5.56 5.56 0 0 0 .73.37l.38.14.41.11a6.33 6.33 0 0 0 2.5.06h.95a.64.64 0 0 0 .17 0 .45.45 0 0 0 .11 0h.28l.29-.11.32-.12.3-.14.46-.21.13-.06.36-.19.17-.09.38-.22.17-.1c.46-.38.65-.49.84-.62zm-.78-4.6a11.3 11.3 0 0 1-.82 1l-.19.2-.39.37h-.06l-.4.33-.18-.08a2.88 2.88 0 0 1-.72-.47l-.26-.27a2 2 0 0 1-.24-.33 3.4 3.4 0 0 1-.27-.54c0-.09-.06-.18-.08-.27a2 2 0 0 1 0-.24.43.43 0 0 1 0-.11 1.52 1.52 0 0 1 0-.21v-.3c0-.1 0 0 0 0V59.96c0-.22 0-.34.07-.52a4 4 0 0 1 .09-.48c0-.16.08-.32.13-.48a3 3 0 0 1 .13-.39.13.13 0 0 1 0-.08 1.75 1.75 0 0 1 .12-.32v-.08l.15-.33a.14.14 0 0 0 0-.06l.2-.37a5.64 5.64 0 0 1 .31-.53 9.37 9.37 0 0 1 1.06-1.38l.19-.2.39-.37h.05a4.62 4.62 0 0 1 .41-.34l.18.08a2.79 2.79 0 0 1 .71.46c.09.08.17.17.26.26a2 2 0 0 1 .24.33 2 2 0 0 1 .14.25l.12.28a1.6 1.6 0 0 1 .08.26 1.84 1.84 0 0 1 .05.25.52.52 0 0 0 0 .11v.53 12.79a4.43 4.43 0 0 1-.06.51c0 .16-.06.32-.1.47v.06a4.21 4.21 0 0 1-.12.48c0 .12-.08.25-.12.37v.1c0 .1-.07.2-.11.3a1 1 0 0 0 0 .1c-.05.09-.09.2-.14.3v.08l-.19.36-.31.54-.32.39zm38.8-23.45v4.34a8.06 8.06 0 0 0 .36 2.49 5.36 5.36 0 0 0 .79 1.62l.17.22.12.15 1.64 2.18 4.71-5.55 3.15 4.4a4.51 4.51 0 0 1 .95 2.81v3.49l-1 .56a6.3 6.3 0 0 1-1.36.55 3.11 3.11 0 0 1-2.2-.1l-.16-.07a2.14 2.14 0 0 1-.9-1.38.24.24 0 0 0 0-.08l-.06-.25v-.44-.06c0-.28-.02-.59-.06-.93v-3.8l-6.51 7.67a5.37 5.37 0 0 0 1 1.87l.1.12a5.24 5.24 0 0 0 2.74 1.61 6.34 6.34 0 0 0 2.54.06 7.49 7.49 0 0 0 2.31-.82l4.44-2.56a4.39 4.39 0 0 0 .51.71.44.44 0 0 0 .09.11 5 5 0 0 0 1.37 1.08l6.7-3.88a3 3 0 0 1-2.73-3.12v-5.6a8.57 8.57 0 0 0-.36-2.51 5.63 5.63 0 0 0-.8-1.61l-1.94-2.54-4.68 5.54-3.39-4.75a4.61 4.61 0 0 1-.7-2.47v-1.13a6.16 6.16 0 0 0-.37-2.14l1.35-.79a6.72 6.72 0 0 1 1.37-.55 3.16 3.16 0 0 1 2.2.1l.16.07a2.14 2.14 0 0 1 .9 1.38.24.24 0 0 0 0 .08l.06.26v.44c.017.31.017.62 0 .93v3.8l5.36-6.31 1.11-1.3a5.33 5.33 0 0 0-1-1.88l-.1-.12a5.3 5.3 0 0 0-2.74-1.61 6.34 6.34 0 0 0-2.54-.06 7.86 7.86 0 0 0-2.31.82l-.87.5-4.1 2.45a5.6 5.6 0 0 0-5.19-1.58 7.86 7.86 0 0 0-2.31.82l-3.42 2 1.84 1.52c1.44-.52 3.74-.7 3.76 3.24zm-99.68 38.22l.66-.3a38 38 0 0 1 4.37-1.64c1-.28 2.28-.58 3.71-.84l.77-.14a43.48 43.48 0 0 1 16.1.26l7.48-13.35-2.89-3.93c-5.07 13.37-15.53 12.23-15.53 12.23a24.54 24.54 0 0 1-4.87-.42 12.27 12.27 0 0 0 2.25-6.7V50a6.55 6.55 0 0 1 5.24-5.85 5.69 5.69 0 0 1 .82-.08 5.22 5.22 0 0 1 1.09.11h.14a4.34 4.34 0 0 1 2.73 2.2 1.96 1.96 0 0 1 .07.17l.84-1 1.43-1.68 1.41-1.63.76-.89-2.14-.47-1.52-.34h-.07l-1.11-.25-2.13-.47a9.43 9.43 0 0 0-4.11-.12 12.63 12.63 0 0 0-10.32 11.85v23a10.31 10.31 0 0 1-5.23 9.09 11 11 0 0 0 2.87-6.67V51.45a2.26 2.26 0 0 1 0-.26 14.69 14.69 0 0 1 3.09-7.78l-3.11 1.83-11.19 6.41 1.9.84a2.94 2.94 0 0 1 .9-.25 2.46 2.46 0 0 1 3 2.47v25.28a13.88 13.88 0 0 1-.27 3c-.28 1-1.27 2.71-4.71 3.46-1 .18-1.71.26-2.08.3h-.26l2.94 4h.07a36.38 36.38 0 0 0 6.88-2.22l.02-.07zm41.26 40.78a2.84 2.84 0 0 0-.84-.89 2.88 2.88 0 0 0-1-.44h-.09a3 3 0 0 0-.56-.1h-.44a5.69 5.69 0 0 0-.94.09 4.32 4.32 0 0 0-1.79.65l-3.17 1.87a1.9 1.9 0 0 1 .82 1.91l-.63 3a2.54 2.54 0 0 0 .21 1.55 2.45 2.45 0 0 0 .9 1.06 2.77 2.77 0 0 0 .91.4h.08a2.84 2.84 0 0 0 .47.08h.42a5.81 5.81 0 0 0 .92-.1.61.61 0 0 1 .13 0 3.37 3.37 0 0 0 .48-.12 1.67 1.67 0 0 0 1.17 1.04l.37.1.42.11 1.54.43h.1v-.09l-.24-.94-.16-.06c-.28-.12-.77-.46-.52-1.39l.67-2.5v-.13l.22-.77.16-.61c0-.19.11-.43.18-.68a1.87 1.87 0 0 1 1.56-1.34l-1.25-1.94-.1-.19zm-2.56 1.41l-.89 3.6a3.56 3.56 0 0 1-.12.42c0 .15 0 .23-.09.38a1.09 1.09 0 0 1-.07.24l-.06.18c0 .11-.12.22-.18.33a2.38 2.38 0 0 1-.4.49l-.15.15a2.85 2.85 0 0 1-.52.33h-.08a2.5 2.5 0 0 1-.38.15l-.06-.05a1.54 1.54 0 0 1-.37-.61.7.7 0 0 1 0-.25 1.42 1.42 0 0 1 0-.46l.93-4c0-.16.06-.23.09-.39a1.68 1.68 0 0 1 .06-.24l.07-.18c0-.11.12-.22.18-.33a2 2 0 0 1 .4-.49 1 1 0 0 1 .16-.14 2.73 2.73 0 0 1 .54-.34h.08a2.74 2.74 0 0 1 .4-.15l.07.07a1.36 1.36 0 0 1 .39.61 1.83 1.83 0 0 1 .06.25v.47l-.06-.04zm-31.09-16.41a6.09 6.09 0 0 1 .11-.64 6.29 6.29 0 0 1 .4-1.06l-1.24-.3-1.16-.28.24-.57 4.65 1.1.07-.06h.07l.18-.15a2.27 2.27 0 0 0 .64-1v-.06a2.73 2.73 0 0 0 0-1.42 3.22 3.22 0 0 0-1.13-1.73l-.54-.4-.49-.35a2.4 2.4 0 0 0-.26-.18l-.28-.19a2.3 2.3 0 0 0 .12-.34v-.06a3.09 3.09 0 0 0 .06-.8l-.91-.63-1.13-.88-.25-.17-.23-.16a1.44 1.44 0 0 1-.37 1.73l-1.22.89a4.93 4.93 0 0 1-1.43.81 1.91 1.91 0 0 1 0 .41 4.31 4.31 0 0 1-.07.65 4.64 4.64 0 0 1-.35 1.08l1.25.27 1.13.25-.26.73-4.63-1-.11.08-.12.11a2.29 2.29 0 0 0-.56 1 .14.14 0 0 1 0 .06 2.53 2.53 0 0 0 0 1.31 2.5 2.5 0 0 0 .43.92 2.43 2.43 0 0 0 .64.64l.51.36.45.32.25.16.26.19a3.24 3.24 0 0 0-.13.33v.06a2.31 2.31 0 0 0-.12.75l.83.59 1 .74a1.6 1.6 0 0 1 .22-1 4.82 4.82 0 0 0 .77-.35c.12-.09 0 0 1.27-.82a4.81 4.81 0 0 1 1.48-.73l-.04-.21zm-1.35-3.75c0-.12.05-.16.08-.26l.35-.95a1.93 1.93 0 0 1 .66-1l.74-.53a1.56 1.56 0 0 0 .28-.23l.16.12.18.12a1.83 1.83 0 0 1 .32.36 1.51 1.51 0 0 1-.22 2.12c-.645.525-.2.15-.83.57l-.12.09c-.18.11-.28.19-.43.3h-.07l-1.27-.28.17-.46zm-1.68 2v.06a1.87 1.87 0 0 1-.73 1.07c-.1.05-.31.21-.75.51a2.26 2.26 0 0 0-.29.23l-.2-.12-.16-.11a2.35 2.35 0 0 1-.3-.33 1.46 1.46 0 0 1 .28-2l.81-.57.13-.08.38-.27 1.3.32-.44 1.25-.03.04zm18.46 11.94a.89.89 0 0 1 1.21-.345c.01-.275-.08-.425-.13-.715a2.51 2.51 0 0 0 0-.27l-.12-.65a3.4 3.4 0 0 1-.07-.34 2.71 2.71 0 0 0-.39-.93 2.84 2.84 0 0 0-.74-.77 2.93 2.93 0 0 0-.85-.42l-2.11-.58.49 1a1.64 1.64 0 0 1 .39.21 1.44 1.44 0 0 1 .46 1.984l-2.11 2.926a6.22 6.22 0 0 1-.66.8s-1.64 2.11-3.54.68c0 .34-.06.5-.11.84v.16h.07a5 5 0 0 0 3.8.57l2.92-.33a1.86 1.86 0 0 1 .1-2l.06-.05zm-.71-5.92h-.11a2.68 2.68 0 0 1-.27-.07h-.06a.12.12 0 0 0-.1 0 .13.13 0 0 0-.1.08c-.12.25.67 1.18 3 .59 0 0 2-.47 1.85-2.24a.68.68 0 0 0 0-.14.31.31 0 0 0 0-.1 1.87 1.87 0 0 0-.75-1.11 1.64 1.64 0 0 0-2.3.22 1.38 1.38 0 0 0-.19 1.15 2 2 0 0 1 .1.45 1 1 0 0 1 0 .43 1.22 1.22 0 0 1-.14.33 1 1 0 0 1-.93.41zm12.62 6.53s-2.13-.42-1.1-2.19v-.08a2.31 2.31 0 0 0 .23-1.44 2.85 2.85 0 0 0-.64-1.36 3.45 3.45 0 0 0-.83-.73 3.13 3.13 0 0 0-1-.37l-2.32-.44.63 1a1.63 1.63 0 0 1 .46.18 1.55 1.55 0 0 1 .72 2.05c-.359.765-.21.37-.56 1l-1.37-.26-.42-.07a5.3 5.3 0 0 0-.55-.1l-.72-.12h-.16l.1.15.22.35.12.2c.07.09.09.14.15.22s2.2.35 1.12 2.21l-2.76 4.7a6.45 6.45 0 0 1-.8 1.13c-.4.34-1.41.82-3.52-.6a.09.09 0 0 0-.06 0l-.06-.05v.07a.11.11 0 0 0 0 .05l.21 2.43a5.23 5.23 0 0 0 3.61.4l3.52-.73a1.9 1.9 0 0 1-.09-2.05v-.07c0-.07.13-.19.34-.53l2.81-4.59 3.2.73-.48-1.09zm24.71 11.63a.2.2 0 0 1 0-.07s0-.24.1-.63l.42-2.41a2.32 2.32 0 0 0-.3-1.55 2.72 2.72 0 0 0-1.06-1 3.06 3.06 0 0 0-1-.36 3 3 0 0 0-1 0l-1.29.27-.35.07h-.18l-.43.1h-.18a2.72 2.72 0 0 0-1.06-.92 3.06 3.06 0 0 0-1-.31 3.27 3.27 0 0 0-1 .06l-1 .27-.34.09h-.21l-.44.12h-.18a2.87 2.87 0 0 0-1.05-.82 3.16 3.16 0 0 0-1.07-.25 2.84 2.84 0 0 0-1 .1l-2.19.66 1 .6a2.42 2.42 0 0 1 .47 0 1.48 1.48 0 0 1 1.49 1.47v.02c0 .007 0 .78-.23 3.7a3.12 3.12 0 0 1 0 .44v.39a.76.76 0 0 1 0 .15 2.66 2.66 0 0 1-2.37 2.61.73.73 0 0 1-.23 0h-.37a.43.43 0 0 1-.15 0l.58 1a5.34 5.34 0 0 0 3.42-1.26l2.82-2.26a1.91 1.91 0 0 1-1-1.79c.042-.74 0-.23.06-.62 0-.56.12-1.44.2-2.45a2.09 2.09 0 0 0-.1-.83l.16-.05.28-.08h.11a1.85 1.85 0 0 1 .47 0 1.68 1.68 0 0 1 1.44 1.55l-.44 4.14v.64a1.8 1.8 0 0 1-.05.19 1.48 1.48 0 0 1-.13.35 2.48 2.48 0 0 1-.32.54l-.14.16a2.21 2.21 0 0 1-.46.4l-.08.06a3.18 3.18 0 0 1-.67.32 2.82 2.82 0 0 1-1.17.14h-.23l.71 1.25a5.35 5.35 0 0 0 3.49-1.12l2.92-2.13a1.87 1.87 0 0 1-.92-1.84.22.22 0 0 1 0-.08s0-.24.07-.63l.31-2.43a2.53 2.53 0 0 0 0-.78h.13l.26-.06.34-.07a1.48 1.48 0 0 1 .47 0c.87.12 1.55.94 1.38 1.61s-.12.79-.54 3.68a4.16 4.16 0 0 1-.08.43 2.63 2.63 0 0 1-.06.39 1.44 1.44 0 0 1 0 .24v.19a3.68 3.68 0 0 1-.15.35 3.34 3.34 0 0 1-.34.52l-.15.16a3.48 3.48 0 0 1-.48.38h-.09a2.73 2.73 0 0 1-.68.29 3.09 3.09 0 0 1-1.18.1h-.16l.64 1.29a5.45 5.45 0 0 0 3.55-1l3-2a1.93 1.93 0 0 1-.99-1.69zm12.8 3.11l-.61-.77a.46.46 0 0 1-.17 0c-.31 0-.89-.1-1-1.05l-.4-2.55a.53.53 0 0 0 0-.13l-.12-.81s0-.23-.1-.62l-.11-.7a1.87 1.87 0 0 1 .9-1.87l-1.92-1.26-.2-.12a2.87 2.87 0 0 0-2.21-.48h-.08a2.17 2.17 0 0 0-.56.14h-.09l-.32.13a6.66 6.66 0 0 0-.86.55 4.33 4.33 0 0 0-1.38 1.32l-2.14 3a1.89 1.89 0 0 1 1.53 1.4l.66 3a2.5 2.5 0 0 0 .81 1.33 2.56 2.56 0 0 0 1.25.6 3 3 0 0 0 1 0h.08a3.24 3.24 0 0 0 .47-.13l.23-.09.11-.05a5.58 5.58 0 0 0 .79-.47.44.44 0 0 1 .11-.09 4.08 4.08 0 0 0 .39-.31 1.58 1.58 0 0 0 1.51.48l.38-.05.43-.08 1.58-.23h.11a.23.23 0 0 1-.07-.09zm-4.76-2.25a2.41 2.41 0 0 1-.16.6l-.09.2a2.71 2.71 0 0 1-.33.52l-.06.07a2.65 2.65 0 0 1-.29.29h-.08a1.44 1.44 0 0 1-.58-.4.66.66 0 0 1-.14-.2 1.21 1.21 0 0 1-.17-.43l-.79-4.08c0-.15 0-.22-.07-.38a1.09 1.09 0 0 1 0-.25 1.21 1.21 0 0 1 0-.19v-.38a2.32 2.32 0 0 1 .17-.61c0-.06.06-.14.09-.19a3.15 3.15 0 0 1 .35-.52l.06-.08.31-.29h.08a1.45 1.45 0 0 1 .62.4.75.75 0 0 1 .15.2c.07.13.11.32.16.44s.13.78.65 3.66a3.49 3.49 0 0 1 .07.43c0 .15 0 .23.07.38a1.13 1.13 0 0 1 0 .25 1.37 1.37 0 0 1 0 .19zm-52.97-15.65l.54-.61.42-.47.46-.54a1.85 1.85 0 0 1 2-.5l-.27-2.29v-.23a2.71 2.71 0 0 0-.36-1.16 2.6 2.6 0 0 0-.69-.83h-.07a1.91 1.91 0 0 0-.46-.34h-.08l-.3-.16a7.28 7.28 0 0 0-.89-.34 4.17 4.17 0 0 0-1.88-.21l-3.68.29a1.87 1.87 0 0 1-.09 2.08l-1.89 2.44a2.48 2.48 0 0 0-.5 1.47 2.62 2.62 0 0 0 .34 1.34 2.92 2.92 0 0 0 .66.75 2.75 2.75 0 0 0 .39.28.91.91 0 0 0 .22.11l.11.06a4.66 4.66 0 0 0 .86.31.42.42 0 0 1 .13 0 3.1 3.1 0 0 0 .5.09 1.64 1.64 0 0 0 .59 1.48l.29.26.33.28 1.2 1.06a.16.16 0 0 1 .08.06.19.19 0 0 1 0-.08l.2-1a1.14 1.14 0 0 1-.12-.12c-.21-.23-.49-.75.13-1.48l1.69-1.95a.43.43 0 0 0 .14-.05zm-2.12-1.64l-.29.33-.25.29a1 1 0 0 1-.17.19l-.13.13-.31.22a2 2 0 0 1-.57.26l-.21.07a2.47 2.47 0 0 1-.6.08h-.1a2.71 2.71 0 0 1-.4 0 .25.25 0 0 1 0-.07 1.58 1.58 0 0 1-.08-.71.67.67 0 0 1 .07-.24 1.36 1.36 0 0 1 .22-.41l2.62-3.22.24-.3.17-.2.14-.12a2 2 0 0 1 .3-.23 2 2 0 0 1 .58-.27.91.91 0 0 1 .21 0 3.29 3.29 0 0 1 .63-.08h.51a.39.39 0 0 0 0 .09 1.48 1.48 0 0 1 .08.72 1 1 0 0 1-.06.25 3.15 3.15 0 0 1-.23.41c-.087.131-.56.55-2.37 2.81zm105.49-20a1.53 1.53 0 0 1-1.961.915l-.039-.015c-.013-.005-.72-.36-3.32-1.57a2.84 2.84 0 0 1-.39-.2l-.35-.16a2.83 2.83 0 0 1-1.2-3.75l.07-.14-1.4.27a5.61 5.61 0 0 0-.14 3.72l.12.39.21.72.65 2.38a1.9 1.9 0 0 1 2-.31l.57.28 2.16 1.09a2 2 0 0 0 .81.22c0 .18 0 .28-.06.47a.45.45 0 0 0 0 .12 2.42 2.42 0 0 1-.18.46 1.51 1.51 0 0 1-1.981.798l-.019-.008c-.006-.003-.7-.36-3.25-1.72l-.38-.21-.34-.18a2.84 2.84 0 0 1-1-3.79l.08-.15-1.43.22a5.58 5.58 0 0 0-.31 3.71l.83 3.52a1.9 1.9 0 0 1 2-.19h.06l.55.31 2.12 1.17a2.66 2.66 0 0 0 3.528-1.304l.012-.026a3.61 3.61 0 0 0 .32-1l.16-1.09.17-1.24a3 3 0 0 0 1.8-1.63 3.21 3.21 0 0 0 .29-1l.23-2.33-.92.73a1.49 1.49 0 0 1-.07.52zm-9.62 10l-.65-.49-.49-.38-.56-.42a1.85 1.85 0 0 1-.64-1.94l-1.24.23-1.2.2a2.8 2.8 0 0 0-1.87 1.05 3.48 3.48 0 0 0-.49.83 7.44 7.44 0 0 0-.31.83c-.087.283-.05.22-.08.32l-2.56-2.11a2.53 2.53 0 0 0-3.52.34 2.45 2.45 0 0 0-.46.75l-.73 1.94 1-.31a2 2 0 0 1 .25-.35 1.43 1.43 0 0 1 2-.17l5.13 4.45a2.16 2.16 0 0 0 .31.29l.6.54.47.4 1.84 1.59a2.65 2.65 0 0 0 3.707-.549l.023-.031.05-.06a4.51 4.51 0 0 0 .32-.44.82.82 0 0 0 .13-.23.75.75 0 0 1 .07-.12 6 6 0 0 0 .36-.94 4.69 4.69 0 0 0-1.46-5.22zm-.15 5.38a1.43 1.43 0 0 1-1.05.09 1.2 1.2 0 0 1-.41-.23l-1.73-1.43-1.1-.91-.33-.29-.29-.24a2.67 2.67 0 0 1-.87-2.51 1.44 1.44 0 0 1 1-.05 1.09 1.09 0 0 1 .41.22l2.86 2.29c.13.09.23.19.34.28l.3.24a2.58 2.58 0 0 1 .87 2.55v-.01zm-10.99 9.62l-1-1.19a5 5 0 0 1-.83-1.41 1.51 1.51 0 0 1-.42 0 4.43 4.43 0 0 1-.64 0 4.21 4.21 0 0 1-1.09-.32l-.23 1.27-.4 2.07.74.22h.1a1.83 1.83 0 0 1 1.12.66l.55.72a1.6 1.6 0 0 0 .25.27l-.12.16a1.86 1.86 0 0 0-.11.19 2.13 2.13 0 0 1-.34.33 1.6 1.6 0 0 1-1.86.1l-1.27-1.72 1-5.44.23-1.41-.23-.23a2.32 2.32 0 0 0-1.07-.57 2.86 2.86 0 0 0-1.33.05 2.82 2.82 0 0 0-.91.47 2.67 2.67 0 0 0-.63.67l-.33.52-.3.47-.16.25-.17.26a3.43 3.43 0 0 0-.34-.12h-.06a2.11 2.11 0 0 0-.75-.08l-.56.84-.71 1a1.77 1.77 0 0 0-.17.24l-.15.21a1.48 1.48 0 0 1 1.41.22l.27.4 3.57 5.1.37.55a1.54 1.54 0 0 0 .17.19 2.33 2.33 0 0 0 1 .56h.07a2.68 2.68 0 0 0 1.4 0 3.05 3.05 0 0 0 1-.49 2.77 2.77 0 0 0 .7-.71l.39-.56.34-.5.18-.27.19-.29a2.3 2.3 0 0 0 .35.1h.05a2.61 2.61 0 0 0 .79 0l.6-.93.72-1.14.17-.27.15-.23a1.42 1.42 0 0 1-1.7-.21zm-8-2v-.07c0-.07-.13-.18-.28-.38a3.85 3.85 0 0 0-.26-.35 2.09 2.09 0 0 0-.24-.28.86.86 0 0 0 .1-.16l.12-.17a1.23 1.23 0 0 1 .33-.31 1.46 1.46 0 0 1 2 .21c.505.591.15.21.6.79l.09.14c.15.18-.06 0 .09.18l-.63 3.17-1.94-2.7.02-.07zm11.07-5.06v-.06l-1.56-1.66a.9.9 0 0 1-.123-1.267l-2.087-.003a2.88 2.88 0 0 0-1.87.82 3.15 3.15 0 0 0-.56.77l-1 2 1.07-.31a1.78 1.78 0 0 1 .27-.36 1.43 1.43 0 0 1 2-.09l2.5 2.58a7.23 7.23 0 0 1 .68.79s1.79 2 0 3.61l.82.25.16.05.05-.06v-.05a4.88 4.88 0 0 0 1.21-3.64l.19-2.93a1.87 1.87 0 0 1-1.75-.44zm-7.68-1.65v.07a.1.1 0 0 0 0 .09.14.14 0 0 0 .06.12c.22.15 1.28-.46 1.11-2.82 0 0-.12-2-1.89-2.21h-.3a2 2 0 0 0-1.22.56 1.63 1.63 0 0 0-.192 2.297 1.47 1.47 0 0 0 1.112.403h.06a1.91 1.91 0 0 1 .47 0 1.23 1.23 0 0 1 .42.07 1 1 0 0 1 .54 1.12.52.52 0 0 0 0 .11 2 2 0 0 1-.17.19zm-4.96 14.89c-.08-.13 0 .06-.65-1.37a5 5 0 0 1-.5-1.56l-.4-.07a5 5 0 0 1-.62-.2 5.16 5.16 0 0 1-1-.54l-.48 1.19-.43 1.1-.55-.31 1.79-4.46v-.08a.59.59 0 0 1 0-.08l-.13-.2a2.3 2.3 0 0 0-.94-.78 2.75 2.75 0 0 0-1.4-.2 3.61 3.61 0 0 0-1.06.3 3.22 3.22 0 0 0-.81.58l-.47.48-.41.43-.22.23-.23.25a1.44 1.44 0 0 0-.33-.16h-.06a3.31 3.31 0 0 0-.77-.17l-.76.82-.91 1-.2.23-.18.2a1.46 1.46 0 0 1 1.66.61l.73 1.33a4.63 4.63 0 0 1 .6 1.53 2.73 2.73 0 0 1 .41 0 5.79 5.79 0 0 1 .63.17 4.75 4.75 0 0 1 1 .49l.45-1.2.4-1.09.68.37-1.64 4.45.07.11a.73.73 0 0 0 .1.13 2.43 2.43 0 0 0 .92.69h.06a2.77 2.77 0 0 0 1.31.17 2.65 2.65 0 0 0 1-.29 2.38 2.38 0 0 0 .73-.55l.42-.46.38-.4a2.19 2.19 0 0 1 .2-.22l.22-.24a1.92 1.92 0 0 0 .31.18h.06a2.85 2.85 0 0 0 .72.21l.7-.73.86-.88a1.54 1.54 0 0 1-.91-.36 4.18 4.18 0 0 0-.35-.65zm-5.47-2.2l-.23-.12-.9-.46a2 2 0 0 1-.88-.8c0-.11-.17-.34-.42-.81a1.61 1.61 0 0 0-.19-.31l.14-.15.14-.16a1.77 1.77 0 0 1 .39-.26 1.5 1.5 0 0 1 2.056.523 23.63 23.63 0 0 1 .454.907s0 .08.07.13.14.3.23.47v.06l-.46 1.23c-.09-.11-.22-.15-.4-.23zm3.35 4l-.13.14-.13.14a1.15 1.15 0 0 1-.37.25 1.45 1.45 0 0 1-1.982-.527l-.018-.033-.45-.89s0-.09-.08-.14-.13-.26-.21-.4l.51-1.25 1.25.67h.07a1.9 1.9 0 0 1 1 .87c0 .11.17.34.4.82a2.07 2.07 0 0 0 .19.32l-.05.03z" fill="#ab0008"/></svg>