<svg xmlns="http://www.w3.org/2000/svg" height="300" width="300" xmlns:v="https://vecta.io/nano"><path d="M285 150.024C285 224.571 224.571 285 150.024 285 75.43 285 15 224.571 15 150.024 15 75.429 75.43 15 150.024 15 224.571 15 285 75.429 285 150.024" fill="#221815"/><g fill="#f49c00"><path d="M164.571 185.27c1.717-1.574 3.1-1.622 4.817 0 3.339 3.196 8.061 4.865 11.924 4.865 4.436 0 8.823-2.146 11.065-7.583-15.549-.477-17.218-35.533 1.478-38.537-1.622-4.579-5.771-7.727-10.779-7.727-2.957 0-6.105 1.144-7.679 2.671-1.765 1.669-3.1 1.622-4.865 0-1.812-1.622-5.056-2.671-7.726-2.671-4.96 0-9.157 3.148-10.731 7.727 20.366 3.243 11.208 30.286-3.243 30.286-18.076 0-20.89-31.765-6.439-43.307-14.833-11.828-11.876-44.547 6.439-44.547 14.213 0 20.175 19.65 3.243 28.855 1.574 4.626 5.771 7.727 10.731 7.727 3.005 0 6.153-1.144 7.726-2.671 1.717-1.669 3.1-1.574 4.865 0 1.812 1.669 5.008 2.671 7.679 2.671 5.008 0 9.157-3.1 10.779-7.727-4.722-1.335-8.68-5.723-10.397-14.881-3.339-18.029-17.123-30.048-34.149-30.048-22.369 0-34.102 17.361-35.723 34.292-.81 8.919-4.102 22.178-9.062 26.328 5.294 4.436 8.347 15.31 9.062 25.087 1.622 20.08 16.025 34.054 35.723 34.054 5.771 0 12.258-2.099 15.262-4.865m56.232 21.321H82.107v-1.622h138.696zm-35.723 25.421c2.862 0 4.34-2.242 4.579-4.388.098-1.144.525-2.862 1.144-3.386-.62-.525-1.049-2.242-1.144-3.386-.238-2.194-1.717-4.388-4.579-4.388s-4.34 2.194-4.531 4.388c-.143 1.144-.572 2.862-1.193 3.386.62.525 1.049 2.242 1.193 3.386.19 2.146 1.669 4.388 4.531 4.388m-.858-7.774c-2.194-1.765-1.336-5.485.858-5.485s3.1 3.72.858 5.485c2.242 1.765 1.336 5.437-.858 5.437s-3.052-3.672-.858-5.437m-67.584 0c-2.146 2.003-1.622 6.391.238 6.63-.191.572-.763 1.001-1.383 1.001-.381 0-.81-.143-1.001-.381-.238-.19-.381-.19-.62 0-.238.238-.668.381-1.001.381-.62 0-1.193-.429-1.383-1.001 1.86-.238 2.385-4.626.238-6.63 1.431-1.336 1.86-4.34.525-4.34-.286 0-.525.143-.81.381-.19.143-1.193 1.144-1.383 1.335-.381.381-.906.143-.715-.381l1.193-3.816c.098-.906.238-.954 1.193-.525.62.238 1.717.572 2.48.572.715 0 1.86-.333 2.432-.572 1.001-.429 1.096-.381 1.193.525.098.668 1.001 3.291 1.193 3.816s-.286.763-.668.381l-1.431-1.335c-.238-.238-.477-.381-.81-.381-1.335 0-.906 3.005.525 4.34m14.303 7.774c2.862 0 4.34-2.242 4.531-4.388.143-1.144.572-2.862 1.193-3.386-.62-.525-1.049-2.242-1.193-3.386-.19-2.194-1.669-4.388-4.531-4.388s-4.388 2.194-4.579 4.388c-.098 1.144-.525 2.862-1.144 3.386.62.525 1.049 2.242 1.144 3.386.19 2.146 1.717 4.388 4.579 4.388m-.858-7.774c-2.242-1.765-1.335-5.485.858-5.485s3.052 3.72.858 5.485c2.194 1.765 1.335 5.437-.858 5.437s-3.1-3.672-.858-5.437m22.655 2.909c-1.526-.763-2.385-3.053-2.766-4.531 1.431-2.146 2.528-3.768 4.96-4.96-.19-.62-.906-1.049-1.526-1.049-.286 0-.668.143-.906.381-.19.19-.333.19-.572 0-.19-.19-.572-.381-.906-.381-.62 0-1.431.429-1.622 1.049 1.144.143.62 2.48-1.812 4.388-.477-2.003.143-4.245 1.478-4.388-.238-.62-.763-1.049-1.383-1.049-.381 0-.81.19-1.001.381-.238.19-.381.19-.62 0-.238-.238-.668-.381-1.001-.381-.62 0-1.193.429-1.383 1.049 1.86.19 2.385 4.579.238 6.582 2.146 2.003 1.622 6.391-.238 6.63.19.572.763 1.001 1.383 1.001.333 0 .763-.19 1.001-.381s.381-.238.62 0c.19.19.62.381 1.001.381.62 0 1.144-.429 1.383-1.001-1.669-.238-2.003-3.53-.81-5.819 1.049 1.144 1.049 2.719 1.049 2.719 1.144.429 1.622 2.289.572 3.1.286.572 1.193 1.001 1.717 1.001.381 0 .668-.19.81-.381s.333-.19.572 0a1.42 1.42 0 0 0 .954.381c.572 0 1.144-.429 1.24-1.001-1.431-.62-2.337-1.956-2.432-3.72"/><path d="M166.431 217.607c-.81.668-.858 3.196 1.24 4.579 1.812-1.622 2.576-4.436 1.24-4.579.19-.572.763-1.001 1.383-1.001.381 0 .81.143 1.001.333.19.238.381.238.62 0 .238-.19.62-.333 1.001-.333.62 0 1.144.429 1.383 1.001-1.812 1.001-3.959 3.863-3.959 6.63-2.099 2.003-1.86 6.391.046 6.63-.238.572-.763 1.001-1.431 1.001-.333 0-.763-.19-.954-.381-.238-.19-.429-.19-.62 0-.238.238-.668.381-1.001.381-.668 0-1.193-.429-1.383-1.001 1.86-.238 2.146-4.626 0-6.63 0-2.766-2.146-5.628-3.911-6.63.19-.572.715-1.001 1.383-1.001.333 0 .715.143 1.001.333.19.238.381.238.62 0 .19-.19.572-.333.954-.333.668 0 1.193.429 1.383 1.001M60.501 123.696v27.758h-3.863v-24.181h-4.149v-3.577zm0 0"/><path d="M88.307 132.997v-.238c0-3.291-2.576-6.057-5.723-6.057s-5.676 2.718-5.676 6.057c0 3.434 2.528 6.153 5.628 6.153s5.771-2.576 5.771-5.914m-5.962 18.458h-4.626l5.914-9.11c-.81.143-1.144.143-1.622.143-5.056 0-8.967-4.102-8.967-9.348 0-5.628 4.102-9.968 9.539-9.968 5.294 0 9.587 4.388 9.587 9.682 0 2.003-.715 4.293-2.099 6.439zm123.911-8.157h3.911c.098 3.148 2.146 5.151 5.199 5.151 2.719 0 4.96-2.289 4.96-5.151 0-2.814-2.242-4.96-5.199-4.96h-1.383v-3.911h1.288c2.528 0 4.102-1.478 4.102-3.911 0-2.099-1.669-3.816-3.768-3.816s-3.434 1.431-3.72 3.959h-3.863c.238-4.436 3.386-7.488 7.727-7.488 4.293 0 7.488 3.386 7.488 7.87 0 2.194-.525 3.339-2.528 5.246 2.385 1.526 3.72 4.006 3.72 6.916 0 4.865-4.006 8.776-9.062 8.776-4.913 0-8.871-3.816-8.871-8.68m39.634.237V130.23l-8.204 13.307zm3.911-19.841v19.841h2.909v3.577h-2.909v4.34h-3.911v-4.34h-12.639v-3.768l12.639-19.65zM150.024 22.917c-70.064 0-127.107 57.043-127.107 127.106S79.96 277.082 150.024 277.082s127.059-56.995 127.059-127.059S220.088 22.917 150.024 22.917m0 256.789c-71.542 0-129.73-58.188-129.73-129.682 0-71.542 58.188-129.73 129.73-129.73 71.494 0 129.682 58.188 129.682 129.73 0 71.495-58.188 129.682-129.682 129.682"/><path d="M150.024 28.879c-66.82 0-121.145 54.324-121.145 121.145 0 66.773 54.324 121.145 121.145 121.145 66.773 0 121.145-54.372 121.145-121.145 0-66.82-54.372-121.145-121.145-121.145m0 244.913c-68.251 0-123.816-55.517-123.816-123.768S81.773 26.208 150.024 26.208s123.768 55.564 123.768 123.815-55.517 123.768-123.768 123.768"/></g></svg>