<svg xmlns="http://www.w3.org/2000/svg" width="170.31" height="162" xmlns:v="https://vecta.io/nano"><style><![CDATA[.W{fill:#272528}.X{fill:#242528}.Y{stroke-width:0}.Z{fill:#2c5192}.a{fill:#2c8bc4}.b{fill:#a9c1d0}.c{fill:#2b447d}.d{fill:#2f77a7}.e{fill:#303c71}.f{fill:#2e9dd5}]]></style><defs><clipPath id="A"><path d="M100.29 35.28c-4.02 1.24-11.28 1.66-22.73 2.49-2.99.22-5.19.38-7.32.64-3.67.45-6.34 1.18-8.39 2.16-3.65 1.74-5.45 4.08-5.98 6.26-.44 1.83-.09 3.51.38 4.8.42 1.15.72 2.06 1.06 4.64.26 1.98.09 4.37.31 6.42h1.11c.68-1.62 2.23-3.74 5.71-5.36 4.36-2.04 10.43-2.15 17.32-2.63 8.51-.59 16.8-.92 21.86-2.4 7.35-2.15 10.12-6.21 10.12-6.21s-5.16-8.57-1.79-18.31c-2.2 2.31-6.36 5.86-11.67 7.5" fill="none" class="Y"/></clipPath><clipPath id="B"><path d="M100.29 35.28c-4.02 1.24-11.28 1.66-22.73 2.49-2.99.22-5.19.38-7.32.64-3.67.45-6.34 1.18-8.39 2.16-3.65 1.74-5.45 4.08-5.98 6.26-.44 1.83-.09 3.51.38 4.8.42 1.15.72 2.06 1.06 4.64.26 1.98.09 4.37.31 6.42h1.11c.68-1.61 2.23-3.74 5.71-5.36 4.36-2.04 10.43-2.15 17.32-2.63 8.51-.59 16.8-.92 21.86-2.4 7.35-2.15 10.12-6.21 10.12-6.21s-5.16-8.57-1.79-18.31c-2.2 2.31-6.36 5.86-11.67 7.5" fill="none" class="Y"/></clipPath><clipPath id="C"><path d="M116.14 113c-5.72.18-12.41 1.08-20.06 2.3-11.58 1.85-24.39 4.27-40.2 5.92-8.18.85-13.24-.33-15.28-.83-4.68-1.17-6.8-2.93-6.9-4.05-.38.63-.45 2.42-.16 5.46.05 1.02.11 2.18-.05 3.62-.16 1.45-.81 3.4-.5 5.09.44 2.4 1.98 4.1 4.48 5.51 1.78 1 4.44 1.79 7.25 2.25 4.44.73 10.86.57 16.59-.23l26.96-4.1c9.61-1.61 19.79-3.54 28.83-4.1 4.99-.31 10.13.36 13.2 1.19 4.81 1.29 6.73 3.37 6.85 4.61.13-.44.13-.8.09-1.58-.05-1.13-.33-3.03-.42-3.96-.17-1.79-.11-2.88.07-4.26.29-2.2.64-3 .28-4.55-.6-2.55-3.17-4.84-6.83-6.32-3.33-1.35-6.91-1.99-12.02-1.99a56.16 56.16 0 0 0-2.2.04" fill="none" class="Y"/></clipPath><clipPath id="D"><path d="M65.65 62.7H2.47l50.96 37.21-19.38 59.99 51.11-37.13 51.12 37.13-19.45-60.02 51.01-37.18h-63.16L85.16 2.61 65.65 62.7z" fill="none" class="Y"/></clipPath></defs><path d="M137.8 162l-38.41-27.9-7.82 1.17-3.28.5-22.96 3.25-1.46.2-31.35 22.77 7.43-23c-1.57-.53-3.04-1.22-4.29-2.01-2.97-1.88-4.32-3.9-4.54-6.76-.09-1.18.17-2.42.42-3.61.2-.96.39-1.87.4-2.7.03-1.53-.08-2.82-.18-3.95l-.13-2.84c.03-.7.18-1.33.46-1.88.57-1.36 2.27-3.01 7.07-3.27a25.27 25.27 0 0 1 1.26-.03c2.98 0 6.24.5 8.01.81l1.07-3.3h-8.32l-1.34-1.34.06-.17-.15.06c-2.33.96-5.14 1.44-8.36 1.44H22.1l-1.31-1.31.14-2.84c.26-5.14.45-13.56.5-17.92-.13-.13-.25-.26-.38-.4-2.15-1.94-3.36-4.65-3.41-7.64-.03-1.39.17-2.77.59-4.13L0 61.89h40.99l1.18-7.48 2.31 2.31.81 5.17h10.59a26.63 26.63 0 0 1-.02-1.75v-.88c0-.16 0-.31.01-.46v-.38-.03c0-.55-.03-1.06-.05-1.49v-.14c-.16-1.74-.64-2.94-1.1-4.09l-.14-.35c-.64-1.63-1.21-3.61-.6-5.9.72-2.72 2.49-4.88 5.4-6.6 2.43-1.43 5.23-2.29 9.36-2.88 1.24-.18 2.54-.3 4.55-.44L85.16 0l11.25 34.65c.86-.15 1.62-.3 2.3-.48 3.1-.8 5.6-2.01 8.33-4.05 2.65-1.98 6.4-5.84 8.66-8.81-2.61 6.53-3.23 10.8-2.94 14.33.35 3.88 1.7 7.67 3.8 10.69l.38.55-.48.48c-2.79 2.78-6.13 5.63-13.54 7.35l2.33 7.18h65.05l-21.88 15.95A12.5 12.5 0 0 1 151.1 81l.08.14c.1.17.2.35.3.53.54 1.04.76 1.69.77 1.72l.16.48-5.47 5.33 2 2.15c1.4 1.59 3.53 4 3.6 8.02.05 2.78-.95 5.38-2.82 7.33-1.83 1.89-4.28 2.96-6.9 3.01a11.77 11.77 0 0 1-2.54-.24h-11.3l-.55-.55v.55h-7.67l.66 2.04c3.61.21 6.38.79 9.43 1.96 6.36 2.43 7.78 6.03 8.1 7.46.27 1.21.19 2.12 0 3.1-.04.21-.09.43-.14.66-.16.76-.34 1.62-.41 2.38-.09.98-.12 1.93.04 3.37.08.71.19 1.49.28 2.18l.19 1.48c.21 1.91.04 4.1-2.76 5.79l-.09.06s-.06.04-.09.05l-.53.31h-.01c-1.24.62-2.74 1.05-4.28 1.22l6.64 20.49m-4.36-67.69l.78 1.68 2.33-2.26-.41-.45a16.09 16.09 0 0 1-1.07-1.34c-.05.11-.11.22-.17.33a9.35 9.35 0 0 1-1.47 2.05M64.36 59.93a65.23 65.23 0 0 0 .92 1.26l.7-2.15c-.21.09-.41.19-.61.29a10.47 10.47 0 0 0-1.02.6" fill="#fff"/><g class="W"><path d="M137.61 134.41c-.83-1.54-3.12-2.21-7.69-3.53l-.15-.04c-2.56-.63-5.33-1.08-8.23-1.33l-1.51-.13 7.56 11.22c4.01.81 9.63-.89 10.39-4.2 0 0 0-1.29-.37-1.98m-86.17-20.2c-1.8-.5-7.85-1.68-12.23-1.44-6.52.35-6.79 3.31-6.51 4.37.46 1.76 3.02 3.11 7.54 4.25.65.15 1.37.23 2.21.24.86.01 1.75-.04 2.61-.09.85-.05 1.73-.1 2.57-.09.41 0 .77.03 1.12.07l.32.03.85-.7 1.52-6.64m24.94-39.57c-7.98-8.12-15.29-15.76-17.17-23.27l-.6-.22c-2.96 1.93-1.78 4.08-1.93 8.13-.09 2.49.4 14.07 9.23 14.89l10.48.47"/><path d="M167.84 62.7h-63.16L85.16 2.6 65.65 62.7H2.47l50.96 37.21-19.38 59.99 51.11-37.13 51.12 37.13-19.45-60.02 51.01-37.18z"/></g><path d="M55.74 99.16L8.49 64.66h29.58l3.77 1.51 2.47-1.51h22.76l18.09-55.7 18.09 55.7h58.56l-47.28 34.47 18.02 55.63-47.39-34.42-47.38 34.42 17.96-55.6z" fill="#ddf2fa"/><path d="M71.35 93.5l3.58-11.03H36.36l15.2 11.03h19.79zm27.85 0H119l15.18-11.03H95.62L99.2 93.5m2.62-26.87l-16.66-51.3-16.66 51.3H14.56l15.19 11.04h46.76l8.66-26.66 8.65 26.66h46.76l15.18-11.04h-53.94m-1.29 31.69l7.29 22.42-22.65-16.46-22.66 16.46 7.29-22.42h-3.98l-2.93 2.19-2.47-2.19H58.2l-16.68 51.29 43.64-31.7 43.64 31.7-16.67-51.29h-11.6" class="Z"/><path d="M85.16 18.71l15.9 48.96h51.48l-12.31 8.94H94.57l-9.41-29-9.42 29H30.08l-12.31-8.94h51.49l15.9-48.96zm45.8 64.81l-12.3 8.94h-18.7l-2.9-8.94h33.9m-57.46 0l-2.9 8.94H51.91l-3.38-2.45-1.71-.23-1.74-2.27-5.5-3.99h33.91m37.88 15.85l15.44 47.51-36.99-26.87-.04-.62-.98-.12-3.63-2.64-41.65 30.25 15.44-47.51h1.17l2.6 1.87 3.29-1.87h2.34l-7.84 24.11 24.65-17.91 24.64 17.91-7.84-24.11h9.4M85.16 15.33L68.5 66.63H14.55l15.19 11.04h19.98l.83.57.56-.57H76.5l8.66-26.66 8.65 26.66h46.76l15.18-11.04h-53.94l-16.66-51.3m49.03 67.15H95.62l3.57 11.03h17.54l1.23 1.35.51-1.35h.52l15.18-11.03m-59.24 0H36.36l15.2 11.03h19.79l3.58-11.03m37.2 15.84h-11.6l7.29 22.42-22.65-16.46-22.66 16.46 7.29-22.42h-3.71l-3.42 2.34-2.85-2.34H58.2l-16.67 51.29 43.64-31.7 43.64 31.7-16.67-51.29" class="a"/><path d="M51.89 101.45l-1.51 5.87h1.31l2-5.45-1.8-.42z" class="W"/><path d="M42.26 140.87l-.29-.11 1.33-4.13h.32l-1.37 4.25m13.54.8l6.64-4.82h.81l-6 4.6-1.44.22" class="X"/><path d="M44.19 141.41c-.77-.17-1.42-.36-1.92-.55l1.37-4.24 2.1.03-1.55 4.76m7.8.6l7.15-5.2 3.29.04-6.64 4.82-3.8.33" class="b"/><path d="M50.17,142.04c-1.92-.02-3.58-.19-4.95-.42l1.61-4.95,10.56.13-7.22,5.25" class="c"/><path d="M45.22 141.62l-1.03-.2 1.55-4.76h1.1l-1.61 4.97m5.27.41h-.33l7.22-5.25 1.75.02-7.15 5.2-1.49.03" class="d"/><path d="M107.04 136.63l-7.18-5.34.36-.02 7.31 5.31-.49.05m21.31 1.29c-.36-.3-.87-.56-1.51-.78l-2.28-7.03.73-.03 3.06 7.85" class="X"/><path d="M107.52 136.58l-7.31-5.31 3.13-.15 7.17 5.21-3 .25m19.33.56c-.64-.22-1.41-.4-2.27-.54l-2.08-6.39 2.07-.1 2.28 7.03" class="b"/><path d="M123.41 136.43c-1.87-.23-4.07-.33-6.36-.33l-4.9.13-7.14-5.19 16.39-.79 2 6.17" class="c"/><path d="M110.52 136.33l-7.17-5.21 1.67-.08 7.14 5.19-1.64.1m14.05.26l-1.15-.17-2.01-6.17 1.08-.05 2.08 6.39" class="d"/><path d="M101.27 58.57L98.81 51l1.67-.1 2.36 7.25-1.58.42m-34.02 4.15l2.98-10.02.76-.05-2.97 9.14c-.35.27-.61.58-.77.93" class="X"/><path d="M99.31 58.9l-2.53-7.79 2.03-.12 2.46 7.57c-.61.14-1.26.25-1.96.34m-16.92.65l2.51-7.73.52-.03 2.49 7.66-5.52.1m-14.38 2.24l2.97-9.14 2.11-.12-2.66 8.17c-1.02.28-1.84.64-2.42 1.09" class="b"/><path d="M89 59.43l-2.5-7.7 9.21-.55 2.55 7.84-6.46.34-2.79.07m-17.39.98l2.58-7.95 9.57-.57-2.5 7.69c-3.69.11-7.1.31-9.66.83" class="c"/><path d="M98.25 59.02l-2.55-7.84 1.08-.06 2.53 7.79-1.06.12m-10.35.42l-2.49-7.66 1.08-.06 2.5 7.7-1.09.02m-6.62.13l2.5-7.69 1.12-.07-2.51 7.73-1.11.03M70.43 60.7l2.65-8.17 1.12-.07-2.58 7.95-1.19.29" class="d"/><path d="M111.97 35.71c-.27-3.3.36-7.25 1.71-10.87-1.67 2.09-4.06 4.37-6.15 5.92-2.56 1.9-5.15 3.29-8.61 4.18-2.67.69-6.18 1.02-9.93 1.31l-14.81 1c-2.43.15-3.91.29-5.3.49-4 .57-6.74 1.41-9.06 2.78-2.66 1.56-4.35 3.55-5.03 6.11-.56 2.09 0 3.92.58 5.4.49 1.24 1.09 2.61 1.28 4.66.16 1.84-.07 3.81.11 6l2.15 1.49 1.96-1.49c.68-1.36 1.92-2.93 4.17-4.08 1.21-.62 2.91-1.22 4.72-1.48 6.65-.96 14.53-1.27 23.49-1.87 14.44-.98 19.14-4.92 22.69-8.47-2.03-2.91-3.56-6.83-3.94-11.08" class="W"/><path d="M58.75 62.7c.68-1.61 2.23-3.74 5.71-5.37 4.36-2.04 10.43-2.15 17.32-2.63 8.51-.59 16.8-.92 21.86-2.4 7.35-2.15 10.12-6.21 10.12-6.21s-5.15-8.57-1.79-18.31c-2.19 2.31-6.36 5.86-11.67 7.5-4.02 1.24-11.28 1.66-22.73 2.49-3 .22-5.19.38-7.32.64-3.67.45-6.34 1.18-8.38 2.16-3.65 1.74-5.45 4.08-5.98 6.26-.44 1.83-.09 3.51.38 4.8.42 1.15.72 2.06 1.06 4.63.26 1.98.09 4.37.31 6.42h1.11" class="f"/><g clip-path="url(#A)"><path d="M112.41 43.09c-.91-2.45-1.74-6.2-1.39-10.43-2.42 2.78-5.86 5.06-10.93 6.31-2.39.59-4.93.89-8.43 1.2-4.71.43-9.51.7-14.58 1.06-5.25.37-8.2.36-11.81 1.42-5.9 1.73-8.98 5.22-9.31 8.82.36.98 1.12 2.98 1.36 4.81.14 1.07-.1 2.96-.09 4.24 1.12-3.44 4.2-5.59 7.86-6.95 3.7-1.37 7.04-1.69 13.89-2.16l17.28-1.23c3.02-.29 4.99-.65 6.48-1.06 3.81-1.06 7.51-3.46 9.67-6.03" class="Z"/><path d="M110.91 32.5c-2.61 3-6.94 5.6-12.58 6.62-1.91.35-4.05.59-6.68.83l-10.3.77-4.28.29-1.16.08c-3.14.22-5.24.42-7.37.73-8.24 1.23-12.46 5.49-12.81 9.39l.37.31c.23-3.71 4.18-8.21 12.53-9.46 2.37-.36 4.7-.57 8.46-.83l14.58-1.06c2.67-.24 4.78-.49 6.7-.83 5.79-1.03 10.15-3.62 12.56-6.39l.25-.9v-.03l-.27.47m1.5 10.42c-2.16 2.57-6.29 5.48-11.77 6.62-1.17.25-2.57.48-4.38.65-3.44.33-11.57.85-17.28 1.23-4.24.29-7.33.57-9.82.97-6.81 1.09-11.02 4.45-11.94 7.73l.26.29c1.34-3.93 6.32-6.88 11.62-7.69 2.57-.39 6.03-.77 9.89-1.03l3.34-.22 13.92-1.03c1.74-.16 3.24-.39 4.49-.65 5.56-1.16 9.59-3.94 11.86-6.69l-.2-.18z" fill="#23bde6"/></g><g clip-path="url(#B)" fill="#2c3462"><path d="M56.08 50.86c-.32-2.21 1.09-7.13 7.36-10.07-6.16 2.07-7.92 5.36-8.16 7.22s.81 2.85.81 2.85"/><path d="M63.65,42.12c-6.18,2.06-7.92,5.42-8.16,7.29-.24,1.86.81,2.81.81,2.81-.32-2.21,1.08-7.15,7.35-10.1"/><path d="M63.85,43.46c-6.21,2.06-7.92,5.49-8.17,7.35-.24,1.86.82,2.77.82,2.77-.32-2.21,1.08-7.17,7.35-10.12"/><path d="M64.06 44.8c-6.24 2.05-7.93 5.55-8.17 7.41s.82 2.73.82 2.73c-.32-2.21 1.08-7.2 7.35-10.14"/><path d="M64.27,46.14c-6.26,2.04-7.93,5.61-8.17,7.48-.24,1.86.82,2.69.82,2.69-.32-2.21,1.08-7.22,7.35-10.17"/><path d="M64.47,47.48c-6.29,2.03-7.93,5.67-8.17,7.54-.24,1.86.83,2.65.83,2.65-.32-2.21,1.08-7.24,7.34-10.19"/><path d="M64.68 48.81c-6.31 2.02-7.93 5.74-8.17 7.6s.83 2.61.83 2.61c-.32-2.21 1.07-7.27 7.34-10.21"/><path d="M64.89,50.15c-6.34,2.01-7.93,5.8-8.18,7.67-.24,1.86.84,2.57.84,2.57-.32-2.21,1.07-7.29,7.34-10.24"/><path d="M65.1,51.49c-6.36,2-7.94,5.86-8.18,7.73-.24,1.86.84,2.53.84,2.53-.32-2.21,1.07-7.31,7.34-10.26"/><path d="M65.3 52.83c-6.39 2-7.94 5.93-8.18 7.79s.84 2.49.84 2.49c-.32-2.21 1.07-7.34 7.34-10.28"/><path d="M65.51 54.17c-6.41 1.99-7.94 5.99-8.18 7.85s.85 2.45.85 2.45c-.32-2.21 1.06-7.36 7.33-10.31"/><path d="M58.39,65.84c-.32-2.21,1.06-7.38,7.33-10.33-6.44,1.98-7.94,6.05-8.18,7.92-.24,1.86.85,2.41.85,2.41"/></g><path d="M95.22 40.73l-2.25.25-1.18 4.11-.28-4.05-2.87.2.17 2.4-2.13-2.27-2.39.16.18 2.68c-.5-.47-1.15-.74-1.89-.74h-.23c-.88.06-1.61.46-2.11 1.09-.36-.92-1-1.67-1.83-2.09-.64-.33-1.5-.46-2.54-.37l-2.31.2-.99.09.59 8.62 3.34-.26.75-.09c1.01-.18 1.77-.62 2.37-1.4.12-.15.23-.32.33-.49a3.17 3.17 0 0 0 .81 1c.54.44 1.18.67 1.87.67.15 0 .29 0 .46-.03h.07a3.22 3.22 0 0 0 1.66-.92l.05.69 2.87-.2-.17-2.48 2.19 2.35 3.74-.27.54-1.93.31-.02.74 1.83 3.86-.48-3.71-8.25m-18.48 7.01a.66.66 0 0 1-.26.24l-.21-3.1s.06.02.08.02a.66.66 0 0 1 .24.17 1.43 1.43 0 0 1 .24.41c.08.2.12.44.14.72.05.7-.03 1.25-.22 1.54" class="e"/><path d="M73.75 50.33l-.5-7.33.36-.03 2.3-.2c.91-.07 1.66.03 2.19.3 1.01.52 1.69 1.65 1.78 2.95.04.57-.01 1.11-.15 1.59s-.36.91-.64 1.27c-.51.65-1.12 1-1.97 1.16-.2.04-.42.06-.68.08l-2.69.21m1.84-6.09l.31 4.5a1.23 1.23 0 0 0 .2-.02c.18-.02.4-.06.51-.09.27-.09.51-.27.69-.53.28-.42.39-1.07.33-1.94-.02-.34-.08-.64-.18-.9a1.73 1.73 0 0 0-.36-.61 1.45 1.45 0 0 0-.48-.34c-.17-.07-.35-.09-.62-.08l-.41.02m7.04 5.55c-.54 0-1.05-.18-1.47-.52-.41-.34-.92-.97-1-2.11-.12-1.71.77-2.93 2.22-3.03h.18c1.06 0 2.13.79 2.23 2.39l.04.78.06.97-.04.08c-.28.6-.94 1.28-1.8 1.43h-.07c-.12.03-.24.04-.35.04m-.24-2.37s.02.1.04.14c.07.24.26.66.7.62.28-.03.61-.36.86-.87h0l-1.59.11zm.05-1.96s-.05.1-.07.17a2.37 2.37 0 0 0-.06.41v.03l.31-.02c-.04-.21-.08-.38-.14-.52-.01-.04-.03-.06-.04-.08m3.04 4.01l-.51-7.36 1.44-.1 3.17 3.37-.25-3.57 1.58-.11.49 7.08 2.09-7.25 1.33-.17 3.17 7.06s-1.02.2-2.47.34l-.74-1.85-1.24.08-.54 1.94-2.96.2-3.23-3.46.25 3.66-1.58.11zm8.58-4.32l-.1.36.24-.02-.14-.34z" class="a"/><path d="M77.93 43.39c-.47-.24-1.14-.33-2-.27l-2.3.2.45 6.61 2.32-.18.64-.08c.77-.14 1.3-.44 1.75-1.02.25-.32.45-.71.58-1.15s.17-.93.14-1.46c-.08-1.18-.69-2.19-1.58-2.65m.06 2.74c.07.95-.06 1.68-.39 2.17-.22.33-.53.57-.88.68-.15.05-.4.09-.59.11-.16.02-.43.03-.57.04l-.36-5.22.78-.05c.32-.01.55.02.77.11a1.7 1.7 0 0 1 .61.43c.18.19.32.44.43.73s.18.63.2 1.01M90 46.4l-3.75-3.99-.9.06.46 6.62.85-.06-.3-4.33 3.81 4.08.85-.06-.46-6.63-.84.06.29 4.22zm4.58-4.6l-.82.1-1.96 6.79.9-.06.54-1.94 1.76-.12.75 1.85 1.71-.22-2.88-6.4zm-1.12 4.13l.53-1.89.73 1.81-1.26.09zM82.4 44.5c-1.25.09-1.98 1.15-1.88 2.64.07 1.01.51 1.56.87 1.85.43.35.98.5 1.53.42h.06c.73-.14 1.3-.72 1.53-1.23l-.06-.99-.15.31c-.31.64-.74 1.03-1.15 1.07-.72.07-1-.59-1.08-.88a2.41 2.41 0 0 1-.1-.58l2.47-.17-.03-.4c-.09-1.32-.88-2.12-2.01-2.05m.63 1.94l-1.11.07.01-.44a2.39 2.39 0 0 1 .08-.49c.04-.14.09-.25.16-.34a.32.32 0 0 1 .23-.13c.11 0 .28.02.41.33.1.25.17.58.22.99" fill="#fff"/><path d="M94.03 44.87l-.21.76.51-.03-.29-.73m-11.62.5c-.11 0-.24.44-.24.85l.54-.04c-.05-.47-.2-.82-.31-.81" class="e"/><path d="M44.71,138.26c-2.93-.47-4.76-1.11-6.73-2.04-3.39-1.6-4.69-3.87-4.96-5.62-.29-1.93.25-4.12.38-5.36.16-1.44.17-2.43.13-3.45-.28-3.04-.27-4.7.05-5.61.09,1.12,2.33,3.03,7.01,4.21,3.56.89,8.76,1.52,15.28.83,15.81-1.65,28.62-4.07,40.2-5.92,7.65-1.22,14.05-2.02,19.77-2.2,6.31-.2,10.96.49,14.65,1.94,3.48,1.37,6.09,3.68,6.69,6.23.36,1.55,0,2.35-.28,4.55-.18,1.37-.24,2.47-.07,4.26.09.93.37,2.83.42,3.96.03.78.03,1.14-.09,1.58-.12-1.23-2.04-3.31-6.85-4.61-3.07-.82-8.21-1.5-13.2-1.19-9.04.56-19.22,2.49-28.83,4.1-8.34,1.4-17.51,2.79-26.96,4.1-5.74.8-12.15.93-16.59.23" class="f"/><path d="M138.13 134.17l-.47-3.66c-.16-1.44-.15-2.43-.05-3.53.1-1.03.37-2.18.56-3.12.2-.98.24-1.75 0-2.77-.47-2.12-2.51-4.93-7.6-6.88-3.56-1.36-7.26-2.15-14.4-1.97-2.96.08-5.7.38-9.66.78-7.18.73-38.77 6.04-51.49 6.76-2.88.16-6.19.16-8.19-.05-9.22-.98-11.14-3.38-10.68-4.4.03-.06-2.6-.59-2.6-.59-.4.23-1.07.99-1.12 2.43-.06 1.84.36 3.86.31 6.77-.03 2.01-.97 4.29-.82 6.24.21 2.8 1.65 4.55 4.16 6.14 1.93 1.22 5.09 2.63 9.58 3.07 5.03.49 10.83.04 15.93-.66l26.57-3.75c10.31-1.56 23.55-3.76 32.16-3.52 11.22.31 15.21 4.08 14.6 5.91-.04.13.18 1.49.18 1.49l.47.43c2.38-1.37 2.76-3.05 2.54-5.12" class="W"/><path d="M44.71,138.26c-2.81-.46-5.47-1.25-7.25-2.25-2.5-1.41-4.04-3.11-4.48-5.51-.31-1.68.34-3.64.5-5.09.16-1.44.1-2.6.05-3.62-.28-3.04-.22-4.83.16-5.46.09,1.13,2.21,2.88,6.9,4.05,2.03.51,7.09,1.69,15.28.83,15.81-1.65,28.62-4.07,40.2-5.92,7.65-1.22,14.34-2.12,20.06-2.3,6.31-.2,10.42.41,14.21,1.95,3.66,1.48,6.24,3.77,6.83,6.32.36,1.55,0,2.35-.28,4.55-.18,1.37-.24,2.47-.07,4.26.09.93.37,2.83.42,3.96.03.78.03,1.14-.09,1.58-.12-1.23-2.04-3.31-6.85-4.61-3.07-.82-8.21-1.5-13.2-1.19-9.04.56-19.22,2.49-28.83,4.1-8.34,1.4-17.51,2.79-26.96,4.1-5.74.8-12.15.95-16.59.23" class="f"/><g clip-path="url(#C)"><path d="M137.19 125.91l.16-1.65c-.67-1.91-2.49-4.09-6.02-5.74-4.04-1.88-8.78-2.39-14.09-2.31-3.49.06-7.53.61-11.01 1.11l-45.11 6.8c-6.05.83-10.96.97-14.88.66-8.18-.63-12.36-3.29-12.92-5.54.03.58.16 1.82.22 2.55.05 1.02.03 2.01-.13 3.45-.06.5-.39 1.33-.49 2.04.52 3.82 4.77 6.82 11.08 7.81 4.43.69 8.27.52 13.01.16 2.42-.18 5.81-.7 8.36-1.06l49.54-7.48c3.21-.37 7.56-.38 10.87.06 6.22.83 10.37 3.4 11.49 5.57v-.43c-.09-.71-.07-1.4-.1-1.86-.12-1.85-.14-2.94 0-4.16" class="Z"/><path d="M46.24 124.79l3.07.15c3.33.06 7.25-.18 11.81-.8l45.11-6.8c3.48-.5 7.52-1.06 11.01-1.11h2.14c4.45.08 8.48.68 11.97 2.31 3.52 1.64 5.14 3.89 5.87 5.89l.18-.33.02-.15c-.84-2.38-2.76-4.24-5.86-5.69-3.22-1.51-7.03-2.24-12.14-2.32-.68-.01-1.44.02-2.18.03-3.49.06-7.53.61-11.04 1.12l-18.3 2.79-26.81 4.01c-4.32.59-8.28.86-11.77.8a48.67 48.67 0 0 1-3.05-.15c-7.95-.61-12.39-3.42-12.93-5.57l-.1.47c.48 2.13 4.83 4.73 13 5.37m79.55 1.97a46.01 46.01 0 0 0-4.75-.33c-2.14-.04-4.32.06-6.12.26-12.64 1.46-32.46 5.09-49.55 7.48-2.55.36-5.94.88-8.36 1.06-2.69.2-5.09.34-7.47.3a39.58 39.58 0 0 1-5.54-.47c-6.31-.99-10.56-3.99-11.08-7.81v-.04l-.27.31c.6 3.9 4.94 6.81 11.31 7.81a40.37 40.37 0 0 0 5.58.47c2.33.04 4.69-.09 7.5-.31 1.98-.15 4.59-.52 6.89-.85l1.49-.21 23.36-3.59 26.18-3.89c1.79-.21 3.95-.3 6.09-.26 1.71.03 3.27.16 4.64.34 6.68.89 10.32 3.36 11.46 5.44v-.57c-1.13-2-5.18-4.4-11.35-5.16" fill="#23bde6"/><g fill="#2c3462"><path d="M33.82,116.08c-.27.74.54,2.17,3.52,3.72,1.88.98,4.41,2,8.7,2.63-6.44-.2-10.66-2.22-12.02-3.42-.72-.64-.84-.84-.89-1.58-.06-.89.69-1.35.69-1.35"/><path d="M45.91,123.78c-6.27-.23-10.47-2.17-11.93-3.51-.71-.64-.87-.92-.92-1.7-.05-.89.68-1.38.68-1.38-.27.74.52,2.2,3.39,3.79,1.91,1.06,4.49,2.11,8.77,2.79"/><path d="M45.77,125.13c-6.1-.26-10.27-2.13-11.84-3.59-.7-.65-.9-1.01-.94-1.81-.04-.89.68-1.4.68-1.4-.27.74.51,2.25,3.26,3.87,1.93,1.14,4.56,2.23,8.85,2.94"/><path d="M45.64,126.47c-5.94-.29-10.07-2.08-11.74-3.68-.69-.66-.94-1.1-.97-1.92-.03-.89.67-1.43.67-1.43-.27.74.49,2.3,3.12,3.94,1.95,1.21,4.63,2.34,8.92,3.1"/><path d="M45.5,127.81c-5.77-.32-9.87-2.03-11.65-3.77-.68-.67-.97-1.18-1-2.04-.03-.89.66-1.46.66-1.46-.27.74.47,2.35,2.99,4.01,1.97,1.29,4.7,2.45,8.99,3.25"/><path d="M45.37,129.16c-5.6-.35-9.68-1.98-11.56-3.85-.68-.68-1-1.27-1.02-2.15-.02-.89.66-1.48.66-1.48-.27.74.45,2.41,2.86,4.08,1.99,1.38,4.77,2.56,9.06,3.41"/><path d="M45.23,130.5c-5.43-.38-9.49-1.93-11.46-3.94-.67-.68-1.04-1.36-1.05-2.27-.01-.89.65-1.51.65-1.51-.27.74.43,2.47,2.73,4.15,2,1.47,4.84,2.68,9.13,3.56"/><path d="M45.09,131.85c-5.26-.41-9.3-1.87-11.37-4.02-.67-.69-1.07-1.45-1.08-2.38,0-.89.65-1.53.65-1.53-.27.74.4,2.53,2.59,4.22,2.02,1.56,4.91,2.79,9.21,3.71"/><path d="M44.96,133.19c-5.09-.44-9.11-1.82-11.28-4.11-.66-.69-1.1-1.53-1.1-2.5,0-.89.64-1.56.64-1.56-.26.74.38,2.6,2.46,4.29,2.03,1.65,4.99,2.9,9.28,3.87"/><path d="M44.82,134.54c-4.93-.47-8.92-1.77-11.18-4.19-.65-.7-1.14-1.62-1.13-2.61,0-.89.63-1.59.63-1.59-.27.74.34,2.66,2.33,4.36,2.04,1.75,5.06,3.02,9.35,4.02"/><path d="M44.69,135.88c-4.76-.5-8.73-1.71-11.09-4.28-.65-.71-1.17-1.71-1.15-2.72.01-.89.63-1.61.63-1.61-.27.74.31,2.73,2.2,4.44,2.04,1.84,5.13,3.13,9.42,4.18"/><path d="M33 128.38c-.27.74.27 2.81 2.06 4.51 2.04 1.95 5.2 3.24 9.49 4.33-4.59-.53-8.54-1.65-11-4.36-.64-.71-1.2-1.79-1.18-2.84.02-.89.62-1.64.62-1.64m103.93 7.81c.27-.74-.24-2.4-2.58-3.97-2-1.33-5.16-2.65-9.51-3.28 6.54.2 10.36 2.33 11.95 3.84.69.66 1 1.2 1.05 1.94.06.89-.9 1.47-.9 1.47"/><path d="M124.92,127.64c6.41.24,10.26,2.37,11.85,3.94.68.67,1.02,1.22,1.06,2,.05.89-.88,1.48-.88,1.48.27-.74-.23-2.37-2.5-3.96-1.99-1.4-5.21-2.79-9.53-3.45"/><path d="M125.01,126.33c6.27.27,10.15,2.42,11.75,4.04.68.68,1.03,1.25,1.07,2.05.04.89-.85,1.49-.85,1.49.27-.74-.22-2.35-2.41-3.96-1.99-1.46-5.26-2.93-9.56-3.62"/><path d="M125.1,125.02c6.13.31,10.04,2.48,11.65,4.14.67.68,1.05,1.28,1.08,2.1.03.89-.82,1.51-.82,1.51.27-.74-.21-2.32-2.33-3.95-1.99-1.53-5.31-3.07-9.58-3.8"/><path d="M125.19,123.72c6,.35,9.93,2.53,11.56,4.23.66.69,1.06,1.31,1.09,2.16.03.89-.8,1.52-.8,1.52.27-.74-.2-2.3-2.24-3.95-1.98-1.6-5.35-3.22-9.61-3.97"/><path d="M125.28,122.41c5.86.38,9.83,2.58,11.46,4.33.65.7,1.08,1.33,1.1,2.21.02.89-.77,1.53-.77,1.53.27-.74-.19-2.28-2.16-3.94-1.97-1.67-5.4-3.36-9.63-4.14"/><path d="M125.37,121.11c5.73.42,9.72,2.63,11.36,4.43.64.71,1.1,1.36,1.11,2.27.01.89-.75,1.55-.75,1.55.27-.74-.18-2.26-2.07-3.94-1.96-1.74-5.45-3.5-9.66-4.31"/><path d="M125.46,119.8c5.59.46,9.61,2.68,11.26,4.53.64.71,1.12,1.39,1.12,2.32,0,.89-.72,1.56-.72,1.56.27-.74-.16-2.24-1.99-3.93-1.95-1.81-5.5-3.64-9.68-4.48"/><path d="M125.54,118.49c5.45.49,9.51,2.73,11.17,4.63.63.72,1.13,1.42,1.13,2.38,0,.89-.69,1.58-.69,1.58.27-.74-.15-2.22-1.9-3.93-1.94-1.88-5.54-3.78-9.7-4.65"/><path d="M125.63,117.19c5.31.53,9.41,2.77,11.07,4.72.62.73,1.15,1.44,1.14,2.43,0,.89-.67,1.59-.67,1.59.27-.74-.13-2.21-1.82-3.92-1.93-1.96-5.59-3.93-9.73-4.82"/><path d="M125.72,115.88c5.18.57,9.3,2.82,10.97,4.82.62.73,1.17,1.47,1.16,2.49-.01.89-.64,1.6-.64,1.6.27-.74-.11-2.19-1.74-3.92-1.91-2.03-5.64-4.07-9.75-5"/><path d="M137.24,123.66c.27-.74-.09-2.18-1.65-3.91-1.9-2.11-5.69-4.21-9.78-5.17,5.04.6,9.19,2.87,10.87,4.92.61.74,1.19,1.5,1.17,2.54-.02.89-.61,1.62-.61,1.62"/></g></g><path d="M109.39 117.72l-2.22.31-.85 4.28-1.11-3.96-2.43.37-.94 3.17-1.85-2.74-2.37.37.04 4.39-2.23-4.07-2.2.34-.84 4.24-.62-4.01-3.58.55.4 2.56-.49.08-.4-2.56-3.57.55.25 1.61c-.14-.13-.28-.25-.43-.36-.96-.7-2.19-.98-3.45-.78-.7.11-1.33.35-1.86.69l.23-.34-3.95.61-.75 1.12-.15-.98-3.55.55.24 1.57c-.97-.9-2.35-1.33-3.84-1.1-.91.14-1.71.51-2.34 1.04l.2-.62-3.17.49-.58 1.71-1.05-1.46-4.12.44 3.55 4.8.53 3.46 3.58-.48-.54-3.52.17-.5c.42 2.11 2.3 3.88 5.12 3.44 1.83-.29 2.85-1.28 3.35-2.15l.22 1.44 3.55-.55-.03-.21.16.19 4.31-.67-.34-.37c.72.26 1.54.33 2.42.2h0c1.34-.21 2.41-.83 3.11-1.81l.25-.39.23 1.5 3.58-.55-.48-3.09.49-.08.48 3.09 1.92-.3h0l3.03-.47.37-1.98.3-.05.9 1.78 3.81-.59h0l.85-.13-.05-1.3.79 1.19 1.74-.27.42-1.43.35 1.31 4.45-.67.38-2 .31-.05.9 1.78 3.86-.5-4.46-8.15m-41.54 9.49c.27.29.47.75.55 1.27.09.57.08 1.69-.6 1.79h0c-.15.02-.35.02-.58-.24-.26-.28-.45-.75-.53-1.28-.15-.99.19-1.73.6-1.79.19-.03.38.06.56.25m14.19-.84c.09.57.08 1.69-.6 1.79-.68.11-1.03-.95-1.12-1.52-.15-.99.19-1.73.61-1.79.23-.04.43.12.56.25.27.29.47.75.55 1.27m-5.24 1.46l-.88-.96.75-1.12a4.47 4.47 0 0 0 0 1.46c.03.21.08.42.14.62" class="e"/><path d="M62.04 125.69l-.86 2.53-1.55-2.15-2.61.3 2.95 3.98.47 3 2.28-.3-.47-3.04 1.52-4.59-1.73.27m4.92-.86c-2.2.34-3.62 2.22-3.29 4.36.33 2.13 2.02 3.53 4.46 3.16 2.43-.38 3.62-2.22 3.29-4.36-.33-2.15-2.25-3.51-4.46-3.16m.94 6.06h0c-.44.07-.83-.08-1.16-.44-.35-.38-.59-.95-.7-1.62-.2-1.31.29-2.4 1.14-2.53.4-.06.8.1 1.13.45.36.38.62.96.72 1.62.13.85.04 2.35-1.14 2.53m9.61-7.61l-2.22.34-1.52 2.26-.31-1.97-2.27.35 1.13 7.29 2.27-.35-.07-.45-.2-1.34 1.4 1.62 2.76-.43-3.38-3.7 2.4-3.62zm31.53-4.88l-1.31.2-1.28 6.49-1.69-6.01-1.46.22-1.22 4.09-2.39-3.53-1.41.22.06 6.41-3.25-5.94-1.31.2-1.46 7.4-1.08-7-2.3.36.4 2.56-1.77.27-.4-2.56-2.29.36 1.13 7.29 2.3-.35-.48-3.09 1.77-.27.48 3.09 2.19-.34 1.66-.26.37-1.98 1.22-.19.9 1.78 2.44-.38h0l1.2-.19-.11-3.03 1.83 2.76.92-.14.95-3.27.8 3 3.42-.52.38-1.99 1.22-.19.9 1.78 2.47-.33-3.79-6.92zm-28.44 4.31c-2.21.34-3.62 2.22-3.29 4.36.35 2.25 2.14 3.52 4.45 3.16h0c1.16-.18 2.09-.72 2.68-1.55.56-.78.77-1.78.61-2.81-.16-1.02-.69-1.91-1.49-2.49-.82-.6-1.87-.84-2.96-.67m.94 6.06c-1.19.18-1.73-1.21-1.86-2.07-.2-1.31.29-2.4 1.15-2.53.4-.06.8.1 1.13.45.36.39.62.96.72 1.62.13.85.04 2.35-1.14 2.53" class="a"/><path d="M94.08 121.09l-1.37 6.93.89-.14.38-1.98 1.74-.27.9 1.78 1.66-.25-3.39-6.2-.8.12m.03 4.06l.37-1.93.88 1.74-1.24.19zm-32.82 3.87l-1.84-2.55-1.76.2 2.62 3.54.42 2.73 1.57-.19-.42-2.77 1.36-4.1-.92.14-1.01 2.99zm47.52-10.2l-.8.12-1.37 6.93.89-.14.38-1.98 1.74-.27.9 1.78 1.67-.22-3.41-6.23zm-.75 4.16l.37-1.93.88 1.74-1.24.19zm-32.57 1l-1.95 2.9-.4-2.54-1.55.24 1.02 6.56 1.55-.24-.41-2.7 2.1 2.43 1.89-.29-3.11-3.4 2.1-3.16-1.23.19zm-8.49 1.23c-2 .31-3.28 2.01-2.98 3.94.32 2.03 1.94 3.18 4.03 2.86 2.1-.33 3.3-1.91 2.98-3.94-.3-1.94-2.04-3.17-4.04-2.86m.96 6.06h0c-.56.09-1.07-.11-1.49-.56-.39-.43-.67-1.07-.79-1.81-.24-1.52.39-2.79 1.45-2.95.52-.08 1.04.12 1.45.56.42.44.71 1.08.82 1.81.21 1.32-.16 2.75-1.45 2.95m12.7-8.18c-2 .31-3.28 2-2.98 3.94.31 2.03 1.94 3.18 4.03 2.85h0c1.06-.16 1.9-.65 2.43-1.4.5-.7.69-1.61.55-2.55-.14-.92-.62-1.73-1.35-2.25-.74-.54-1.7-.76-2.69-.6m.95 6.07c-1.29.2-2.07-1.05-2.28-2.37-.23-1.52.39-2.79 1.45-2.95.52-.08 1.04.12 1.46.56.41.44.71 1.08.82 1.81.2 1.32-.16 2.75-1.45 2.95m21.98-9.5l-1.37 4.61-2.69-3.98-.87.13.06 6.69.96-.15-.15-4 2.42 3.65.46-.07 1.25-4.31 1.05 3.96 1.58-.25-1.81-6.42-.9.14zm-13.83 4.74l-2.5.39-.4-2.56-1.57.24 1.02 6.56 1.57-.24-.48-3.09 2.5-.39.48 3.09 1.57-.24-1.02-6.56-1.57.24.4 2.56z" fill="#fff"/><path d="M108.54 121.87l-.15.78.5-.08-.35-.7zm-14.09 2.94l.5-.08-.35-.7-.15.78z" class="e"/><path d="M51.47 101.58l-1.29 5.72 1.36.61 1.96-6.06-2.03-.27z" class="W"/><g clip-path="url(#D)"><path d="M43.2 65.34l.42-2.64h1.69l.31 1.96h-1.31l-1.1.68m8.2 45.52h-1.52l1.04-3.22.61.27.52-1.62 1.63-4.42-.83-.2.57-1.77-31.62-23.09c.28-.58.6-1.15.97-1.72l32.96 24.06-1.75 5.42h-.48l-2.09 6.27m68.97.02h-2.06l-3.8-11.73 26.81-19.54c.87.1 1.69.31 2.45.65l-26.95 19.64 3.56 10.98" class="X"/><path d="M45.92 66.63H43l.2-1.29 1.1-.68h1.31l.31 1.97m11.23 15.85h-6.01l.18-.6-4.21-4.21h2.61l1.8 3.53.41-1.35h3.91l.73.73.48 1.62.09.3m10.89-.02h-10l-1.12-2.64h9.83l.73.73.57 1.91m44.26 0h-6.01l.31-1.03.48-1.61h3.91l.73.73.48 1.62.09.3m18.48-.01h-14.08v-.31l-.07-2.33h2.33 4.45c1.33 0 2.45.07 3.57.41.86.23 1.67.6 2.39 1.08h0 0c.54.37 1.01.76 1.41 1.14m-75.41 24.57l-.66-2.45h-.72l1.75-5.42-32.96-24.06a20.96 20.96 0 0 1 1.18-1.64l5.78 4.2h5.76l-.02 2.01c.54-.67.91-1.37 1.12-2.01h10.4c-.09 1.61-.56 3.24-1.34 4.81h-9.3l10.99 7.97a16.88 16.88 0 0 1 .69 1.87l.36-1.11 3.16 2.29h9.05l.48 1.48 1.81 5.52h-.02l-2.47-2.18h-2.22l-2.83 8.72m36.18-17.9l-1.56.22-1.63.27-1.13 1.1-1.29 1.25.29.3 2.15 2.32c1.11 1.25 2.54 2.88 3.08 5.37l.08-4.61.01-6.22m-16.78 2.71l-1.83 5.03c-.13.61-.16 2.4-.13 4.66l.46-.45 4.76-4.62-.89-.99c-1.07-1.22-1.86-2.42-2.37-3.63m29.85 19.01H94.22l-3.04-2.21.03-.86.11-3.16a9.07 9.07 0 0 1-1.51 3.03l-4.64-3.37-7.42 5.39s-.03-.02-.04-.03l-.17-.11c-1.52-1.02-2.66-2.34-3.4-3.41h0a13.41 13.41 0 0 1-1.3-2.33l.18 4.7.12 2.37h-7.41l4.08-12.54h-3.98l-2.25 1.68-.14-3.85c-.09-.41-.42-1.38-.9-2.65h8.83l3.58-11.03h-6.84l.79-2.64h9.83l.35.35c.97-.41 2.03-.64 3.13-.65h.13c1.46 0 2.8.33 3.98.96l-.03-.65h19.11l.73.73-.09 1.91H95.65l3.57 11.03h1.65l.02 2.59.03 2.23h-.37l4.08 12.54m13.7-.02h-2.12l-4.08-12.54h-10.88l1.33-4.07.25-.75h12.95l.48 1.48.57 1.73.01-2.27v-.83l1.14 1.25.51-1.35h.52L132.1 84c.19.26.38.54.53.81.28-.72.65-1.39 1.1-2l.45-.33h-.2l.43-.48c1.52-1.56 3.57-2.43 5.77-2.46h.13c.35 0 .68.02 1.02.06l-26.81 19.54 3.8 11.73" class="b"/><path d="M49.19 76.62H36.8v-.07c-.01-.35-.18-.59-.54-.67a3.81 3.81 0 0 0-.75-.07v.81h-5.43l-6.09-4.42-.12-2.33-.13-2.19h16.01c1.19.28 2.14.73 2.89 1.23l.19-1.23h3.25l.29 1.82 8.85-1.41.88.88-8.59 4.37 1.68 3.28m-2.13 13.19l-.25-.03-1.74-2.27-5.5-3.99h5.5a15.7 15.7 0 0 1-1.2 1.72c.83.85 1.76 2.03 2.59 3.47l.58 1.11m13.23 2.64H51.9l-3.17-2.3 2.08-6.64h6.65l2.81 8.94m10.32 0h-8.47l-3.66-8.94h15.03l-2.9 8.94m44.84 0h-12.27l.94-2.94-.95-.16-2.29-.3-.02 3.39h-.88l-2.9-8.94h8.9v.05s0-.03.01-.05h6.65l2.81 8.94m3.23.01h-1.84l-.11-8.94h14.25l-12.3 8.94m-55.09 7.58V100l2.25-1.68h3.98-3.71l-2.52 1.72m-8.21 7l2.83-8.72h2.22l2.47 2.19h.02l-.24.16-2.85-2.34h-1.62l-2.83 8.72m9.26 3.81h-7.69l-.73-.73-.34-1.25 3.09-9.52h1.17l2.6 1.87.35-.2.45 1.36.03-1.63L66 99.37h2.34l-3.74 11.49m27.84 0h-.59l-.73-.73v-.23l1.32.95m22.66.01h-3.02l-.73-.73-1.5-5.55h-.7l-1.69 6.27h-1.76l-3.74-11.49h9.4l3.74 11.49m-32.27.24c-1.24 0-2.66-.21-4.08-.87l6.41-4.65 3.96 2.88c-1.62 1.66-3.78 2.6-6.1 2.64h-.18" class="c"/><path d="M39.75 67.67H23.74l-.02-.31h13.23c1.05 0 1.98.12 2.79.31m6.34 0h-3.25l.16-1.05h2.92l.16 1.05M35.5 77.66h-5.76l-5.78-4.2s.05-.07.08-.1l-.05-1.17 6.09 4.43h5.43v1.05m14.22 0h0-2.61l-.1-.1v.07.03h-10.4c.12-.37.19-.73.19-1.05H49.2l.54 1.05m83.99 5.14l.26-.33h.2l-.45.33m-76.27.71h-6.65l.32-1.05h6.01l.32 1.05m55.15 0h-6.65l.32-1.05h6.01l.32 1.05m-65.26 6.93l-10.99-7.97h9.3l-.58 1.05h-5.5l5.5 3.99 1.74 2.27.25.03.29.64m13.24 3.04h-9.04l-3.16-2.29.33-1.05 3.17 2.3h8.37l.34 1.05m10.73-.01h-8.83l-.4-1.05h8.47l2.9-8.94H58.46l-.23-.54-.22-.51h10l.04.12.04-.12h6.84l-3.58 11.03m29.49.01h-1.65l-3.57-11.03h10.39l-.02.46-.03.59h-8.9l2.9 8.94h.88v1.05m14.93-.01h-12.95l.34-1.05h12.27l.34 1.05m2.19 1.35l-1.14-1.25v-1.15h1.84l12.3-8.94h-14.25l-.02-1.05h14.08c.48.46.86.92 1.18 1.33l.15.19-13.09 9.51h-.52l-.51 1.35m-62.12 14.04l-.5-1.85 2.83-8.72h1.62l2.85 2.34.24-.16.18.54-.35.2-2.6-1.87h-1.17l-3.09 9.52m22.89 1.35c-.34-.16-.68-.34-1.02-.55l7.42-5.39 4.64 3.37c-.2.26-.42.52-.66.76 0 .01-.02.02-.03.03l-3.96-2.87-6.41 4.65m-13.02.63h-1.1l3.74-11.49h-2.34l-2.45 1.39v-.72l2.52-1.72h3.71l-4.08 12.54m28.5 0h-1.78l-1.31-.95.05-1.26 3.04 2.21m21.98 0h-1.1l-3.74-11.49h-9.4l3.74 11.49h-1.1l-4.08-12.54h.37l.02.99.33-.99h10.88l4.08 12.54" class="d"/></g><g class="X"><path d="M52.07 106.29l1.43-4.44-.67-.09.03-.08.83.19-1.62 4.42z"/><path d="M50.93 107.64l.61.27.53-1.62 1.43-4.44-.67-.09-1.9 5.88z"/></g><g class="W"><path d="M46.3 69.9l8.87-4.51-.91-.91-9.14 1.46-1.39-8.84-1.01-1.01-1.56 9.92-11.08-1.76.57.57 9.32 4.74-4.99 9.76.57.57 7.93-7.93 7.35 7.36h0l.57.57-5.1-9.99z"/><path d="M148.35 91.87l-2.23-2.39-.29-.31 5.68-5.52s-.21-.61-.72-1.6l-.28-.5c-.02-.04-.05-.08-.08-.13a11.93 11.93 0 0 0-3.07-3.4h-.01a2.92 2.92 0 0 0-.21-.16l-.62-.41c-.06-.03-.11-.07-.17-.1h0c-1.25-.68-2.67-1.05-4.23-1.05h-.13c-2.28.03-4.39.93-5.96 2.54-.81.83-1.43 1.81-1.86 2.9a8.11 8.11 0 0 0-.7-1.03c-.6-.78-1.44-1.71-2.67-2.54h-.01 0c-.75-.5-1.58-.88-2.47-1.12-1.15-.34-2.3-.42-3.68-.42h-4.59-2.4l.07 2.4.15 12.67-.01 2.34-.58-1.78-4.16-13.22-.5-1.67-.75-.75h-4.04l-.5 1.67-.67 2.19.03-.66.12-2.45-.75-.75H86.33l.03.67c-1.22-.65-2.6-.99-4.11-.99h-.13c-1.13.02-2.23.25-3.23.68l-.36-.36H68.38l-.85 2.85-.63-2.1-.75-.75H56l1.39 3.25c2.05 4.81 5.07 12.2 5.36 13.59.13.64.19 3.02.11 6.45l-2.52-7.66-4.16-13.22-.5-1.67-.75-.75h-4.04l-.5 1.67-3.51 11.22a18.01 18.01 0 0 0-1.62-3.73c-.85-1.49-1.82-2.7-2.67-3.58 1.94-2.44 3.07-5.18 3.22-7.85.16-2.81-.67-5.32-2.34-7.08-.16-.17-.35-.35-.55-.53-.07-.07-.13-.15-.2-.22-1.2-1.27-3.44-2.78-7.3-2.78H21.76l.16 2.58.18 3.62c-2.5 3.08-3.68 6.16-3.62 9.39.05 2.82 1.19 5.3 3.18 7.09.2.22.4.43.62.63-.04 4.31-.23 13.03-.5 18.3l-.13 2.48.83.83h8.95c3.11 0 5.82-.47 8.05-1.38.65-.26 1.27-.59 1.86-.96l-.54 1.6.75.75h9.74l1.75-6.48h.72l1.55 5.73.75.75h16.73l-.12-2.45-.19-4.85c.41.92.86 1.72 1.34 2.41h0c.77 1.11 1.95 2.46 3.51 3.52l.17.11c1.81 1.16 3.71 1.49 5.3 1.49h.19a8.92 8.92 0 0 0 6.33-2.76 9.17 9.17 0 0 0 2.23-3.91l-.11 3.26-.09 2.42.75.75h16.13l1.75-6.48h.72l1.55 5.73.75.75h14.68l-.03-2.36v-.84l.38.97.59 1.47.75.75h11.06c.79.17 1.55.24 2.25.24h.19a8.96 8.96 0 0 0 6.34-2.76c1.72-1.79 2.64-4.18 2.59-6.75-.07-3.72-2-5.91-3.41-7.5M33.91 72.46a4.01 4.01 0 0 1 .77.07c.37.08.54.33.55.69 0 .91-.46 2.1-1.36 3.23l.03-3.99m.49 23.45a2.67 2.67 0 0 1-.44.38l-.03-7.31c.75.98 1.49 2.31 1.54 3.71.05 1.34-.31 2.42-1.06 3.22m42.01-.8l-4.03 3.91c-.03-2.33 0-4.18.13-4.81.14-.66.91-2.71 1.89-5.19.53 1.25 1.35 2.49 2.45 3.75.19.22.51.57.92 1.02l-1.37 1.33zm15.32-2.46l-.08 4.76c-.56-2.57-2.04-4.25-3.18-5.54-.39-.45-1.28-1.39-2.22-2.39-.1-.1-.2-.21-.29-.31l1.33-1.29 1.17-1.14 1.68-.28s.69-.12 1.62-.23l-.01 6.43m11.39-1.16l-1.71 5.23-.05-3.33v-7.26c1.28.13 2.34.31 2.36.31l.98.16-1.57 4.88m33.14 3.62l-2.33 2.26-1.5-3.21c.68-.65 1.26-1.41 1.72-2.26.29-.53.52-1.09.71-1.68.48.84 1.1 1.69 1.84 2.54.19.22.51.57.92 1.02l-1.37 1.33z"/></g><path d="M146.9 91.72l-2.2-2.36-.92-.98 5.88-5.72c-1.62-3.89-4.5-5.45-7.54-5.45H142c-2.03.03-3.92.83-5.31 2.26-1.48 1.52-2.28 3.64-2.25 5.98.03 2.25 1.01 4.44 2.99 6.69l1.39 1.52 2.91 3.24c.6.73.91 1.36.94 1.94.02.29-.07.56-.22.72-.13.14-.31.21-.55.21-1.36 0-2.27-2.12-2.61-3.33l-.58-2.4-5.29 5.13-.81-1.67-2.02-4.35a8.02 8.02 0 0 0 2.04-2.46c.81-1.5 1.18-3.26 1.11-5.23-.07-1.83-.65-3.52-1.68-4.87-1.02-1.33-2.4-2.26-3.99-2.68-1.05-.32-2.13-.38-3.43-.39h-4.59-1.45l.04 1.45.15 12.7a287.65 287.65 0 0 1-.12 7.87v.13.26.02.32.06.26.07.18l-2.99-9.07-4.17-13.24-.3-1.01h-2.66l-.3 1.01c-.02.06-1.7 5.66-4.17 13.24l-4.05 12.24-.28-11.37.02-8.27c1.71.12 3.39.4 3.41.4l1.56.26.08-1.58.22-4.45.07-1.48H87.33l.08 1.48v.1c-1.39-1.24-3.14-1.9-5.12-1.9h-.12c-2.03.03-3.92.83-5.31 2.26-.49.5-.91 1.07-1.24 1.7l.71-1.68.84-1.96h-8.06l-.3 1.01-1.5 5.01-1.8-6.02h-8.06l.84 1.96c2 4.69 5.09 12.23 5.41 13.77.31 1.5.12 8.29-.08 12.22l-.04.86-.42-1.24c-.02-.07-2.35-7.01-4.41-13.32l-4.17-13.24-.3-1.01h-2.66l-.3 1.01c-.02.06-1.7 5.66-4.17 13.24l-1.43 4.34a14.54 14.54 0 0 0 .24-2.66c0-2.7-.76-5.46-2.21-7.99-1.02-1.79-2.21-3.15-3.13-3.97 2.15-2.45 3.4-5.26 3.55-7.97.14-2.59-.58-4.8-2.09-6.39-1.54-1.63-3.83-2.49-6.62-2.49H22.78l.1 1.6.19 3.99c-2.5 3-3.69 5.97-3.64 9.06.05 2.96 1.43 5.52 3.8 7.15-.03 4.06-.22 13.4-.51 18.93l-.08 1.59h8.06c2.99 0 5.58-.44 7.7-1.31 2.13-.88 4.04-2.5 5.37-4.57.26-.4.49-.81.71-1.24l-1.75 5.26-.62 1.86h7.74l.28-1.04 1.47-5.44h2.69l1.47 5.44.28 1.04h15.05l-.07-1.48c-.2-4.09-.39-10.71-.08-12.22.26-1.23 2.27-6.27 4.09-10.63a8.99 8.99 0 0 0-.39 2.82c.03 2.25 1.01 4.44 2.99 6.69.25.29.78.86 1.39 1.53l2.91 3.24c.6.73.91 1.36.94 1.94.01.29-.07.56-.22.72-.13.14-.32.21-.55.21-1.41 0-2.33-2.36-2.61-3.33-.29-.99-.57-2.41-.57-2.41l-1.78 1.73-3.54 3.44-.7.68.39.89c1.81 4.2 4.86 6.42 8.81 6.42h.18c2.16-.04 4.18-.92 5.68-2.48 1.55-1.61 2.38-3.77 2.33-6.09-.07-3.38-1.86-5.42-3.17-6.91-.37-.42-1.3-1.41-2.21-2.37l-.92-.97 3.74-3.64v.31l1.58-.26c.02 0 1.7-.28 3.41-.4.05 1.81.06 4.58.02 8.27-.05 5.5-.32 12.78-.33 12.85l-.06 1.46h14.46l.28-1.04 1.47-5.44h2.69l1.47 5.44.28 1.04h13.03l-.02-1.43-.03-2.77-.02-3.92.35.84 2.61 6.38.35.89h8.12l-.76-1.48c1.5 1.13 3.29 1.72 5.32 1.72h.18c2.16-.04 4.18-.92 5.68-2.48 1.55-1.61 2.38-3.77 2.33-6.09-.06-3.38-1.86-5.42-3.18-6.91M32.24 70.84c.3-.04.59-.06.88-.06h0c.88 0 2.95.22 3.04 2.24.08 1.79-1.16 4.27-3.98 6.25l.06-8.43m2.82 25.7c-.69.73-1.6 1.17-2.77 1.34l-.05-10.98a10.12 10.12 0 0 0 .72-.24l.21.18s3.09 2.59 3.2 5.82c.06 1.6-.39 2.9-1.31 3.88m48.68-8.33l-.69-.75c-.05-.06-.11-.12-.17-.19-.72-.81-1.19-1.4-1.13-2.13.04-.51.4-.8.72-.82h.04c.75 0 .99.87 1.11 1.66.12.83.11 2.22.11 2.22m42.14-.37l.03-3.18h0c.42.15.67.7.67 1.46 0 1.08-.45 1.57-.7 1.72m17.75.38l-.69-.75c-.05-.06-.11-.12-.17-.19-.72-.81-1.19-1.4-1.13-2.13.04-.51.4-.8.72-.82h.04c.75 0 .99.87 1.11 1.66.12.83.11 2.22.11 2.22" fill="#accfe1"/><path d="M146.69 91.91l-2.2-2.36-1.78-1.9-.16-.19c-.77-.87-1.27-1.5-1.2-2.34.06-.67.55-1.06.99-1.08h.05c.81 0 1.18.81 1.31 1.52.17.99.19 2.31.19 2.31l5.41-5.27c-1.51-3.53-4.19-5.1-7.2-5.1h-.11c-1.96.03-3.77.8-5.11 2.17-1.43 1.47-2.2 3.52-2.17 5.78.03 2.17.99 4.31 2.92 6.51l1.38 1.52 2.92 3.25c.64.78.97 1.47 1 2.1.02.37-.09.71-.3.93-.18.2-.44.29-.75.29-1.56 0-2.52-2.29-2.89-3.54l-.47-1.92-1.41 1.37-3.55 3.44-.25.24-.98-2.02-2.12-4.55c.87-.66 1.6-1.51 2.14-2.51.79-1.46 1.15-3.17 1.08-5.08-.07-1.78-.63-3.41-1.62-4.71-.98-1.28-2.31-2.18-3.85-2.58-1.02-.31-2.08-.37-3.35-.37h-4.59-1.16l.03 1.16c0 .06.16 5.6.16 12.71 0 4.69-.17 9.52-.22 10.75l-3.49-10.56-4.17-13.25-.24-.8h-2.24l-.24.8c-.02.06-1.7 5.66-4.17 13.25l-4.41 13.33-.13.39v-.08c0-.07-.28-7.35-.33-12.86l.03-8.58c1.83.1 3.71.42 3.73.42l1.25.21.06-1.27.22-4.45.06-1.18H87.57l.06 1.18.04.83c-1.41-1.51-3.28-2.33-5.44-2.33h-.12c-1.96.03-3.77.8-5.11 2.17-1.43 1.47-2.2 3.52-2.17 5.78.03 2.17.99 4.31 2.92 6.51.25.29.78.86 1.38 1.52l2.92 3.25c.64.78.97 1.47 1 2.1.02.37-.09.71-.3.93-.19.2-.44.29-.75.29-1.75 0-2.66-2.79-2.89-3.54-.22-.75-.45-1.93-.45-1.93l-1.43 1.39-4.1 3.98.31.71c1.76 4.09 4.72 6.25 8.55 6.25h.17a7.69 7.69 0 0 0 5.48-2.39c1.49-1.55 2.3-3.64 2.25-5.89-.07-3.28-1.75-5.19-3.11-6.73-.37-.42-1.3-1.41-2.2-2.36l-1.78-1.9c-.05-.06-.11-.12-.16-.19-.77-.87-1.27-1.5-1.2-2.34.05-.67.55-1.06.99-1.08h.05c.81 0 1.2.88 1.33 1.63.12.73.17 1.48.16 2.21l1.68-1.63 2.21-2.15.03.61 1.25-.21s1.91-.32 3.73-.42c.06 1.79.07 4.62.03 8.58-.05 5.5-.33 12.78-.33 12.86l-.04 1.17h13.95l.23-.84 1.52-5.64h3.12l1.53 5.64.23.84h12.53v-1.14l-.04-2.77-.03-5.32.91 2.14 2.61 6.38.28.71h7.47l-.84-1.64-.4-.79c1.66 1.76 3.78 2.67 6.26 2.67h.17c2.08-.03 4.03-.88 5.49-2.39 1.5-1.55 2.3-3.64 2.25-5.89-.06-3.28-1.75-5.19-3.11-6.73m-20.77-3.77c-.1.04-.2.07-.31.09l.03-3.93a2.7 2.7 0 0 1 .38.09c.54.19.86.83.86 1.73 0 1.31-.63 1.9-.96 2.02m-67.47 3.74l-4.17-13.25-.24-.8h-2.24l-.24.8c-.02.06-1.7 5.66-4.17 13.25l-4.41 13.33-.5 1.49h7.13l.23-.84 1.52-5.64h3.12l1.53 5.64.22.84h7.13l-.5-1.49c-.02-.07-2.35-7.01-4.41-13.33m12.17 1.34c.36-1.75 4.04-10.57 5.43-13.82l.67-1.57h-7.42l-.24.8-1.77 5.91-1.77-5.91-.24-.8h-7.42l.67 1.57c1.39 3.25 5.06 12.07 5.43 13.82.32 1.53.13 8.19-.07 12.29l-.06 1.19h6.95l-.06-1.19c-.2-4.1-.39-10.76-.08-12.29m-25.04.25c0-2.65-.75-5.35-2.17-7.83-1.1-1.92-2.38-3.33-3.31-4.1 2.23-2.45 3.54-5.29 3.69-8.02.14-2.5-.55-4.63-2-6.15-1.48-1.56-3.69-2.39-6.4-2.39H23.04l.08 1.26.19 4.12c-2.5 2.97-3.7 5.9-3.64 8.94.05 2.91 1.43 5.42 3.8 6.99-.02 3.97-.22 13.5-.51 19.12l-.07 1.25h7.73c2.95 0 5.5-.44 7.58-1.29 2.07-.85 3.93-2.43 5.23-4.44 1.39-2.15 2.13-4.73 2.13-7.46M22.97 79.15c-.07-.78.11-1.65.48-2.52l.03 4.02a3.31 3.31 0 0 1-.51-1.5m8.96-8.58a7.12 7.12 0 0 1 1.19-.11c.76 0 3.25.18 3.36 2.55.09 1.98-1.35 4.76-4.62 6.86l.07-9.3m3.36 26.19c-.8.85-1.91 1.34-3.32 1.48l-.05-11.57c.37-.11.73-.23 1.1-.36l.35.29s3.2 2.68 3.32 6.05c.06 1.68-.41 3.06-1.4 4.11" fill="#80b4d5"/><path d="M146.4 92.16l-2.19-2.35-1.79-1.91-.16-.18c-.68-.76-1.38-1.56-1.29-2.62.06-.78.64-1.39 1.35-1.42h.07c.9 0 1.47.78 1.64 1.78.14.84.15 1.61.15 1.61l4.68-4.55c-1.4-3.14-3.92-4.64-6.75-4.64H142c-1.85.03-3.58.76-4.85 2.06-1.36 1.4-2.09 3.35-2.06 5.51.03 2.08.96 4.13 2.83 6.27l1.38 1.51 2.93 3.27c.7.84 1.05 1.6 1.09 2.32.03.48-.11.91-.4 1.21-.26.27-.61.42-1.03.42-1.95 0-2.94-2.8-3.25-3.83-.21-.7-.31-1.28-.31-1.28l-.95.92-3.55 3.44-.37.36.21.48c.79 1.82 1.81 3.25 3.04 4.26 1.44 1.17 3.18 1.77 5.16 1.77h.16c1.99-.03 3.84-.84 5.22-2.28 1.43-1.48 2.19-3.48 2.15-5.62-.06-3.14-1.7-5-3.01-6.49m-47.35.48l.04-8.98a37.29 37.29 0 0 1 4.16.45l.83.14.04-.84.22-4.45.04-.79h-16.4l.04.79.1 1.98c-1.39-2-3.44-3.08-5.88-3.08h-.11c-1.86.03-3.58.76-4.85 2.06-1.36 1.4-2.09 3.35-2.06 5.51.03 2.08.96 4.13 2.83 6.27l1.38 1.52 2.93 3.26c.7.84 1.05 1.6 1.09 2.32.03.48-.12.91-.4 1.21-.26.27-.61.42-1.03.42-2.12 0-3.1-3.33-3.25-3.83-.2-.69-.3-1.29-.3-1.29l-4.5 4.37-.37.36.21.48c.79 1.82 1.81 3.25 3.04 4.26 1.44 1.17 3.18 1.77 5.16 1.77h.17c1.98-.03 3.84-.84 5.22-2.28 1.42-1.48 2.19-3.48 2.15-5.62-.06-3.14-1.7-5-3.01-6.49l-2.19-2.35-1.79-1.91-.16-.18c-.68-.76-1.38-1.56-1.29-2.62.06-.78.65-1.39 1.35-1.42h.07c1.06 0 1.53 1.06 1.67 1.92a10.1 10.1 0 0 1 .12 1.48l1.11-1.08 2.81-2.73v.18l.05.84.83-.14s2.2-.37 4.16-.45l.04 8.98c-.05 5.51-.33 12.79-.33 12.87l-.03.78h6.44l-.03-.78c0-.07-.28-7.36-.33-12.87m32.98 5.1l-2.25-4.84c.94-.65 1.71-1.52 2.28-2.56.75-1.4 1.1-3.04 1.03-4.89-.06-1.69-.59-3.25-1.55-4.5-.93-1.22-2.19-2.06-3.65-2.45-.97-.29-2-.36-3.25-.36h-4.59-.77l.02.77.15 12.72a292.27 292.27 0 0 1-.23 11.06l-.07 1.75-4.14-12.51-4.17-13.26-.16-.54h-1.68l-.16.54c-.02.06-1.7 5.67-4.17 13.26l-4.41 13.33-.33.99h6.32l.15-.56 1.6-5.92h3.69l1.6 5.92.15.56h11.87v-.76l-.04-2.77-.04-7.17 1.63 3.83 2.62 6.39.19.48h6.6l-.56-1.1-3.68-7.42m-22.65-3.45l.46-1.77.46 1.77h-.93zm16.66-5.85c-.24.09-.5.14-.81.16l.03-4.77c.44.02.7.09.87.15.69.24 1.11 1.02 1.11 2.08 0 1.52-.75 2.21-1.2 2.37m-55.8 4.66c.36-1.72 3.72-9.84 5.45-13.89l.45-1.05h-6.57l-.16.54-2.13 7.11-2.13-7.11-.16-.54H58.4l.45 1.05c1.73 4.05 5.09 12.18 5.45 13.89.37 1.75.08 9.53-.07 12.39l-.04.79h6.16l-.04-.79c-.18-3.55-.42-10.7-.07-12.39m-12.18-1.15l-4.17-13.26-.16-.54h-1.68l-.16.54c-.02.06-1.7 5.67-4.17 13.26l-4.41 13.33-.33.99h6.32l.15-.56 1.6-5.92h3.69l1.6 5.92.15.56h6.32l-.33-.99c-.02-.07-2.35-7.01-4.41-13.33m-5.65 2.35l.46-1.77.46 1.77h-.93zm-7.24-.88c0-5.56-3.42-10.19-5.57-11.81l-.1-.07.02-.02c2.33-2.45 3.7-5.31 3.86-8.06.13-2.39-.52-4.41-1.89-5.86-1.4-1.48-3.51-2.26-6.11-2.26H23.47l.05.84s.14 2.25.2 4.28c-2.51 2.94-3.7 5.81-3.64 8.79.05 2.85 1.43 5.3 3.8 6.78-.02 3.83-.22 13.63-.51 19.35l-.04.83h7.31c2.9 0 5.4-.42 7.43-1.26 2-.82 3.79-2.35 5.05-4.29 1.35-2.09 2.06-4.59 2.06-7.24m-22.6-14.27c-.11-1.26.36-2.71 1.25-4.06l.05 6.56c-.73-.59-1.22-1.48-1.31-2.5m8.96-8.95c.55-.12 1.08-.18 1.59-.18 1.75 0 3.66.77 3.75 2.93.1 2.22-1.58 5.37-5.42 7.58l.08-10.34m4.05 26.8c-.95 1.01-2.3 1.55-4 1.63l-.06-12.3a15.11 15.11 0 0 0 1.57-.51l.53.44c.14.11 3.34 2.79 3.46 6.34.06 1.77-.46 3.29-1.51 4.4" fill="#ddf2fa"/><path d="M69.49 92.98c.47-2.24 5.49-14.03 5.49-14.03H70.1l-2.85 9.52-2.85-9.52h-4.88s5.03 11.79 5.49 14.03c.45 2.15-.01 11.82-.05 12.58h4.58c-.04-.76-.5-10.43-.05-12.58M53.16 78.95h-.56l-4.18 13.27-4.41 13.34h4.7l1.75-6.48h4.85l1.75 6.48h4.7l-4.41-13.34-4.18-13.27M51.44 95.1l1.44-5.49 1.44 5.49h-2.88zm46.93-12.18c2.18 0 5 .47 5 .47l.22-4.45H88.77l.22 4.45s2.81-.47 5-.47c.12 1.83.12 5.47.08 9.75-.05 5.58-.33 12.89-.33 12.89h4.88l-.33-12.89c-.04-4.27-.03-7.92.08-9.75m47.47 9.73c-.67-.77-3.39-3.6-3.97-4.26-.75-.86-1.76-1.87-1.64-3.36.1-1.21 1.02-2.07 2.07-2.11 1.39-.06 2.32 1.06 2.48 2.53l3.18-3.09c-.81-1.58-2.54-3.76-5.94-3.72-3.41.04-6.22 2.75-6.17 6.8.03 2.21 1.22 4.16 2.64 5.78.67.77 3.38 3.65 4.33 4.8.73.88 1.21 1.79 1.26 2.76.07 1.33-.82 2.42-2.18 2.42-2.91 0-3.98-4.41-3.98-4.41l-3.55 3.44c1.38 3.2 3.73 5.63 7.67 5.57 3.63-.06 6.71-3.06 6.63-7.13-.06-2.82-1.49-4.49-2.83-6.01m-17.03 0c2.03-1.12 3.64-3.5 3.51-7.13-.11-3.19-2.05-5.58-4.65-6.25-.88-.27-1.86-.33-3.05-.33h-4.59c.02.69.16 6.09.16 12.74 0 5.49-.23 11.09-.23 11.09l-.11 2.78h4.68l-.03-2.77-.05-9.04h.76s.97 2.15 2.33 5.41l2.62 6.41h4.85l-3.69-7.44-2.52-5.46m-2.51-3.48a3.72 3.72 0 0 1-1.22.22h-.61l.05-6.29h.52c.64 0 1.04.09 1.35.2.94.33 1.61 1.3 1.61 2.79 0 1.77-.9 2.78-1.69 3.08m-16.19-10.24h-.56l-4.18 13.27-4.41 13.34h4.7l1.75-6.48h4.85l1.75 6.48h4.7l-4.41-13.34-4.18-13.27m-1.73 16.15l1.44-5.49 1.44 5.49h-2.88zm-26.4-6.7c-.75-.86-1.76-1.87-1.64-3.36.1-1.21 1.02-2.07 2.07-2.11 1.39-.06 2.32 1.06 2.48 2.53l3.18-3.09c-.81-1.58-2.54-3.76-5.94-3.72-3.41.04-6.22 2.75-6.16 6.8.03 2.21 1.22 4.16 2.64 5.78.67.77 3.38 3.65 4.32 4.8.73.88 1.21 1.79 1.26 2.76.07 1.33-.82 2.42-2.18 2.42-2.91 0-3.98-4.41-3.98-4.41l-3.54 3.44c1.38 3.2 3.73 5.63 7.67 5.57 3.63-.06 6.7-3.06 6.63-7.13-.05-2.82-1.49-4.49-2.82-6.01-.67-.77-3.39-3.6-3.98-4.26m-42.87-6.12s-.02.01-.04.04c-1.45 1.38-3.18 2.54-4.97 3.35.52.43 3.62 3.25 3.75 6.93.08 2.26-.69 3.88-1.72 4.97-1.26 1.33-3.07 1.96-5.37 1.88l-.06-13.72c6.42-1.45 11.59-7.06 11.88-12.29.22-3.97-1.95-7.29-7.2-7.29H24.32l.21 4.62c-2.49 2.84-3.71 5.63-3.65 8.49.05 2.92 1.6 5.12 3.8 6.34 0 3.66-.21 13.95-.51 19.85h6.47c2.8 0 5.2-.41 7.13-1.2 3.66-1.51 6.62-5.53 6.62-10.8 0-5.63-3.62-9.94-5.25-11.17M24.68 83c-1.51-.48-2.73-1.88-2.89-3.74-.24-2.67 1.7-5.72 4.3-7.59a6.85 6.85 0 0 0-1.48 2.56c.06 2.44.08 5.94.07 8.77m5.55-.83c-.62.27-1.46.85-2.49.87 1.27-.83 2.47-1.79 2.92-2.41l.08-11.01c3.72-1.04 6.79.32 6.93 3.34.13 2.98-2.3 6.95-7.44 9.21" class="Z"/><path d="M23.49 80.66a3.31 3.31 0 0 1-.51-1.51c-.07-.78.11-1.65.48-2.52l.03 4.02m85.87 13.69h.93l-.47-1.77-.46 1.77m-56.94 0h.93l-.46-1.77-.46 1.77zm73.57-9.95c-.09-.03-.21-.07-.38-.09l-.03 3.93c.11-.02.21-.05.31-.09.33-.12.96-.71.96-2.02 0-.89-.32-1.54-.86-1.72" class="W"/><path d="M98.37 82.92c2.18 0 5 .47 5 .47l.22-4.44H88.77l.22 4.44s2.81-.47 5-.47c.11 1.83.12 5.47.08 9.75-.05 5.58-.33 12.89-.33 12.89h4.88l-.33-12.89c-.04-4.27-.03-7.92.08-9.75m-4.19 22.22l.31-12.46c.05-4.93.02-8.13-.08-9.78l-.02-.4h-.4c-1.69 0-3.7.27-4.6.41l-.17-3.53h13.93l-.17 3.53c-.9-.14-2.91-.41-4.6-.41h-.4l-.02.4c-.1 1.65-.13 4.85-.08 9.78l.31 12.46h-4zm51.66-12.48c-.67-.77-3.39-3.6-3.98-4.26-.75-.86-1.76-1.88-1.64-3.36.1-1.21 1.02-2.07 2.07-2.11h.1c1.33 0 2.22 1.1 2.38 2.53l3.18-3.09c-.8-1.57-2.51-3.72-5.84-3.72h-.1c-3.41.04-6.22 2.75-6.17 6.8.03 2.21 1.22 4.16 2.64 5.78.67.77 3.38 3.65 4.33 4.79.73.88 1.21 1.79 1.26 2.76.07 1.33-.82 2.42-2.18 2.42-2.91 0-3.98-4.41-3.98-4.41l-3.55 3.44c1.36 3.15 3.67 5.57 7.52 5.57h.15c3.63-.06 6.71-3.06 6.63-7.13-.06-2.82-1.49-4.49-2.83-6.01m.59 10.79a6.21 6.21 0 0 1-4.39 1.92h-.15c-3.12 0-5.48-1.7-7.01-5.05l2.84-2.75c.46 1.31 1.7 4.04 4.19 4.04a2.58 2.58 0 0 0 1.88-.78c.51-.54.77-1.28.72-2.08-.05-.98-.5-1.96-1.36-3.01-.61-.74-1.92-2.17-2.97-3.31l-1.36-1.49c-1.68-1.92-2.51-3.72-2.54-5.51-.03-1.84.59-3.5 1.73-4.67 1.05-1.08 2.48-1.68 4.02-1.7h.09c2.86 0 4.46 1.69 5.32 3.22l-2.4 2.33c-.4-1.29-1.39-2.11-2.63-2.11h-.12c-1.3.05-2.36 1.13-2.48 2.5-.13 1.56.82 2.64 1.59 3.5.05.06.11.12.16.18.28.32 1.03 1.11 1.82 1.94l2.16 2.31c1.25 1.42 2.67 3.03 2.72 5.74.04 1.83-.61 3.53-1.82 4.78m-36.2-13.95l-.41-1.56-.41 1.56-1.44 5.49-.14.53h3.97l-.14-.53-1.44-5.49zm-1.84 5.6l1.44-5.49 1.44 5.49h-2.88zm-26.4-6.7c-.75-.86-1.76-1.88-1.64-3.36.1-1.21 1.02-2.07 2.07-2.11h.1c1.33 0 2.22 1.1 2.38 2.53l3.18-3.09c-.8-1.57-2.51-3.72-5.84-3.72h-.1c-3.41.04-6.22 2.75-6.16 6.8.03 2.21 1.22 4.16 2.64 5.78.67.77 3.38 3.65 4.32 4.79.73.88 1.21 1.79 1.26 2.76.07 1.33-.82 2.42-2.18 2.42-2.91 0-3.98-4.41-3.98-4.41l-3.55 3.44c1.36 3.15 3.67 5.57 7.51 5.57h.15c3.63-.06 6.7-3.06 6.62-7.13-.05-2.82-1.49-4.49-2.82-6.01-.67-.77-3.4-3.6-3.98-4.26m4.58 15.05a6.23 6.23 0 0 1-4.39 1.92h-.15c-3.12 0-5.48-1.7-7.01-5.05l2.84-2.75c.46 1.31 1.7 4.04 4.19 4.04.74 0 1.4-.28 1.88-.78.51-.54.77-1.28.72-2.08-.05-.98-.5-1.96-1.36-3.01-.61-.74-1.92-2.16-2.97-3.31l-1.36-1.5c-1.68-1.91-2.51-3.72-2.54-5.51-.03-1.84.59-3.5 1.73-4.67 1.05-1.08 2.48-1.68 4.02-1.7h.09c2.86 0 4.46 1.69 5.32 3.22l-2.4 2.33c-.4-1.29-1.39-2.11-2.63-2.11h-.12c-1.3.05-2.36 1.13-2.47 2.5-.13 1.56.82 2.64 1.58 3.5.05.06.11.12.16.18.28.32 1.02 1.11 1.81 1.94l2.16 2.32c1.25 1.42 2.66 3.03 2.72 5.74.04 1.83-.61 3.53-1.82 4.78M53.29 89.5l-.41-1.56-.41 1.56-1.44 5.49-.14.53h3.97l-.14-.53-1.44-5.49zm-1.85 5.6l1.44-5.49 1.44 5.49h-2.88zm1.72-16.15h-.56l-4.18 13.27-4.41 13.34h4.7l1.75-6.48h4.85l1.75 6.48h4.7l-4.41-13.34-4.18-13.27m4.21 26.19l-1.67-6.17-.08-.31h-5.5l-.08.31-1.66 6.17H44.6l4.23-12.78 4.06-12.87 4.06 12.87 4.23 12.78h-3.79zm12.11-12.16c.47-2.24 5.5-14.03 5.5-14.03h-4.88l-2.85 9.52-2.85-9.52h-4.88s5.03 11.79 5.49 14.03c.45 2.15-.01 11.82-.05 12.58h4.58c-.04-.76-.5-10.43-.05-12.58m-4.1 12.16c.09-2.03.44-10.22.02-12.24-.41-1.99-4.24-11.09-5.27-13.52h3.92l3.17 10.57.41-1.35 2.76-9.22h3.92c-1.03 2.44-4.85 11.53-5.27 13.52-.42 2.01-.07 10.21.02 12.24h-3.69zm44.71-26.19h-.56l-4.18 13.27-4.41 13.34h4.7l1.75-6.48h4.85l1.75 6.48h4.7l-4.41-13.34-4.18-13.27m4.2 26.19l-1.67-6.17-.08-.31h-5.49l-.09.31-1.67 6.17h-3.79l4.23-12.78 4.06-12.87 4.06 12.87 4.23 12.78h-3.79zM39.13 82.29l-.04.04c-1.45 1.38-3.18 2.54-4.97 3.35.52.43 3.62 3.25 3.75 6.93.08 2.26-.69 3.88-1.72 4.97-1.19 1.26-2.88 1.89-5 1.89h-.37l-.06-13.72c6.42-1.45 11.59-7.06 11.88-12.29.22-3.97-1.95-7.29-7.2-7.29H24.32l.21 4.62c-2.49 2.84-3.71 5.63-3.65 8.49.05 2.92 1.6 5.12 3.8 6.34 0 3.66-.21 13.95-.51 19.85h6.47c2.8 0 5.2-.41 7.13-1.2 3.66-1.51 6.62-5.53 6.62-10.8 0-5.63-3.62-9.94-5.25-11.17m-14.46.7v-.04c-1.49-.41-2.73-1.87-2.89-3.7-.24-2.67 1.7-5.72 4.3-7.59a6.85 6.85 0 0 0-1.48 2.56c.06 2.44.08 5.94.07 8.77m12.89 20.79c-1.87.77-4.21 1.16-6.93 1.16H24.7a582.71 582.71 0 0 0 .49-19.34v-.3l-.26-.14c-1.9-1.05-3.11-2.79-3.45-4.86.46 1.56 1.73 3.02 3.71 3.29l-.07-9.3c.39-1.19 1.5-3.13 3.25-4.45-1.36.58-2.58 1.4-2.58 1.4-1.68 1.21-2.99 2.79-3.76 4.42.58-1.5 1.53-3.01 2.88-4.55l.13-.15v-.2l-.19-4.09h10.54c2.26 0 4 .62 5.16 1.86 1.12 1.18 1.65 2.87 1.54 4.89-.13 2.44-1.38 5.01-3.5 7.24-2.17 2.28-5.01 3.91-7.98 4.58l-.4.09v.41l.06 13.72v.49l.49.02h.39c2.28 0 4.08-.69 5.37-2.05.9-.95 1.95-2.65 1.86-5.34-.11-3.18-2.3-5.72-3.36-6.78 1.48-.75 2.89-1.72 4.13-2.85.77.66 1.84 1.88 2.78 3.51.89 1.55 1.95 4.02 1.95 6.98 0 2.4-.64 4.66-1.86 6.53-1.11 1.72-2.69 3.07-4.45 3.79m.6-30.83c-.11-2.54-2.09-4.18-5.05-4.17a9.1 9.1 0 0 0-2.52.37l-.37.1v.38l-.08 10.84c-.28.75-1.69 2.13-3.59 3.17 1.86-.15 3.09-.72 3.83-1.05 5.56-2.45 7.91-6.61 7.78-9.63m-9.48 9.79c.85-.57 1.63-1.4 1.97-2.01l.08-11.11c.83-.23 1.64-.35 2.38-.35 2.57 0 4.44 1.35 4.55 3.69.13 2.98-2.33 6.88-7.47 9.15-.62.27-.83.4-1.51.63m100.12 9.93c2.03-1.12 3.64-3.5 3.51-7.13-.12-3.19-2.05-5.58-4.65-6.25-.88-.27-1.86-.33-3.05-.33h-4.59c.02.69.16 6.09.16 12.74 0 5.49-.23 11.09-.23 11.09l-.11 2.78h4.68l-.03-2.77-.05-9.04h.76s.97 2.15 2.33 5.41l2.62 6.4h4.85l-3.68-7.44-2.52-5.46m1.64 12.47l-2.52-6.15-2.34-5.42-.11-.25h-1.46v.42l.05 9.04.03 2.34h-3.81l.1-2.34c0-.06.23-5.67.23-11.11l-.14-12.31h4.16c1.15 0 2.09.06 2.93.31h0c2.53.66 4.23 2.95 4.33 5.86.11 3.07-1.09 5.53-3.29 6.74l-.34.19.15.35s.91 2.07 2.53 5.47l3.38 6.83h-3.88zm-3.95-22.22c-.43-.15-.89-.22-1.48-.22h-.29-.24-.41v.42l-.05 6.3v.42h.42.2.43c.51-.01.95-.09 1.36-.25.91-.34 1.96-1.46 1.96-3.47 0-1.58-.71-2.77-1.89-3.19m-.22 6.26a3.72 3.72 0 0 1-1.22.22h-.42-.2l.05-6.29h.52c.64 0 1.03.09 1.35.2.94.33 1.61 1.3 1.61 2.79 0 1.77-.9 2.78-1.69 3.08" class="a"/><path d="M42.9 59.46l1.16 7.36 7.35-1.17-6.63 3.37 3.39 6.63-5.27-5.26-5.26 5.27 3.39-6.64-6.64-3.37 7.35 1.17 1.16-7.36z" fill="#f48e39"/><path d="M41.88 68.75l-3.62-1.84 4.01.63.63-4.01.64 4.01 4-.63-3.62 1.84 1.85 3.62-2.87-2.88-2.87 2.87 1.85-3.61z" fill="#f9d448"/></svg>