<svg xmlns="http://www.w3.org/2000/svg" width="136.025" height="155.365" viewBox="0 0 102.019 116.523" xmlns:v="https://vecta.io/nano"><path d="M51.06 0l-1.323 1.1L1.994 41.088.108 42.664l1.886 1.581 47.743 39.991 1.323 1.103 1.321-1.103 47.752-39.991 1.886-1.581-1.886-1.576L52.381 1.1 51.06 0z" fill="#040000"/><path d="M3.317 42.664L51.06 82.649l47.75-39.985L51.06 2.683 3.317 42.664z" fill="#fff"/><path d="M73.151 21.175v42.979l25.659-21.49-25.659-21.489z" fill="#005a99"/><path d="M93.226 42.664l-8.123-1.147 1.739-3.819-3.524 2.394-1.18-7.134-1.17 7.134-3.128-1.606 1.862 4.187-1.862 4.175 3.128-1.605 1.17 7.138 1.18-7.138 3.524 2.396-1.739-3.824 8.123-1.151z" fill="#fff"/><path d="M38.025 24.971h29.867v-3.787H34.147v39.881l3.878 3.457V24.971zm1.421 1.417v14.524h20.962v-3.833h-17.26v-6.895h24.744v-3.796H39.446zm0 15.872v23.528l3.702 3.307V46.086h17.26V42.26H39.446z" fill="#040000"/><g fill="#005b94"><path d="M85.89 109.122v-5.378h-7.865v5.939h6.81l1.055-.561zm-1.57-1.067h-4.732v-2.679h4.732v2.679zm-6.295 2.123v6.345h1.563v-4.715h2.235l2.129 4.715h1.728l-2.855-6.345h-4.8zm-2.047-8.554v14.899h1.566v-13.272h8.823v6.176l-1.423.751h-1.585l2.846 6.345h1.735l-2.223-4.926 2.223-1.17v-8.803H75.978zm-75.978 0v14.899h1.559v-13.272h10.4v-1.627H0zm2.042 7.2h7.39v-1.629H3.607v-1.818h8.352v-1.633H2.042v5.08zm0 .501v7.198h1.565v-5.571h5.825v-1.627h-7.39zm13.759-7.701h1.565v14.899h-1.565zm-2.043 0h1.562v14.899h-1.562zm8.267 12.777h7.859v-5.998-.063l-1.561.874v3.552h-4.726v-7.39h8.338v-1.632h-9.91v10.657zm-2.044-12.777v14.899h11.955v-9.328l-1.568.878v6.825h-8.817v-11.647h10.385v-1.627H19.981zm34.282 2.12v12.779h1.566v-11.147h3.51v-1.632h-5.076zm-5.561 0v1.632h3.52v11.147h1.56v-12.779h-5.08z"/><path d="M48.702 101.624h10.637v1.627H48.702zm12.839 0v14.899h11.96v-1.625H63.106v-11.647h10.395v-1.627h-11.96zm2.047 7.2h7.386v-1.629h-5.82v-1.818h8.347v-1.633h-9.913v5.08zm0 5.577h9.913v-1.635h-8.347v-1.815h5.82v-1.627h-7.386v5.077zm36.385-5.076h-8.345v-6.073h10.391v-1.628H90.056v9.328h8.347v1.82h-8.347v1.63h9.917v-5.077zm-7.865-5.581v5.08h8.345v6.074H90.056v1.625h11.963v-9.328h-8.343v-1.819h8.343v-1.632h-9.912zm-55.519 5.581v7.198h1.572v-5.571h4.73v5.571h1.566v-7.198h-7.868z"/><path d="M44.457 108.824v-7.2h-1.566v5.571h-4.73v-5.571h-1.572v7.2h7.868zm.482-7.2h1.57v14.899h-1.57zm-10.393 0h1.567v14.899h-1.567zm48.943-10.598h-.684v6.518h.684.004v-6.518h-.004zm.217 3.36v3.158h.68v-2.436h2.063v2.436h.691v-3.158h-3.434zm3.647-3.36h.675v6.518h-.675z"/><path d="M87.14 94.167v-3.141h-.002-.689v2.435h-2.063v-2.435h-.68v3.141h3.434zm-30.661-3.141h.688v6.518h-.688zm-.892 0h.682v6.518h-.682zm2.554 6.518h.681v-5.809h3.859v2.705l-.62.329h-3.027v2.775h.689V95.48h2.51l1.137-.601v-3.853h-5.229v6.518zm3.866-2.994l.464-.244v-2.354h-3.437v2.598h2.973zm-.219-.711h-2.065v-1.171h2.065v1.171zm9.665 2.757h3.432v-4.644h-3.432v4.644zm.674-3.928h2.065v3.231h-2.065v-3.231zm-1.587 4.876h5.237v-6.518H70.54v6.518zm.701-5.809h3.85v5.082h-3.85v-5.082zm-3.026 2.815l.458-.244v-2.354h-3.431v2.598h2.973zm-.225-.711h-2.067v-1.171h2.067v1.171zm-3.647 3.705h.684l.004-5.809h3.852v2.705l-.614.329h-3.027v2.775h.682V95.48h2.511l1.137-.601v-3.853h-5.229v6.518zm24.615-1.79l.327.724-.405 1.067h.679l.676-1.791h-1.277zm2.958-3.801l-1.367 3.585h3.22l-1.37-3.585h-.483zm-.421 2.882l.664-1.738.665 1.738h-1.329zm1.45-3.809h-1.579l-1.451 3.809h-1.37l.314.703h1.465l1.448-3.803h.768l2.211 5.809h.683l-2.489-6.518zm-2.482 4.728l-.682 1.791h.673l.412-1.067h2.581l.411 1.067h.668l-.677-1.791h-3.386zm-36.452 1.063h-.534l-2.922-4.865h-.194v5.592h.694v-3.42l2.055 3.42h.008H54.7v-6.518h-.689v5.791zm-3.858-5.082h0v-.003h.53l2.932 4.869h.186v-5.575h-.683v3.427l-2.064-3.427h-1.589v6.518h.688v-5.809zm31.134 5.082h-.529l-2.926-4.865h-.191v5.586h-.209v-5.803-.002h.524l2.932 4.868h.19v-5.575H80.4v3.427l-2.07-3.427h-1.58v6.518h1.58v-3.42l2.066 3.42h.004 1.574v-6.518h-.687v5.791zm19.146-5.791l-1.451 2.407-1.45-2.407h-1.578v6.518h.679v-5.809-.002h.535l1.814 3.033 1.824-3.033h.535v.002 5.809h.678v-6.518h-1.586zm.505.926l-1.956 3.246-1.953-3.246h-.186v5.592h.688v-3.42l1.451 2.407 1.451-2.407v3.42h.697v-5.592h-.192zm-70.139-.926h.682v6.518h-.682zm.897 0h.682v6.518h-.682zm-4.809.931l-1.369 3.589h3.226l-1.369-3.589h-.488zm-.421 2.878l.666-1.74.663 1.74h-1.329zm1.458-3.809h-1.585l-1.452 3.809h-1.366l.321.711h1.451l1.453-3.811h.772l2.212 5.809h.681l-2.487-6.518zm-3.988 4.736l.327.715-.407 1.067h.678l.677-1.782h-1.275zm1.499 0l-.678 1.782h.678l.407-1.067h2.583l.401 1.067h.679l-.679-1.782h-3.391zm-14.05-4.736H6.153v6.518h5.232v-6.518zm-.69 5.805H6.844v-5.096h3.851v5.096zm-3.645-.219h3.441v-4.656H7.05v4.656zm.686-3.944H9.8v3.231H7.736v-3.231zm32.548 3.944h3.439v-4.656h-3.439v4.656zm.684-3.944h2.066v3.231h-2.066v-3.231zm3.652-1.642h-5.232v6.518h5.232v-6.518zm-.689 5.805h-3.854v-5.096h3.854v5.096zM.896 94.396v3.148h.682v-2.437H3.64v2.437h.694v-3.148H.896zm3.641-3.37h.691v6.518h-.691zm-4.537 0h.683v6.518H0zm4.334 3.151v-3.151h-.689l-.005 2.435H1.579v-2.435H.896v3.151h3.438zm12.218-3.151h-.904l-1.752 2.077v-2.077h-.688v3.965l3.344-3.965zm.084 6.518L14.8 93.445l-1.592 1.882v2.217h.688v-1.949l.726-.861 1.261 2.81h.753zm.229 0h.761l-1.868-4.16 1.991-2.358h-.917l-1.882 2.239 1.915 4.279zm-4.549-6.518h.687v6.518h-.687zm5.978 0h.688v6.518h-.688zm4.554 6.518h.755l-1.862-4.16 1.986-2.358h-.917l-1.884 2.239 1.922 4.279zm-.238 0l-1.834-4.099-1.585 1.882v2.217h.689v-1.949l.718-.861 1.257 2.81h.755zm-.076-6.518h-.902l-1.752 2.077v-2.077h-.689v3.965l3.343-3.965zm10.694 0v6.518h4.088l1.141-.603v-5.313l-1.141-.602h-4.088zm4.54 1.04v4.436l-.614.329h-3.239v-5.096h3.239l.614.331zm-3.641-.11v4.656h2.968l.469-.245v-4.169l-.469-.242h-2.968zm2.748 3.943h-2.064v-3.231h2.064v3.231z"/></g></svg>