<svg xmlns="http://www.w3.org/2000/svg" xmlns:xlink="http://www.w3.org/1999/xlink" width="352" height="284" viewBox="0 0 120.625 93.543" xmlns:v="https://vecta.io/nano"><style><![CDATA[.B{fill:#ac9e43}.C{fill:#fff}.D{fill:#000021}.E{fill-rule:evenodd}]]></style><g class="C"><path d="M110.239 14.858l.955-2.034.822 2.091c.005.011.397.994 1.029 1.894.213-.111.493-.231.843-.328.34-.083.634-.119.93-.119a3.48 3.48 0 0 1 .915.122 3.27 3.27 0 0 1 1.623 1.039c.334.391.579.87.724 1.417.184.736.151 1.374.102 1.849-.118 1.144-.575 2.209-1.286 2.997a4.85 4.85 0 0 1-.691.637 5.88 5.88 0 0 1 1.233 2.393 6.97 6.97 0 0 1 .219 1.519c.978.923 2.968 1.732 2.968 1.732s-2.484.892-3.337 1.603a6.52 6.52 0 0 1-.228.548l-.014.031-.068.127c-.201.381-.539 1.019-1.213 1.409-1.67.966-3.902 2.711-5.309 4.15a4.51 4.51 0 0 1-2.134 1.286l-.371.1c-.278.066-.575.106-.903.124l-.241.007c-.32 0-.64-.038-.954-.114l-1.501.19c-7.549.961-12.626 1.725-18.476 2.718V18.002c.529-.27 1.03-.644 1.326-1.021l1.699-2.15 2.059 1.795c1.01.883 1.697 1.656 2.229 2.509.254.427.466.871.636 1.339.187-.267.394-.513.62-.739.675-.666 1.402-1.091 2.024-1.419l6.32-3.298 1.76 3.532 1.874-.137c.845-.083 1.587-.262 2.012-.721.508-.546 1.518-2.227 1.804-2.834"/><path d="M20.584 80.078l-1.798 13.465 1.899-1.571c5.146-4.26 11.662-7.529 18.348-9.204.601-.15 1.059-.52 1.226-.987.125-.351.072-.733-.143-1.022-.025-.034-.054-.065-.082-.098a43.3 43.3 0 0 0 22.835 6.479c8.293 0 16.051-2.329 22.656-6.366-.206.286-.258.661-.135 1.007.167.467.626.837 1.226.987 6.686 1.675 13.203 4.944 18.349 9.204l1.899 1.571-1.799-13.465 10.648-2.481-1.014-1.207c-2.339-2.783-5.171-5.095-8.231-6.747l1.374-2.571a1.7 1.7 0 0 0 .171-1.296c-.113-.413-.381-.76-.756-.979a92.35 92.35 0 0 0-4.872-2.885c2.599-5.578 4.055-11.792 4.055-18.342C106.44 19.545 86.894 0 62.869 0 50.016 0 38.447 5.596 30.465 14.477c-1.267-4.631-5.186-7.441-10.569-7.441-2.258 0-3.941.58-5.068 1.171-1.131-.796-2.783-1.59-4.87-1.59-.36 0-.726.024-1.086.073-3.459.468-5.874 2.977-5.874 6.103 0 2.909 2.032 4.623 3.232 5.177.631.292 1.425.457 2.035.547l-.023.444c-.069 1.672-.054 2.402.052 3.358-1.037.609-5.527 2.081-7.378 2.445 1.38.316 3.855.764 7.398 2.99-2.392.306-3.88 1.055-5.269 1.979C1.187 30.967.138 32.849.012 35.174c-.215 3.967 2.574 7.027 6.783 7.441.39.038.789.058 1.185.058 1.487 0 2.957-.265 4.367-.787a2.5 2.5 0 0 1 .87-.162 1.71 1.71 0 0 1 .976.294c1.228.829 2.996 3.165 4.544 6.419l.704-1.35c.422 5.255 1.781 10.248 3.908 14.816-1.768.988-3.729 2.114-4.956 2.894-.376.219-.644.566-.757.98-.118.435-.055.907.157 1.27l1.389 2.597c-3.061 1.651-5.892 3.963-8.231 6.746l-1.014 1.207 10.647 2.481z"/></g><path d="M44.646 63.37l-.199-.282-.975-.249.312.39c.172.049.694.133.862.141m-.758-1.105l-.264-.408c-.421-.073-.798-.141-1.117-.28l.424.566a8.08 8.08 0 0 0 .957.122m-1.872-1.853c.112.164.647.33.981.42l-.351-.621c-.286-.041-.597-.146-.848-.43-.215.029-.469-.078-.653-.18l.465.705a2.01 2.01 0 0 0 .406.106m-1.247-1.879c.315.24.896.444 1.27.508l-.33-.708c-.365-.068-.785-.168-1.103-.505-.18-.011-.431-.11-.623-.198l.443.794.343.109m-.989-1.914c.273.311.946.566 1.458.577l-.246-.681c-.459-.007-1.052-.125-1.431-.527-.121.042-.287-.036-.45-.152l.33.725c.101.065.209.103.339.058m-.894-2.192c.239.298 1.089.711 1.625.77l-.179-.834c-.464-.003-.962-.266-1.404-.602-.123.06-.453-.138-.685-.296l.295.909c.099.036.142-.017.348.053m-.778-2.802c.33.483 1.155 1.227 2.076 1.696l-.13-.912c-.842-.414-1.409-1.19-1.811-1.727-.21.072-.387.169-.586.182l.138.782.313-.021m-.13-2.89c.261.53.656 1.162 1.946 2.074l-.019-.94c-.891-.635-1.521-1.435-1.774-1.948-.226.078-.482.194-.711.219l.026.684c.124-.003.331-.02.532-.089m.148-2.796c-.129.469.531 1.207 1.826 2.417l.079-.969c-.933-.6-1.479-1.707-1.752-2.261-.283.098-.389.33-.757.28l-.06.752a2.77 2.77 0 0 0 .664-.219m.442-2.571c-.077.407.436 1.262 1.56 2.232l.191-1.017c-1.014-.655-1.193-1.489-1.468-2.047-.271.094-.626.296-.978.302l-.135.813c.239-.064.599-.17.83-.283m.733-2.661c-.076.401.42 1.236 1.506 2.187l.244-.973c-1.013-.655-1.267-1.544-1.541-2.101-.301.104-.688.46-1.077.425l-.195.812c.234-.027.711-.109 1.063-.35m-.317-2.47c.278-.044.885-.151 1.262-.302-.15.349.103.775 1.377 1.973l.266-.837c-.985-.649-1.219-1.399-1.49-1.95-.311.107-.73.357-1.185.362l-.13.419-.1.335m47.732 2.294c-.247.136-.78.445-1.083.715.022-.379-.362-.693-1.968-1.383l.036.877c1.147.274 1.624.898 2.067 1.324.256-.207.564-.586.99-.746l-.021-.438-.021-.349m-.917 3.642c-.038-.481-.651-.868-2.084-1.5l-.026.931c1.053.301 1.731.954 2.068 1.331.222-.117.628-.534 1.022-.627l.016-.86-.996.725m-.462 3.056c-.039-.483-.213-.825-1.771-1.591l-.078.816c1.031.329 1.557 1.188 1.894 1.566.338-.179.778-.688 1.227-.941l.07-.824-1.342.974m-.455 2.736c.021-.363-.36-.85-1.666-1.374l-.145.904c1.127.275 1.705.834 1.83 1.348.246-.2.646-.613 1.355-.945l.127-.862-1.501.929m-.599 3.113c.055-.177.11-.354.048-.469-.115-.219-.419-.671-1.649-1.091l-.161.726c1.092.376 1.474.857 1.564 1.161.149.143.094.32.155.436.235-.191 1.039-.925 1.47-1.043l.166-.784c-.316.156-1.219.625-1.593 1.064m.933 1.759l.081-.308-1.7.761c.026-.084.149-.487-1.573-1.066l-.247.874c1.498.408 1.683.653 1.689.927.259-.21 1.016-.46 1.452-.616l.298-.572zM62.869 14.154c-16.249 0-29.421 13.171-29.421 29.42S46.62 72.995 62.869 72.995 92.29 59.823 92.29 43.574s-13.172-29.42-29.421-29.42m0 57.292c-15.369 0-27.872-12.503-27.872-27.872S47.5 15.702 62.869 15.702s27.872 12.503 27.872 27.872-12.503 27.872-27.872 27.872m42.563-27.881c0 23.532-19.077 42.608-42.608 42.608S20.216 67.097 20.216 43.565 39.292.957 62.824.957s42.608 19.076 42.608 42.608m-1.936 0c0-22.426-18.246-40.672-40.672-40.672S22.152 21.139 22.152 43.565s18.245 40.672 40.672 40.672 40.672-18.245 40.672-40.672" class="B"/><path d="M92.919 43.57c0 16.596-13.454 30.05-30.05 30.05s-30.05-13.454-30.05-30.05 13.454-30.05 30.05-30.05 30.05 13.454 30.05 30.05M62.869 3.564c-22.095 0-40.006 17.911-40.006 40.006s17.911 40.006 40.006 40.006 40.006-17.911 40.006-40.006S84.964 3.564 62.869 3.564" class="D"/><g class="B"><path d="M103.495 43.571c0 22.437-18.189 40.626-40.626 40.626S22.243 66.008 22.243 43.571 40.432 2.945 62.869 2.945s40.626 18.189 40.626 40.626M62.869.968c-23.529 0-42.603 19.074-42.603 42.603S39.34 86.173 62.869 86.173s42.603-19.074 42.603-42.602S86.398.968 62.869.968"/><path d="M62.824 68.649h0" class="E"/><path d="M62.824 54.713h0"/><path d="M62.824 54.713h0z"/></g><g class="C"><path d="M62.824 68.15h0m0-13.437h0" class="E"/><path d="M62.824 68.15h0"/></g><path d="M26.896 81.512a.52.52 0 0 1-.06-.018v.006l.06.012" class="B"/><g class="C"><path d="M62.824 68.15h0m0-13.437h0" class="E"/><path d="M62.824 68.15h0"/></g><path d="M98.753 81.512a.61.61 0 0 0 .061-.018v.006l-.061.012M20.49 70.049c-3.191 1.565-6.266 3.95-8.799 6.964l1.85.432c1.902-2.337 4.717-4.54 7.72-5.938l-.771-1.458zm18.086 10.938l-2.613.134c-6.449 1.468-13.596 6.113-15.638 8.146l-.258 1.959c5.392-4.463 12.068-7.727 18.731-9.396.436-.11.623-.383.542-.492-.154-.206-.43-.362-.764-.351m66.582-10.938l-.771 1.458c3.003 1.398 5.819 3.601 7.72 5.938l1.85-.432c-2.533-3.014-5.607-5.399-8.799-6.964M89.686 81.12l-2.613-.134c-.335-.011-.61.145-.763.351-.082.11.105.383.541.492 6.663 1.669 13.339 4.934 18.731 9.396l-.258-1.959c-2.042-2.033-9.19-6.678-15.638-8.146m2.539.124l6.138.303-6.138-.303" class="B"/><g class="C"><path d="M21.262 71.507c-3.003 1.398-5.819 3.601-7.721 5.938l-.017-.004.554.128c1.855-2.205 4.594-4.246 7.44-5.579l-.256-.483zm83.125 0c3.003 1.398 5.819 3.601 7.721 5.938l.017-.004-.554.128c-1.855-2.205-4.594-4.246-7.439-5.579l.255-.483z" class="E"/><path d="M100.216 79.271a.35.35 0 0 0-.144-.285C90.063 72.404 75.441 68.152 62.824 68.15s-27.239 4.254-37.249 10.836c-.087.064-.143.168-.143.285 0 .058.014.113.039.161l.242.459h.003a.35.35 0 0 1-.04-.161c0-.121.061-.229.154-.292 10.687-6.849 23.385-10.824 36.994-10.824s26.307 3.975 36.994 10.824c.093.063.154.171.154.292a.35.35 0 0 1-.04.161h.003l.242-.459a.35.35 0 0 0 .039-.161"/><path d="M106.228 67.309C92.419 58.708 78.63 54.712 62.825 54.713S33.23 58.708 19.421 67.309c-.07.048-.213.166-.238.263l.273.52c0-.146.117-.274.238-.363 13.721-8.542 27.429-12.516 43.131-12.519 15.701.003 29.409 3.977 43.131 12.519.121.089.238.217.238.363l.272-.52c-.024-.097-.167-.215-.238-.263" class="E"/></g><path d="M103.988 79.335l7.583-1.765c-1.855-2.205-4.594-4.246-7.44-5.579l2.062-3.9c0-.146-.117-.274-.238-.361-13.722-8.542-27.429-12.517-43.131-12.52-15.702.003-29.409 3.978-43.131 12.52-.121.087-.238.215-.238.361l2.062 3.9c-2.846 1.333-5.585 3.374-7.44 5.579l7.583 1.765-1.176 8.742-.022.164c2.262-1.977 6.284-4.579 11.235-6.405a39.67 39.67 0 0 1 1.726-.592l-6.138.303a2.24 2.24 0 0 1-.389-.035c-.021-.003-.041-.008-.06-.012-.17-.038-.31-.101-.375-.192l-.748-1.416-.242-.459a.35.35 0 0 1-.039-.161c0-.117.056-.221.143-.286 10.01-6.581 24.632-10.833 37.249-10.836h-.001.001c12.617.003 27.239 4.255 37.248 10.836.088.065.144.169.144.286a.35.35 0 0 1-.039.161l-.242.459-.748 1.416c-.065.091-.205.154-.374.192-.02.004-.04.009-.061.012a2.24 2.24 0 0 1-.389.035c-.266 0-3.24-.16-6.138-.303.586.186 1.162.384 1.725.592 4.952 1.826 8.974 4.428 11.236 6.405l-.022-.164-1.176-8.742z" class="D"/><path d="M32.766 70.285a2.18 2.18 0 0 1-.591.496c-.27.113-.52.175-.751.182-.555.01-.965-.256-1.23-.797l-.247-.504c-.125-.229-.275-.342-.448-.339.071-.09.094-.212.069-.365a.99.99 0 0 0-.062-.197l-.236-.483c-.256-.522-.211-1.003.134-1.443.145-.181.344-.347.596-.499a2.25 2.25 0 0 1 .759-.165c.559-.002.966.258 1.222.78l.236.483c.126.228.275.341.448.339-.07.09-.094.211-.069.364a.97.97 0 0 0 .062.197l.247.506c.248.526.202 1.007-.139 1.445m-.997-1.516c-.125-.228-.275-.34-.448-.338.074-.092.098-.213.07-.365a1.1 1.1 0 0 0-.062-.196l-.224-.456c-.079-.164-.186-.269-.32-.318s-.263-.044-.385.016-.2.155-.243.291-.026.286.054.449l.223.455c.126.228.274.341.448.338-.074.092-.098.214-.07.365a1.11 1.11 0 0 0 .062.197l.224.456c.081.167.189.273.322.32a.47.47 0 0 0 .627-.307c.045-.134.026-.284-.055-.451l-.223-.456zm6.743-.677c-.33.124-.682.116-1.058-.023.059-.207.061-.383.007-.526-.065-.17-.231-.34-.498-.512a.45.45 0 0 0-.008-.282c-.045-.119-.134-.204-.269-.255s-.262-.053-.385-.006-.21.138-.248.272c-.047.154-.025.351.065.59.225.594.497.965.817 1.113a.57.57 0 0 1-.315.284c-.143.055-.301.05-.474-.012-.093.163-.211.271-.353.325s-.281.051-.425-.005c.027-.393-.04-.804-.202-1.232-.169-.448-.37-.746-.604-.896.075-.27.027-.63-.142-1.077-.162-.428-.383-.778-.662-1.052a.56.56 0 0 1 .313-.29c.142-.054.302-.051.48.009.214-.226.483-.4.807-.523.37-.14.72-.183 1.048-.131.34.061.56.212.658.455s.233.374.403.393c-.079.083-.111.2-.097.354.006.064.02.132.043.202.064.227-.011.45-.224.667.188.008.338.061.451.16.047.044.084.093.109.15.061.185.18.276.356.275.009.001.054.079.135.234.101.199.206.365.313.496.169.201.354.349.558.444-.187.185-.387.318-.599.399m-2.309-3.121c-.033-.089-.1-.15-.201-.183a.45.45 0 0 0-.307.011.45.45 0 0 0-.271.262c-.058.149-.048.327.029.531s.187.341.328.411a.44.44 0 0 0 .376.016.46.46 0 0 0 .238-.192c.055-.089.064-.18.029-.273s-.119-.174-.248-.236c.055-.135.064-.251.027-.347m5.289 1.957c-.088.151-.201.248-.339.289a.57.57 0 0 1-.42-.042c.058-.396.02-.817-.114-1.264-.14-.466-.324-.783-.55-.951.096-.266.074-.632-.065-1.098-.134-.447-.334-.819-.6-1.118a.57.57 0 0 1 .327-.266.59.59 0 0 1 .442.054.61.61 0 0 1 .345-.29c.135-.041.275-.026.42.042-.058.395-.02.817.115 1.263.139.466.323.783.55.952-.097.266-.075.632.064 1.098.135.446.334.819.6 1.118-.084.137-.192.225-.326.266s-.288.024-.449-.053m4.18-5.434a1.04 1.04 0 0 0-.182-.355c.03-.13.104-.209.225-.237s.264-.003.429.074c.068-.129.16-.208.277-.234.136-.031.283-.001.439.091-.081.074-.146.205-.196.394-.066.232-.075.452-.028.661.014.057.03.11.05.161-.206.229-.346.435-.418.616-.045.121-.081.309-.107.565.136.321.371.581.703.781a2.33 2.33 0 0 0 .454.209l.048.294c.038.169.106.311.204.424.09.098.248.219.475.363-.071.113-.197.191-.378.232-.153.035-.315.021-.485-.042-.168.139-.302.22-.402.243s-.261.013-.47-.033c.063-.207.077-.384.043-.535-.032-.141-.114-.288-.247-.441a10.47 10.47 0 0 0-.458-.471l-.217.62c-.05.192-.058.359-.026.5.034.149.119.303.257.462a.48.48 0 0 1-.311.222c-.133.031-.285.015-.455-.048a.53.53 0 0 1-.329.226c-.145.034-.294.019-.448-.044a1.14 1.14 0 0 0 .281-.48c.069-.208.083-.402.042-.583-.021-.093-.059-.176-.113-.248.368-.35.582-.823.642-1.416-.18-.272-.406-.488-.679-.646a1.55 1.55 0 0 0-.352-.155l-.048-.237c-.051-.225-.12-.389-.207-.493-.053-.064-.182-.159-.388-.286.1-.154.227-.248.379-.283.129-.03.266-.003.412.078.106-.126.226-.203.359-.234s.27-.002.4.087c-.031.163-.034.296-.012.396.043.189.246.441.609.756.195-.445.271-.763.228-.954M56.5 62.748c-.093.059-.154.165-.179.316a.96.96 0 0 0-.01.212l.008.08c-.016.288-.152.529-.408.723s-.568.31-.938.347a2.2 2.2 0 0 1-.994-.123c-.132.134-.272.208-.419.223-.152.015-.291-.022-.416-.113.128-.374.169-.788.122-1.244-.048-.479-.166-.821-.353-1.027.141-.242.188-.601.14-1.077-.047-.455-.17-.853-.37-1.193.103-.118.231-.185.383-.201s.3.03.455.135c.27-.165.576-.265.921-.3.394-.039.746.011 1.057.151s.482.342.515.604.127.422.282.481c-.093.063-.153.171-.179.323-.01.062-.013.131-.01.205.004.236-.128.432-.394.588.193.063.335.15.424.261.034.047.058.096.072.149.039.261.136.42.291.48m-1.491-2.074a.3.3 0 0 0-.151-.231.48.48 0 0 0-.303-.065.46.46 0 0 0-.329.183c-.095.126-.131.297-.109.514s.093.384.211.488a.46.46 0 0 0 .36.113c.111-.011.204-.052.282-.125s.112-.157.102-.256-.071-.202-.18-.299c.088-.112.127-.22.117-.322m-.476 2.846c.106.105.231.15.375.136.114-.012.211-.06.289-.145s.112-.182.101-.293c-.012-.119-.076-.235-.191-.347.09-.134.13-.258.118-.373a.36.36 0 0 0-.158-.27.45.45 0 0 0-.313-.08c-.143.015-.257.084-.339.209-.097.146-.133.345-.108.595.026.255.101.443.226.568m6.367.335c-.207.11-.456.182-.748.216-.297-.007-.552-.056-.766-.148-.518-.218-.787-.632-.807-1.242l-.018-.563c-.021-.263-.111-.43-.27-.499.105-.056.176-.16.213-.31a1.02 1.02 0 0 0 .023-.211l-.017-.537c-.029-.507-.149-.908-.36-1.202a.75.75 0 0 1 .458-.189.56.56 0 0 1 .388.149c.129-.111.264-.169.409-.174a.59.59 0 0 1 .388.137c-.17.353-.247.775-.231 1.267l.016.508c.017.265.107.433.27.507-.105.053-.177.154-.213.305a.67.67 0 0 0-.024.212l.017.514c.006.182.062.327.169.435a.47.47 0 0 0 .351.132c.135-.005.25-.056.341-.154.099-.115.146-.263.14-.445l-.016-.515c-.021-.264-.111-.431-.27-.5.105-.058.176-.161.213-.311.014-.063.022-.133.024-.212l-.017-.508c-.016-.492-.12-.909-.312-1.25a.57.57 0 0 1 .378-.162.63.63 0 0 1 .413.148.41.41 0 0 1 .322-.171.69.69 0 0 1 .439.159c-.109.205-.181.47-.216.792a3.49 3.49 0 0 0-.023.428l.017.538c.021.264.113.432.277.505-.106.053-.177.154-.213.304a.79.79 0 0 0-.031.211l.018.563c.011.589-.233 1.014-.732 1.273m3.76.007a.61.61 0 0 1-.414.166.56.56 0 0 1-.384-.174c.181-.357.279-.766.295-1.228.016-.482-.057-.839-.218-1.072.176-.22.273-.574.289-1.06.015-.462-.055-.876-.212-1.245.123-.103.259-.152.407-.147.153.005.299.07.439.194a1.34 1.34 0 0 1 .668-.176c.103.004.22.026.351.067l.319.092a1.42 1.42 0 0 0 .326.047c.173.006.314-.018.423-.072.013.219-.024.346-.112.38.038.104.055.212.052.324a.63.63 0 0 1-.271.51c-.042-.122-.142-.232-.302-.329s-.322-.149-.487-.155c-.334-.011-.506.147-.517.474l-.012.36a.5.5 0 0 0 .139.397c.097.094.222.143.375.148.251.009.481-.084.69-.28.023.063.033.13.031.199a.51.51 0 0 1-.167.354.49.49 0 0 1 .143.364c-.003.07-.017.133-.044.19-.211-.225-.442-.343-.694-.351-.338-.011-.513.168-.525.539l-.014.773c.021.368.095.62.223.757-.123.102-.255.152-.395.147a.6.6 0 0 1-.402-.193m4.743.253c-.143.107-.284.153-.423.14a.56.56 0 0 1-.373-.197c.203-.345.326-.748.37-1.208.046-.48-.005-.841-.152-1.083.19-.209.308-.556.354-1.041.044-.459-.001-.878-.134-1.255.129-.095.267-.136.415-.122s.294.088.426.221c.243-.109.469-.154.678-.135a1.31 1.31 0 0 1 .345.09l.313.11c.104.035.212.058.323.068a.89.89 0 0 0 .426-.046c0 .22-.045.343-.134.372.031.107.042.216.031.326-.021.214-.121.378-.302.493-.034-.125-.127-.24-.281-.347s-.312-.169-.476-.184c-.332-.033-.514.115-.545.44l-.034.359c-.016.169.021.304.113.404s.214.157.366.173c.25.023.486-.056.706-.238a.52.52 0 0 1 .018.201.5.5 0 0 1-.188.342c.093.113.133.237.12.372-.006.07-.025.133-.055.187-.197-.238-.421-.369-.671-.393-.337-.032-.523.137-.558.506l-.061.771c-.002.368.056.624.175.768a.57.57 0 0 1-.403.123c-.143-.013-.273-.086-.389-.217m6.173.961c-.131-.02-.21-.075-.237-.162a1.57 1.57 0 0 0 .255-.624c.042-.265.004-.494-.116-.688a.71.71 0 0 0-.515-.345c-.224-.035-.427.019-.599.167s-.279.355-.321.619a1.62 1.62 0 0 0 .043.672c-.049.075-.141.102-.276.081s-.301-.09-.487-.203c-.099.068-.215.091-.349.07a1.05 1.05 0 0 1-.489-.235c.68-.497 1.077-1.102 1.19-1.814a1.64 1.64 0 0 0 .023-.341c.589-.525.931-1.086 1.026-1.685.034-.211.022-.378-.033-.499a.54.54 0 0 1 .398-.1c.138.022.257.101.356.238.137-.099.273-.138.407-.117a.55.55 0 0 1 .353.22c-.09.098-.152.252-.186.464-.095.599.055 1.239.452 1.92-.035.09-.063.201-.084.331-.113.712.076 1.411.569 2.095-.199.072-.378.096-.538.07-.133-.021-.237-.079-.31-.174-.212.049-.39.064-.532.04m-.373-3.328a1.7 1.7 0 0 0-.379.81c.105-.029.19-.039.255-.028s.143.046.233.106c.046-.285.009-.581-.109-.888m6.273 4.546c-.072-.11-.201-.188-.39-.233a1.19 1.19 0 0 0-.246-.033l-.346.013a1.6 1.6 0 0 1-.373-.039 1.36 1.36 0 0 1-.616-.35c-.156.086-.302.112-.438.08a.56.56 0 0 1-.342-.247c.249-.314.426-.695.534-1.144.113-.474.113-.84.002-1.1.227-.191.398-.524.511-.997.082-.345.102-.671.061-.977l-.038-.264c.137-.078.275-.099.416-.066a.61.61 0 0 1 .355.269c.153-.086.299-.113.439-.079a.57.57 0 0 1 .342.247c-.249.313-.427.694-.534 1.144-.112.469-.112.834-.001 1.093-.233.199-.405.557-.516 1.073-.066.31.036.498.305.562.136.032.288.019.454-.041s.299-.152.397-.277c.134.183.175.386.123.605-.026.108-.069.207-.129.298.092.098.101.252.03.463m3.928.99c-.231.031-.487.016-.77-.048-.274-.103-.497-.232-.67-.385-.409-.375-.524-.85-.343-1.424l.169-.537c.066-.251.036-.436-.092-.554.113-.017.214-.088.302-.216a1.07 1.07 0 0 0 .09-.186l.162-.513c.174-.555.537-.873 1.091-.954.23-.032.488-.015.775.049.272.111.493.246.664.403.407.383.523.852.349 1.407l-.161.513c-.066.252-.036.436.091.554-.113.016-.213.088-.301.216-.035.055-.065.116-.091.186l-.169.537c-.182.552-.547.869-1.096.952m.321-1.786c.066-.251.036-.436-.091-.554.117-.015.217-.087.301-.217a1.03 1.03 0 0 0 .091-.185l.152-.483c.054-.173.049-.324-.014-.452s-.16-.213-.29-.254a.47.47 0 0 0-.377.044c-.125.069-.215.19-.269.363l-.152.484c-.066.252-.036.436.091.554-.117.015-.217.087-.301.216a1.03 1.03 0 0 0-.091.185l-.152.484c-.056.177-.051.329.013.455a.47.47 0 0 0 .285.249c.13.04.257.027.382-.039s.214-.189.27-.366l.152-.484zm4.893 1.52c-.141-.057-.274-.063-.398-.021-.133.053-.231.158-.295.315l-.132.327c-.12.298-.028.509.278.632.156.064.327.085.511.064s.318-.079.401-.174a.61.61 0 0 1 .046.578.8.8 0 0 1-.176.27c.063.065.044.195-.058.39a.86.86 0 0 0-.351-.236 1.47 1.47 0 0 0-.318-.088l-.331-.04a1.47 1.47 0 0 1-.345-.087c-.195-.079-.373-.222-.533-.43-.179.057-.339.057-.48 0a.59.59 0 0 1-.313-.3c.292-.27.524-.618.697-1.046.181-.447.236-.808.164-1.082.242-.146.453-.443.634-.89.174-.428.249-.841.227-1.236a.59.59 0 0 1 .433.001c.142.057.256.169.345.334.26-.037.488-.016.682.062.096.039.199.098.309.178l.266.201a1.42 1.42 0 0 0 .289.158c.157.063.296.089.417.075-.063.211-.139.317-.23.321.001.107-.019.212-.061.315a.61.61 0 0 1-.435.384c.006-.126-.05-.261-.167-.404a1.04 1.04 0 0 0-.412-.31c-.306-.124-.519-.036-.64.261l-.132.327c-.063.157-.065.297-.007.422s.159.214.301.271c.229.092.475.083.738-.028a.49.49 0 0 1-.037.192c-.051.126-.144.217-.278.274.057.134.059.264.008.391a.48.48 0 0 1-.106.164c-.111-.264-.282-.442-.511-.535m5.91 1.294c-.001-.496-.149-.819-.443-.969a.55.55 0 0 0-.423-.042c-.142.043-.246.129-.312.258-.062.121-.075.259-.039.417a.68.68 0 0 0 .323.359c.085.043.17.066.257.068-.029.129.004.297.098.502.04.085.091.176.153.273.303.441.335.895.096 1.362-.173.341-.446.57-.815.687-.411.124-.844.069-1.299-.163-.228-.116-.45-.274-.668-.473a1.71 1.71 0 0 1-.192-.237.61.61 0 0 0-.192-.181c-.099-.051-.234-.064-.404-.039.013-.045.03-.087.051-.127.111-.216.267-.332.468-.345-.016-.087.002-.181.054-.284.068-.132.178-.256.33-.374.012.312.103.592.272.841a1.42 1.42 0 0 0 .547.493c.18.093.349.131.508.114s.271-.088.337-.217.073-.307.018-.525c-.071-.17-.2-.303-.387-.399-.096-.049-.191-.081-.284-.096.114-.271.09-.491-.073-.662-.28-.43-.313-.856-.097-1.279.169-.33.438-.564.808-.699.39-.138.764-.117 1.12.065.209.107.392.265.549.474l.096.154a.35.35 0 0 0 .14.12c.058.029.149.067.27.11a.54.54 0 0 1-.04.104c-.069.137-.193.238-.37.305-.098.191-.25.326-.457.405m2.166 12.505v.001a1.11 1.11 0 0 1 .119.086c.16.134.241.292.19.424-.029.077-.097.134-.19.167v.005c.169-.038.309-.101.374-.192l.748-1.416h-.003c.025-.049.04-.103.04-.161 0-.121-.061-.229-.154-.292-10.687-6.849-23.385-10.824-36.994-10.824S36.517 72.59 25.83 79.439c-.093.063-.154.171-.154.292 0 .058.015.112.04.161h-.003l.748 1.416c.065.091.205.154.375.192v-.005c-.094-.033-.162-.09-.191-.167-.05-.132.03-.29.191-.424a1 1 0 0 1 .118-.086v-.001a66.96 66.96 0 0 1 8.567-4.605c7.401 6.208 16.929 9.961 27.345 9.961 10.404-.003 19.922-3.745 27.318-9.935 2.954 1.328 5.801 2.854 8.51 4.579m-35.87-10.435a67.54 67.54 0 0 1 6.472.315 27.9 27.9 0 0 1-6.428.757 27.87 27.87 0 0 1-6.45-.763 67.47 67.47 0 0 1 6.406-.309m.042 13.814c-9.575 0-18.37-3.321-25.313-8.863a66.35 66.35 0 0 1 15.065-4.172 29.32 29.32 0 0 0 10.25 1.847c3.597-.003 7.035-.659 10.218-1.839a66.41 66.41 0 0 1 15.067 4.188c-6.939 5.525-15.723 8.837-25.287 8.839m24.685-27.672l-3.265-.948-.596-.152c-6.374-1.656-13.25-2.569-20.866-2.57-9.141.001-17.23 1.298-24.646 3.644l-1.496.487a77.77 77.77 0 0 0-10.33 4.371c-1.936 1.044-5.588 3.079-7.459 4.269-.392.22-.416.675-.251.958l.541.988a1.04 1.04 0 0 1 .238-.262c13.809-8.601 27.598-12.597 43.403-12.596s29.595 3.995 43.404 12.596a1.04 1.04 0 0 1 .238.262l.541-.988c.165-.283.142-.738-.251-.958-1.847-1.175-3.726-2.273-5.637-3.306l-1.746-.926c-3.314-1.693-6.742-3.161-10.326-4.382l-1.496-.487zm29.137-27.892a5.81 5.81 0 0 0-.189-1.581c-.258-1.023-.886-2.086-1.926-2.812.601-.24 1.157-.603 1.603-1.102.607-.672.95-1.547 1.042-2.448.052-.503.056-.98-.075-1.502-.089-.338-.243-.706-.53-1.042a2.31 2.31 0 0 0-1.135-.727c-.532-.145-.999-.085-1.331-.005-.604.168-.921.411-1.014.475l-.29.212c-1.065-1.144-1.728-2.831-1.728-2.831s-1.385 2.955-2.703 3.681c-.194.107-.278.126-.558.196-.402.1-.913.184-1.299.225-.19.028-2.007.149-2.007.149l-.114.973-2.072-4.161-5.441 2.84c-.662.348-1.261.723-1.793 1.248-.813.812-1.277 1.903-1.472 3.084-.102.601-.165 1.246-.201 1.983l-.129-3.003c-.145-1.023-.443-1.97-.959-2.837-.527-.846-1.205-1.559-2.044-2.292l-1.293-1.127-1.066 1.349c-.677.864-1.985 1.581-2.967 1.749s-4.398.186-4.398.186l-.018 5.541-.18.011-.182-.018.004-7.443c0-.437 1.956-1.163 1.956-1.163s-2.247-1.789-3.389-3.384C77.781 11.647 76.671 9.3 76.671 9.3s-1.034 2.548-2.31 3.925c-1.133 1.222-2.965 2.507-2.965 2.507s1.783.826 1.783 1.366v3.322s-1.634-.487-2.984-1.832c-1.343-1.35-2.028-2.572-2.028-2.572l-3.723 3.175-3.421-.184c1.056-1.398 1.322-3.25 1.122-4.886-.165-1.353-.909-3.463-1.466-4.381l-1.093 2.602c-.261-.287-.194-.203-.64-.489-.501-.319-1.24-.568-1.988-.573a3.14 3.14 0 0 0-2.13.864c-.515.497-.824 1.054-1.048 1.614-.439 1.114-.564 2.264-.571 3.226.035.947-.073 1.958-.169 2.018s-.253.087-.253.087-.149-.024-.254-.087c-.103-.07-.203-1.069-.172-2.018-.007-.962-.13-2.112-.569-3.226-.225-.56-.533-1.121-1.057-1.614-.502-.49-1.344-.865-2.173-.862-.75.003-1.433.252-1.935.571-.446.286-.297.176-.688.526L44.882 9.74c-.678 1.055-1.372 3.223-1.503 4.311-.155 1.283.052 3.53 1.161 4.956l-1.458.082c-.929-1.438-2.179-4.33-2.179-4.33s-1.469 3.49-2.86 4.909c-.405-.817-1.047-1.648-1.978-2.377l-1.724-1.356s-.771 2.544-1.596 3.458-2.516 2.007-2.516 2.007 1.447 1.091 1.447 1.701v1.701c0 .375-.907 1.166-1.632 1.561-.429-.91-.983-1.665-1.661-2.259.739-.906 1.445-2.242 1.611-4.131.172-1.12 1.722-1.707 2.21-1.878-1.008-.238-2.147-1.012-2.336-1.893-.673-5.087-4.481-8.24-9.973-8.24-2.39 0-4.074.69-5.139 1.352-1.052-.851-2.679-1.771-4.799-1.771a7.24 7.24 0 0 0-.962.065c-2.986.403-5.072 2.536-5.072 5.185 0 2.441 1.692 3.873 2.695 4.336s2.63.566 2.63.566c-.025.233-.073 1.085-.081 1.304-.08 1.954-.042 2.559.11 3.736-.979.974-4.64 1.948-5.03 2.021 0 0 3.895.963 5.085 2.108-.163.747-.254 1.477-.317 2.309-.089-.01-.18-.017-.274-.02-.058-.003-.141-.005-.245-.005-3.336 0-7.316 1.591-7.56 6.076-.19 3.5 2.201 6.1 5.949 6.469a11.34 11.34 0 0 0 1.094.053c1.377 0 2.738-.245 4.046-.729.394-.146.795-.22 1.191-.22.585 0 1.096.174 1.507.462.582.407 2.104 1.256 4.013 5.447 0 0 .419-.995 1.477-2.848a12.44 12.44 0 0 1 .548-.88c5.815 2.814 10.975 5.438 14.059 12.175 0 0 10.536-6.698 32.788-10.656 17.405-3.099 22.78-4.167 36.622-5.93l1.689-.214a3.09 3.09 0 0 0 1.076.125 3.95 3.95 0 0 0 .833-.125c.895-.235 1.38-.527 1.935-1.095 1.459-1.493 3.759-3.294 5.516-4.312.484-.279.723-.803.9-1.13.104-.229.189-.42.254-.652.105-.376 2.201-1.177 2.201-1.177s-1.964-.9-1.946-1.355m-85.013-.538v2.385c-.323-.249-.592-.534-.713-.851-.138-.985-.361-1.867-.662-2.652.613.346 1.375.834 1.375 1.118M19.15 14.028c.519 0 .915.155 1.245.489.533.539.892 1.655.881 2.034s-.569.946-1.758 1.544c.305.189 1.928.965 1.928 1.617.062.776-.143 1.497-.54 1.896-.456.453-1.982.932-2.97.932a2.54 2.54 0 0 1-.218-.008v-7.188c0-1.088.779-1.316 1.432-1.316m-.109 21.677c-.945-.064-1.33-.488-1.33-1.466l.004-3.617.001-.485.002-2.875c0-.392.151-.392.241-.392 1.342 0 2.36.327 2.944.946.459.485.693 1.193.697 2.105 0 .715-1.728 1.436-2.001 1.539.615.195 1.967 1.105 2.017 1.711-.065.783-.34 1.449-.794 1.905-.419.422-.954.636-1.589.636a2.5 2.5 0 0 1-.192-.007m2.279 6.533c.904-1.075 1.966-1.789 3.578-2.6 1.997-1.005 8.141-1.64 8.625-1.645-1.311-.753-2.667-2.192-2.818-2.811-.134-.345-.056-1.245.137-1.605.633.32 1.355.781 1.762 1.282.819 1.01 1.808 3.438 1.808 3.438l3.795-3.435c.063.108.137.213.211.312.616.836 1.357 1.361 2.004 1.811l1.196.811 4.633-5.539.883 7.755-25.814 2.226z" class="B"/><path d="M32.859 30.605V27.71c0-.226-.102-.394-.239-.511-.36-.306-1.465-.618-1.687-.624.222-.009 1.316-.38 1.676-.658.142-.109.252-.329.252-.499v-2.421c0-.724-1.493-1.517-1.493-1.517.495-.106 1.737-.657 2.382-1.43s1.119-2.141 1.119-2.141c1.001.591 1.703 1.476 2.086 2.225.362.709.464 1.343.485 1.459 0 0 .899-.389 1.933-1.63a11.65 11.65 0 0 0 .887-1.21c.425-.675.643-1.295.643-1.295s.36 1.416 1.629 2.821a11.28 11.28 0 0 0 2.131 1.783s-.866.161-1.126.422-.276.382-.276 1.125l.004 1.897c0 .612 1.669.934 2.529 1.035-.86.138-2.534.295-2.534 1.166l.001 2.927c-.002.498.095.743.176.855.087.118.15.144.25.154.595.004 1.843-.207 1.843-.207.012-.004-4.1 4.829-4.1 4.829l-.348-.236c-.632-.43-1.251-.886-1.73-1.538-.323-.442-.565-.964-.695-1.596l-3.888 3.519s-.608-1.5-1.588-2.508c-.784-.806-1.993-1.425-1.993-1.425s1.671-.933 1.671-1.876M7.46 24.771c.141 0 2.246-.527 2.989-1.623l-.005-.037c-.203-1.528-.258-1.939-.171-4.061.039-1.009.295-2.303.656-3.298a2.46 2.46 0 0 1-.441.04c-.183 0-.364-.021-.54-.063-.625-.151-1-.469-1.274-.702-.23-.196-.328-.27-.452-.27-.06 0-.133.015-.22.046-.327.114-.298.714-.297.72l.054.829-.754-.345c-.081-.037-1.974-.939-1.974-3.213 0-2.014 1.646-3.643 4.001-3.961a5.96 5.96 0 0 1 .797-.054c2.353 0 4.012 1.402 4.711 2.126.712-.616 2.378-1.707 5.228-1.707 4.944 0 8.221 2.73 8.765 7.303.106.894 2.219 1.593 2.233 1.595-.012.002-2.053.721-2.119 1.642-.181 2.508-1.429 3.87-2.359 4.546 1.843.859 2.935 2.686 3.327 5.546.15 1.091 2.073 1.678 2.124 1.682-.013.002-2.059.793-2.232 1.804a9.05 9.05 0 0 0-.164 1.956c.055.974 1.586 1.856 1.586 1.856-.339 0-4.387.236-6.714 1.407-2.53 1.274-3.707 2.477-5.037 5.148l-.442.941-.452-.961c-.018-.04-.831-1.797-2.945-3.39-.618-.465-1.395-.711-2.25-.711a4.66 4.66 0 0 0-1.621.297c-1.169.433-2.386.653-3.617.653-.325 0-.653-.017-.972-.048-3.093-.304-4.991-2.334-4.837-5.172.264-4.871 5.792-4.936 6.519-4.905.67.029 1.218.256 1.218.256s-.755.269-1.161.442c-1.084.46-1.56 1.011-1.756 1.652-.088.284-.059.496.047.587a.51.51 0 0 0 .327.119c.164 0 .372-.075.658-.169.316-.104.708-.234 1.21-.327a3.23 3.23 0 0 1 .585-.056c.168 0 .329.016.479.044a13.58 13.58 0 0 1-.106-2.768c.077-1.461.184-2.503.505-3.67-.822-1.168-3.048-1.724-3.107-1.726m13.554 6.741c.008-.001 1.651-.629 1.682-1.163.081-1.44-.262-2.577-1.022-3.381-.824-.872-2.153-1.332-3.843-1.332-.883 0-1.475.653-1.475 1.627l-.004 2.976-.004 4.001c0 1.631.881 2.59 2.481 2.698.093.007.185.01.276.01.962 0 1.815-.346 2.466-1 .76-.765 1.174-1.892 1.167-3.173-.002-.433-1.501-1.208-1.724-1.263m-.108-13.416c.007-.001 1.496-.673 1.502-1.192.009-.755-.326-2.307-1.262-3.255-.562-.568-1.277-.856-2.124-.856-1.619 0-2.666 1.001-2.666 2.552v7.162c0 .803.238 1.269 1.452 1.269 1.202 0 3.076-.53 3.841-1.291.688-.691 1.021-1.821.887-3.02l-.002-.023c-.05-.761-1.589-1.342-1.628-1.346" class="C"/><path d="M28.044 16.559c-.498-4.18-3.361-6.868-8.275-6.868-3.691 0-5.254 1.93-5.254 1.93S12.421 8.873 9.1 9.322c-1.991.269-3.574 1.593-3.574 3.471 0 1.985 1.687 2.765 1.687 2.765s-.076-.976.627-1.222c.989-.346 1.056.632 2.224.912.72.172 1.42-.122 2.074-.573-.594.281-1.303 2.662-1.37 4.395-.09 2.174-.032 2.48.195 4.19-.924 1.558-2.607 1.511-2.607 1.511s1.786.047 2.749 1.645c-.337 1.144-.462 2.141-.549 3.777-.085 1.601.056 2.382.251 3.694-.145-.346-.745-.615-1.613-.455-1.411.262-1.931.804-2.633.246-.728-.58.165-2.719 2.176-2.903 0 0-5.945-.17-6.201 4.543-.143 2.635 1.641 4.384 4.392 4.654a9.86 9.86 0 0 0 4.369-.577c1.541-.57 3.185-.387 4.34.482 2.27 1.711 3.1 3.585 3.1 3.585 1.415-2.843 2.709-4.086 5.257-5.368 2.572-1.295 5.966-1.258 5.966-1.258-.614-.277-1.102-.994-1.11-1.558-.011-.778.03-1.229.171-2.046.234-1.364 1.943-1.721 1.943-1.721s-1.632-.113-1.837-1.614c-.392-2.849-1.482-4.89-4.031-5.506 0 0 2.791-.986 3.059-4.689.096-1.333 1.83-1.606 1.83-1.606s-1.788-.245-1.941-1.537m-12.182-1.215c0-1.883 1.332-3.046 3.162-3.046 3.138 0 3.893 3.432 3.878 4.612-.011.949-1.332 1.186-1.332 1.186s1.38.121 1.458 1.314c.135 1.217-.158 2.55-1.03 3.425-.888.883-2.916 1.434-4.189 1.434s-1.947-.495-1.947-1.763v-7.162zm2.935 22.087c-1.8-.122-2.942-1.247-2.942-3.192l.007-6.977c0-1.259.817-2.121 1.97-2.121 3.55 0 5.548 1.895 5.358 5.235-.056.969-1.388 1.135-1.388 1.135s1.426.348 1.431 1.261c.016 2.855-1.882 4.832-4.436 4.659" class="D"/><path d="M37.533 31.001c-.001.189.018.421.053.579.025.121.073.249.118.286.025 0 .065-.028.099-.042.037-.026.074-.045.169-.121l.615-.528.002-8.233c-.003-.314-.105-.546-.224-.709a1.23 1.23 0 0 0-.351-.324l-.575-.316c.099.551.097 1.042.097 1.413l-.003 7.995z" class="B"/><use xlink:href="#B" class="D"/><path d="M45.219 23.22l.247 2.187c-.335-.065-.761-.152-1.019-.292l-.001-1.684.773-.211zm.801 7.046c-.518.109-1.563.199-1.563.193-.006-.023-.006-.647-.006-2.432.249-.139.804-.391 1.258-.496l.311 2.735zm57.855 7.44c-14.325 1.818-19.879 2.955-36.422 5.927-10.072 1.809-17.699 3.886-22.919 5.789-6.504 2.371-9.341 4.396-9.341 4.396s-1.21-2.819-3.826-5.4c-2.666-2.629-6.022-4.084-8.82-5.46l25.714-2.135-1.893-15.05-.323-2.872c-.033-.507-.304-.947-.612-1.272-.309-.331-1.563-1.271-1.563-1.271l4.049-.447c.578-.087 1.041-.39 1.348-.808.308-.426.476-1.003.476-1.684.004-.121-.051-.264-.08-.32-.063-.002-.254.097-.45.37-.214.299-.582.672-1.019.973-.532.367-1.645.49-2.374.062-.343-.201-.66-.555-.858-.919-.391-.73-.565-1.68-.544-2.865.013-.863.115-1.764.481-2.78 0 0 .273 1.075.847 2.486.093-.158.977-1.235 1.527-1.58.36-.221.661-.38 1.283-.38a1.9 1.9 0 0 1 1.397.566c.346.327.552.726.736 1.176.36.914.478 1.935.483 2.775v.324c0 .546.007 1.012.085 1.489.068.472.245.871.447 1.096.139.145.296.244.558.309l.523.072.555-.079c.26-.059.425-.199.561-.34.136-.15.236-.365.317-.628.159-.527.181-1.29.178-2.011l.001-.328a8.12 8.12 0 0 1 .271-2.033c.189-.716.489-1.359.993-1.864.301-.303.763-.524 1.333-.524.642 0 1.262.29 1.683.657.423.359 1.097 1.247 1.144 1.3.082-.132.831-2.509.831-2.509.292.778.484 2.221.484 2.795-.001.894-.08 1.661-.287 2.298s-.51 1.151-1.021 1.461c-.337.213-.738.312-1.164.312-.772.01-1.312-.283-1.69-.638-.382-.349-.609-.711-.804-.871-.093-.087-.187-.147-.267-.172a.91.91 0 0 0-.081.346c0 .682.199 1.25.513 1.704.296.43.756.678 1.331.765a38.14 38.14 0 0 0 1.949.205l1.316.088 1.357.024-1.597.884a3.61 3.61 0 0 0-.545.459c-.334.338-.621.784-.652 1.328-.023.338-.133 1.317-.293 2.67l-.118.996c1.072-.19 2.069-.595 2.069-1.069l.002-1.081c0-.798.125-1.43.507-1.968.375-.537.93-.918 1.664-1.273 1.559-.756 3.236-1.907 4.294-2.965l.37-.4.287.453c.76 1.236 2.658 2.797 4.5 3.292l1.14.268s-1.196.63-1.401.819-.481.422-.633.693c-.1.181-.182.376-.182.56l.003 1.485c0 .166.06.362.194.484s.363.321 1.101.332c0 0 1.337-.003 1.361-.759v-8.204c0-.413-.13-.774-.374-1.011-.242-.243-.751-.467-.751-.467s1.077-.572 1.891-1.578c.698-.863 1.546-2.299 1.546-2.299s.775 1.761 1.755 2.71a38.04 38.04 0 0 0 1.843 1.63s-.789.231-1.01.48c-.281.318-.224 1.198-.224 1.198v7.606c0 .273.389.677 1.359.677 1.146 0 1.363-.527 1.372-.677v-4.771l.436.037a5.8 5.8 0 0 0 .532.022c2.238.002 4.666-.637 6.158-2.474l.291-.419.363.359c1.158 1.06 1.842 1.825 2.25 2.952.417 1.105.498 2.374.514 4.243 0 .165.099.31.228.437.156.157.725.33.956.347.229-.017.713-.158.987-.424.14-.136.173-.424.173-.424s.119-2.37.723-3.319c.503-.79.982-1.227 1.953-1.752l4.496-2.383 3.105 6.249-5.622 4.373c.194.747.449 1.313.988 1.928.914 1.04 2.024.947 2.024.947.224 0 .702-.185 1.142-.338.566-.188 1.254-.485 2.049-.775 0 0-.304.855-1.12 1.452-1.825 1.336-4.461 4.423-4.461 4.423l-.968-.494c-1.411-.77-2.255-1.371-3.073-2.499-.896-1.234-1.315-2.9-1.314-5.101 0-.026.007-.448.007-.448 0-.169-.091-.314-.223-.437a2.18 2.18 0 0 0-.851-.359c-.227.019-.835.238-.968.352-.132.122-.242.286-.251.498-.061 1.544-.132 2.609-.36 3.438-.219.804-.598 1.339-1.171 1.692-.376.24-.78.392-1.269.538-.654.193-1.148.415-1.574.765-.423.359-.785.809-1.128 1.604l-.305.784-.508-.613c-.497-.565-1.377-1.314-2.212-1.967s-2.767-2.006-2.767-2.006l-3.752 4.261-.338-.197c-1.159-.676-1.87-1.612-2.197-2.401s-.353-1.517-.353-1.956l.006-3.961c0-.373-.339-.774-1.35-.797 0 0-1.311.027-1.311.797l-.001 2.509a4.63 4.63 0 0 0 .101.958c.054.254.139.396.185.43.053.052.096.049.136.053 0 0 .362.052 1.906-.388l-4.139 4.979-.34-.206c-1.249-.731-2.05-1.782-2.356-3.003a34.31 34.31 0 0 0-2.892 2.915l-.291.325-.351-.262c-1.066-.777-1.719-1.437-2.095-2.188-.382-.751-.444-1.535-.444-2.484v-3.679c-.02-.304-.325-.647-.894-.784-.363-.086-.879-.239-1.143-.294l-.45 3.903-1.224 9.571 46.372-3.915 1.152 1.471-1.058.108zm2.1-9.858a8.23 8.23 0 0 0 1.812 1.192c-.232.027-.463.071-.694.123a4.95 4.95 0 0 0-1.233.52c-2.003.537-3.847.928-4.508.202-.179-.195-.503-.624-.641-.921l4.015-3.108c.221.688.564 1.399 1.249 1.992m-9.095 7.978l-9.163.769.136-.322c.478-.867 2.595-1.931 3.545-2.427.855-.44 1.457-1.415 1.698-2.396.182-.683.279-1.444.335-2.373a13.09 13.09 0 0 0 .202 1.692c.308 1.583.99 2.919 1.968 3.945.392.419.824.782 1.279 1.112m-11.694.983l-7.527.632 3.175-4.171c.039.025.072.051.091.061 1.049.716 3.362 2.437 4.184 3.388l.077.09zm-8.043.679l-18.682 1.571 1.502-11.711.013 4.623c.032.861.198 1.806.717 2.669s1.273 1.56 2.282 2.296l1.202.88 2.621-2.836c.527.82 1.261 1.526 2.162 2.04l1.164.688 3.419-3.869c.416 1.078 1.245 2.293 2.769 3.162l.831.487zm38.219-6.927c-.071.21-.074.414-.228.75-.074.163-.196.364-.407.561-.132.122-.35.244-.579.384l-.618.382c-.441.28-.957.686-1.399 1.042-1.125.905-2.232 2.28-2.232 2.28l-.348-.605-.617.929c-.024.04-.165.277-.483.519s-.953.506-1.678.494c-.717-.003-1.411-.409-1.798-.99-.392-.582-.544-1.291-.544-2.074.007-.907.384-1.907 1.043-2.697s1.619-1.347 2.881-1.343c1.211 0 2.202.399 2.875.802a8.53 8.53 0 0 1 .356.228c.032-.374.019-.579-.14-.739-.337-.342-1.788-.659-1.788-.659 1.079-.261 1.665-.733 1.665-.733-.078-.192-.273-.445-.612-.47-1.372-.106-2.388-.321-3.962-1.671-1.137-.976-1.286-2.882-1.286-4.324 0-.907.127-1.995.127-1.995s2.068.114 3.501-.745c1.294-.775 2.032-2.56 2.032-2.56s.531 1.602 1.681 2.216c0 0 .515-.44 1.006-.719.497-.273.832-.412 1.372-.263.497.138.904.786.867 1.644-.048 1.085-.397 1.818-1.255 2.471-.687.522-1.662.849-2.755.791-1.508-.08-2.487-.84-2.487-.843.036.492.299.991.702 1.23.397.235.729.249 1.334.416s1.501.418 2.206.876c.651.415 1.073.997 1.35 1.605.274.614.388 1.287.351 2.147-.012.297 1.634.955 1.634.955s-1.686.468-1.767.708" class="C"/><g class="B"><path d="M51.804 21.503c-.27.338-.583.788-.637 1.404l-1.637 17.81 6.463-.555-1.595-17.255c-.045-.6-.303-.997-.635-1.389-.339-.399-.977-.681-.977-.681s-.716.334-.982.666m.883.798a.59.59 0 0 1 .099-.096.57.57 0 0 1 .103.096c.174.192.304.411.328.699.074.987 1.681 16.358 1.681 16.358l-4.315.361L52.358 23c.024-.288.153-.507.329-.699m34.958 1.882c0-.675-.11-1.181-.34-1.542-.166-.253-.445-.52-.869-.711v8.054c.418.303.859.675 1.209 1.036v-6.837zm12.94 1.595l-1.406-3.146-.059 4.306 1.465-1.16zm8.048 8.656c-.406-.194-1.165-.354-1.688.223-.403.444-.127 1.181.633 1.125.811-.06.959-.121 1.918-.507 0 0-.458-.647-.863-.841M65.982 32.08c.011.02.02.034.026.041.082-.003.127-.028.18-.079l.007-.003.81-.739v-7.758c-.412-.274-.803-.629-1.155-.993l.002 8.559c-.004.469.061.844.13.972"/><path d="M79.035 27.682v2.419c-.002.39.021.78.074 1.039.049.271.133.375.183.411s.101.053.216.055c.139.006.7-.127.954-.202l.922-.318c.093-.04.123-.069.155-.092a.76.76 0 0 0 .144-.192c.072-.166.083-.358.08-.527v-2.588c-.009-.157-.038-.301-.184-.438-.376-.351-1.205-.36-1.205-.36-.666 0-1.023.239-1.15.36a.58.58 0 0 0-.189.433m1.185.374c.109-.017.181-.018.181-.018l.176.003-.007 2.065-.35.048v-2.098z"/></g><use xlink:href="#B" class="D"/><defs ><path id="B" d="M103.652 36.609l.445.604c-13.877 1.759-19.312 2.83-36.711 5.937-23.897 4.245-31.992 9.937-31.992 9.937s-2.87-6.554-11.268-9.799l24.647-2.067-2.24-18.37c-.09-1.413-1.564-2.234-1.564-2.234s1.887-.105 3.024-.284c1.404-.196 2.204-1.41 2.206-2.939-.003-.403-.2-.777-.478-.777-.953 0-1.055 1.68-2.81 1.68-1.414 0-2.039-1.306-2.039-3.605-.003-.558.024-1.153.048-1.803 0 0 .261 2.051.778 2.051.585 0 1.188-2.051 2.892-2.051 1.633 0 2.135 2.485 2.136 4.069-.001 1.517-.032 3.31 1.439 3.659 0 0-1.325.723-1.439 2.234-.098 1.277-1.31 14.281-1.691 18.35l7.459-.641-1.637-17.709c-.12-1.511-1.432-2.234-1.432-2.234 1.458-.349 1.432-2.142 1.43-3.659.002-1.584.504-4.069 2.142-4.069 1.705 0 2.308 2.051 2.886 2.051.517-.002.777-2.051.777-2.051l.05 1.803c0 2.299-.628 3.605-2.035 3.605-1.756-.002-1.857-1.68-2.816-1.68-.276 0-.476.374-.479.775.002 1.531.802 2.743 2.214 2.942 1.137.178 3.018.28 3.018.28s-1.469.819-1.558 2.237c-.08 1.222-1.566 13.03-2.153 17.675l46.751-3.917zm-1.382-4.738c.828.002 2.435-.924 2.435-.924-1.885 1.513-3.311 2.869-4.872 4.64-3.113-1.446-4.783-3.193-4.766-7.554l.004-.357c.001-.619-.532-1.115-1.198-1.141.663-.021 1.248-.508 1.259-1.128.159-2.888.719-3.813 2.589-4.793l3.949-2.085 2.743 5.504-5.574 4.325c.37 1.869 1.687 3.5 3.431 3.513m-3.5-4.074l2.413-1.908-2.384-5.297-.103 5.715c-.001.803.023 1.151.074 1.49m16.317 1.059c.066-1.27-.296-2.584-1.532-3.374-1.31-.837-2.4-.754-3.267-1.148-.967-.44-1.186-1.133-1.219-2.799 0 0 1.207 1.469 3.077 1.469 2.055 0 3.464-1.198 3.494-2.698.02-1.028-.328-1.368-.781-1.388-.479-.02-.72.276-.72.276s.824.026.647.591c-.126.403-.845.426-1.663.278-1.48-.268-1.968-1.716-1.968-1.716s-.648 1.211-1.948 1.985-3.154.73-3.154.73-.522 4.295 1.015 5.515c1.516 1.205 2.486 1.495 3.688 1.573.896.057 1.135 1.04 1.135 1.04s-.329.383-.767.557c0 0 .678.225.891.68.18.385-.034 1.65-.034 1.65s-1.378-1.451-3.588-1.451c-2.215 0-3.474 2.044-3.474 3.615 0 1.465.614 2.593 2.026 2.593 1.195 0 1.713-.832 1.713-.832s-.539.291-1.376.185c-.821-.104-1.094-.906-.807-1.562s1.043-.984 1.979-.775c.885.197 1.564 1.32 1.564 1.32s.733-.905 1.867-1.855c.955-.785 1.419-1.079 2.39-1.651.41-.242.622-.738.69-1.211.063-.434.984-.706.984-.706s-.888-.36-.862-.891m-34.049-2.321c.653-.021 1.18-.493 1.212-1.086l.009-4.239c2.435.097 5.354-.514 7.017-2.639 2.213 1.95 2.586 3.122 2.611 6.838.006.604.547 1.097 1.211 1.126-.65.022-1.197.495-1.229 1.087-.091 4.114-.604 4.752-2.478 5.303-1.384.405-2.314 1.018-3.026 2.703-1.427-1.626-5.043-4.04-5.043-4.04.892-.261.915-.931.918-1.306l.004-2.654c-.026-.593-.551-1.067-1.206-1.093m4.963 3.674c.801.506 1.508 1.256 2.111 1.943l.02-7.97c.002-1.436-.346-2.43-2.11-2.903l-.021 8.93zM32.01 32.427c1.259.642 2.202 1.692 2.904 3.191l4.123-3.732c.025 2.018 1.079 2.885 2.315 3.732l3.313-3.727s-.515.186-.977.186c-.478 0-.878-.408-.878-1.505v-2.955c.033-.59.55-1.06 1.2-1.082-.65-.023-1.17-.497-1.2-1.083v-1.813c0-1.182.192-1.516.878-1.711 0 0-2.08-1.509-2.792-3.373 0 0-1.175 2.066-2.561 2.995 0 0 .704.448.704 1.37l-.002 8.443-.753.651c-.201.152-.351.279-.601.279-.479 0-.603-.717-.603-1.276l.002-8.032c0-1.057-.025-2.847-2.041-4.43 0 0-.5 1.246-1.064 1.889-.561.66-1.689 1.109-1.689 1.109.675.199.93.623 1.02 1.354v2.491c0 .615-.537 1.111-1.206 1.137.673.022 1.206.52 1.206 1.136v2.895c0 1.233-1.298 1.861-1.298 1.861m41.623-5.892c.65.017 1.167.491 1.201 1.075v3.774c0 .341-.293 2.65 2.335 4.196l3.324-3.731s-.633.198-.984.198c-.805 0-.904-.88-.904-2v-2.389c.007-.609.541-1.106 1.209-1.123-.672-.027-1.209-.526-1.209-1.146v-7.584c0-1.182.196-1.515.881-1.709 0 0-2.082-1.494-2.794-3.353 0 0-1.177 2.046-2.559 2.979 0 0 .704.443.705 1.366l-.004 8.353c-.03.596-.55 1.067-1.201 1.094M61.618 25.46l-.001-1.064c.001-1.49.503-2.147 1.911-2.829 2.06-.999 3.446-2.1 4.399-3.036.906 1.337 2.837 2.94 4.753 3.44 0 0-1.413.805-1.414 1.929v1.499c.004.617.547 1.113 1.218 1.136-.669.025-1.214.521-1.217 1.133l-.001 2.51c.024 1.043.214 1.889.837 1.891.303.008.558-.035 1.009-.2l-3.302 3.727c-1.435-.853-2.182-2.082-2.258-3.54a36.93 36.93 0 0 0-3.597 3.541c-2.083-1.527-2.334-2.424-2.337-4.289v-3.692c-.032-.59-.557-1.056-1.205-1.081.648-.018 1.173-.491 1.205-1.075m3.764-4.175l.005 9.805c0 .872.15 1.493.626 1.493.225 0 .401-.093.535-.216l.953-.874-.001-8.25c-.75-.404-1.514-1.272-2.118-1.958"/></defs></svg>