<svg xmlns="http://www.w3.org/2000/svg" width="205.537" height="205.534" xmlns:v="https://vecta.io/nano"><path d="M102.769 203.884c-55.757 0-101.119-45.361-101.119-101.118S47.012 1.65 102.769 1.65s101.118 45.36 101.118 101.116-45.362 101.118-101.118 101.118" fill="#241a17"/><path d="M102.769 3.3c54.934 0 99.468 44.532 99.468 99.467s-44.534 99.467-99.468 99.467S3.3 157.701 3.3 102.767 47.837 3.3 102.769 3.3m0-3.3C46.102 0 0 46.101 0 102.767s46.102 102.767 102.769 102.767 102.768-46.101 102.768-102.767S159.436 0 102.769 0M63.58 164.77c0 1.283-.591 5.887 1.252 5.887 2.059 0 4.424-8.147 4.424-10.668 0-1.397-.073-1.948-1.042-2.419-1.287-.626-2.432.483-3.74.483-.914 0-1.846-.643-2.201-.893l-7.251-5.173c-.683-.522-.986-1.778-.913-2.757.036-.504.684-2.978-1.955-2.978-.408 0-3.899.45-7.083 1.528-3.021 1.017-5.879 2.129-5.589 3.507.465 2.202 3.062.825 8.379.825 1.081 0 2.265.132 3.04.658a80.7 80.7 0 0 1 2.508 1.828c.224.171.118.564-.052.751S42.85 166.325 42.85 166.325c-.701.666-1.307 1.136-2.688 1.136s-2.019-.404-2.862-.404c-.808 0-2.05.51-2.05 1.441 0 .835 1.099 1.481 1.511 1.835.41.361 7.462 5.892 7.931 6.251.607.462 1.486.841 1.951.841.611 0 1.97-.197 1.97-1.611 0-1.666-.897-2.438-.897-3.69 0-1.036 1.357-2.381 1.899-2.935l9.614-9.791c.288-.323.449-.218.752-.037s2.366 1.837 2.881 2.216c.872.643.718 1.901.718 3.193m19.159 2.343c0-2.274-2.31-3.428-4.499-3.428-1.366 0-3.244.751-3.244 2.522 0 2.179 2.965 3.425 4.929 3.425.99 0 2.814-.596 2.814-2.519m-5.141 4.405c-1.33-.797-4.68-1.812-5.897-1.812-1.03 0-2.003.64-2.003 1.596s.571 1.172 1.095 1.553.548.765.286 1.122a304.89 304.89 0 0 1-5.059 6.205c-.86.98-1.266.93-2.22.93s-2.913.099-2.913 1.694c0 1.484 3.146 2.737 5.109 3.631 1.884.86 4.394 1.665 5.109 1.6.784-.073 1.887-.381 1.887-1.574s-.647-1.718-1.341-2.437-.664-1.097-.165-1.718l6.277-7.783c1.433-1.815.906-2.361-.165-3.007m25.969-.937c-1.815 0-2.816 1.153-3.914 1.153-1.624 0-1.339-1.243-5.204-1.243-9.224 0-10.336 8.761-10.336 10.48 0 6.551 5.801 7.088 7.28 7.088 1.05 0 1.527-.287 2.195-.427s1.006.383.716.953c-1.735 3.478-4.104 4.916-6.205 4.916-1.528 0-2.759-1.142-2.421-1.477s1.896-.025 1.896-1.721c0-1.813-1.957-2.72-3.341-2.72s-3.056.859-3.056 3.152c0 1.885 1.878 5.252 7.663 5.252 10.948 0 14.178-12.14 17.185-21.068.778-2.302-.429-4.338-2.458-4.338m-7.401 12.513c-.571 1.051-1.336 2.245-3.341 2.245s-2.816-1.432-2.816-3.005c0-1.58 1.765-6.971 3.246-8.165s2.628-1.003 2.628-1.003c1.241 0 2.72.905 2.72 2.531s-1.861 6.349-2.437 7.397m18.478 1.217c.741 0 7.635-.428 9.977-1.837 1.921-1.155 2.245-2.36 2.245-3.689 0-4.069-4.011-5.371-7.124-5.371-6.482 0-11.816 5.196-11.816 11.389 0 5.74 4.926 7.769 8.305 7.769 5.948 0 8.934-4.224 9.756-5.73s-.41-1.796-.949-1.364c-.537.426-4.046 3.727-7.049 3.727-3.335 0-3.87-3.102-3.87-3.902 0-.513.121-.992.525-.992m3.772-8.604c1.289 0 3.294 1.266 3.294 3.233 0 .359-.144.785-.44 1.03-1.051.859-4.752 1.537-5.574 1.537-.468 0-1.005-.177-1.005-.86 0-1.454 1.483-4.94 3.725-4.94m24.885-11.354c-3.199 0-4.999 4.729-5.192 5.133s-.478.704-.716.263c-.404-.735-1.239-1.766-2.961-1.766-3.057 0-4.87 3.008-4.87 4.681s1.459 2.579 2.625 2.579c1.174 0 1.745-1.03 1.91-1.364s.383-.357.434.191l.962 7.509c.145 1.217-.034 1.826-.5 2.435s-1.446 1.258-1.324 2.184c.31 2.339 3.975.431 6.158-.468s4.799-1.86 4.799-3.435-2.043-1.434-2.541-1.434a1.1 1.1 0 0 1-1.147-.928c-.143-.678-.933-6.229-.933-8.488 0-2.158.836-2.34 1.242-1.824.441.554 1.111 1.181 2.018 1.181 1.933 0 3.044-1.279 3.044-3.011 0-1.742-.752-3.438-3.008-3.438m20.733-6.011c-3.484 0-7.339 3.937-9.883 3.937-.857 0-1.79-.394-1.79-1.752 0-2.612 2.757-4.584 3.183-4.584.204 0 .386.057.349.298-.045.289-.132.586-.132.835 0 .465.392 1.554 1.862 1.554 2.359 0 3.152-2.769 3.152-3.726 0-1.734-1.448-2.329-2.329-2.329-1.921 0-5.614 2.293-7.618 5.086-2.177 3.035-2.37 4.335-2.37 6.66 0 2.222 1.968 3.794 3.903 3.794 3.819 0 7.208-3.761 9.462-3.661 1.326.055 1.388 1.155 1.388 1.586 0 3.223-3.689 4.584-4.086 4.714-.391.13-.903.192-1.072.061-.142-.114.037-.349.037-.741s-.394-1.672-1.862-1.672c-.878 0-2.97 1.244-2.97 3.942 0 1.79 1.428 2.612 3.185 2.612 5.118 0 11.312-6.518 11.312-12.996 0-1.185-.427-3.618-3.721-3.618M30.725 57.225c-.771-.555-1.053-.696-1.47-.696-.41 0-1.035.377-1.499.377a1.12 1.12 0 0 1-1.076-.913c-.084-.458.126-.902.414-1.184s3.704-4.353 3.975-4.653c.268-.306.619-.525.982-.433.484.127.949.664.86 1.36-.1.8-.089 1.666.483 2.152l2.829 2.234c.412.27.947.468 1.575-.157s3.583-4.215 3.884-4.604c.306-.396.565-.973.163-1.361-.432-.411-3.096-2.629-3.332-2.808-.229-.181-.571-.415-.893-.415s-.45.074-.733.201c-.288.123-.576.283-.789.283s-.491-.081-.788-.377-.342-.858.018-1.411 3.402-4.157 3.759-4.478.61-.516.967-.516c.518 0 1.037.552 1.037 1.108s-.122.769-.122 1.183.301.641.573.857l8.68 7.163c.662.516.933.643 1.273.643s1.092-.377 1.557-.377.984.341.984 1.077-.984 1.787-2.058 3.149-2.005 2.451-2.686 2.451-1.126-.501-1.126-1.162.106-.411.106-.733-.127-.719-.501-1.04-2.58-2.074-2.847-2.291-.769-.538-1.291.017-3.616 4.333-3.992 4.799-.573 1.164-.052 1.613 2.379 2.058 2.775 2.327.715.32.949.32c.646 0 .752-.356 1.271-.356.428 0 1.112.339 1.112 1.11 0 .483-.29.895-.684 1.412a156.14 156.14 0 0 1-3.044 3.708c-.408.466-.784.626-1.092.626s-1.144-.286-1.144-1.112c0-.783.161-.82.161-1.197 0-.302-.267-.538-.572-.804s-8.218-6.822-8.596-7.092m118.244-12.841c-.333.43-.8.918-.8 1.276 0 .775.657 1.29.718 1.816.093.804-.524 1.219-1.16 1.219-.482 0-1.311-.337-2.073-.84l-3.606-2.482c-.494-.376-1.076-.941-1.123-1.591-.021-.301.095-.987.99-1.132.781-.121 1.232.05 1.85-.068.297-.059.85-.726 1.098-1.051s5.666-7.87 5.947-8.235c.571-.753.63-1.082.63-1.493 0-.655-.602-.947-.686-1.732-.066-.607.389-1.274 1.044-1.274.372 0 .933.164 1.565.594l4.238 2.961c1.001.745 1.029 1.415.896 1.766-.217.563-.719.705-1.423.667-.805-.039-1.267.11-1.767.787l-6.338 8.812m-76.33-21.276c-.234-.929-.322-1.342-.645-1.592-.329-.251-1.362-.268-1.768-.583a1.12 1.12 0 0 1-.292-1.376c.211-.414 1.004-.692 1.396-.787l3.794-.897c.401-.077.881.104 1.193.314l10.885 7.326c.41.281.824.243.671-.443l-1.359-6.05c-.168-.726-.673-1.164-1.496-1.443-.309-.1-.853-.49-.853-1.064 0-.417.235-.924.997-1.182.622-.214 4.557-1.135 5.03-1.225.642-.124 1.19-.171 1.69.188a1.02 1.02 0 0 1 .127 1.52c-.288.316-.857.805-.591 1.914l3.153 13.571c.186.827.173 1.347-.136 1.73-.376.465-1.057.726-2.372-.151l-12.785-8.63c-.527-.367-.92-.171-.761.55l1.729 7.688c.106.472.201.75.428.938.4.325.926.329 1.336.643a1.07 1.07 0 0 1 .134 1.46c-.308.376-1.248.764-1.876.951s-3.205.901-3.817 1.017c-.564.108-1.608.136-2.052-.156-.256-.166-.709-.715-.131-1.457.36-.46.631-.743.816-1.072.165-.301-.046-1.291-.118-1.62l-2.327-10.082m88.469 19.305c.693-.663 1.16-1.098 1.182-1.458.04-.595-.344-1.248-.276-1.752.069-.462.539-.826 1.124-.812.477.013 1.046.532 1.322.822l1.711 1.826c.265.31.428.924.4 1.298-.163 2.022-1.237 11.369-1.465 13.343-.059.495.262.745.718.364s3.701-3.292 4.797-4.297c.548-.504.966-.932.61-1.72-.161-.351-.103-1.113.394-1.395.36-.205.936-.212 1.54.322.492.439 3.136 3.38 3.446 3.748.425.496.777.953.707 1.479-.069.51-.519.931-1.219.824-.496-.072-1.194-.464-1.95.224l-10.229 9.456c-.636.563-1.19.817-1.68.741-.589-.098-1.325-.68-1.216-2.256.124-1.753 1.429-13.315 1.504-14.145.058-.64-.308-.825-.856-.328l-5.122 4.519c-.36.326-.553.543-.605.838-.088.501.262 1.162.14 1.665-.147.585-.703.873-1.277.776-.478-.078-1.117-.647-1.588-1.096s-2.174-2.36-2.58-2.83c-.374-.434-.972-1.33-.943-1.862.017-.303.29-1.009 1.221-.872.58.086.868.345 1.239.288.311-.049 1.059-.656 1.315-.884l7.636-6.827m-35.111-21.744c.217-.609.456-1.081.297-1.542-.14-.392-.484-.678-.612-1.126a.96.96 0 0 1 .489-1.119c.417-.208.755-.152 1.326.04s4.675 2.031 4.988 2.197c.357.194.673.454.682.832.013.499-.106.886-.825 1.053-.784.183-1.006.195-1.316.879l-1.993 4.35c-.146.471-.134.91.638 1.341s5.487 2.484 5.942 2.667c.462.185 1.122.254 1.384-.24.281-.525 1.788-3.834 1.899-4.107s.359-.659.359-1.038c0-.32-.163-.596-.441-.791a1.13 1.13 0 0 1-.446-.91c0-.734.698-1.127 1.45-.821l5.092 2.131c.339.15.816.456.816.858 0 .779-.466.986-.758 1.002s-.568.108-.89.303c-.197.122-.548.635-.679.95s-4.27 9.722-4.554 10.295-.647 1.341-.559 1.844c.071.388.381.688.537 1.127.269.754-.41 1.217-.911 1.217-.644 0-1.712-.386-3.293-1.089-1.648-.737-3.315-1.342-3.315-2.31 0-.574.378-.897.842-1.003.531-.123.785-.1 1.093-.187s.527-.222.734-.674l1.503-3.33c.135-.317.301-.939-.374-1.29-.678-.344-5.749-2.526-6.294-2.76-.553-.236-1.094-.177-1.386.444l-1.423 3.185c-.15.451-.174.775-.111 1 .175.62.492.613.633 1.113a1.06 1.06 0 0 1-.766 1.311c-.465.13-1.122-.094-1.728-.331s-3.652-1.522-4.213-1.8c-.593-.297-.762-.336-.898-.819-.084-.29-.129-1.119.664-1.343.758-.214.949-.077 1.291-.233.193-.087.501-.724.677-1.09s4.29-9.752 4.449-10.186M72.583 37.53c-.406-.416-.645-.44-1.323-.356-.392.049-.863-.142-1.075-.288l-13.808-9.092c-.593-.296-.817-.266-1.483.107l-2.075 1.396c-.358.215-.288.61-.249 1.001s3.282 16.386 3.304 16.748c.021.391-.348.668-.489 1.131s-.104.937.238 1.315c.238.26.883.344 1.278.118.43-.25 3.803-2.564 4.237-2.996.537-.537.608-1.146.168-1.553-.383-.348-.899-.223-1.109-.298-.217-.069-.361-.32-.432-.573s-.359-1.715-.429-2.255 0-1.146.322-1.43a51.27 51.27 0 0 1 3.295-2.259c.314-.171.773-.195 1.002-.036.249.181 2.111 1.291 2.363 1.506s.427.251.427.607-.212.382-.356.669a1.01 1.01 0 0 0 .178 1.088c.305.305.994.331 1.528.058.608-.31 4.094-2.992 4.454-3.352.255-.259.478-.802.034-1.256m-11.797-.617c-.234.186-1.18.871-1.568 1.101s-.68.056-.768-.312c-.062-.249-.503-2.148-.557-2.477s-.109-.488.091-.628.367-.082.67.095a76.8 76.8 0 0 1 2.075 1.354c.319.214.288.68.057.867m46.101-23.384c-4.372 0-6.982 2.064-6.982 4.464 0 .56-.112 3.854 5.691 5.823 3.38 1.149 6.016 2.252 6.016 4.287 0 .895-.417 2.185-3.354 2.185-3.079 0-4.771-2.032-5.455-2.783s-.928-.965-1.644-.965-1.587.728-2.198 1.334-2.279 2.391-1.493 3.426c.433.572 1.038.439 1.65.25.462-.14 1.431-.679 2.217-.679 1.661 0 4.869 2.543 9.453 2.543 4.118 0 6.875-2.434 6.875-5.194 0-2.754-1.941-4.132-3.937-5.119-2.698-1.337-8.45-1.813-8.45-4.871 0-1.526 1.716-2.087 2.969-2.087 1.612 0 2.722.657 4.155 1.695s2.696 1.945 3.881 1.945 3.244-2.015 3.244-3.627c0-.511-.347-1.005-1.11-1.005-.498 0-2.041 1.289-2.936 1.289-1.491 0-3.778-2.911-8.592-2.911" fill="#fff"/><path d="M102.796 163.206c33.379 0 60.438-27.058 60.438-60.436s-27.059-60.439-60.438-60.439-60.438 27.061-60.438 60.439 27.062 60.436 60.438 60.436" fill="#e8380d"/><path d="M98.627 62.882a17.84 17.84 0 0 0-6.454.603c2.062-.572 4.252-.694 6.454-.603" fill="#221815"/><path d="M63.448 76.456c-.908 2.993-3.1 5.536-2.518 8.769.797 3.668 3.103 7.145 2.179 10.784a5.39 5.39 0 0 0-.109.431c1.123-2.403 2.081-4.805 1.984-7.423.028-1.751-.816-3.524-1.224-5.502-.423-.883-.189-1.537-.174-2.412.236-.873 1.149-3.052 2.005-1.721 1.072 1.333 1.026 3.964 2.773 4.215 3.068.275 2.269-4.347 2.308-6.538-.174-2.632-2.321-5.302-.958-7.908.91-1.96 3.329-2.352 5.301-2.319 1.535.024 3.498.717 4.123 2.481.63 1.547-.715 3.279.362 4.393 3.214 4.221 6.619-2.295 9.933-3.991.886-.425 1.545-.631 2.433-1.057 2.208-1.055 4.608-.355 7.023-.534 1.1-.197 2.219-1.496 1.136-2.172-2.376-2.016-5.693-.54-8.34.513-1.099.198-2.2.4-3.296.16-.431-.225-.639-.89-.414-1.1a12.05 12.05 0 0 1 3.116-1.692l-.559.2c-1.515.62-3.017 1.288-4.54 1.641-1.728.398-3.24.804-4.961.989-2.152-.038-4.299-.075-6.433-.756-1.924-.679-3.636-1.139-5.336-2.243-1.278-.667-2.339-1.33-3.612-2.427-1.273-.883-2.986-1.342-4.086.145-.659.848-1.106 1.913-1.341 2.982-.707 3.428 1.827 6.05 3.069 8.864.41 1.085.392 2.158.156 3.229m80.175 11.627c1.862-1.393 1.744-1.84 1.994-3.101s-.179-1.934-.177-2.152c-1.042-1.952-1.437-3.893-.754-6.033 1.122-2.772 3.511-4.235 4.841-6.572 1.329-2.129-1.212-4.322-3.134-5.003-1.284-.451-2.788-.477-4.081-.285-4.099.788-7.373 3.956-11.662 3.236-2.784-.481-5.342-1.596-8.343-2.295-3.631-1.139-6.884.523-10.524-.399l-10.267-2.756c-1.059-.234-1.918.167-2.77.164a48.34 48.34 0 0 1 3.081.247c3.722.281 6.523 3.181 10.006 4.558.872.235 1.748.248 2.625.262 2.402.482 3.908 2.263 6.084 3.177 1.307.465 3.043 1.368 4.383.079.451-.65.026-1.535.043-2.412.005-.218.228-.435.443-.429 1.757.027 3.488 1.155 5.25.746.881-.204 1.543-.411 2.422-.613 3.074-.169 6.159-1.21 8.991-.064 1.959.914-.501 3.498-1.403 5.019-.917 2.397 1.233 4.624.973 7.033-.23.653-.692 1.959-1.559 1.506s-1.511-1.343-1.5-2.217c-.408-1.545-.602-3.079-1.235-4.407-.643-.89-1.723-1.783-2.828-1.365-1.987.842-3.564 3.225-2.058 5.006 4.28 5.774 12.181 8.932 16.186 16.156-1.332 1.074-3.917.584-5.453.781l-4.673-1.697c-1.31-.243-3.448-1.375-4.565-.079-1.347 1.728-1.821 3.472-.76 5.462.208.661 1.071 1.335 1.719 2.003 1.81 1.34 3.766 1.322 5.006 2.059 1.082.677 1.722 1.785 1.482 3.096-.472 1.964-1.815 3.477-3.588 4.542-1.547.63-3.308 1.038-5.059.79-5.245-.752-8.919-3.886-13.254-6.591-1.951-1.349-4.598-.519-6.596.98-4.449 3.648-5.638 8.892-9.011 13.655-.895 1.081-1.351 2.169-2.672 2.585 0 0-.439-.229-.434-.448.526-5.032 3.014-9.372 5.942-13.708 1.571-1.946 3.139-3.891 5.343-4.731 3.973-1.464 8.107.361 11.798 2.4 1.085.676 2.831.927 3.51-.158.46-1.084-.842-1.986-1.719-2.003-2.618-.703-5.693-.32-7.627-2.541-.208-.664.454-1.091.895-1.085 4.393-.579 7.622 2.763 11.324 4.364 1.089.457 3.054.932 3.296-.381.478-2.402-2.796-3.118-4.538-3.808-2.611-1.14-5.248-.967-7.631-2.542-.43-.447-.858-.894-.63-1.548s.889-.862 1.549-.628c1.953.913 5.618 4.481 6.55 1.426.244-1.308-1.499-1.996-2.807-2.457-2.181-.694-4.356-1.83-6.315-2.521-2.832-1.148-5.897-1.201-8.552.067-2.875 1.487-4.68 4.307-5.608 7.36-1.151 3.266-2.086 6.539-3.025 10.031-.711 3.058-1.424 6.112-3.444 8.709-1.34 1.51-2.243 3.031-3.152 4.769-2.485 4.341-3.014 9.374-1.121 14.01.428.668 1.3.902 1.964.694.437-.212.446-.65.674-1.085.483-2.624-1.222-5.285.569-7.443a1.06 1.06 0 0 1 1.309.458c.606 2.861-1.193 5.461-.808 8.539 1.001 5.497 6.426 8.66 11.698 8.097 5.932-.774 11.23-2.874 17.141-2.334.876.236 1.746.47 2.399.702 1.302.68 1.943 1.79 2.578 3.113v.003c-.844-3.546-3.611-7.605-3.611-7.605l.808-1.829s2.861.312 3.723.111c1.451-.344 1.961-.54 2.971-2.239.668-1.279 3.309-1.399 3.672-3.135.322-1.538-.217-1.785-.217-3.096 0-2.411 3.493-1.806-.662-7.841-.272-.397-.382-1.348-.161-1.772 1.781-3.408 4.044-5.518 6.25-8.918 1.102-1.697 1.637-2.205 2.35-4.176.536-1.47.919-2.269 1.41-3.736.571-1.718 1.076-3.435 1.076-6.551 0-3.439-6.34-9.205-6.34-9.205" fill="#241a17"/><path d="M91.223 63.787l.58-.192-.58.192" fill="#221815"/><path d="M91.866 68.657l-2.433 1.057c-3.314 1.696-6.719 8.212-9.933 3.991-1.077-1.114.268-2.846-.362-4.393-.625-1.764-2.588-2.457-4.123-2.481-1.971-.033-4.391.359-5.301 2.319-1.363 2.606.784 5.276.958 7.907-.039 2.192.76 6.814-2.308 6.538-1.747-.25-1.701-2.881-2.773-4.214-.856-1.331-1.769.848-2.005 1.72-.015.877-.249 1.531.174 2.413.408 1.979 1.252 3.751 1.224 5.502.147 3.95-2.105 7.417-3.703 11.116-1.59 3.043-4.261 5.41-5.191 8.463-.917 2.394 1.678 4.413.973 7.031-.24 1.309-.698 2.4-.721 3.715-.009.438.199 1.1.627 1.545 4.325 3.584 6.434 8.222 8.982 13.091.849 1.551 2.592 2.238 4.114 2.923 7.851 2.329 15.945 3.35 23.326 7.643 4.991 2.938 8.195 7.817 13.183 10.969 4.125 2.267 8.931 3.228 13.34 1.771 3.31-1.257 6.615-2.076 9.921-3.116 2.43-.835 3.573-3.664 2.52-6.094-.635-1.323-1.276-2.434-2.578-3.113-.653-.233-1.523-.466-2.399-.702-5.911-.54-11.209 1.56-17.141 2.334-5.272.563-10.697-2.6-11.698-8.097-.385-3.078 1.414-5.678.807-8.539-.212-.443-.868-.671-1.308-.458-1.791 2.158-.086 4.819-.569 7.443-.228.435-.237.873-.674 1.085-.664.208-1.536-.026-1.964-.694-1.893-4.636-1.364-9.669 1.121-14.01.909-1.738 1.811-3.26 3.152-4.769 2.02-2.597 2.733-5.651 3.444-8.709.939-3.493 1.874-6.765 3.025-10.032.928-3.052 2.732-5.872 5.607-7.359 2.656-1.269 5.721-1.215 8.553-.067 1.959.691 4.134 1.827 6.315 2.521 1.308.462 3.05 1.149 2.807 2.458-.932 3.055-4.597-.514-6.551-1.426-.659-.234-1.318-.024-1.548.628s.2 1.101.63 1.548c2.382 1.575 5.02 1.401 7.63 2.542 1.743.689 5.017 1.406 4.538 3.808-.241 1.313-2.207.838-3.295.38-3.703-1.6-6.931-4.942-11.325-4.363-.44-.007-1.102.421-.894 1.085 1.933 2.221 5.009 1.838 7.627 2.541.877.017 2.178.919 1.719 2.003-.679 1.085-2.425.834-3.51.157-3.692-2.039-7.825-3.863-11.798-2.399-2.204.84-3.773 2.785-5.343 4.73-2.929 4.336-5.416 8.677-5.942 13.708-.005.22.433.449.433.449 1.322-.416 1.778-1.504 2.673-2.585 3.373-4.763 4.562-10.007 9.011-13.656 1.998-1.499 4.644-2.329 6.596-.979 4.335 2.705 8.008 5.839 13.254 6.591 1.751.248 3.512-.16 5.059-.79 1.773-1.065 3.115-2.578 3.588-4.542.24-1.311-.4-2.419-1.482-3.096-1.241-.737-3.196-.719-5.006-2.06-.648-.668-1.511-1.341-1.719-2.003-1.062-1.99-.587-3.733.76-5.461 1.117-1.296 3.255-.164 4.565.079l4.673 1.697c1.536-.197 4.538-.144 5.876-1.215-4.163-7.764-12.329-9.948-16.609-15.723-1.506-1.78.071-4.164 2.058-5.005 1.105-.418 2.185.475 2.827 1.365.634 1.328.828 2.862 1.236 4.407-.011.874.632 1.767 1.5 2.217s1.329-.854 1.559-1.506c.26-2.409-1.89-4.636-.973-7.033.902-1.522 3.362-4.106 1.403-5.019-2.832-1.146-5.917-.105-8.991.064-.879.202-1.541.409-2.422.613-1.762.409-3.493-.719-5.25-.746-.215-.006-.439.211-.443.429-.017.877.408 1.761-.043 2.412-1.34 1.289-3.077.385-4.383-.079-2.176-.914-3.682-2.696-6.084-3.177-.877-.014-1.753-.027-2.625-.262-3.484-1.377-6.284-4.277-10.006-4.558-4.816-.524-9.857-.614-13.853 2.389-.225.21-.017.875.414 1.1 1.096.24 2.197.038 3.296-.16 2.647-1.053 5.964-2.53 8.34-.513 1.083.676-.036 1.975-1.136 2.172-2.415.179-4.815-.522-7.023.534" fill="#ffe100"/><path d="M117.198 111.742c-.765.762-2.329.585-2.329 2.04 0 .705 1.076.849 1.076 1.351 0 .953-1.877 4.952-2.554 5.943-1.088 1.584-.54 1.908.742.811 4.122-3.547 4.197-7.603 6.825-7.603 1.753 0 2.075 1.372 2.971 1.372s1.066-.387 1.942-.387c2.304 0 1.883 2.304 3.437 2.304.609 0 .789-.36 1.928-.36s1.753 1.624 2.406 1.624 1.399 0 1.399.794c0 .958-.888 2.346-1.433 3.507-.503 1.067-1.622 2.49-1.657 3.18 2.669-1.218 3.904-4.896 5.593-5.926.462-.282.748-.961.541-1.393-.683-1.067-.423-1.346-.378-1.918.015-.214-.146-.463-.361-.464-.642-.016-.928.437-1.691.229-.976-.266-1.005-.959-1.674-1.216-.627-.243-1.516.08-1.887-.036-.725-.225-.951-1.002-1.335-1.123-.384-.112-.849.064-1.351.064-1.206 0-1.088-1.361-1.921-1.361-.619 0-.576.406-1.423.406-1.563 0-1.119-1.709-2.505-1.709-.927 0-1.396.381-1.993.381-1.227 0-1.122-1.955-2.587-1.955-.99 0-1.029.692-1.781 1.445" fill="#fff"/><path d="M143.658 106.216c-.711 1.535-2.981 6.255.023 6.562 1.288.134 3.116-3.482 3.629-4.603.695-1.505 1.386-3.416 1.721-4.68.14-.533.093-1.265-1.268-1.265s-3.34 2.34-4.105 3.986" fill="#ffe100"/><path d="M147.164 87.386c.677 1.589 2.049 3.697 2.111 4.102 0 0 .029-1.543-.12-2.723-.204-1.629-.34-2.143-.745-3.44-.204-.644-.806-1.91-1.856-1.41-.746.36-.086 1.838.61 3.471m2.83-.356c.786 2.804.804 5.694.804 5.694 2.893-6.063.139-11.887-1.244-11.467-1.909.575-.045 4.068.44 5.773" fill="#fff"/><path d="M123.462 136.172c-3.865 0-7.897 2.107-9.307 2.721s-5.412 1.384-6.049 1.433c-1.83.145-3.941.073-3.941.861 0 .634 3.128.786 4.693.786 3.112 0 7.589-2.935 12.565-2.935 1.719 0 4.583.572 5.691 1.001s1.289-2.935 1.289-2.935-1.609-.932-4.941-.932" fill="#e60012"/><path d="M137.118 135.767c.804-.411 2.938-.955 2.938-3.03 0-1.171-.292-1.062-.292-2.379s1.253-2.126 1.495-3.22c.03-1.754-1.481-3.312-2.329-4.864-2.675 2.585-6.203 3.84-8.448 6.65-1.343 1.511-2.438 3.704-1.754 5.874.643 2.049-.118 3.703 1.11 3.955 2.578.526 4.103.163 5.156-.596 1.903-1.225 1.145-1.887 2.124-2.39" fill="#ffe100"/><path d="M81.965 99.421l-5.27 6.353c-1.315 1.482-1.99 3.189-3.308 4.886-2.646 3.822-1.002 7.936.442 11.614.198.865.161 3.013-1.337 2.77-1.071-.234-1.699-1.318-2.331-2.19-1.864-3.902-3.083-8.007-2.578-12.295 1.217-7.933 7.322-12.983 11.94-19.135 2.197-2.756.107-6.017.588-9.016.013-.647.672-1.493 1.523-1.049 3.185 2.205 3.545 6.295 3.483 9.733.163 3.013-1.173 5.783-3.152 8.329m9.952-3.911c1.121-1.601 2.564-2.631 3.493-3.163s4.782-2.926 6.693-1.605c1.912 1.327-1.887 2.781-2.616 3.145s-1.321.87-2.41 1.498c-.87.632-2.621 2.534-1.343 2.984.858.232 2.396-1.463 3.891-1.221.643.226 1.276.882 1.044 1.741-.219.425-.657.846-1.096 1.267l-3.493 4.149-3.19 3.211c-1.474 1.467-3.633 4.928-4.095 6.849-.251 2.15 1.001 4.105.32 6.243l-1.82 5.77c-.262 2.79.986 5.173 2.019 7.556.409 1.085.817 2.38-.061 3.439-.439.42-1.081.409-1.507.187-3.803-3.721-6.303-8.275-7.074-13.449-1.173-6.677 3.998-13.593 6.535-17.293s3.593-9.706 4.71-11.308" fill="#241a17"/><path d="M87.542 93.536c.213-1.742 2.542-1.719 3.795-1.445 1.609.321 5.828 1.067 7.753 2.399l-2.771.204c-3.019.198-8.993.581-8.777-1.158m5.076 6.431c-3.017-.054-7.278-.301-7.516 1.186s1.38 1.119 1.727 1.149c.579.05 6.981-.163 12.311-1.467-2.254-.541-4.258-.831-6.522-.868m.854 4.873c-2.011-.035-5.063.896-4.773 2.777.41 2.703 11.168-2.259 12.368-2.8l-7.595.023" fill="#fff"/><path d="M98.519 74.349c-2.211 1.057-4.333 2.072-5.444 4.202-.449 1.067.176 2.15 1.244 2.6.638.226 1.289.021 1.94-.396 3.038-1.664 6.97-5.252 10.351-1.968 2.157-.39 4.952-.557 6.203 1.83 1.037 1.95.777 4.524-1.178 5.779-2.172 1.468-4.526.782-6.694 1.82-.863.199-1.723.184-2.576-.262-2.77-1.338-4.868-4.17-8.297-4.659-2.361-.257-4.746.994-6.869-.547-2.546-1.982-.982-5.39 1.197-7.074 1.306-.836 2.802-.381 3.889-1.219 1.534-1.478 3.061-2.743 5.004-3.355 1.726-.399 5.158-.121 4.687 2.234-.236 1.285-2.159.393-3.457 1.015m26.699 9.492c1.515 1.045 4.49 1.584 3.8 3.934-.898 2.35-3.699 2.729-5.826 1.619-1.281-.669-2.77-1.554-4.065-1.149s-2.177 1.47-3.468 1.659c-1.076-.016-2.561-1.117-2.11-2.398.886-1.49 1.99-2.976 2.018-4.692.019-1.075-.178-2.154-.808-3.024-2.095-3.047-5.981-2.042-8.08-4.87-1.687-1.965.503-4.289 2.668-5.111 3.025-1.02 5.131 1.592 7.03 3.561 1.695 1.321 3.628 1.568 5.771 1.818 1.074.022.832 1.519.401 1.731-2.605 1.456-5.369-.312-7.932-1.216-.216-.003-.859-.228-.864.203.207.432.845.871 1.271 1.091 2.141.469 4.498.943 5.097 3.316.183 1.937-.715 4.07 1.203 5.178.424.224 1.073.019 1.296-.406.004-.431.23-.858.022-1.292-.623-1.297-1.889-2.611-1.434-4.107.222-.425 1.085-.625 1.513-.404 1.063.665 1.044 1.74 1.027 2.815.199.647.836 1.304 1.47 1.744" fill="#241a17"/><path d="M108.194 86.55c1.771-.746 2.625-2.533 2.224-4.258s-2.106-2.401-3.816-2.861c-1.933-.249-3.883.578-4.765 2.067-.668 1.279-.48 2.783.793 3.667 1.703 1.104 3.615 2.21 5.564 1.385" fill="#fff"/><path d="M108.02 84.185c-1.493.186-2.121-1.543-1.883-2.827.22-.214.226-.643.66-.849.862-.199 1.508-.188 2.133.686.628 1.083.6 2.801-.91 2.99" fill="#241a17"/><path d="M128.83 135.7c-.771 1.824-2.207 3.188-2.028 5.339.206.432.846.874 1.282.451 1.307-1.053 1.768-2.763 2.222-4.259s.92-3.425-.131-4.731c-.874.843-.896 2.13-1.345 3.2m-16.32-.352c-.132-1.298-.304-2.952-1.362-3.83-.647 1.003-.181 6.554-1.397 10.597-.062.21.396.611.788.717 1.058.29 1.665-.541 1.896-1.608.034-1.936.287-3.691.075-5.876" fill="#fff"/><path d="M137.798 102.158c.307.543.896 1.03 1.447.836 1.112-.792 1.741-2.027 2.852-2.819 1.105-.589 3.232-1.361 3.435-2.573.58-1.816-1.154-3.782-3.216-2.655-1.565.859-3.631 1.106-5.239.628-1.41-.341-4.179-2.558-5.902-.506-.934 1.204-.318 2.352.578 3.38 1.613 1.655 4.873 1.628 6.045 3.709" fill="#f7ab00"/></svg>